<svg xmlns="http://www.w3.org/2000/svg" width="77.5" height="77.5" viewBox="0 0 77.5 77.5">
  <g id="Group_1116929" data-name="Group 1116929" transform="translate(-853.833 -480.985)">
    <path id="Path_893367" data-name="Path 893367" d="M20.034,31.184S8.78,17.575,17.2,10.558c9.056-7.545,18.2,8.114,18.2,8.114S39.684-2.224,50.585.194s2.562,24.185,2.562,24.185,15.832-8.293,22.985,3.107-16.06,15.331-16.06,15.331,17.352,13.5,8.225,24.744c-10.059,12.393-23.375-7.4-23.375-7.4S42.975,82.106,28.258,76.619c-15.121-5.638-6.493-26.778-6.493-26.778S2.071,55.987.172,44.069C-1.8,31.711,13.681,31.014,20.034,31.184" transform="translate(853.833 480.985)" fill="#2ee8e8"/>
    <path id="Path_893368" data-name="Path 893368" d="M30.315,36.018a7.138,7.138,0,1,0,7.138-7.138,7.139,7.139,0,0,0-7.138,7.138" transform="translate(857.028 484.59)" fill="#fcdf8e"/>
    <path id="Elipse_11764" data-name="Elipse 11764" d="M13.179-.5a13.679,13.679,0,0,1,9.673,23.351A13.679,13.679,0,1,1,3.507,3.506,13.59,13.59,0,0,1,13.179-.5Zm0,26.419A12.741,12.741,0,1,0,.438,13.179,12.755,12.755,0,0,0,13.179,25.919Z" transform="translate(880.851 507.807)" fill="#6b4502"/>
  </g>
</svg>
