<svg xmlns="http://www.w3.org/2000/svg" xmlns:xlink="http://www.w3.org/1999/xlink" width="99" height="99" viewBox="0 0 99 99">
  <defs>
    <clipPath id="clip-path">
      <rect id="Rectangle_401223" data-name="Rectangle 401223" width="99" height="99" transform="translate(0)" fill="#8ce6fe"/>
    </clipPath>
    <clipPath id="clip-path-2">
      <rect id="Rectangle_401223-2" data-name="Rectangle 401223" width="88.539" height="88.539" fill="#f3f9ff"/>
    </clipPath>
    <clipPath id="clip-path-3">
      <rect id="Rectangle_409180" data-name="Rectangle 409180" width="62.5" height="58.179" fill="none"/>
    </clipPath>
  </defs>
  <g id="Group_1119260" data-name="Group 1119260" transform="translate(-619.921 -5755.871)">
    <g id="Group_1100724" data-name="Group 1100724" transform="translate(619.921 5755.871)">
      <g id="Group_1099654" data-name="Group 1099654" transform="translate(0 0)">
        <g id="Mask_Group_1099652" data-name="Mask Group 1099652" clip-path="url(#clip-path)">
          <path id="Path_873521" data-name="Path 873521" d="M99,77.066A22,22,0,0,1,77.066,99H21.934A22,22,0,0,1,0,77.066V21.933A22,22,0,0,1,21.934,0H77.066A22,22,0,0,1,99,21.934Z" transform="translate(0)" fill="#ffdcd6"/>
        </g>
      </g>
      <g id="Group_1099659" data-name="Group 1099659" transform="translate(4.77 5.723)">
        <g id="Group_1099652" data-name="Group 1099652" transform="translate(0 0)" clip-path="url(#clip-path-2)">
          <path id="Path_873521-2" data-name="Path 873521" d="M88.539,68.922A19.674,19.674,0,0,1,68.923,88.539H19.616A19.674,19.674,0,0,1,0,68.922V19.616A19.674,19.674,0,0,1,19.616,0H68.923A19.674,19.674,0,0,1,88.539,19.616Z" fill="#f3f9ff"/>
        </g>
      </g>
    </g>
    <g id="Group_1100725" data-name="Group 1100725" transform="translate(636.343 5771.293)">
      <rect id="Rectangle_401104" data-name="Rectangle 401104" width="68" height="69" transform="translate(0.29 -0.295)" fill="none"/>
      <g id="Group_1119457" data-name="Group 1119457" transform="translate(3.29 5.706)">
        <g id="Group_1119456" data-name="Group 1119456" transform="translate(0 0)" clip-path="url(#clip-path-3)">
          <path id="Path_925401" data-name="Path 925401" d="M45.435,2.457,28.686,31.466a4.913,4.913,0,0,0,4.254,7.37h33.5a4.913,4.913,0,0,0,4.254-7.37L53.944,2.457a4.913,4.913,0,0,0-8.509,0" transform="translate(-8.858 0)" fill="#bf412b"/>
          <path id="Path_925402" data-name="Path 925402" d="M61.448,44.8a3.242,3.242,0,1,1-3.242-3.242A3.242,3.242,0,0,1,61.448,44.8" transform="translate(-17.375 -13.136)" fill="#fff"/>
          <rect id="Rectangle_409178" data-name="Rectangle 409178" width="4.458" height="18.237" transform="translate(38.602 8.205)" fill="#fff"/>
          <rect id="Rectangle_409179" data-name="Rectangle 409179" width="5.146" height="3.636" transform="translate(10.907 43.902) rotate(-48.095)" fill="#2a2b2b"/>
          <path id="Path_925403" data-name="Path 925403" d="M10.3,63.4.711,73.781c-2.32,2.584,1.576,6.136,3.923,3.521l9.587-10.386Z" transform="translate(0 -20.04)" fill="#eebc32"/>
          <path id="Path_925404" data-name="Path 925404" d="M27.416,53.378A15.782,15.782,0,1,1,45.088,39.743,15.789,15.789,0,0,1,27.416,53.378" transform="translate(-4.313 -6.935)" fill="#4b4c4c"/>
          <path id="Path_925405" data-name="Path 925405" d="M41.18,53.816l7.031-20.448A12.841,12.841,0,0,1,41.18,53.816" transform="translate(-13.017 -10.548)" fill="#57cbea"/>
          <path id="Path_925406" data-name="Path 925406" d="M40.868,31.113,33.837,51.561a12.845,12.845,0,1,1,7.031-20.448" transform="translate(-5.674 -8.293)" fill="#85d7e0"/>
          <path id="Path_925407" data-name="Path 925407" d="M24.062,41.832a2.119,2.119,0,1,1,1.029-2.816,2.119,2.119,0,0,1-1.029,2.816" transform="translate(-6.654 -11.946)" fill="#a0eef2"/>
        </g>
      </g>
    </g>
  </g>
</svg>
