<svg xmlns="http://www.w3.org/2000/svg" xmlns:xlink="http://www.w3.org/1999/xlink" width="99" height="99" viewBox="0 0 99 99">
  <defs>
    <clipPath id="clip-path">
      <rect id="Rectangle_401223" data-name="Rectangle 401223" width="99" height="99" transform="translate(0)" fill="#8ce6fe"/>
    </clipPath>
    <clipPath id="clip-path-2">
      <rect id="Rectangle_401223-2" data-name="Rectangle 401223" width="88.539" height="88.539" fill="#f3f9ff"/>
    </clipPath>
    <clipPath id="clip-path-3">
      <rect id="Rectangle_409143" data-name="Rectangle 409143" width="55.416" height="65.78" fill="none"/>
    </clipPath>
  </defs>
  <g id="Group_1119145" data-name="Group 1119145" transform="translate(-619.921 -5755.871)">
    <g id="Group_1100724" data-name="Group 1100724" transform="translate(619.921 5755.871)">
      <g id="Group_1099654" data-name="Group 1099654" transform="translate(0 0)">
        <g id="Group_1099652" data-name="Group 1099652" clip-path="url(#clip-path)">
          <path id="Path_873521" data-name="Path 873521" d="M99,77.066A22,22,0,0,1,77.066,99H21.934A22,22,0,0,1,0,77.066V21.933A22,22,0,0,1,21.934,0H77.066A22,22,0,0,1,99,21.934Z" transform="translate(0)" fill="#ffdcd6"/>
        </g>
      </g>
      <g id="Group_1099659" data-name="Group 1099659" transform="translate(4.77 5.723)">
        <g id="Group_1099652-2" data-name="Group 1099652" transform="translate(0 0)" clip-path="url(#clip-path-2)">
          <path id="Path_873521-2" data-name="Path 873521" d="M88.539,68.922A19.674,19.674,0,0,1,68.923,88.539H19.616A19.674,19.674,0,0,1,0,68.922V19.616A19.674,19.674,0,0,1,19.616,0H68.923A19.674,19.674,0,0,1,88.539,19.616Z" fill="#f3f9ff"/>
        </g>
      </g>
    </g>
    <g id="Group_1100725" data-name="Group 1100725" transform="translate(636.343 5771.293)">
      <rect id="Rectangle_401104" data-name="Rectangle 401104" width="68" height="69" transform="translate(0.29 -2.115)" fill="none"/>
      <g id="Group_1119373" data-name="Group 1119373" transform="translate(6.29 -0.295)">
        <g id="Group_1119372" data-name="Group 1119372" clip-path="url(#clip-path-3)">
          <path id="Path_924944" data-name="Path 924944" d="M33.135,118.028c-7.547,4.357-19.82,4.335-27.414-.05s-7.632-11.47-.086-15.828,19.82-4.334,27.414.05,7.633,11.471.086,15.828" transform="translate(0 -55.501)" fill="#dee4f0"/>
          <path id="Path_924945" data-name="Path 924945" d="M30.414,23.608a17.505,17.505,0,0,1-.545,3.4,21.9,21.9,0,0,1-2.531,5.081c-.51.868-1.014,1.74-1.518,2.608-.24.416-.486.838-.727,1.254-.152.258-.668.861-.668,1.149A26.526,26.526,0,0,0,22.7,40.416c-1.208,2.965-.861,6.182-.621,9.447.012.176.024.358.035.539,0,.065-.006.123-.011.2a3.859,3.859,0,0,1-2.157,2.731A11.681,11.681,0,0,1,9.37,53.314a3.744,3.744,0,0,1-2.2-3.024c0-.076,0-.158.006-.234s0-.158,0-.24a44.583,44.583,0,0,0-.281-7.659,20.1,20.1,0,0,0-.838-3.516c-.639-1.881-1.542-3.657-2.162-5.556a31,31,0,0,1-1.283-6.1,46.045,46.045,0,0,1,.041-6.165,25.343,25.343,0,0,1,.246-3.586q.4-2.532.651-5.081a15.609,15.609,0,0,1,.814-4.436,2.488,2.488,0,0,1,.627-1,1.469,1.469,0,0,1,1.67-.147,2.27,2.27,0,0,1,.8.961c.076.141.14.287.2.428.018-.082.029-.164.047-.246V7.71c.164-.92.334-1.828.5-2.743A7.462,7.462,0,0,1,8.86,2.711a2.608,2.608,0,0,1,1.775-1.424,1.638,1.638,0,0,1,1.741.873.008.008,0,0,1,0,.012,1.1,1.1,0,0,1,.076.234c.029-.158.059-.3.094-.463V1.937A3.1,3.1,0,0,1,13.061.706a1.936,1.936,0,0,1,2.2-.568,1.915,1.915,0,0,1,1.061,1.2,1.791,1.791,0,0,1,.076.767.133.133,0,0,1,.047-.006,2.025,2.025,0,0,1,2.1,1.207,5.873,5.873,0,0,1,.416,2.614c0,.856.006,1.711.012,2.561v.539c.012,1.131.018,2.256.029,3.387,0,.235-.006.475-.012.709,0,.17-.006.346-.006.516a9.489,9.489,0,0,0,.082,1.688c.17,1.043.475,2.057.563,3.112.058.744.006,1.494.076,2.233a13.519,13.519,0,0,0,1.008,3.551,1.116,1.116,0,0,0,.246.44.887.887,0,0,0,.416.2,2.592,2.592,0,0,0,2.039-.58,2.14,2.14,0,0,0,.662-.733,5.774,5.774,0,0,0,.182-2.045,14.132,14.132,0,0,1,.592-2.051,3.726,3.726,0,0,0,.094-.615V18.8a6.662,6.662,0,0,0-.135-1.178,8.359,8.359,0,0,1,.047-2.508,6.176,6.176,0,0,1,.809-2.274,3.869,3.869,0,0,1,.99-1.143,2.191,2.191,0,0,1,1.424-.445.866.866,0,0,1,.492.176,1.185,1.185,0,0,1,.287.938c.006.1.006.194.012.287a19.826,19.826,0,0,0,.92,5.3,42.321,42.321,0,0,1,.615,5.655" transform="translate(-1.407 0)" fill="#b96d61"/>
          <path id="Path_924946" data-name="Path 924946" d="M13.807,30.307c-.023.4-.211.868-.6.9-.053-.821.269-1.647.152-2.461-.082-.551-.358-1.061-.475-1.606a9.1,9.1,0,0,1-.029-2.151c.006-.639-.065-1.277-.024-1.911.029-.539.135-1.072.211-1.611a13.908,13.908,0,0,0,.193-4.3c.076.14.141.287.205.428.018-.082.029-.164.047-.246a3.506,3.506,0,0,1,.275,1.119,12.018,12.018,0,0,1-.24,2.561,11.361,11.361,0,0,0-.246,2.033c0,.375.047.75.041,1.119-.011.721-.193,1.43-.182,2.151.024,1.348.745,2.631.668,3.973" transform="translate(-7.186 -9.635)" fill="#663c33"/>
          <path id="Path_924947" data-name="Path 924947" d="M23.182,6.338c-.217,1.782-.686,3.522-.844,5.3-.053.563-.012,1.137-.047,1.7-.088,1.272-.592,2.514-.451,3.774.047.445.176.879.217,1.324a6.515,6.515,0,0,1-.047,1.307c-.088.868-.211,1.735-.363,2.59-.023.152-.141.351-.276.281a.258.258,0,0,1-.088-.117,1.874,1.874,0,0,1,.041-1.131,10.1,10.1,0,0,0,.323-2.332c0-.979-.194-1.946-.129-2.918.047-.668.211-1.312.3-1.975a21.542,21.542,0,0,0,.129-2.456,20.6,20.6,0,0,1,.6-3.961,14.947,14.947,0,0,0,.322-3.065,1.1,1.1,0,0,1,.076.234c.029-.158.058-.3.093-.463a6.274,6.274,0,0,1,.141,1.911" transform="translate(-11.902 -2.484)" fill="#663c33"/>
          <path id="Path_924948" data-name="Path 924948" d="M30.36,8.238A18.206,18.206,0,0,0,30.4,10.43a11.288,11.288,0,0,1-.264,2.737,8.733,8.733,0,0,0-.457,2.983c.041.358.147.7.2,1.061a13.84,13.84,0,0,1-.076,2.7,3.275,3.275,0,0,0,.756,2.508.806.806,0,0,1-1.019-.451,2.4,2.4,0,0,1-.111-1.225,18.343,18.343,0,0,0,.023-3.358c-.058-.51-.158-1.014-.187-1.53a11.819,11.819,0,0,1,.105-1.981c.117-1.043.229-2.092.346-3.135.1-.908.2-1.817.387-2.713A5.8,5.8,0,0,1,30.466,6.6c.135-.48.276-.961.416-1.436a11.3,11.3,0,0,0,.457-2.115,1.79,1.79,0,0,1,.076.767.133.133,0,0,1,.047-.006,8.136,8.136,0,0,1-.34,1.541,14.325,14.325,0,0,0-.762,2.883" transform="translate(-16.42 -1.713)" fill="#663c33"/>
          <path id="Path_924949" data-name="Path 924949" d="M8.31,26.761a3.548,3.548,0,0,0-1.592.208,10.29,10.29,0,0,1,1.438.113,2.5,2.5,0,0,1,.832.275,1.24,1.24,0,0,1,.566.649c-.05-.144.069-.332.023-.481a1.008,1.008,0,0,0-.33-.37,1.926,1.926,0,0,0-.938-.394" transform="translate(-3.77 -15.005)" fill="#663c33"/>
          <path id="Path_924950" data-name="Path 924950" d="M7.008,35.448a1.842,1.842,0,0,0-1.02.139,2.963,2.963,0,0,0-1.4.89c.388-.17.777-.341,1.178-.478a2.085,2.085,0,0,1,.85-.147c.731.065,1.142.723,1.772.99-.025-.369-.239-.508-.478-.734a2.006,2.006,0,0,0-.9-.661" transform="translate(-2.573 -19.878)" fill="#663c33"/>
          <path id="Path_924951" data-name="Path 924951" d="M18.551,17.877a5.846,5.846,0,0,0-1.235-.186,2.006,2.006,0,0,0-1.185.331c.57.031,1.141-.072,1.711-.038a1.88,1.88,0,0,1,1.473.714.827.827,0,0,0-.765-.821" transform="translate(-9.053 -9.928)" fill="#663c33"/>
          <path id="Path_924952" data-name="Path 924952" d="M16.1,29.57a2.559,2.559,0,0,0-1.608.537,4.754,4.754,0,0,1,2.559-.007,1.121,1.121,0,0,1,.408.133,1.263,1.263,0,0,1,.226.4,1.574,1.574,0,0,0,.005-.416c-.033-.117-.173-.184-.27-.243a2.641,2.641,0,0,0-1.319-.4" transform="translate(-8.131 -16.595)" fill="#663c33"/>
          <path id="Path_924953" data-name="Path 924953" d="M24.83,14.448a4.136,4.136,0,0,1,1.031.174,14.175,14.175,0,0,1,1.458.451,7.393,7.393,0,0,1-1.735-.308,3.316,3.316,0,0,0-.916-.083,5.74,5.74,0,0,0-.8.226c-.013-.388.7-.461.961-.46" transform="translate(-13.395 -8.108)" fill="#663c33"/>
          <path id="Path_924954" data-name="Path 924954" d="M36.316,19.331v.539a7.467,7.467,0,0,1-2.918-.463,7.259,7.259,0,0,0,1.975.246,1.583,1.583,0,0,0,.821-.17.44.44,0,0,0,.123-.152" transform="translate(-18.743 -10.849)" fill="#663c33"/>
          <path id="Path_924955" data-name="Path 924955" d="M35.735,29.692c0,.17-.006.346-.006.516a2.669,2.669,0,0,0-1.582-.252c-.311.029-.615.088-.926.135-.158.024-.311.047-.469.065a1.668,1.668,0,0,0-.422.029,6.009,6.009,0,0,1,2.549-.645.951.951,0,0,1,.135-.006,1.229,1.229,0,0,1,.721.158" transform="translate(-18.144 -16.574)" fill="#663c33"/>
          <path id="Path_924956" data-name="Path 924956" d="M57.113,44.17a3.245,3.245,0,0,1-2.449.035,3.062,3.062,0,0,1-.891-.375,1.782,1.782,0,0,1-.328-.3,3.725,3.725,0,0,0,.093-.615c.018.029.036.059.053.082a3,3,0,0,0,1.477.955,5.735,5.735,0,0,0,2.045.217" transform="translate(-29.993 -24.084)" fill="#663c33"/>
          <path id="Path_924957" data-name="Path 924957" d="M45.612,51.85a18.772,18.772,0,0,1,.882-2.746c1.126-2.565,3.369-4.557,4.262-7.212a12.989,12.989,0,0,0,.42-1.7,22.005,22.005,0,0,0,.5-5.658,19.322,19.322,0,0,1,.014-5.671,2.648,2.648,0,0,1,.653-1.346,1.927,1.927,0,0,1,2-.326,3.023,3.023,0,0,1,1.512,1.454,7.3,7.3,0,0,1,.63,2.04,25.783,25.783,0,0,1,.451,5.046,25.812,25.812,0,0,0,.189,3.661,7.181,7.181,0,0,0,.859,3.342,6.187,6.187,0,0,0,3.565,2.122,11.661,11.661,0,0,1,3.919,1.536A50.821,50.821,0,0,0,54.25,53.56Q51.3,55.887,48.44,58.328a11.113,11.113,0,0,1-2.882,1.989.825.825,0,0,1-.606.069.8.8,0,0,1-.379-.437c-1.118-2.363.424-5.781,1.04-8.1" transform="translate(-24.792 -15.179)" fill="#b96d61"/>
          <path id="Path_924958" data-name="Path 924958" d="M24.962,53.319a.718.718,0,0,1-.315.548c-.8.446-1.633.838-2.439,1.275A24.247,24.247,0,0,0,19.58,56.8a6.434,6.434,0,0,0-2.326,2.557,1.867,1.867,0,0,0,0,1.692,1.561,1.561,0,0,0,1.072.655,3.273,3.273,0,0,0,1.282-.09,12.6,12.6,0,0,0,2.861-1.151A42.324,42.324,0,0,0,27.652,57.3a13.831,13.831,0,0,0,1.331-1.049,1.453,1.453,0,0,0,.368-.454,1.378,1.378,0,0,0,.086-.621,9.164,9.164,0,0,0-1.91-4.595,2.352,2.352,0,0,0-.581-.663c-1.139-.78-1.68.735-1.793,1.62-.06.467-.068.94-.139,1.406-.018.12-.03.251-.053.378" transform="translate(-9.57 -27.891)" fill="#262626"/>
          <path id="Path_924959" data-name="Path 924959" d="M54.518,69.746c.023-.012.047-.023.072-.033a1.608,1.608,0,0,1,1.217-.022c.226.1.426.248.646.36a6.965,6.965,0,0,0,2.016.427,7.893,7.893,0,0,1,2.515.956,3.3,3.3,0,0,1,1.122.908,1.353,1.353,0,0,1,.166,1.373,1.451,1.451,0,0,1-1.554.6,6.06,6.06,0,0,1-1.631-.707,9.891,9.891,0,0,0-3.179-.994,5.85,5.85,0,0,1-1.165-.218,1.561,1.561,0,0,1-.825-.61c-.081-.146-.025-.194-.018-.341.009-.193-.135-.319-.191-.493-.139-.432.2-.815.528-1.034a2.629,2.629,0,0,1,.28-.173" transform="translate(-30.124 -39.049)" fill="#ffbf00"/>
          <path id="Path_924960" data-name="Path 924960" d="M18.167,73.191a4.029,4.029,0,0,0,2.04.627,24.427,24.427,0,0,0,5.38-.348L33.263,72.4a.532.532,0,0,0,.288-.1.508.508,0,0,0,.128-.34,5.241,5.241,0,0,0-.2-2.06,52.123,52.123,0,0,0-7.435-.692c-.457-.01-.915-.013-1.373-.006a18.923,18.923,0,0,0-5.4.752c-.92.29-2.367.52-2.078,1.825a2.1,2.1,0,0,0,.2.488,2.493,2.493,0,0,0,.783.924" transform="translate(-9.624 -38.834)" fill="#262626"/>
          <path id="Path_924961" data-name="Path 924961" d="M59.738,72.784a1.152,1.152,0,0,1,.825-.154,2.154,2.154,0,0,1,.789.326,3.328,3.328,0,0,1,.73.613,7.032,7.032,0,0,0,.615.713,3.058,3.058,0,0,0,.957.5,17.434,17.434,0,0,1,2.915,1.245c.664.4,1.264.932.937,1.763a1.36,1.36,0,0,1-.262.446,1.648,1.648,0,0,1-.978.4,11.253,11.253,0,0,1-5.4-.495,3.8,3.8,0,0,1-1.192-.613c-.242-.2-.2-.472-.194-.756a3.248,3.248,0,0,0-.118-1.015c-.082-.259-.215-.5-.3-.759-.151-.462.039-.769.125-1.205a1.506,1.506,0,0,1,.547-1.009" transform="translate(-33.116 -40.75)" fill="#fff0c5"/>
          <path id="Path_924962" data-name="Path 924962" d="M37.146,73.5a69.949,69.949,0,0,0-7.263-.82,21.251,21.251,0,0,0-3.176-.008,3.77,3.77,0,0,0-2.612,1.011,1.1,1.1,0,0,0-.268.837,2.781,2.781,0,0,0,.745,1.774,3.4,3.4,0,0,0,1.5.856,8.649,8.649,0,0,0,2.377.236c2.636.005,5.273-.1,7.908.005,1.175.045,2.349.131,3.515.283.271.036.477.161.582-.13a4.712,4.712,0,0,0,.213-.812,4.9,4.9,0,0,0,.005-1.636,1.184,1.184,0,0,0-.194-.532,1.643,1.643,0,0,0-.98-.631q-1.172-.236-2.352-.432" transform="translate(-13.371 -40.75)" fill="#025974"/>
          <path id="Path_924963" data-name="Path 924963" d="M25.828,59.81q-.242.239-.475.487a5.722,5.722,0,0,0-1.163,1.638c-.276.654-.466,1.836.323,2.192a5.037,5.037,0,0,0,2.563.28,25.643,25.643,0,0,0,4.475-.993,28.245,28.245,0,0,0,6.88-2.631A5.069,5.069,0,0,0,40.2,59.212a5.061,5.061,0,0,0,.115-4.22,2.7,2.7,0,0,0-.914-1.46,2.5,2.5,0,0,0-1.043-.347,4.674,4.674,0,0,0-2.229.207,14.057,14.057,0,0,0-2.173.945,31.856,31.856,0,0,0-8.13,5.473" transform="translate(-13.441 -29.817)" fill="#025974"/>
          <path id="Path_924964" data-name="Path 924964" d="M51.787,13.835a.971.971,0,0,1,1.113.606.9.9,0,0,1-.31.962,1.38,1.38,0,0,1-.52,1.483,1.014,1.014,0,0,1-.662.2.682.682,0,0,1-.559-.376.769.769,0,0,1,.073-.685c.024-.041.051-.09.03-.133a.126.126,0,0,0-.061-.05.97.97,0,0,1-.407-.279c-.16-.243-.009-.563.142-.812a1.818,1.818,0,0,1-.6-.389.616.616,0,0,1-.17-.244.747.747,0,0,1,.168-.532.906.906,0,0,1,1.326.152.237.237,0,0,0,.34.12.923.923,0,0,1,.1-.018" transform="translate(-27.972 -7.494)" fill="#262626"/>
          <path id="Path_924965" data-name="Path 924965" d="M45.388,20.844a12.537,12.537,0,0,0-3.431-2.5c-.216-.107-.441-.2-.656-.3-.177-.088-.289-.2-.482-.044a2.28,2.28,0,0,0-.239.26c-.24.258-.677.119-1,.107q-.562-.02-1.124-.013c-.407.006-.795.16-1.183.171-.441.013-.788-.246-1.244-.056-.591.246-.794.969-.9,1.6a29.025,29.025,0,0,0-.335,4.224c-.026,1.946.086,3.89.175,5.832.045.973.085,1.947.1,2.921.007.464-.039.947-.008,1.408.025.372.328.481.644.653a8.662,8.662,0,0,0,5.559.588,25.9,25.9,0,0,1,3.119-.481,5.172,5.172,0,0,1,.932.035,1.713,1.713,0,0,0,.854,0c.4-.157.311-.466.209-.758-.165-.473-.223-1.023-.344-1.513A10.651,10.651,0,0,1,45.6,29.99a16.892,16.892,0,0,1,1.026-4,6.175,6.175,0,0,0,.32-1.509c.005-.18-.047-.35-.043-.534a3.938,3.938,0,0,0-.03-.764,2.608,2.608,0,0,0-.279-.746,7.118,7.118,0,0,0-1.206-1.59" transform="translate(-19.529 -10.055)" fill="#eebc32"/>
          <path id="Path_924966" data-name="Path 924966" d="M33.3,28.906a12.587,12.587,0,0,0,.377,3.036,7.829,7.829,0,0,0,.534,1.441c.07.142.159.417.324.477.2.072.434-.129.546-.27A7.517,7.517,0,0,0,36.4,30.545a12.857,12.857,0,0,0,.356-3.219,14.619,14.619,0,0,0-.159-1.705,3.977,3.977,0,0,0-.437-1.052,1.881,1.881,0,0,0-.372-.578,2.221,2.221,0,0,0-.93-.47,1.676,1.676,0,0,0-.843-.1c-.756.166-.6,1.062-.612,1.623-.014.831-.061,1.66-.087,2.491-.014.458-.022.916-.014,1.375" transform="translate(-18.689 -13.13)" fill="#874f43"/>
          <path id="Path_924967" data-name="Path 924967" d="M36.6,19.412c-.287-.562-.71-1.079-1.291-1a1.893,1.893,0,0,0-1.163.884,2.759,2.759,0,0,0-.378.953,9.072,9.072,0,0,0-.124,1.418,5.4,5.4,0,0,0-.039.8,1,1,0,0,0,.323.6,3.158,3.158,0,0,0,3.291.892q.034-.912-.007-1.825a6.6,6.6,0,0,0-.252-1.824,6.268,6.268,0,0,0-.361-.892" transform="translate(-18.857 -10.326)" fill="#fcdf8e"/>
          <path id="Path_924968" data-name="Path 924968" d="M31.155,23.011a.971.971,0,0,0-.277.1c-.057.034-.074.071-.15.049a.531.531,0,0,1-.258-.239,1.058,1.058,0,0,1-.123-.464c-.007-.082-.009-.163-.008-.245a4.994,4.994,0,0,1,.316-1.366c.143-.47.3-.935.477-1.392a3.431,3.431,0,0,1,.288-.61,1.925,1.925,0,0,1,.613-.605.481.481,0,0,1,.184-.078,1.5,1.5,0,0,1,.166,0c.176,0,.363-.111.514-.022a.332.332,0,0,1,.082.424,1.772,1.772,0,0,1-.3.366,2.286,2.286,0,0,0-.405,1.718,2.968,2.968,0,0,1,.023.592,1.687,1.687,0,0,1-.184.567,2.021,2.021,0,0,0-.175.392c-.073.281.018.588-.068.865a1.371,1.371,0,0,0-.717-.054" transform="translate(-17.026 -10.16)" fill="#663c33"/>
          <path id="Path_924969" data-name="Path 924969" d="M44.109,21.814c.012.042.025.083.039.124.092.272.571.113.774.036a5.143,5.143,0,0,0,1.744-1.215,7.6,7.6,0,0,0,.806-.923,2.124,2.124,0,0,0,.439-.966.908.908,0,0,0-.014-.408c-.063-.148-.258-.279-.371-.39q-.891-.878-1.8-1.742a1.532,1.532,0,0,1-.773,1.052,8.356,8.356,0,0,1-1.351.771c-.2.09-.359.145-.391.369a1.451,1.451,0,0,0,.134.711c.209.564.385,1.139.545,1.718.078.283.132.581.215.864" transform="translate(-24.248 -9.164)" fill="#663c33"/>
          <path id="Path_924970" data-name="Path 924970" d="M34.115,12.987a3.028,3.028,0,0,1,.235.5,5.71,5.71,0,0,1,.017,1.375.139.139,0,0,0,.025.086.145.145,0,0,0,.116.032,2.573,2.573,0,0,1,.943.069,2.63,2.63,0,0,1,.9.723,1.1,1.1,0,0,0,1.545.325,6.5,6.5,0,0,0,1.526-1.123.811.811,0,0,0,.223-.315c.086-.273-.112-.556-.114-.842a.529.529,0,0,0,.343-.18,3.9,3.9,0,0,0,.875-3.858,3.559,3.559,0,0,0-.592-1.223A3.207,3.207,0,0,0,37.577,7.4a4.509,4.509,0,0,0-2.682,1.041,3.509,3.509,0,0,0-1.121,1.447,3.689,3.689,0,0,0-.065,1.926,4.321,4.321,0,0,0,.406,1.173" transform="translate(-18.864 -4.153)" fill="#874f43"/>
          <path id="Path_924971" data-name="Path 924971" d="M40.143,7.461a.934.934,0,0,0-.5-.289.692.692,0,0,0-.893-.669A1.106,1.106,0,0,0,37.3,5.762a.777.777,0,0,0-1.319,0,.093.093,0,0,1-.045.038c-.03.007-.057-.016-.08-.036a.58.58,0,0,0-.479-.136c-.3.053-.361.247-.441.5a.821.821,0,0,0-.684-.039.758.758,0,0,0-.433.537.781.781,0,0,0-.774.411,1.444,1.444,0,0,0-.131.907c-.441-.048-.9.713-.9,1.086a.459.459,0,0,0,.061.25c.108.166.337.184.523.25a.062.062,0,0,1,.038.026c.01.022-.006.046-.019.065a.369.369,0,0,0-.05.334,1.128,1.128,0,0,0,.519.254.961.961,0,0,0,.139.758.576.576,0,0,0,.7.186.848.848,0,0,0,.572.393,2.018,2.018,0,0,0,.711,0,1.06,1.06,0,0,0,1.111.486.711.711,0,0,1,.226-.032.63.63,0,0,1,.154.047,1.056,1.056,0,0,0,.894-.034.722.722,0,0,0,.335-.458c.045-.208-.019-.33.166-.48a.9.9,0,0,1,1.042-.013.553.553,0,0,1,.243.374c.024.19-.04.352.122.506a.365.365,0,0,0,.559-.076c.053-.113.023-.254.086-.362.04-.068.118-.088.159-.146.125-.177-.055-.366.051-.546a.434.434,0,0,1,.145-.124,1.128,1.128,0,0,0,.372-1.395.585.585,0,0,1-.068-.165.613.613,0,0,1,.018-.2.954.954,0,0,0-.3-.851.683.683,0,0,1-.127-.127.678.678,0,0,1-.066-.168.912.912,0,0,0-.19-.321" transform="translate(-17.966 -3.028)" fill="#262626"/>
          <path id="Path_924972" data-name="Path 924972" d="M35.98,42.82c.129.013.261.018.389.029a9.478,9.478,0,0,0,1.321.013,20.978,20.978,0,0,0,2.634-.36c.961-.177,1.919-.385,2.878-.56a5.357,5.357,0,0,0,.543-.129,1.193,1.193,0,0,0,.314-.129.62.62,0,0,0,.25-.283.961.961,0,0,0,.015-.341.71.71,0,0,0-.27-.593.974.974,0,0,0-.437-.107c-1.8-.171-3.484-.968-5.27-1.245a4.007,4.007,0,0,0-2.036.114,3.722,3.722,0,0,0-.989.6,2.135,2.135,0,0,0-.3.28.635.635,0,0,0-.124.267,2.388,2.388,0,0,0-.162.786,2.526,2.526,0,0,0,.129.709,1.317,1.317,0,0,0,.416.718,1.417,1.417,0,0,0,.7.23" transform="translate(-19.493 -21.909)" fill="#874f43"/>
          <path id="Path_924973" data-name="Path 924973" d="M46.052,34.119a2.466,2.466,0,0,0-2.668-.525,10.953,10.953,0,0,0-2.423,1.285l-2.585,1.542a.655.655,0,0,0-.213.171.641.641,0,0,0-.076.169,20.519,20.519,0,0,0-.688,2.582.72.72,0,0,0,.058.591.639.639,0,0,0,.462.188,4.447,4.447,0,0,0,1.739-.3,19.232,19.232,0,0,0,4.954-2.49,9.618,9.618,0,0,0,1.254-1.015,2.21,2.21,0,0,0,.406-.5,1.555,1.555,0,0,0-.218-1.693" transform="translate(-20.968 -18.762)" fill="#663c33"/>
          <path id="Path_924974" data-name="Path 924974" d="M52.851,26.865a1.826,1.826,0,0,0-.6.062,6.27,6.27,0,0,0-2.237,1.155,13.445,13.445,0,0,0-1.049.906A11.9,11.9,0,0,0,47.689,30.3a.2.2,0,0,0,.027.331,7.044,7.044,0,0,0,1.951,1.425,4.371,4.371,0,0,0,2.359.424.386.386,0,0,0,.107-.024.416.416,0,0,0,.148-.13,8.909,8.909,0,0,0,1-1.458c.069-.132.134-.265.194-.4.053-.121.122-.225.176-.344a3.382,3.382,0,0,0,.145-2.382,1.213,1.213,0,0,0-.5-.735.989.989,0,0,0-.442-.138" transform="translate(-26.721 -15.074)" fill="#fcdf8e"/>
          <path id="Path_924975" data-name="Path 924975" d="M53.343,34.218a5.868,5.868,0,0,0-.049-1.209,1.532,1.532,0,0,1,.074-1.074c.038-.056.1-.112.165-.094a.188.188,0,0,1,.083.064,1.65,1.65,0,0,1,.356.523,5.51,5.51,0,0,1,.107.75,2.4,2.4,0,0,0,.125.384.382.382,0,0,0,.116.183c.133.095.315-.012.43-.129a2.125,2.125,0,0,0,.6-1.366,2.978,2.978,0,0,0-.028-.538,5,5,0,0,0-.167-.781.944.944,0,0,1-.062-.344.287.287,0,0,1,.2-.265.307.307,0,0,1,.289.126,1.106,1.106,0,0,1,.183.414l.4,1.412a3.578,3.578,0,0,0,.131-1.395,1.038,1.038,0,0,1,.009-.445c.054-.157.285-.315.443-.2a.442.442,0,0,1,.133.284l.1.533a1.428,1.428,0,0,1,.1-.38c.045-.1.137-.1.214-.03a.445.445,0,0,1,.1.334,5.765,5.765,0,0,1-.363,1.911,6.037,6.037,0,0,1-.5,1.112l-.9,1.509c-.118.2-.236.392-.368.578a1.247,1.247,0,0,1-.4.417,4.628,4.628,0,0,1-1.489.462c-.165.021-.256,0-.333-.15a1.487,1.487,0,0,1-.212-.78c.015-.226.333-.3.446-.486a1.155,1.155,0,0,0,.057-.657,5.774,5.774,0,0,1,.016-.675" transform="translate(-29.644 -16.945)" fill="#874f43"/>
          <path id="Path_924976" data-name="Path 924976" d="M30.508,28.313a17.85,17.85,0,0,0,.957,3.538c.434,1.157,1.679,3.659,1.745,3.8a.79.79,0,0,0,.221.337.385.385,0,0,0,.312.08.549.549,0,0,0,.194-.1,3.144,3.144,0,0,0,1.017-1.335,3.712,3.712,0,0,0,.312-1.213,2.753,2.753,0,0,0-.056-.789,1.636,1.636,0,0,0-.258-.667c-.342-.428-.719-.827-1.064-1.252a10.861,10.861,0,0,1-1.82-3.266c-.078-.223-.148-.449-.244-.666a.574.574,0,0,0-.148-.222.633.633,0,0,0-.24-.1c-.371-.1-.947-.2-1.061.292a4.548,4.548,0,0,0,.133,1.558" transform="translate(-17.027 -14.804)" fill="#663c33"/>
          <path id="Path_924977" data-name="Path 924977" d="M75.442,28.088a15.732,15.732,0,0,1-.7,1.946,13.582,13.582,0,0,0-.592,2.1c-.522,2.42-.668,4.969-1.951,7.062a20.639,20.639,0,0,1-1.465,1.957c-1.495,1.893-2.714,3.985-4.1,5.948a17.711,17.711,0,0,1-5.069,5.093,37.362,37.362,0,0,0-3.985,2.86c-1.424,1.137-2.907,2.2-4.225,3.469-.739.7-1.694,1.488-1.753,2.538-.041.744.012,4.518.024,7.431V69.1a3.837,3.837,0,0,1-2.151,2.725,11.669,11.669,0,0,1-10.554-.018c-1.635-.943-2.356-2.215-2.169-3.446a2.093,2.093,0,0,1,.053-.264c.732-3.516,1.992-13.666,3.364-15.184a7.443,7.443,0,0,1,3.288-1.653c4.319-1.483,7.935-4.442,11.709-7.009,1.336-.908,2.707-1.775,3.991-2.754a36.152,36.152,0,0,0,2.96-2.549c.516-.5,1.025-1,1.517-1.518.1-.094.188-.194.281-.287.738-.768,1.518-1.535,2.2-2.362a9.811,9.811,0,0,0,1.272-2.725c.844-2.2,1.711-4.383,2.737-6.5.68-1.406,1.623-2.93,3.158-3.217a1.493,1.493,0,0,1,1.02.129,1.685,1.685,0,0,1,.645,1.495,7.385,7.385,0,0,0,.041,1.529,1.639,1.639,0,0,0,.047.17v.006c.093.293.264.551.369.844a2.7,2.7,0,0,1,.035,1.582" transform="translate(-20.609 -12.515)" fill="#b96d61"/>
          <path id="Path_924978" data-name="Path 924978" d="M119.878,23.982a1.84,1.84,0,0,0-.306,1.052,4.3,4.3,0,0,0,.025.651c.013.111.03.221.051.33.011.054.019.252.064.28a.142.142,0,0,0,.09.01l1.258-.141c.151-.017.138-.237.16-.357q.048-.264.082-.53a9.48,9.48,0,0,0,.073-1.07c0-.338,0-.908-.43-.846a1.792,1.792,0,0,0-1.067.62" transform="translate(-67.102 -13.108)" fill="#663c33"/>
          <path id="Path_924979" data-name="Path 924979" d="M121.653,33a1.693,1.693,0,0,0-.777,1.306,3.8,3.8,0,0,0-.015.681,1.908,1.908,0,0,0,.057.567.433.433,0,0,0,.254.271.521.521,0,0,0,.351-.038,2.473,2.473,0,0,0,1.1-1.134,4.5,4.5,0,0,0,.61-1.527c.035-.215-.05-.453-.3-.437a4.4,4.4,0,0,0-.674.113,2.359,2.359,0,0,0-.6.2" transform="translate(-67.822 -18.346)" fill="#663c33"/>
          <path id="Path_924980" data-name="Path 924980" d="M114.46,51.015a4.461,4.461,0,0,0-.921,1.3c-.031.079-.052.183.014.236a.192.192,0,0,0,.115.033,1.856,1.856,0,0,0,.649-.108,5.8,5.8,0,0,0,2.121-1.226.558.558,0,0,0,.2-.294c.035-.2-.137-.37-.312-.469a1.48,1.48,0,0,0-1.047-.166,2.162,2.162,0,0,0-.823.691" transform="translate(-63.701 -28.221)" fill="#663c33"/>
          <path id="Path_924981" data-name="Path 924981" d="M101.545,48.841c-.65,1.436-2.274,2.1-3.534,3.041a31.561,31.561,0,0,0-3.083,3.047c-1.26,1.237-2.725,2.262-3.879,3.6-1.371,1.594-2.256,3.587-3.8,5.011a33.17,33.17,0,0,1,3.61-5.35c1.688-1.9,3.786-3.388,5.568-5.2a12.658,12.658,0,0,1,1.611-1.512c.463-.334.973-.586,1.436-.92a4.965,4.965,0,0,0,1.489-1.723,1.156,1.156,0,0,0,.058-1.243.9.9,0,0,0-.821-.269,5.442,5.442,0,0,0-1.77.656c-.779.4-1.547.844-2.309,1.277-1.875,1.072-3.756,2.151-5.567,3.329-.029.018-.053.035-.082.053.516-.5,1.025-1,1.518-1.518.023-.012.047-.029.07-.041,1.36-.844,2.719-1.682,4.09-2.5.686-.41,1.371-.821,2.069-1.219.95-.545,2.925-1.272,3.452.24a1.7,1.7,0,0,1-.123,1.242" transform="translate(-48.962 -26.206)" fill="#663c33"/>
          <path id="Path_924982" data-name="Path 924982" d="M110.016,35.49a15.733,15.733,0,0,1-.7,1.946,13.581,13.581,0,0,0-.592,2.1c-.123.281-.252.557-.381.838-.85,1.834-1.817,3.569-2.5,5.491a19,19,0,0,1-1.114,2.8,13.822,13.822,0,0,1-1.348,1.946c-.838,1.084-1.67,2.174-2.514,3.252a21.9,21.9,0,0,1-2.543,2.456,63.631,63.631,0,0,0,5.819-8.1c.516-.9,1.014-1.8,1.471-2.719.756-1.7,1.564-3.37,2.285-5.087.328-.774.692-1.494.955-2.3a14.76,14.76,0,0,1,1.154-2.625" transform="translate(-55.183 -19.917)" fill="#663c33"/>
          <path id="Path_924983" data-name="Path 924983" d="M112.924,29.68v.006c-.07-.006-.135-.006-.2-.006-.205.012-.4.029-.609.058a2.98,2.98,0,0,0-1.582.692,3.585,3.585,0,0,0-.5.527,7.812,7.812,0,0,0-.439.7c-.059.1-.111.2-.164.3-.363.68-.674,1.389-1.067,2.051-.457.762-1.025,1.453-1.541,2.174-.932,1.307-1.694,2.731-2.579,4.073a12.747,12.747,0,0,1,1.354-2.784c.516-.774,1.131-1.471,1.612-2.268.645-1.061,1.031-2.256,1.582-3.37a3.693,3.693,0,0,1,.334-.592,4.238,4.238,0,0,1,.674-.767,3.433,3.433,0,0,1,.662-.428,5.025,5.025,0,0,1,1.377-.5c.1-.024.2-.035.3-.053a2.251,2.251,0,0,1,.744.018c.012.058.029.111.047.17" transform="translate(-58.495 -16.539)" fill="#663c33"/>
        </g>
      </g>
    </g>
  </g>
</svg>
