<svg id="Group_1119132" data-name="Group 1119132" xmlns="http://www.w3.org/2000/svg" xmlns:xlink="http://www.w3.org/1999/xlink" width="105.334" height="105.693" viewBox="0 0 105.334 105.693">
  <defs>
    <clipPath id="clip-path">
      <rect id="Rectangle_407255" data-name="Rectangle 407255" width="105.334" height="105.693" transform="translate(0)" fill="#07c3f3"/>
    </clipPath>
    <clipPath id="clip-path-2">
      <rect id="Rectangle_401492" data-name="Rectangle 401492" width="65.388" height="65.389" transform="translate(-0.289 0.26)" fill="#953c2d" stroke="#707070" stroke-width="1"/>
    </clipPath>
    <clipPath id="clip-path-3">
      <rect id="Rectangle_409134" data-name="Rectangle 409134" width="59.615" height="59.971" fill="#953c2d"/>
    </clipPath>
  </defs>
  <g id="Group_1116923" data-name="Group 1116923" clip-path="url(#clip-path)">
    <path id="Path_893365" data-name="Path 893365" d="M104.048,31.292C97.88,10.265,51.742-13.615,17.656,9.414s-9.13,105.365-4.625,88.724c4.329-15.992,23.523-2.928,37.93-2.46C67,96.2,77.411,92.049,77.386,91.987c7.4-2.756,12.628-6.379,17-13.195,8.73-13.615,13.376-34.847,9.664-47.5" transform="translate(0.001 2.676)" fill="#f69a8b"/>
  </g>
  <g id="Group_1115380" data-name="Group 1115380" transform="translate(20 20)">
    <rect id="Rectangle_401104" data-name="Rectangle 401104" width="60.924" height="61.907" transform="translate(2.232 0)" fill="none"/>
    <g id="Mask_Group_1098697" data-name="Mask Group 1098697" transform="translate(0 0)" clip-path="url(#clip-path-2)">
      <g id="Group_1119360" data-name="Group 1119360" transform="translate(2.711 2.26)">
        <g id="Group_1119359" data-name="Group 1119359" clip-path="url(#clip-path-3)">
          <path id="Path_924893" data-name="Path 924893" d="M322.283,12.832l7.207-3.787c.336-.256,1.413,0,1.413.357v3.254h14.688a3.279,3.279,0,0,1,.659.749,31.768,31.768,0,0,1,.116,5.831c-.056.387-.329,1.16-.775,1.16H330.9V23.65c0,.193-.9.884-1.234.539l-7.385-3.969V59.183c0,.273-.846.585-1.139.62a62.587,62.587,0,0,1-9.155,0c-.683-.079-1.217-.384-1.15-1.137l.014-57.7c.124-.648.764-.755,1.307-.8a63,63,0,0,1,8.984,0c.293.035,1.139.347,1.139.62ZM320.348,2.1h-7.564v3.87h7.564Zm0,5.8h-7.564v3.87h7.564Zm9.411,10.554h14.688v-3.87H329.583c-.78,0-.557-2.288-.615-2.73-.032-.243.1-.306-.259-.257l-9.064,5.1,9.236,4.926c.273-.851-.339-2.9.878-3.165m-9.411-4.749h-7.564v3.87h4.222c-.169-.59-.659-1.035-.189-1.685.322-.445,2.678-1.387,3.3-1.79.174-.112.312.02.227-.395m0,5.8h-7.564V23.21h7.564Zm0,5.629h-7.564v3.87h7.564Zm0,5.8h-7.564v3.87h7.564Zm0,5.8h-7.564v3.694h7.564Zm0,5.629h-7.564v3.87h7.564Zm0,5.8h-7.564v3.87h7.564Zm0,5.8h-7.564v3.87h7.564Z" transform="translate(-286.828 0)" fill="#953c2d"/>
          <path id="Path_924894" data-name="Path 924894" d="M8.334,2.674a8.709,8.709,0,0,1,8.745,10.513C15.388,20.829,5.1,22.5,1.187,15.7A8.661,8.661,0,0,1,8.334,2.674M13.4,16.11C19.244,10.269,11.193,1,4.583,5.969-2.961,11.644,6.7,22.813,13.4,16.11" transform="translate(0 -2.46)" fill="#953c2d"/>
          <path id="Path_924895" data-name="Path 924895" d="M8.292,276a8.647,8.647,0,1,1-6.968,13.02A8.67,8.67,0,0,1,8.292,276m5.249,3.881c-5.894-5.894-15.253,2.423-10.055,8.911,5.952,7.428,16.615-2.351,10.055-8.911" transform="translate(-0.136 -254.675)" fill="#953c2d"/>
          <path id="Path_924896" data-name="Path 924896" d="M9.409,549.1c9.949-.832,12.915,13.621,3.6,16.8-12.428,4.238-16.376-15.728-3.6-16.8m5.428,3.88c-6.6-6.6-16.305,4.2-8.911,10.055,6.539,5.175,14.822-4.144,8.911-10.055" transform="translate(-1.433 -506.66)" fill="#953c2d"/>
          <path id="Path_924897" data-name="Path 924897" d="M59.062,111.48l1.933.531c-.5,1.465-.665,2.59-1.983,3.556a4.585,4.585,0,0,1-7.083-1.793c-.174-.406-.681-1.549-.261-1.856l1.584-.438c.449,4.206,5.355,4.219,5.81,0" transform="translate(-47.528 -102.871)" fill="#953c2d"/>
          <path id="Path_924898" data-name="Path 924898" d="M64.688,65.927c-.065.434.167,1.627-.166,1.859l-1.771.078V65.927Z" transform="translate(-57.905 -60.836)" fill="#953c2d"/>
          <path id="Path_924899" data-name="Path 924899" d="M137.351,65.927v1.937l-1.771-.078c-.333-.232-.1-1.425-.166-1.859Z" transform="translate(-124.939 -60.836)" fill="#953c2d"/>
          <rect id="Rectangle_409133" data-name="Rectangle 409133" width="7.564" height="1.935" transform="translate(4.847 30.951)" fill="#953c2d"/>
          <path id="Path_924900" data-name="Path 924900" d="M64.688,339.261c-.065.434.167,1.627-.166,1.859l-1.771.078v-1.937Z" transform="translate(-57.905 -313.061)" fill="#953c2d"/>
          <path id="Path_924901" data-name="Path 924901" d="M137.351,339.261V341.2l-1.771-.078c-.333-.232-.1-1.425-.166-1.859Z" transform="translate(-124.939 -313.061)" fill="#953c2d"/>
          <path id="Path_924902" data-name="Path 924902" d="M58.771,653.488l-1.934.53c-.4-4.187-5.37-4.226-5.81,0l-1.933-.53c.517-1.772,1.078-3.427,2.94-4.182,3.32-1.347,6.209.875,6.737,4.182" transform="translate(-45.304 -598.792)" fill="#953c2d"/>
          <path id="Path_924903" data-name="Path 924903" d="M64.688,612.594c-.065.434.167,1.627-.166,1.859l-1.771.078v-1.937Z" transform="translate(-57.905 -565.285)" fill="#953c2d"/>
          <path id="Path_924904" data-name="Path 924904" d="M137.351,612.594v1.937l-1.771-.078c-.333-.232-.1-1.425-.166-1.859Z" transform="translate(-124.939 -565.285)" fill="#953c2d"/>
        </g>
      </g>
    </g>
  </g>
</svg>
