<svg xmlns="http://www.w3.org/2000/svg" xmlns:xlink="http://www.w3.org/1999/xlink" width="158.357" height="158" viewBox="0 0 158.357 158">
  <defs>
    <clipPath id="clip-path">
      <rect id="Rectangle_407255" data-name="Rectangle 407255" width="158" height="158" transform="translate(-4 -4)" fill="#d9c3ac"/>
    </clipPath>
    <clipPath id="clip-path-2">
      <rect id="Rectangle_401492" data-name="Rectangle 401492" width="97.31" height="97.311" transform="translate(0 0.41)" fill="#6b4502" stroke="#707070" stroke-width="1"/>
    </clipPath>
    <clipPath id="clip-path-3">
      <rect id="Rectangle_409140" data-name="Rectangle 409140" width="86.092" height="77.25" fill="#6b4502"/>
    </clipPath>
  </defs>
  <g id="Group_1118034" data-name="Group 1118034" transform="translate(-307 -7641)">
    <g id="Group_1116923" data-name="Group 1116923" transform="translate(311 7645)" clip-path="url(#clip-path)">
      <path id="Path_893365" data-name="Path 893365" d="M148.324,46.778C139.531,15.346,73.76-20.354,25.169,14.072s-13.015,157.51-6.593,132.633c6.172-23.906,33.533-4.377,54.071-3.677,22.869.779,37.705-5.425,37.669-5.518,10.542-4.12,18-9.536,24.231-19.725,12.445-20.354,19.068-52.093,13.776-71.008" transform="translate(-0.246 0)" fill="#d9c3ac"/>
    </g>
    <g id="Group_1115380" data-name="Group 1115380" transform="translate(337 7671)">
      <rect id="Rectangle_401104" data-name="Rectangle 401104" width="90.666" height="92.129" transform="translate(3.322 0)" fill="none"/>
      <g id="Mask_Group_1098697" data-name="Mask Group 1098697" transform="translate(0 0.001)" clip-path="url(#clip-path-2)">
        <g id="Group_1119368" data-name="Group 1119368" transform="translate(6 10.41)">
          <g id="Group_1119367" data-name="Group 1119367" clip-path="url(#clip-path-3)">
            <path id="Path_924936" data-name="Path 924936" d="M72.532,10.208V1.7A2.275,2.275,0,0,1,73.9.105a29.647,29.647,0,0,1,4.922,0,8.509,8.509,0,0,1,7.275,7.52V69.754a8.558,8.558,0,0,1-7.053,7.5L2.251,77.161A3.245,3.245,0,0,1,.273,75.193C-.279,54.694.206,34.072.028,13.527c-.243-1.105,1.352-3.319,2.353-3.319Zm10.11,51.781V7.126c0-2.184-4.593-4.552-6.658-3.822V60.51a13.821,13.821,0,0,1,3.795.274,22.986,22.986,0,0,1,2.863,1.206M72.532,13.414H3.491V74.072H78.08a15.913,15.913,0,0,0,2.183-.776,5.059,5.059,0,0,0,2.377-3.909,10.8,10.8,0,0,1-4.3,1.243l-70.42-.12L6.807,69.4,6.748,18.274a2.018,2.018,0,0,1,1.311-1.4,75.465,75.465,0,0,1,9.6,0c1.938.365,1.544,3.446-.24,3.446H10.148v9.37c6.323-1.191,12.044-5.7,18.748-4.076,3.278.794,5.712,3.2,8,5.488a11.763,11.763,0,0,1,8.757-1.414A31.318,31.318,0,0,1,40.2,20.351c-1.81-.381-8.4.778-9.208-1.023-.389-.863.026-2.462.981-2.462H72.532Zm-14.055,6.9H43.929A23.61,23.61,0,0,0,57.365,33.882c2.936,1.023,6.7.819,9.126,2.71,5.593,4.36-.065,14.474.922,20.283.443,2.608,2.855,3.252,5.119,3.635V32.893c-1.906-.416-3.953-1.86-5.854-2.16-2.486-.392-4.316.7-7.041-.356-4.543-1.762-2.75-6.779-1.16-10.059m14.055,0H62.053c-.342,1.084-2.312,5.408-1.982,6.155.741,1.677,5.835.781,7.594,1.054,1.58.246,3.248,1.453,4.867,1.667ZM10.148,32.893v8.63C17.132,38.586,25.04,28.371,32.584,36.1l1.67-2.839C32.4,31.1,29.743,28.945,26.8,28.693c-5.756-.494-10.961,3.958-16.653,4.2M42.4,32.717a8.975,8.975,0,0,0-7.84,8.436c-.018,4.258,4.708,11.491,8.5,13.421,3.775-1.913,8.534-9.161,8.48-13.395A8.771,8.771,0,0,0,42.4,32.717M64.9,67.155c4.432-.325,9.575.48,13.922.014a4.152,4.152,0,0,0,2.826-1.358c-2.9-3.117-7.6-1.323-11.677-2.37-9.738-2.5-4.736-13.03-4.346-19.578.384-6.448-3.347-5.085-7.94-6.355-1.34-.371-2.57-1-3.891-1.408a14.952,14.952,0,0,1,1.014,6.382c4.505,1.2,6.177,5.088,5.622,9.5-.235,1.871-2.142,5.094-1.6,6.813.347,1.095,2.406,1.841,3.322,2.6A7.938,7.938,0,0,1,64.9,67.155M10.148,45.345V50.4c3.625-1.535,7.786-6.475,12.01-4,2.926,1.716,2.882,4.791,1.864,7.638C23.5,55.513,21.5,58,22.955,59.414c1.6,1.553,4.889-.884,6.506-1.413,6.123-2,12.12,2.931,12.249,9.167h6.658c.116-3.963.526-7.955-.5-11.835-3.152,2.754-4.707,3.881-8.36,1.088-.517-.4-1.5-1.669-1.926-1.789-.771-.22-2.28.45-3.15.451-4.314,0-6.68-3.425-6.284-7.515.259-2.672,2.44-4.4,2.231-7.409a3.782,3.782,0,0,0-3.836-3.584c-3.729-.012-8.768,4.642-11.981,6.532-1.437.845-2.931,1.5-4.417,2.241M51.573,67.168h9.863c-.027-4.23-5.011-3.764-6-7.689-1.09-4.351,5.326-10.955-1.254-13.747l-3.8,6.562c1.866,4.684,1.613,9.946,1.182,14.875M35.051,51.632,32.1,45.964c-1.314,2.794-.734,5.994,2.954,5.668m3.207,15.536a6.473,6.473,0,0,0-4.431-6.049c-3.62-.929-5.565,1.98-9,2.114-4.466.175-6.667-3.452-5.325-7.544.435-1.328,3.217-5.446.994-6.391-1.87-.8-5.974,2.6-7.72,3.611-.852.495-1.818.761-2.631,1.314V67.168Z" transform="translate(0 0)" fill="#6b4502"/>
            <path id="Path_924937" data-name="Path 924937" d="M95.344,68.415a1.677,1.677,0,1,1,.592,3.285c-1.892.233-2.5-2.894-.592-3.285" transform="translate(-70.958 -51.506)" fill="#6b4502"/>
            <path id="Path_924938" data-name="Path 924938" d="M158.308,146.268c7.321-1.383,8.37,9.48,1.634,10.03-6.45.526-7.345-8.951-1.634-10.03m.486,3.446a1.66,1.66,0,0,0,.253,3.109,1.66,1.66,0,1,0-.253-3.109" transform="translate(-116.415 -110.11)" fill="#6b4502"/>
          </g>
        </g>
      </g>
    </g>
    <path id="Path_893317" data-name="Path 893317" d="M22.933,42.9C13.62,42.9,5.1,38.964.669,34.93A2.045,2.045,0,0,1,3.419,31.9c6.764,6.148,25.724,12.252,38.909-1.51A18.409,18.409,0,0,0,47.31,21.06a21.362,21.362,0,0,1-6-2.779C35.414,14.315,32.9,8.074,35.344,3.44,37,.289,39.444-.065,40.769.008,44.34.2,48.01,3.774,50.12,9.11a22.936,22.936,0,0,1,1.644,8.657c7.787.791,17.927-2.83,28.293-15.149a2.044,2.044,0,0,1,3.129,2.632C71.773,18.811,60.308,22.771,51.341,21.842A22.964,22.964,0,0,1,45.28,33.223,30.2,30.2,0,0,1,22.933,42.9M40.446,4.088c-.3,0-.878.106-1.484,1.256-1.425,2.708.566,6.811,4.629,9.543a17,17,0,0,0,4.026,1.983,19.647,19.647,0,0,0-1.3-6.258c-1.57-3.971-4.166-6.435-5.768-6.521-.03,0-.063,0-.1,0" transform="translate(463.896 7641) rotate(89)" fill="#025974"/>
  </g>
</svg>
