<svg xmlns="http://www.w3.org/2000/svg" xmlns:xlink="http://www.w3.org/1999/xlink" width="99" height="99" viewBox="0 0 99 99">
  <defs>
    <clipPath id="clip-path">
      <rect id="Rectangle_401223" data-name="Rectangle 401223" width="99" height="99" transform="translate(0)" fill="#8ce6fe"/>
    </clipPath>
    <clipPath id="clip-path-2">
      <rect id="Rectangle_401223-2" data-name="Rectangle 401223" width="88.539" height="88.539" fill="#f3f9ff"/>
    </clipPath>
    <clipPath id="clip-path-3">
      <rect id="Rectangle_409159" data-name="Rectangle 409159" width="68" height="60.753" fill="none"/>
    </clipPath>
    <clipPath id="clip-path-4">
      <rect id="Rectangle_409158" data-name="Rectangle 409158" width="31.135" height="42.099" fill="none"/>
    </clipPath>
    <clipPath id="clip-path-6">
      <rect id="Rectangle_409146" data-name="Rectangle 409146" width="10.716" height="8.138" fill="none"/>
    </clipPath>
    <clipPath id="clip-path-7">
      <rect id="Rectangle_409147" data-name="Rectangle 409147" width="23.441" height="14.176" fill="none"/>
    </clipPath>
    <clipPath id="clip-path-8">
      <rect id="Rectangle_409148" data-name="Rectangle 409148" width="7.311" height="5.046" fill="none"/>
    </clipPath>
    <clipPath id="clip-path-9">
      <rect id="Rectangle_409149" data-name="Rectangle 409149" width="10.648" height="18.282" fill="none"/>
    </clipPath>
    <clipPath id="clip-path-10">
      <rect id="Rectangle_409150" data-name="Rectangle 409150" width="2.023" height="4.651" fill="none"/>
    </clipPath>
    <clipPath id="clip-path-11">
      <rect id="Rectangle_409151" data-name="Rectangle 409151" width="6.534" height="5.112" fill="none"/>
    </clipPath>
    <clipPath id="clip-path-12">
      <rect id="Rectangle_409152" data-name="Rectangle 409152" width="13.93" height="20.77" fill="none"/>
    </clipPath>
    <clipPath id="clip-path-13">
      <rect id="Rectangle_409153" data-name="Rectangle 409153" width="10.96" height="15.198" fill="none"/>
    </clipPath>
    <clipPath id="clip-path-14">
      <rect id="Rectangle_409154" data-name="Rectangle 409154" width="6.906" height="8.337" fill="none"/>
    </clipPath>
    <clipPath id="clip-path-15">
      <rect id="Rectangle_409155" data-name="Rectangle 409155" width="5" height="5.279" fill="none"/>
    </clipPath>
    <clipPath id="clip-path-16">
      <rect id="Rectangle_409156" data-name="Rectangle 409156" width="13.127" height="10.138" fill="none"/>
    </clipPath>
  </defs>
  <g id="Group_1119141" data-name="Group 1119141" transform="translate(-619.921 -5755.871)">
    <g id="Group_1100724" data-name="Group 1100724" transform="translate(619.921 5755.871)">
      <g id="Group_1099654" data-name="Group 1099654" transform="translate(0 0)">
        <g id="Group_1099652" data-name="Group 1099652" clip-path="url(#clip-path)">
          <path id="Path_873521" data-name="Path 873521" d="M99,77.066A22,22,0,0,1,77.066,99H21.934A22,22,0,0,1,0,77.066V21.933A22,22,0,0,1,21.934,0H77.066A22,22,0,0,1,99,21.934Z" transform="translate(0)" fill="#ffdcd6"/>
        </g>
      </g>
      <g id="Group_1099659" data-name="Group 1099659" transform="translate(4.77 5.723)">
        <g id="Group_1099652-2" data-name="Group 1099652" transform="translate(0 0)" clip-path="url(#clip-path-2)">
          <path id="Path_873521-2" data-name="Path 873521" d="M88.539,68.922A19.674,19.674,0,0,1,68.923,88.539H19.616A19.674,19.674,0,0,1,0,68.922V19.616A19.674,19.674,0,0,1,19.616,0H68.923A19.674,19.674,0,0,1,88.539,19.616Z" fill="#f3f9ff"/>
        </g>
      </g>
    </g>
    <g id="Group_1100725" data-name="Group 1100725" transform="translate(636.343 5771.293)">
      <rect id="Rectangle_401104" data-name="Rectangle 401104" width="68" height="69" transform="translate(0.29 -2.295)" fill="none"/>
      <g id="Group_1119418" data-name="Group 1119418" transform="translate(0.29 1.705)">
        <g id="Group_1119417" data-name="Group 1119417" clip-path="url(#clip-path-3)">
          <path id="Path_925144" data-name="Path 925144" d="M160.787,123.526A13.471,13.471,0,0,1,148.6,123.5c-3.376-1.949-3.393-5.1-.038-7.037a13.469,13.469,0,0,1,12.188.022c3.376,1.949,3.393,5.1.038,7.037" transform="translate(-95.292 -75.044)" fill="#d2e1f1"/>
          <path id="Path_925145" data-name="Path 925145" d="M150.026,31.732a1.052,1.052,0,0,0-.082.35,1.022,1.022,0,0,0,.152.465,2.066,2.066,0,0,0,.307.466,2.259,2.259,0,0,0,1.215.53,6.968,6.968,0,0,0,.553-2.165,2.518,2.518,0,0,0-.1-1.185,1.069,1.069,0,0,0-.891-.7.575.575,0,0,0-.327.077,1.267,1.267,0,0,0-.462.845,7.373,7.373,0,0,1-.361,1.322" transform="translate(-97.829 -19.239)" fill="#663c33"/>
          <path id="Path_925146" data-name="Path 925146" d="M150.215,24.3c-.106.419-.151.851-.227,1.277a8.734,8.734,0,0,1-.323,1.263.14.14,0,0,0-.009.091.135.135,0,0,0,.057.06,3.4,3.4,0,0,0,2.234.562q-.007-1.347.075-2.693a4.014,4.014,0,0,0-.017-.984c-.08-.423-.5-1.151-1.042-.933-.19.076-.29.3-.383.466a3.707,3.707,0,0,0-.366.891" transform="translate(-97.639 -14.942)" fill="#bb6254"/>
          <path id="Path_925147" data-name="Path 925147" d="M152.936,114.978c-.036.025-.072.051-.106.078-.535.417-1.08,1.286-.764,1.972.088.191.28.206.477.231a4.928,4.928,0,0,0,2.687-.6,4.467,4.467,0,0,0,1-.611.774.774,0,0,1,.229-.158.749.749,0,0,1,.306-.017,1.37,1.37,0,0,0,1.119-.323,1.2,1.2,0,0,0,.275-.68,2.226,2.226,0,0,0-.589-1.774c.077.082-.187.262-.244.273-.146.026-.337-.1-.477-.152-.059-.02-.139-.019-.186-.055s-.043-.1-.1-.125a.146.146,0,0,0-.115.016c-.633.284-1.238.625-1.843.965l-1.266.711c-.139.078-.279.157-.41.247" transform="translate(-99.152 -73.746)" fill="#0069d1"/>
          <path id="Path_925148" data-name="Path 925148" d="M161.941,69.651c0-.011-.007-.022-.01-.032q-.237-3.327-.474-6.653a10.017,10.017,0,0,0-.52-2.985,3.62,3.62,0,0,0-1.551-1.873c-.263-.144-.7-.307-.926-.008-.171.232-.105.6-.143.868q-.1.676-.15,1.356a25.032,25.032,0,0,0-.051,4.306q.218,2.427.487,4.85c.11.99.283,1.97.359,2.957q.122,1.58.27,3.158.106,1.133.226,2.265a3.465,3.465,0,0,0,2.353-.312q-.041-2.721.189-5.437a7.164,7.164,0,0,0-.058-2.46" transform="translate(-103.114 -37.797)" fill="#262626"/>
          <path id="Path_925149" data-name="Path 925149" d="M170.887,129.084a1.394,1.394,0,0,0,.018.686.55.55,0,0,0,.35.322,1.661,1.661,0,0,0,.865.056,3.82,3.82,0,0,0,1.491-.523,2.77,2.77,0,0,0,1.052-1.165,5.629,5.629,0,0,1,.352-.782c.149-.226.366-.4.532-.615a1.714,1.714,0,0,0-1.135-2.75,1.28,1.28,0,0,0-1.035.326,2.575,2.575,0,0,0-.542.767c-.434.776-.906,1.529-1.327,2.312-.187.349-.365.7-.523,1.067a1.626,1.626,0,0,0-.1.3" transform="translate(-111.471 -81.099)" fill="#0080ff"/>
          <path id="Path_925150" data-name="Path 925150" d="M168.551,73.417a13.75,13.75,0,0,0-.157-1.673,7.06,7.06,0,0,0-1.161-2.806c-.036-.806-.034-1.614,0-2.421.035-.878.1-1.755.188-2.63.134-1.392.251-2.8.3-4.207.043-1.24.061-2.482-.008-3.721a5.428,5.428,0,0,0-.832-3c-.029.42-.006,1.186-.362,1.455a8.366,8.366,0,0,1-1.606.834,9.716,9.716,0,0,1-1.945.692,4.06,4.06,0,0,1-2.046-.043c-.1-.03-.218-.06-.291.011a.269.269,0,0,0-.061.166,5.527,5.527,0,0,0,.272,2.467,1.411,1.411,0,0,0,.622.808c.1.067,1.019.464,1.02.48.255,2.77,1.074,5.463,1.346,8.231a20.09,20.09,0,0,0,1.136,4.059c.374,1.15,1.1,5.51,1.223,6.475a.306.306,0,0,0,.057.171.293.293,0,0,0,.167.075A3.246,3.246,0,0,0,168.6,78.5a.348.348,0,0,0,.149-.128.371.371,0,0,0,.025-.19c-.072-1.588-.145-3.176-.228-4.764" transform="translate(-104.735 -34.554)" fill="#404040"/>
          <path id="Path_925151" data-name="Path 925151" d="M151.945,18.58a3.02,3.02,0,0,0-.342,1.8,8.919,8.919,0,0,0,.418,1.811,47.323,47.323,0,0,1,2.064,8.471,2.446,2.446,0,0,0,.518,1.526,2.034,2.034,0,0,0,1.351.451,8.279,8.279,0,0,0,5.609-1.842.576.576,0,0,0,.133-.139.587.587,0,0,0,.055-.308,65.59,65.59,0,0,0-.413-8.613,8.1,8.1,0,0,0-.158-1.137,3.467,3.467,0,0,0-.57-1.122A6.536,6.536,0,0,0,159.1,18.1a14.66,14.66,0,0,0-4.322-2.078.784.784,0,0,0-.393-.042,1.958,1.958,0,0,0-.7.5,5.725,5.725,0,0,0-.534.8c-.355.481-.893.775-1.2,1.3" transform="translate(-98.901 -10.418)" fill="#f69a8b"/>
          <path id="Path_925152" data-name="Path 925152" d="M158.113,18.277a.471.471,0,0,0,.193.179.442.442,0,0,0,.3-.03,4.684,4.684,0,0,0,2-1.544,1.907,1.907,0,0,0,.488-1.044.3.3,0,0,0-.023-.153.3.3,0,0,0-.1-.1c-.208-.146-.463-.217-.662-.375-.43-.344-.479-1-.874-1.386a4.449,4.449,0,0,1-1.185,2.17,1.156,1.156,0,0,1-.477.324c-.13.037-.283.042-.369.146a.391.391,0,0,0-.066.26,2.756,2.756,0,0,0,.773,1.558" transform="translate(-102.654 -9.017)" fill="#663c33"/>
          <path id="Path_925153" data-name="Path 925153" d="M147.823,7.337a1.63,1.63,0,0,1,.119.23.871.871,0,0,1-.047.543l-.14.466a.265.265,0,0,0-.015.152c.039.125.211.122.34.141.314.046.519.343.685.614l.315.514a.963.963,0,0,0,.232.287.85.85,0,0,0,.787.016,4.878,4.878,0,0,0,1.856-1.371.7.7,0,0,0,.24-.476c-.006-.1-.05-.2,0-.287a.319.319,0,0,1,.141-.114,2.513,2.513,0,0,0,.784-.648,3,3,0,0,0,.553-1.847,4.009,4.009,0,0,0-.395-1.807A2.948,2.948,0,0,0,152,2.43a3.3,3.3,0,0,0-2.365-.152,3.181,3.181,0,0,0-1.85,1.286,3.526,3.526,0,0,0-.361,2.5,5.7,5.7,0,0,0,.306,1.081,1.4,1.4,0,0,0,.095.188" transform="translate(-96.135 -1.391)" fill="#874f43"/>
          <path id="Path_925154" data-name="Path 925154" d="M152.537,3.1a1.072,1.072,0,0,0-.378-.685,1,1,0,0,0-.356-1.156.522.522,0,0,0-.218-.607.9.9,0,0,0-.674-.1.7.7,0,0,0-.835-.242.9.9,0,0,0-1.287-.079.223.223,0,0,1-.075.06.228.228,0,0,1-.137-.009.965.965,0,0,0-1.1.586A1.046,1.046,0,0,0,146.2,1.955a.16.16,0,0,1-.007.076.159.159,0,0,1-.079.064,1.172,1.172,0,0,0-.06,1.924,1.489,1.489,0,0,0,.885.179.514.514,0,0,0,.124.562.919.919,0,0,0,.553.237c-.042,0-.006.3,0,.323a.6.6,0,0,0,.211.314,2.822,2.822,0,0,0,.577.383,2.448,2.448,0,0,0,1.005.131,6.7,6.7,0,0,1,1.02,0,2.417,2.417,0,0,1,.109-1.005.555.555,0,0,1,.505-.389.939.939,0,0,1,.612.179.913.913,0,0,1,.294.485c.024.086.141.415.078.495a1.744,1.744,0,0,0,.5-1.062,1.354,1.354,0,0,1,0-.209.876.876,0,0,1,.042-.157.752.752,0,0,0-.1-.812,1.042,1.042,0,0,0,.074-.566" transform="translate(-94.979 0)" fill="#262626"/>
          <path id="Path_925155" data-name="Path 925155" d="M166.99,44.07a.4.4,0,0,0,.059.415q.586.9,1.239,1.746a.593.593,0,0,0,.278.235.505.505,0,0,0,.4-.1,2.189,2.189,0,0,0,.787-1.011,9.414,9.414,0,0,0,.375-1.244c.146-.543.324-1.076.449-1.624a2.512,2.512,0,0,0,.076-.9,1.632,1.632,0,0,0-.741-1.121,2.03,2.03,0,0,0-1.328-.286,1.17,1.17,0,0,0-.5.16c-.531.343-.39,1-.524,1.518l-.569,2.209" transform="translate(-108.931 -26.207)" fill="#874f43"/>
          <path id="Path_925156" data-name="Path 925156" d="M148.665,50.283a3.606,3.606,0,0,0-1.262-2.075.616.616,0,0,0-.2-.122.689.689,0,0,0-.195-.018q-.817,0-1.634-.03a45.438,45.438,0,0,1-5.709-.657c-.317-.168-.6-.386-.922-.541a.451.451,0,0,0-.324-.056l-1.124.127a.351.351,0,0,0-.28.127q-.417.42-.791.88c-.059.073-.12.166-.084.252a.8.8,0,0,1,.042.08c.019.067-.034.13-.079.183a.421.421,0,0,0-.125.3c.013.112.139.212.239.16a.307.307,0,0,0,.064.293.181.181,0,0,0,.271-.019.179.179,0,0,0,.049.251.39.39,0,0,0,.278.047c.385-.049.712-.311,1.091-.393a2.573,2.573,0,0,1,1.179.129,2.086,2.086,0,0,0,1.179.063.749.749,0,0,1,.138-.04.554.554,0,0,1,.216.028c.24.064,2.83.815,3.891,1.1a10.969,10.969,0,0,0,3.78.463.452.452,0,0,0,.206-.052c.15-.094.146-.312.111-.487" transform="translate(-88.714 -30.519)" fill="#874f43"/>
          <path id="Path_925157" data-name="Path 925157" d="M171.474,28.008a1.325,1.325,0,0,0-.608-.89c-.593-.28-1.225.175-1.623.585a5.563,5.563,0,0,0-.955,1.661,12.119,12.119,0,0,0-.539,1.59,20.307,20.307,0,0,0-.555,2.676c.089.121.483.13.624.151a6.711,6.711,0,0,0,3.5-.406.148.148,0,0,0,.117-.163c.056-.825.215-1.64.28-2.465a8.009,8.009,0,0,0-.222-2.681l-.016-.058" transform="translate(-109.079 -17.636)" fill="#bb6254"/>
          <path id="Path_925158" data-name="Path 925158" d="M139.4,36.045a15.963,15.963,0,0,1-4.311,2.153.22.22,0,0,0-.124.074.2.2,0,0,0-.019.131c.018.2.081.628.312.669a4.112,4.112,0,0,0,1.024-.028,13.557,13.557,0,0,0,5.617-1.415.28.28,0,0,0,.118-.1.225.225,0,0,0-.058-.239,1.747,1.747,0,0,1-.179-.19c-.065-.1-.014-.239-.026-.355a1.241,1.241,0,0,0-.1-.423,1.151,1.151,0,0,0-.472-.443,1.494,1.494,0,0,0-1.783.169" transform="translate(-88.041 -23.261)" fill="#663c33"/>
          <path id="Path_925159" data-name="Path 925159" d="M128.941,41.389a.537.537,0,0,0-.433-.171,1.012,1.012,0,0,0-.149.066c-.212.092-.477.027-.671.153a1.615,1.615,0,0,0-.241.242,2.128,2.128,0,0,1-.388.272,2.863,2.863,0,0,0-.666.586.712.712,0,0,0-.093.134.821.821,0,0,0-.067.287q-.024.232-.044.464a.15.15,0,0,0,.026.122.125.125,0,0,0,.075.029.435.435,0,0,0,.37-.14,1.347,1.347,0,0,1,.13-.154,1.033,1.033,0,0,1,.121-.073c.206-.126.306-.377.5-.516a.161.161,0,0,1,.074-.033.224.224,0,0,1,.122.044,2.512,2.512,0,0,0,.5.135c.2.06.377.192.582.237a1.543,1.543,0,0,0,.671-.058c.1-.023.212-.035.312-.066s.164-.091.252-.125a1.25,1.25,0,0,1,.295-.022c.106-.015.247-.05.252-.174a1.107,1.107,0,0,0-.079-.367,1.292,1.292,0,0,0-.474-.636.149.149,0,0,0-.059-.028.167.167,0,0,0-.08.015.724.724,0,0,1-.491.05,2.707,2.707,0,0,1-.347-.27" transform="translate(-82.33 -26.886)" fill="#663c33"/>
          <path id="Path_925160" data-name="Path 925160" d="M133.055,43.362c.068.083.111.183.171.272a.6.6,0,0,0,.408.272.488.488,0,0,0,.526-.429.314.314,0,0,0-.021-.149.419.419,0,0,0-.134-.15,2.6,2.6,0,0,0-.8-.431c-.118-.039-.276-.1-.392-.025a.214.214,0,0,0-.07.273c.06.159.212.241.315.367" transform="translate(-86.592 -27.851)" fill="#874f43"/>
          <path id="Path_925161" data-name="Path 925161" d="M88.68,146.629a12.062,12.062,0,0,1-10.914-.02c-3.023-1.745-3.038-4.567-.034-6.3a12.063,12.063,0,0,1,10.914.02c3.023,1.745,3.038,4.567.034,6.3" transform="translate(-49.252 -90.697)" fill="#d2e1f1"/>
          <path id="Path_925162" data-name="Path 925162" d="M45.34,128.821a12.062,12.062,0,0,1-10.914-.02c-3.023-1.745-3.038-4.566-.034-6.3a12.063,12.063,0,0,1,10.914.02c3.023,1.745,3.038,4.567.034,6.3" transform="translate(-20.975 -79.079)" fill="#d2e1f1"/>
          <path id="Path_925163" data-name="Path 925163" d="M60.5,109.379,27.175,90.11c-.2-.113-.171-.31.055-.44l14.7-8.455a.848.848,0,0,1,.763-.032l33.327,19.269c.2.113.171.31-.055.44l-14.7,8.455a.847.847,0,0,1-.763.032" transform="translate(-17.644 -52.917)" fill="#d2e1f1"/>
          <path id="Path_925164" data-name="Path 925164" d="M64.588,63.537a.25.25,0,0,0-.112-.169l-1.365-.793a.249.249,0,0,1,.112.169l1.717,7.641,1.365.793Z" transform="translate(-41.177 -40.826)" fill="#c28652"/>
          <path id="Path_925165" data-name="Path 925165" d="M62.416,46.309l-.553-3.314a.252.252,0,0,0-.112-.185l-1.365-.793a.249.249,0,0,1,.112.184l.554,3.314a.864.864,0,0,1-.386.768l1.365.793a.863.863,0,0,0,.386-.768" transform="translate(-39.398 -27.414)" fill="#c28652"/>
          <path id="Path_925166" data-name="Path 925166" d="M33.514,61.258l-1.365-.793,10.094-6.172,1.365.793Z" transform="translate(-20.975 -35.423)" fill="#e6ab77"/>
          <path id="Path_925167" data-name="Path 925167" d="M33.13,72.844l-1.365-.793a.467.467,0,0,0-.2.361l.033,11.524,1.365.793L32.926,73.2a.468.468,0,0,1,.2-.361" transform="translate(-20.592 -47.009)" fill="#c28652"/>
          <path id="Path_925168" data-name="Path 925168" d="M50.691,36.04a.2.2,0,0,0-.2.019l-6.931,4,1.365.793,6.931-4a.2.2,0,0,1,.2-.019Z" transform="translate(-28.421 -23.502)" fill="#e6ab77"/>
          <path id="Path_925169" data-name="Path 925169" d="M46.589,38.341c.14-.081.259-.03.277.12l2.065,16.507-.649.374L46.564,47.7a.238.238,0,0,0-.373-.16L37.07,51.873a.473.473,0,0,0-.229.356L36.212,62.31l-.691.4-.033-11.523a.466.466,0,0,1,.2-.361l10.094-6.172a.864.864,0,0,0,.386-.768l-.553-3.314a.233.233,0,0,0-.367-.174l-5.6,2.694c-.063.031-.112,0-.112-.075v-.462a.268.268,0,0,1,.122-.211Z" transform="translate(-23.153 -24.99)" fill="#8f5d31"/>
          <path id="Path_925170" data-name="Path 925170" d="M44.7,48.438l-1.365-.793a.268.268,0,0,0-.122.211v.462a.086.086,0,0,0,.036.078l1.365.793a.085.085,0,0,1-.035-.078v-.462a.268.268,0,0,1,.122-.211" transform="translate(-28.193 -31.085)" fill="#c28652"/>
          <path id="Path_925171" data-name="Path 925171" d="M39.357,66.041l-.013-.006.011-.01h0s0,.009,0,.015" transform="translate(-25.67 -43.077)" fill="#71ce3f"/>
          <path id="Path_925172" data-name="Path 925172" d="M39.357,66.043l-.013-.006.011-.009s0,.009,0,.015" transform="translate(-25.67 -43.079)" fill="#653cc6"/>
          <path id="Path_925173" data-name="Path 925173" d="M39.357,66.041l-.013-.006.011-.01h0s0,.009,0,.015" transform="translate(-25.67 -43.077)" fill="#936be5"/>
          <path id="Path_925174" data-name="Path 925174" d="M82.152,26.316l-1.384.793-10.55-6.051,1.384-.793a.471.471,0,0,1,.472-.046l10.55,6.051a.472.472,0,0,0-.472.046" transform="translate(-45.813 -13.162)" fill="#d9d9d9"/>
          <path id="Path_925175" data-name="Path 925175" d="M67.9,37.922a.433.433,0,0,1-.194-.35,59.938,59.938,0,0,1-.3-6.285c0-3.295.2-6.182.308-7.486a1.491,1.491,0,0,1,.668-1.083l10.55,6.051a1.491,1.491,0,0,0-.668,1.083c-.107,1.3-.308,4.192-.308,7.486a59.949,59.949,0,0,0,.3,6.285.433.433,0,0,0,.194.35Z" transform="translate(-43.982 -14.822)" fill="#f2f2f2"/>
          <path id="Path_925176" data-name="Path 925176" d="M97.765,47.038a59.949,59.949,0,0,0,.3,6.285c.039.369.326.5.667.3l1.394-.8a1.479,1.479,0,0,0,.671-1.162v-13.6c0-.43-.3-.605-.671-.393l-1.384.794a1.491,1.491,0,0,0-.668,1.083c-.107,1.3-.308,4.192-.308,7.486" transform="translate(-63.786 -24.522)" fill="#a6a6a6"/>
          <path id="Path_925177" data-name="Path 925177" d="M45.456,84.6l0-1.595L34.936,76.9l0,1.595a.471.471,0,0,0,.2.432l10.515,6.111a.471.471,0,0,1-.2-.432" transform="translate(-22.794 -50.172)" fill="#d9d9d9"/>
          <path id="Path_925178" data-name="Path 925178" d="M47.862,53.737a.433.433,0,0,0-.4.007,59.924,59.924,0,0,0-5.592,2.884c-2.853,1.647-5.253,3.265-6.329,4.009a1.491,1.491,0,0,0-.6,1.12l10.515,6.111a1.49,1.49,0,0,1,.6-1.119c1.076-.745,3.476-2.362,6.329-4.01a59.925,59.925,0,0,1,5.592-2.884.435.435,0,0,1,.4-.007Z" transform="translate(-22.794 -35.03)" fill="#f2f2f2"/>
          <path id="Path_925179" data-name="Path 925179" d="M72.124,74.211a59.932,59.932,0,0,1,5.592-2.884c.339-.15.6.033.6.425l0,1.607a1.479,1.479,0,0,1-.671,1.163l-11.775,6.8c-.372.215-.675.043-.676-.385l0-1.595a1.491,1.491,0,0,1,.6-1.12c1.076-.745,3.476-2.362,6.329-4.009" transform="translate(-42.533 -46.502)" fill="#a6a6a6"/>
          <path id="Path_925180" data-name="Path 925180" d="M100.438,84.214a.25.25,0,0,0-.112-.169l-1.365-.793a.25.25,0,0,1,.112.169l1.717,7.641,1.365.793Z" transform="translate(-64.567 -54.317)" fill="#c28652"/>
          <path id="Path_925181" data-name="Path 925181" d="M98.266,66.986l-.553-3.314a.252.252,0,0,0-.112-.185l-1.365-.793a.249.249,0,0,1,.112.185l.554,3.314a.864.864,0,0,1-.386.768l1.365.793a.866.866,0,0,0,.386-.768" transform="translate(-62.788 -40.904)" fill="#c28652"/>
          <path id="Path_925182" data-name="Path 925182" d="M69.364,81.935,68,81.142,78.093,74.97l1.365.793Z" transform="translate(-44.366 -48.913)" fill="#e6ab77"/>
          <path id="Path_925183" data-name="Path 925183" d="M68.98,93.521l-1.365-.793a.467.467,0,0,0-.2.361l.033,11.524,1.365.793-.033-11.524a.468.468,0,0,1,.2-.361" transform="translate(-43.982 -60.499)" fill="#c28652"/>
          <path id="Path_925184" data-name="Path 925184" d="M86.542,56.718a.2.2,0,0,0-.2.019l-6.931,4,1.365.793,6.931-4a.2.2,0,0,1,.2-.019Z" transform="translate(-51.811 -36.993)" fill="#e6ab77"/>
          <path id="Path_925185" data-name="Path 925185" d="M82.44,59.018c.14-.081.259-.03.277.12l2.065,16.507-.649.374-1.717-7.64a.238.238,0,0,0-.374-.16L72.921,72.55a.473.473,0,0,0-.229.356l-.629,10.083-.692.4-.033-11.523a.466.466,0,0,1,.2-.361L81.636,65.33a.864.864,0,0,0,.386-.768l-.553-3.314a.233.233,0,0,0-.367-.174l-5.6,2.694c-.063.031-.112,0-.112-.075v-.462a.268.268,0,0,1,.122-.211Z" transform="translate(-46.544 -38.481)" fill="#8f5d31"/>
          <path id="Path_925186" data-name="Path 925186" d="M80.548,69.115l-1.365-.793a.269.269,0,0,0-.122.211V69a.085.085,0,0,0,.036.078l1.365.793a.085.085,0,0,1-.035-.078v-.462a.267.267,0,0,1,.122-.211" transform="translate(-51.582 -44.576)" fill="#c28652"/>
          <path id="Path_925187" data-name="Path 925187" d="M117.4,94.023a.25.25,0,0,0-.112-.169l-1.365-.793a.25.25,0,0,1,.112.169l1.717,7.641,1.365.793Z" transform="translate(-75.632 -60.717)" fill="#c28652"/>
          <path id="Path_925188" data-name="Path 925188" d="M115.224,76.795l-.553-3.314a.25.25,0,0,0-.112-.184l-1.365-.793a.248.248,0,0,1,.112.184L113.86,76a.864.864,0,0,1-.386.768l1.365.793a.865.865,0,0,0,.386-.768" transform="translate(-73.852 -47.304)" fill="#c28652"/>
          <path id="Path_925189" data-name="Path 925189" d="M86.323,91.744l-1.365-.793,10.094-6.172,1.365.793Z" transform="translate(-55.43 -55.313)" fill="#e6ab77"/>
          <path id="Path_925190" data-name="Path 925190" d="M85.94,103.33l-1.365-.793a.467.467,0,0,0-.2.361l.033,11.524,1.365.793-.033-11.523a.468.468,0,0,1,.2-.361" transform="translate(-55.047 -66.899)" fill="#c28652"/>
          <path id="Path_925191" data-name="Path 925191" d="M103.5,66.527a.2.2,0,0,0-.2.019l-6.931,4,1.365.793,6.931-4a.2.2,0,0,1,.2-.019Z" transform="translate(-62.876 -43.392)" fill="#e6ab77"/>
          <path id="Path_925192" data-name="Path 925192" d="M99.4,68.827c.14-.081.259-.03.277.12l2.065,16.507-.649.374-1.717-7.64a.238.238,0,0,0-.374-.16L89.88,82.359a.473.473,0,0,0-.229.356L89.022,92.8l-.692.4L88.3,81.672a.466.466,0,0,1,.2-.36l10.094-6.172a.864.864,0,0,0,.386-.768l-.553-3.314a.233.233,0,0,0-.367-.174l-5.6,2.694c-.063.031-.112,0-.112-.075V73.04a.268.268,0,0,1,.122-.211Z" transform="translate(-57.608 -44.881)" fill="#8f5d31"/>
          <path id="Path_925193" data-name="Path 925193" d="M97.508,78.924l-1.365-.793a.269.269,0,0,0-.122.211V78.8a.085.085,0,0,0,.036.078l1.365.793a.085.085,0,0,1-.035-.078v-.462a.266.266,0,0,1,.122-.211" transform="translate(-62.648 -50.976)" fill="#c28652"/>
          <path id="Path_925194" data-name="Path 925194" d="M92.166,96.527l-.013-.006.011-.01h0s0,.009,0,.015" transform="translate(-60.124 -62.968)" fill="#71ce3f"/>
          <path id="Path_925195" data-name="Path 925195" d="M92.166,96.529l-.013-.006.011-.009s0,.009,0,.015" transform="translate(-60.124 -62.969)" fill="#653cc6"/>
          <path id="Path_925196" data-name="Path 925196" d="M92.166,96.527l-.013-.006.011-.01h0s0,.009,0,.015" transform="translate(-60.124 -62.968)" fill="#936be5"/>
          <path id="Path_925197" data-name="Path 925197" d="M134.962,56.8l-1.384.793-10.55-6.051,1.384-.793a.471.471,0,0,1,.472-.046l10.55,6.051a.472.472,0,0,0-.472.046" transform="translate(-80.268 -33.053)" fill="#d9d9d9"/>
          <path id="Path_925198" data-name="Path 925198" d="M120.713,68.408a.434.434,0,0,1-.194-.35,59.938,59.938,0,0,1-.3-6.285c0-3.295.2-6.182.308-7.486A1.491,1.491,0,0,1,121.2,53.2l10.55,6.051a1.492,1.492,0,0,0-.668,1.083c-.107,1.3-.308,4.191-.308,7.486a59.947,59.947,0,0,0,.3,6.285.434.434,0,0,0,.194.35Z" transform="translate(-78.437 -34.712)" fill="#f2f2f2"/>
          <path id="Path_925199" data-name="Path 925199" d="M150.575,77.524a59.945,59.945,0,0,0,.3,6.285c.039.369.326.5.667.3l1.394-.8a1.479,1.479,0,0,0,.671-1.162v-13.6c0-.43-.3-.605-.671-.393l-1.384.794a1.491,1.491,0,0,0-.668,1.083c-.107,1.3-.308,4.192-.308,7.486" transform="translate(-98.241 -44.412)" fill="#a6a6a6"/>
          <g id="Group_1119416" data-name="Group 1119416" transform="translate(23.004 12.848)">
            <g id="Group_1119415" data-name="Group 1119415">
              <g id="Group_1119414" data-name="Group 1119414" clip-path="url(#clip-path-4)">
                <g id="Group_1119413" data-name="Group 1119413" style="isolation: isolate">
                  <g id="Group_1119412" data-name="Group 1119412">
                    <g id="Group_1119411" data-name="Group 1119411" clip-path="url(#clip-path-4)">
                      <g id="Group_1119380" data-name="Group 1119380" transform="translate(7.493 24.475)">
                        <g id="Group_1119379" data-name="Group 1119379">
                          <g id="Group_1119378" data-name="Group 1119378" clip-path="url(#clip-path-6)">
                            <path id="Path_925200" data-name="Path 925200" d="M98.266,115.09l0-1.595-10.515-6.111,0,1.6a.471.471,0,0,0,.2.432l10.515,6.111a.471.471,0,0,1-.2-.432" transform="translate(-87.746 -107.384)" fill="#d9d9d9"/>
                          </g>
                        </g>
                      </g>
                      <g id="Group_1119383" data-name="Group 1119383" transform="translate(7.493 16.409)">
                        <g id="Group_1119382" data-name="Group 1119382">
                          <g id="Group_1119381" data-name="Group 1119381" clip-path="url(#clip-path-7)">
                            <path id="Path_925201" data-name="Path 925201" d="M100.671,84.224a.433.433,0,0,0-.4.007,59.923,59.923,0,0,0-5.592,2.884c-2.853,1.647-5.253,3.265-6.329,4.009a1.492,1.492,0,0,0-.6,1.12l10.515,6.111a1.49,1.49,0,0,1,.6-1.119c1.076-.745,3.476-2.363,6.329-4.01a59.926,59.926,0,0,1,5.592-2.884.435.435,0,0,1,.4-.007Z" transform="translate(-87.746 -84.178)" fill="#f2f2f2"/>
                          </g>
                        </g>
                      </g>
                      <path id="Path_925202" data-name="Path 925202" d="M79.846,67.48a.717.717,0,0,0-.2-.4c-.152-.132-.514-.247-.689-.1-.139.114-.188.435-.257.594-.255.588-.557,1.155-.866,1.717-.112.2-.225.407-.336.611a2.485,2.485,0,0,1-.287.541,60.623,60.623,0,0,1-6.037,1.351c-.126-.023-.253-.041-.378-.067a1.462,1.462,0,0,1-.466-.189,1.5,1.5,0,0,0-.43-.147c-.154-.038-.313-.056-.467-.094a1.463,1.463,0,0,0-.36-.033,1.264,1.264,0,0,0-.267.056,4.547,4.547,0,0,0-.569.213,2.61,2.61,0,0,1-.634.241c-.112.018-.259.047-.271.16a.273.273,0,0,1-.005.058c-.017.049-.081.058-.133.059a3.309,3.309,0,0,0-.791.114.406.406,0,0,0-.16.071.15.15,0,0,0-.054.157c.027.079.13.1.176.173a.839.839,0,0,1,.052.186c.055.154.249.19.4.253s.273.166.415.24a1.927,1.927,0,0,0,.689.176c.361.04.726.052,1.089.064a5.741,5.741,0,0,0,1.187-.042c.332-.058,4.81.177,6.547-.116a3.8,3.8,0,0,0,1.3-.413.368.368,0,0,0,.114-.092.393.393,0,0,0,.059-.168,3.967,3.967,0,0,0,.054-.463.161.161,0,0,0,.066-.044A4.839,4.839,0,0,0,79.411,70.3a5.086,5.086,0,0,0,.435-2.823" transform="translate(-66.187 -56.501)" fill="#663c33"/>
                      <g id="Group_1119386" data-name="Group 1119386" transform="translate(5.381 36.173)">
                        <g id="Group_1119385" data-name="Group 1119385">
                          <g id="Group_1119384" data-name="Group 1119384" clip-path="url(#clip-path-8)">
                            <path id="Path_925203" data-name="Path 925203" d="M82.714,143.674l-.036.031a3.8,3.8,0,0,0-.724.777,1.3,1.3,0,0,0-.254.986.958.958,0,0,0,.658.507,2.778,2.778,0,0,0,1.79-.076c.983-.385,1.716-1.321,2.75-1.531.316-.064.644-.055.959-.124a1.984,1.984,0,0,0,.825-.4c.426-.348.312-1.052.154-1.517a5.982,5.982,0,0,0-.634-1.212c.069.11-.475.1-.495.1a3.862,3.862,0,0,1-.9,0,1.04,1.04,0,0,1-.271-.04c-.019-.008-.16-.114-.131-.133a32.687,32.687,0,0,0-3.686,2.632" transform="translate(-81.668 -141.042)" fill="#0069d1"/>
                          </g>
                        </g>
                      </g>
                      <g id="Group_1119389" data-name="Group 1119389" transform="translate(8.037 18.704)">
                        <g id="Group_1119388" data-name="Group 1119388">
                          <g id="Group_1119387" data-name="Group 1119387" clip-path="url(#clip-path-9)">
                            <path id="Path_925204" data-name="Path 925204" d="M99.728,92.314a2.786,2.786,0,0,0-1.908-1.191.383.383,0,0,1-.323-.341,7.917,7.917,0,0,0-1.849,1c-.9.594-1.817,1.173-2.709,1.784a26.839,26.839,0,0,0-2.216,1.666c-.52.441-1.362,1.077-1.407,1.826a6.061,6.061,0,0,0,.084,1.192,85.408,85.408,0,0,1,1.17,10.349.44.44,0,0,0,.047.233.353.353,0,0,0,.159.121,1.579,1.579,0,0,0,.605.106,5.98,5.98,0,0,0,2.079-.319c-.158-2.678-.107-5.363-.222-8.043a5.646,5.646,0,0,0-.076-.81,3.765,3.765,0,0,0-.233-.747,63.3,63.3,0,0,0,6.588-4.162.564.564,0,0,0,.3-.474,3.348,3.348,0,0,0-.092-2.194" transform="translate(-89.31 -90.782)" fill="#262626"/>
                          </g>
                        </g>
                      </g>
                      <g id="Group_1119392" data-name="Group 1119392" transform="translate(12.328 7.521)">
                        <g id="Group_1119391" data-name="Group 1119391">
                          <g id="Group_1119390" data-name="Group 1119390" clip-path="url(#clip-path-10)">
                            <path id="Path_925205" data-name="Path 925205" d="M102.382,59.569c-.168.545-.322,1.093-.475,1.643q-.108.387-.217.774a.556.556,0,0,0-.031.219.52.52,0,0,0,.193.3,3.352,3.352,0,0,0,1.363.756c.109-1.367.468-2.712.465-4.084a.655.655,0,0,0-.059-.324.706.706,0,0,0-.779-.2c-.269.127-.381.667-.459.921" transform="translate(-101.656 -58.604)" fill="#0080ff"/>
                          </g>
                        </g>
                      </g>
                      <g id="Group_1119395" data-name="Group 1119395" transform="translate(10.752 36.987)">
                        <g id="Group_1119394" data-name="Group 1119394">
                          <g id="Group_1119393" data-name="Group 1119393" clip-path="url(#clip-path-11)">
                            <path id="Path_925206" data-name="Path 925206" d="M98.186,146.061a5.607,5.607,0,0,0-.73.87,1.529,1.529,0,0,0-.312,1.088c.081.321.537.4.808.439a3.708,3.708,0,0,0,3.127-.951,6.867,6.867,0,0,1,.834-.87c.32-.229.716-.332,1.042-.553a1.592,1.592,0,0,0,.7-1.35,1.392,1.392,0,0,0-.865-1.224,1.23,1.23,0,0,0-.672-.109c-.1.027-.13.079-.244.071a1.544,1.544,0,0,0-.365-.048.6.6,0,0,0-.23.113,24.635,24.635,0,0,0-2.7,2.152c-.133.122-.264.246-.392.373" transform="translate(-97.122 -143.383)" fill="#0080ff"/>
                          </g>
                        </g>
                      </g>
                      <g id="Group_1119398" data-name="Group 1119398" transform="translate(10.663 17.297)">
                        <g id="Group_1119397" data-name="Group 1119397">
                          <g id="Group_1119396" data-name="Group 1119396" clip-path="url(#clip-path-12)">
                            <path id="Path_925207" data-name="Path 925207" d="M109.335,86.877a.4.4,0,0,0-.256-.143c.083.664.587,1.834,0,2.389a2.538,2.538,0,0,1-1.18.446,4.9,4.9,0,0,1-2.29-.177,10.193,10.193,0,0,0-1.822-.508A1.348,1.348,0,0,0,103,89a1.533,1.533,0,0,0-.608,1.491,3.866,3.866,0,0,0,.759,1.776A29.291,29.291,0,0,0,99.5,94.58,12.207,12.207,0,0,0,97.5,96.561a2.7,2.7,0,0,0-.585,2.281,7.426,7.426,0,0,0,.554,1.832c.512,1.171,1.23,2.241,1.785,3.393a13.53,13.53,0,0,1,1.04,3.033.372.372,0,0,0,.131.255.364.364,0,0,0,.127.041,4.641,4.641,0,0,0,.9.109,2.328,2.328,0,0,0,1.42-.51.4.4,0,0,0,.127-.146.431.431,0,0,0,.014-.205,35.577,35.577,0,0,0-.941-5.393,14.821,14.821,0,0,0-.845-2.527l-.016-.033c.6-.291,1.239-.526,1.87-.756l2.877-1.051a11.585,11.585,0,0,0,2.92-1.268c2.642-1.971,2.285-6.157.569-8.6a1.256,1.256,0,0,0-.11-.139" transform="translate(-96.866 -86.734)" fill="#404040"/>
                          </g>
                        </g>
                      </g>
                      <g id="Group_1119401" data-name="Group 1119401" transform="translate(12.867 6.068)">
                        <g id="Group_1119400" data-name="Group 1119400">
                          <g id="Group_1119399" data-name="Group 1119399" clip-path="url(#clip-path-13)">
                            <path id="Path_925208" data-name="Path 925208" d="M103.443,57.674q-.15,1.547-.22,3.1a4.745,4.745,0,0,0,.07,1.332,5.585,5.585,0,0,0,.537,1.236c.815,1.565,1.236,3.238,1.958,4.836a2.975,2.975,0,0,0,2.134,1.33,7.646,7.646,0,0,0,2.234.063,6.947,6.947,0,0,0,2.338-.552,3.165,3.165,0,0,0,1.663-1.669c.23-.633-3.365-7.16-3.684-7.918a17.272,17.272,0,0,0-1.045-2.268,7,7,0,0,0-1.768-2.013,3.516,3.516,0,0,0-1.374-.673c-2.006-.413-2.69,1.605-2.844,3.2" transform="translate(-103.209 -54.424)" fill="#0069d1"/>
                          </g>
                        </g>
                      </g>
                      <path id="Path_925209" data-name="Path 925209" d="M102.234,54.759c.045.228.061.462.123.686a.176.176,0,0,0,.05.094c.062.05.154,0,.213-.053a3.735,3.735,0,0,0,.538-.723,7.106,7.106,0,0,1,.86-1.01,2.206,2.206,0,0,0,.566-.754,2.081,2.081,0,0,0,.089-.624,1.008,1.008,0,0,0-.123-.65.217.217,0,0,0-.122-.091.352.352,0,0,0-.144.016.842.842,0,0,1-.715-.237,2.487,2.487,0,0,1-.453-.633l-.6-1.052a1.351,1.351,0,0,1-.473.816,3.5,3.5,0,0,1-.821.5,2.147,2.147,0,0,1-.937.273.376.376,0,0,0-.189.025.252.252,0,0,0-.106.156.747.747,0,0,0,.081.547,1.679,1.679,0,0,0,.543.717,3.865,3.865,0,0,1,.735.465,2.807,2.807,0,0,1,.881,1.532" transform="translate(-88.229 -45.292)" fill="#663c33"/>
                      <path id="Path_925210" data-name="Path 925210" d="M98.533,38.512a3.318,3.318,0,0,0-1.777.425,2.336,2.336,0,0,0-.677.566,2.366,2.366,0,0,0-.444,1.039,5.5,5.5,0,0,0,.017,1.83,1.344,1.344,0,0,1,.027.3,1.215,1.215,0,0,1-.044.231l-.173.669c.143.133.384.123.513.27a.632.632,0,0,1,.108.233,5.068,5.068,0,0,0,.616,1.284.522.522,0,0,0,.155.168.534.534,0,0,0,.357.029,9.1,9.1,0,0,0,1.481-.363.626.626,0,0,0,.253-.133.655.655,0,0,0,.1-.541,3.075,3.075,0,0,0,1.176-.3,2.383,2.383,0,0,0,1.141-1.478,3.935,3.935,0,0,0-.2-2.5,3.046,3.046,0,0,0-1.224-1.386,4.034,4.034,0,0,0-.637-.2,3.235,3.235,0,0,0-.767-.133" transform="translate(-85.286 -37.973)" fill="#874f43"/>
                      <g id="Group_1119404" data-name="Group 1119404" transform="translate(10.223)">
                        <g id="Group_1119403" data-name="Group 1119403">
                          <g id="Group_1119402" data-name="Group 1119402" clip-path="url(#clip-path-14)">
                            <path id="Path_925211" data-name="Path 925211" d="M98.545,41.728a.5.5,0,0,1,.32.25,1.027,1.027,0,0,1,.115.4,1.244,1.244,0,0,1-.028.5,1.568,1.568,0,0,1-.28.491,8.752,8.752,0,0,0-.548.749,1.04,1.04,0,0,0-.184.563.635.635,0,0,0,.545.624.99.99,0,0,0,.571-.138,1.26,1.26,0,0,1,.5-.218c.076,0,.152.009.227,0a.789.789,0,0,0,.333-.147l.692-.445a4.336,4.336,0,0,0,.425-.324.481.481,0,0,0,.136-.13c.029-.05.009-.115.052-.162s.117-.039.18-.046a.629.629,0,0,0,.349-.211,1.835,1.835,0,0,0,.414-.557.823.823,0,0,0,.012-.677,1.025,1.025,0,0,0-.04-1.072.909.909,0,0,0-.117-1.144.659.659,0,0,0-.407-.966,1.216,1.216,0,0,0-.167-.6.562.562,0,0,0-.535-.267.6.6,0,0,0-.141-.518c-.085-.1-.305-.262-.442-.193-.039.019-.079.055-.119.038s-.041-.052-.05-.085a.393.393,0,0,0-.256-.269c-.117-.024-.2.07-.3.1a.574.574,0,0,0-.415-.291.558.558,0,0,0-.478.174.314.314,0,0,0-.367-.18.66.66,0,0,0-.23.087,1.432,1.432,0,0,0-.151.139.659.659,0,0,0-.845.3.3.3,0,0,1-.08.123.285.285,0,0,1-.178.027.884.884,0,0,0-.872.89.867.867,0,0,0-.562.668,3.224,3.224,0,0,0,.1.946.722.722,0,0,0,.518.609.7.7,0,0,0,.22.806.888.888,0,0,0,.266.6.3.3,0,0,0,.186.1c.04,0,.079-.009.119-.01.165-.007.291.135.413.245a1.4,1.4,0,0,0,.365.237.178.178,0,0,0,.127.019.141.141,0,0,0,.074-.075c.1-.2-.03-.432.039-.64a.474.474,0,0,1,.5-.311" transform="translate(-95.601 -36.966)" fill="#262626"/>
                          </g>
                        </g>
                      </g>
                      <path id="Path_925212" data-name="Path 925212" d="M82.534,74.494a1.124,1.124,0,0,0-.557-.567,1.253,1.253,0,0,0-.625-.049,2.953,2.953,0,0,0-1.91,1.138c-.507.624-2.733,3.12-2.806,3.219a1.526,1.526,0,0,0-.155-.049,18.674,18.674,0,0,0-3.623-.206,13.379,13.379,0,0,1-1.331-.147c-.095-.033-.189-.068-.282-.105a3.853,3.853,0,0,0-.443-.18,2.847,2.847,0,0,0-.46-.073,4.33,4.33,0,0,1-1.127-.28,2.5,2.5,0,0,0-.521-.081,3.228,3.228,0,0,1-.551-.138.672.672,0,0,1-.212-.106.844.844,0,0,1-.145-.176q-.08-.113-.169-.219a.424.424,0,0,0-.121-.109.23.23,0,0,0-.244.023c-.1.08-.059.194-.112.289s.018.24.093.339a3.206,3.206,0,0,0,.389.455c.133.121.286.22.42.34a5.04,5.04,0,0,0,.533.5,1.845,1.845,0,0,0,.435.193,10.07,10.07,0,0,0,1.426.36c.1.065,5.165,1.223,6.933,1.458a1.677,1.677,0,0,0,.69-.007,5.079,5.079,0,0,0,1.295-.689,10.092,10.092,0,0,0,2.465-2.072,4.225,4.225,0,0,0,.807-1.439,2.259,2.259,0,0,0-.093-1.62" transform="translate(-66.795 -61.038)" fill="#874f43"/>
                      <g id="Group_1119407" data-name="Group 1119407" transform="translate(12.142 10.422)">
                        <g id="Group_1119406" data-name="Group 1119406">
                          <g id="Group_1119405" data-name="Group 1119405" clip-path="url(#clip-path-15)">
                            <path id="Path_925213" data-name="Path 925213" d="M103.732,67.011a2.088,2.088,0,0,0-.816.576,3.614,3.614,0,0,0-.59.8,21.851,21.851,0,0,0-1.178,2.366.207.207,0,0,0-.025.115.2.2,0,0,0,.047.085,3.339,3.339,0,0,0,1.6,1.028,5.115,5.115,0,0,0,2.739.116.222.222,0,0,0,.082-.032.218.218,0,0,0,.062-.1,7.962,7.962,0,0,0,.3-.772,4.033,4.033,0,0,0-.172-2.8,2.853,2.853,0,0,0-.8-1.073,1.307,1.307,0,0,0-1.162-.336l-.08.023" transform="translate(-101.121 -66.953)" fill="#0080ff"/>
                          </g>
                        </g>
                      </g>
                      <path id="Path_925214" data-name="Path 925214" d="M69.3,83.679a.681.681,0,0,1,.088.037.378.378,0,0,1,.092.125.733.733,0,0,0,.236.2,3.122,3.122,0,0,0,.319.187,1.591,1.591,0,0,0,.708.162.685.685,0,0,0,.312-.062.651.651,0,0,0,.283-.351.34.34,0,0,0,.018-.267.357.357,0,0,0-.283-.158,3.02,3.02,0,0,0-.624-.015,1.052,1.052,0,0,1-.573-.068c-.084-.046-.153-.115-.233-.167-.109-.071-.351-.177-.458-.049a.307.307,0,0,0,.116.42" transform="translate(-68.11 -67.131)" fill="#663c33"/>
                      <g id="Group_1119410" data-name="Group 1119410" transform="translate(18.009 22.52)">
                        <g id="Group_1119409" data-name="Group 1119409">
                          <g id="Group_1119408" data-name="Group 1119408" clip-path="url(#clip-path-16)">
                            <path id="Path_925215" data-name="Path 925215" d="M124.934,104.7a59.979,59.979,0,0,1,5.592-2.884c.339-.15.6.033.6.425l0,1.607a1.479,1.479,0,0,1-.671,1.163l-11.775,6.8c-.372.215-.674.043-.676-.385l0-1.595a1.491,1.491,0,0,1,.6-1.12c1.076-.745,3.476-2.362,6.329-4.009" transform="translate(-118.001 -101.76)" fill="#a6a6a6"/>
                          </g>
                        </g>
                      </g>
                    </g>
                  </g>
                </g>
              </g>
            </g>
          </g>
          <path id="Path_925216" data-name="Path 925216" d="M153.248,114.7a.249.249,0,0,0-.112-.169l-1.365-.793a.25.25,0,0,1,.112.169l1.717,7.641,1.365.793Z" transform="translate(-99.022 -74.208)" fill="#c28652"/>
          <path id="Path_925217" data-name="Path 925217" d="M151.075,97.473l-.553-3.314a.252.252,0,0,0-.112-.185l-1.365-.793a.248.248,0,0,1,.112.184l.554,3.314a.864.864,0,0,1-.386.768l1.365.793a.865.865,0,0,0,.386-.768" transform="translate(-97.243 -60.795)" fill="#c28652"/>
          <path id="Path_925218" data-name="Path 925218" d="M122.174,112.421l-1.365-.793,10.094-6.172,1.365.793Z" transform="translate(-78.821 -68.803)" fill="#e6ab77"/>
          <path id="Path_925219" data-name="Path 925219" d="M121.79,124.008l-1.365-.793a.467.467,0,0,0-.2.361l.033,11.524,1.365.793-.033-11.523a.468.468,0,0,1,.2-.361" transform="translate(-78.437 -80.39)" fill="#c28652"/>
          <path id="Path_925220" data-name="Path 925220" d="M139.351,87.2a.2.2,0,0,0-.2.019l-6.931,4,1.365.793,6.931-4a.2.2,0,0,1,.2-.019Z" transform="translate(-86.266 -56.883)" fill="#e6ab77"/>
          <path id="Path_925221" data-name="Path 925221" d="M135.249,89.505c.14-.081.259-.03.277.12l2.065,16.507-.649.374-1.717-7.64a.238.238,0,0,0-.374-.16l-9.121,4.331a.473.473,0,0,0-.229.356l-.629,10.082-.692.4-.033-11.523a.466.466,0,0,1,.2-.361l10.094-6.172a.864.864,0,0,0,.386-.768l-.553-3.314a.233.233,0,0,0-.367-.174l-5.6,2.694c-.063.031-.112,0-.112-.075v-.462a.268.268,0,0,1,.122-.211Z" transform="translate(-80.998 -58.372)" fill="#8f5d31"/>
          <path id="Path_925222" data-name="Path 925222" d="M133.358,99.6l-1.365-.793a.268.268,0,0,0-.122.211v.462a.087.087,0,0,0,.036.078l1.365.793a.085.085,0,0,1-.035-.078v-.462a.267.267,0,0,1,.122-.211" transform="translate(-86.038 -64.467)" fill="#c28652"/>
          <path id="Path_925223" data-name="Path 925223" d="M43.41,121.269a1.838,1.838,0,0,0-.271-.717c-.023-.034-.079-.144-.12-.155s-.109.039-.154.039a1.221,1.221,0,0,1-.308-.093,1.985,1.985,0,0,0-.964.042.6.6,0,0,0-.255.272,19.319,19.319,0,0,0-1.049,1.954,8.879,8.879,0,0,0-.636,1.562,1.919,1.919,0,0,0,.13,1.488.992.992,0,0,0,.34.313,1.466,1.466,0,0,0,1.415-.111,2.355,2.355,0,0,0,.931-1.051,4.539,4.539,0,0,0,.32-.97,3.48,3.48,0,0,1,.231-.927c.092-.168.215-.318.3-.489a2.054,2.054,0,0,0,.087-1.157" transform="translate(-25.815 -78.488)" fill="#fd0"/>
          <path id="Path_925224" data-name="Path 925224" d="M45.506,62.543a.4.4,0,0,0-.092-.172A9.493,9.493,0,0,0,43.935,60.7a2.661,2.661,0,0,0-2.072-.649,2.342,2.342,0,0,0-1.5,1.327,6.757,6.757,0,0,0-.746,2.262,20.8,20.8,0,0,0-.292,2.84,53.449,53.449,0,0,0-.054,8.485A32.072,32.072,0,0,0,40,79.094q.246,1.011.541,2.01c.067.225.05.508.23.656a1.594,1.594,0,0,0,.713.234,2.214,2.214,0,0,0,1.453-.28.217.217,0,0,0,.07-.058.231.231,0,0,0,.029-.128c.017-.6.005-5.9,0-7.055a12.453,12.453,0,0,1,.465-2.7l.668-3.046,1.323-6.029a.4.4,0,0,0,.014-.149" transform="translate(-25.524 -39.159)" fill="#404040"/>
          <path id="Path_925225" data-name="Path 925225" d="M54.534,125.893c-.036.333-.015.67-.031,1.005a8.45,8.45,0,0,0-.095,2.186,3.016,3.016,0,0,0,.525,1.227,1.759,1.759,0,0,0,.514.527.943.943,0,0,0,1.1-.08,1.925,1.925,0,0,0,.437-.535,5.625,5.625,0,0,0-.273-5.412,1.718,1.718,0,0,0-.528-.634c-.323-.207-.966-.234-1.182.138a4.407,4.407,0,0,0-.466,1.578" transform="translate(-35.462 -80.92)" fill="#ffbf00"/>
          <path id="Path_925226" data-name="Path 925226" d="M58.92,65.039a11.757,11.757,0,0,0-.481-1.214c-.128-.282-.241-.743-.543-.873a2.384,2.384,0,0,0-2.1.3,2.942,2.942,0,0,0-.863.913,2.232,2.232,0,0,0-.33,1.231q-.072,2.383-.1,4.766c-.021,1.518-.088,3.015-.05,4.532L54.7,84.826a.667.667,0,0,0,.049.286.524.524,0,0,0,.2.2,1.88,1.88,0,0,0,1.7-.006.432.432,0,0,0,.2-.131.45.45,0,0,0,.06-.148,41.988,41.988,0,0,0,1.434-9.689,11.33,11.33,0,0,1,.068-1.684c.127-.693.371-1.355.532-2.035a16.941,16.941,0,0,0,.379-2.187,10.715,10.715,0,0,0-.394-4.39" transform="translate(-35.519 -40.987)" fill="#262626"/>
          <path id="Path_925227" data-name="Path 925227" d="M75.045,51.876q-.007-.059-.015-.119c-.162-1.192-.635-2.32-.791-3.521-.119-.915-.118-1.844-.282-2.752a1.139,1.139,0,0,0-.4-.789.983.983,0,0,0-.51-.132,2.538,2.538,0,0,0-.968.155,1.65,1.65,0,0,0-.672.431c-.789.888-.225,2.312-.01,3.3.169.778.851,3.614,1.038,4.256a6.084,6.084,0,0,1-.019,1.936q-.008.177-.014.354c0,.089-.006.178-.009.268a.518.518,0,0,1-.17.1.984.984,0,0,1-.508,0,.662.662,0,0,0-.3-.037.353.353,0,0,0-.243.362.725.725,0,0,0,.194.422.985.985,0,0,1,.244.364.755.755,0,0,1-.063.426l-.172.488a1.025,1.025,0,0,0-.087.454.352.352,0,0,0,.285.324,1.04,1.04,0,0,0-.048.307.355.355,0,0,0,.127.273.278.278,0,0,0,.252.037.184.184,0,0,1,.081-.019c.061.008.081.086.123.131a.283.283,0,0,0,.181.067l.226.027a.936.936,0,0,0,.162.01.729.729,0,0,0,.3-.1,2.968,2.968,0,0,0,.927-.884,2.226,2.226,0,0,0,.315-.535.894.894,0,0,0,.024-.61c-.033-.09-.084-.173-.108-.266a.78.78,0,0,1,.037-.418.431.431,0,0,0,.03-.161.236.236,0,0,0-.014-.059,4.849,4.849,0,0,0,.344-.753,7.347,7.347,0,0,0,.509-3.338" transform="translate(-46.326 -29.074)" fill="#663c33"/>
          <path id="Path_925228" data-name="Path 925228" d="M71.009,35.583a7.718,7.718,0,0,1,1.116,1.608,15.713,15.713,0,0,1,1,2.245.171.171,0,0,1,.016.084.162.162,0,0,1-.031.064,3.8,3.8,0,0,1-2.83,1.61c-.144.01-.536.058-.645-.064-.057-.064-.01-.142,0-.215a1.857,1.857,0,0,0-.018-.3q-.021-.294-.042-.588-.028-.392-.055-.784a22.372,22.372,0,0,1-.034-3.139,1.491,1.491,0,0,0-.06-.654A2.463,2.463,0,0,1,69.3,34.7a2.777,2.777,0,0,1,1.708.887" transform="translate(-45.215 -22.637)" fill="#fd0"/>
          <path id="Path_925229" data-name="Path 925229" d="M41.831,33.933c-.16.117-.451.279-.537.465a.478.478,0,0,0-.051.4,8.581,8.581,0,0,1,.4,1.094c.077.294.07.6.157.889a15.606,15.606,0,0,1,.487,2.171,3.733,3.733,0,0,1,.043,1.087,4.861,4.861,0,0,1-.479,1.309,16.812,16.812,0,0,0-1.1,3.165.684.684,0,0,0-.026.277.625.625,0,0,0,.122.245,3.312,3.312,0,0,0,1.027.928,4.839,4.839,0,0,0,1.629.535,8.993,8.993,0,0,0,6.09-1.173.808.808,0,0,0,.244-.2.862.862,0,0,0,.123-.394,21.342,21.342,0,0,1,.769-3.378c.27-.856.594-1.7.845-2.557a15.9,15.9,0,0,0,.63-4.08c0-.193-.031-.379-.038-.567a1.1,1.1,0,0,0-.434-.832,3.525,3.525,0,0,0-.946-.524,12.173,12.173,0,0,0-3.333-.837,5.1,5.1,0,0,0-1.508.024,7.259,7.259,0,0,0-1.42.537c-.693.3-2.489,1.263-2.7,1.417" transform="translate(-26.57 -20.82)" fill="#ffbf00"/>
          <path id="Path_925230" data-name="Path 925230" d="M49.072,26.655A.8.8,0,0,0,49.389,28a.9.9,0,0,0,.284.539.5.5,0,0,0,.578.06c.067-.044.121-.108.191-.149s.119-.048.174-.079a.509.509,0,0,0,.122-.679,1.205,1.205,0,0,1-.181-.322.755.755,0,0,1,.109-.41,1.739,1.739,0,0,0,.248-.937c-.034-.242-.174-.579-.474-.519-.22.044-.349.275-.539.323-.089.022-.213-.022-.312,0a.663.663,0,0,0-.3.145.539.539,0,0,0-.144.627.756.756,0,0,0-.072.061" transform="translate(-31.853 -16.634)" fill="#262626"/>
          <path id="Path_925231" data-name="Path 925231" d="M52.489,29.456l-.014.2a1.228,1.228,0,0,1-.067.523,3.524,3.524,0,0,0-.218.31.552.552,0,0,0,.016.371,1.663,1.663,0,0,0,.363.729,1.9,1.9,0,0,0,.45.349,2.377,2.377,0,0,0,1.891.321,2.7,2.7,0,0,0,.584-.285.319.319,0,0,0,.093-.075.334.334,0,0,0,.049-.119A9.421,9.421,0,0,1,56.05,30.7a1.388,1.388,0,0,0,.225-.636s-.108.085-.12.1a.392.392,0,0,0-.067.164.958.958,0,0,0-.229,0,1.6,1.6,0,0,1-1.031-.421,3.837,3.837,0,0,1-.771-.835,2.471,2.471,0,0,0-.748-.88c-.131-.071-.278-.094-.408-.172-.069-.041-.3-.2-.294-.3q-.043.64-.087,1.279l-.03.442" transform="translate(-34.034 -18.095)" fill="#663c33"/>
          <path id="Path_925232" data-name="Path 925232" d="M57.019,21.224a8.72,8.72,0,0,0,.406-1.4,7.166,7.166,0,0,0,.2-1.907,3.788,3.788,0,0,0-1.368-2.7,2,2,0,0,0-1.5-.462,3.1,3.1,0,0,0-.914.2A2.986,2.986,0,0,0,52.1,16.83a5.75,5.75,0,0,0-.182,1.54.123.123,0,0,1-.016.071.146.146,0,0,1-.072.04c-.318.116-.29.539-.247.81a1.736,1.736,0,0,0,.323.729.329.329,0,0,0,.205.159c.052.007.112-.009.155.021a.162.162,0,0,1,.047.064,4.75,4.75,0,0,1,.3.722,3.137,3.137,0,0,0,.2.539,1.983,1.983,0,0,0,.363.455A6.184,6.184,0,0,0,54.73,23.11a.766.766,0,0,0,.766,0,3.384,3.384,0,0,0,1.314-1.424c.077-.149.146-.3.209-.457" transform="translate(-33.638 -9.618)" fill="#874f43"/>
          <path id="Path_925233" data-name="Path 925233" d="M51.659,17.578c-.055-.117-.159-.338-.3-.338a.443.443,0,0,0-.278.17.918.918,0,0,0-.183.418,2.108,2.108,0,0,0-.081.363,1.422,1.422,0,0,1-.254-.965,1.14,1.14,0,0,0,.047-.215.7.7,0,0,0-.081-.285.652.652,0,0,1-.031-.58c.035-.057.085-.1.117-.164a1.026,1.026,0,0,0,.024-.483.747.747,0,0,1,.285-.582.3.3,0,0,0,.1-.1.312.312,0,0,0,.013-.137.643.643,0,0,1,.357-.577.661.661,0,0,0,.16-.085c.124-.109.093-.324.209-.441s.293-.088.417-.177a1.348,1.348,0,0,0,.176-.2.49.49,0,0,1,.659-.031c.13-.436.57-.217.742.044a.284.284,0,0,1,.181-.225.61.61,0,0,1,.3-.03.71.71,0,0,1,.415.16.184.184,0,0,1,.147-.131.525.525,0,0,1,.441.132.974.974,0,0,0,.1.121.631.631,0,0,0,.221.074.475.475,0,0,1,.33.386.64.64,0,0,1,.465.428.52.52,0,0,0,.077.194.793.793,0,0,0,.152.108c.208.152.184.461.262.706.028.089.072.173.1.263a.676.676,0,0,1-.06.507.6.6,0,0,1,.27.767,1.5,1.5,0,0,0-.073.148.729.729,0,0,0-.021.251,2.875,2.875,0,0,1-.052.593c-.01.053-.035.118-.089.12s-.09-.091-.088-.159a1.909,1.909,0,0,0,.01-.288c-.007-.056-.077-.146-.077-.185-.133-.155-.342-.353-.53-.246s-.305.262-.548.306a.718.718,0,0,0-.324.093c-.044.034-.077.083-.123.115-.167.117-.4-.026-.6.014-.111.023-.2.1-.311.133a1.638,1.638,0,0,1-.489-.009.353.353,0,0,0-.141.022.684.684,0,0,0-.128.083,1.42,1.42,0,0,1-.946.14.524.524,0,0,1-.5.42c-.331,0-.362-.414-.47-.642" transform="translate(-32.908 -8.428)" fill="#262626"/>
          <path id="Path_925234" data-name="Path 925234" d="M52.413,60.674a1.316,1.316,0,0,0-.207-.428,5.3,5.3,0,0,0-.86-1,1.891,1.891,0,0,0-1.437-.6,1.986,1.986,0,0,0-.563.187c-.255.117-.54.374-.811.2a8.787,8.787,0,0,1-.846-.725l-.975-.823-1.95-1.647a5.246,5.246,0,0,0-.675-.505L42.5,51.042a5.2,5.2,0,0,0-.341-.785,2.644,2.644,0,0,0-1.57-1.221,1.419,1.419,0,0,0-.924.012c-.136.057-.2.166-.314.239-.139.089-.145.055-.325-.032a16.393,16.393,0,0,0,1.4,4.788,12.414,12.414,0,0,0,2.183,3.6,9.419,9.419,0,0,0,1.676,1.222,18.53,18.53,0,0,0,3.579,2.006l.295.209a1.1,1.1,0,0,0,.318.176,2.315,2.315,0,0,0,.593.006,2.9,2.9,0,0,1,1.326.615,1.227,1.227,0,0,0,.9.214,1.027,1.027,0,0,1,.189-.044c.052,0,.106.008.158,0a.468.468,0,0,0,.257-.171.915.915,0,0,0,.29-.476.543.543,0,0,1,.021-.13.582.582,0,0,1,.113-.145.534.534,0,0,0,.085-.454" transform="translate(-25.461 -31.946)" fill="#874f43"/>
          <path id="Path_925235" data-name="Path 925235" d="M40.737,38.661a.716.716,0,0,0-.465-.175.667.667,0,0,0-.35.209,2.264,2.264,0,0,0-.449.691,6.95,6.95,0,0,0-.568,1.7,9.772,9.772,0,0,0-.139,1.815,1.206,1.206,0,0,0,0,.354.846.846,0,0,0,.159.179,1.87,1.87,0,0,0,.541.309,4.824,4.824,0,0,0,1.293.343,13.18,13.18,0,0,0,1.823.073l-.147-1.082a13.116,13.116,0,0,0-.27-1.533,10.5,10.5,0,0,0-.472-1.356,6.6,6.6,0,0,0-.484-.993,1.809,1.809,0,0,0-.471-.533" transform="translate(-25.282 -25.108)" fill="#fd0"/>
          <path id="Path_925236" data-name="Path 925236" d="M14.257,157.033A11.887,11.887,0,0,1,3.5,157.014c-2.98-1.72-2.995-4.5-.033-6.21a11.887,11.887,0,0,1,10.756.019c2.98,1.72,2.995,4.5.034,6.21" transform="translate(-0.819 -97.557)" fill="#d2e1f1"/>
          <path id="Path_925237" data-name="Path 925237" d="M32.888,39.795a2.992,2.992,0,0,1,.354,1.384,2.557,2.557,0,0,1-.228,1.374c-.124.232-.285.442-.413.671-.067.118-.114.242-.171.364a.868.868,0,0,0-.066.337q-.032.447-.064.894c-.009.135-.238.09-.325.076a3.052,3.052,0,0,0-.349-.1c-.107.089-.118.207-.178.323a4.161,4.161,0,0,1-.222.375,4.115,4.115,0,0,1-.557.67.729.729,0,0,1-.229.166.7.7,0,0,1-.361.018,2.7,2.7,0,0,1-.634-.177c-.179-.074-.291-.155-.486-.07a9.867,9.867,0,0,0-1.141.593,2.8,2.8,0,0,1-1.029-.873,8.344,8.344,0,0,1-.7-1.167,3.947,3.947,0,0,1-.188-.388.186.186,0,0,1-.014-.143.2.2,0,0,1,.084-.077,3.283,3.283,0,0,0,1.214-1.319,4.383,4.383,0,0,0,.263-1.2,3.952,3.952,0,0,1,.87-2.023,3,3,0,0,1,1.9-.852,3.276,3.276,0,0,1,1.507.188,2.333,2.333,0,0,1,1.161.958" transform="translate(-16.882 -25.204)" fill="#874f43"/>
          <path id="Path_925238" data-name="Path 925238" d="M19.5,98.617a4.974,4.974,0,0,1,.128,1.464,3.111,3.111,0,0,1-.03.469,1.551,1.551,0,0,1-.1.354c-.027.065-.074.137-.144.137-.051,0-.082-.041-.117-.072a1.941,1.941,0,0,0-.162.256.326.326,0,0,1-.238.169.206.206,0,0,1-.157-.063.231.231,0,0,1-.057-.158c-.185.01-.387.083-.476-.143a.725.725,0,0,1-.021-.337c-.043-.011-.066.045-.092.081a.168.168,0,0,1-.175.056.31.31,0,0,1-.159-.108,1.114,1.114,0,0,1-.166-.77q.013-.411.025-.822a1.639,1.639,0,0,1,.07-.506c.147-.406.587-.632.8-1.008.058-.1.118-.23.235-.242.251-.026.383.255.478.429a4.113,4.113,0,0,1,.363.813" transform="translate(-11.435 -63.53)" fill="#663c33"/>
          <path id="Path_925239" data-name="Path 925239" d="M7.651,153.08a1.187,1.187,0,0,0,.19.775.921.921,0,0,0,.844.3,2.117,2.117,0,0,0,.854-.364,6.359,6.359,0,0,1,.8-.49c.74-.339,1.623-.231,2.364-.565a3.025,3.025,0,0,0,.713-.473,1.389,1.389,0,0,0,.261-.277.857.857,0,0,0-.112-1.036,1.514,1.514,0,0,0-1.01-.361,10.022,10.022,0,0,0-2.231.194,13.079,13.079,0,0,0-1.678.349,1.363,1.363,0,0,0-.464.22.885.885,0,0,0-.243.435,3.646,3.646,0,0,0-.285,1.3" transform="translate(-4.991 -98.239)" fill="#8ce6fe"/>
          <path id="Path_925240" data-name="Path 925240" d="M4.543,101.425c0-.021,0-.042-.007-.064.092-.037.184-.072.273-.116q.044-6.1.238-12.2a8.907,8.907,0,0,1-1.332-1.664c-.315-.42-.908-1.139-1.5-1.089-.5.042-.889.78-1.123,1.156A7.288,7.288,0,0,0,0,91.14a6.867,6.867,0,0,0,.3,2.144c.131.425.3.837.426,1.263.106.364.178.738.25,1.11q.458,2.369.916,4.738c-.014.12-.025.229-.043.3-.116.5-.225,1.008-.3,1.518a8.031,8.031,0,0,0,.021,3.011c.133.587.358,1.149.534,1.725a21.528,21.528,0,0,1,.658,3.473,3.344,3.344,0,0,0,2.168-1.166.443.443,0,0,0,.1-.175.47.47,0,0,0,0-.14l-.487-7.519" transform="translate(0 -56.298)" fill="#262626"/>
          <path id="Path_925241" data-name="Path 925241" d="M35.972,39.209V39.2a.516.516,0,0,0-.4-.482.946.946,0,0,0-.332-1.056.6.6,0,0,1-.113-.091.934.934,0,0,1-.1-.19.569.569,0,0,0-.392-.276,1.349,1.349,0,0,0-.492.007.192.192,0,0,1-.112,0,.226.226,0,0,1-.087-.116.6.6,0,0,0-.87-.2.643.643,0,0,0-.858-.064.622.622,0,0,0-.837.222.441.441,0,0,0-.627.3.743.743,0,0,0-.714.707.191.191,0,0,1-.023.117.2.2,0,0,1-.136.051.556.556,0,0,0-.454.531c0,.132.047.276-.019.391a.72.72,0,0,1-.175.165.615.615,0,0,0-.154.706c.043.093.112.186.091.286a.462.462,0,0,1-.078.147.7.7,0,0,0,.037.756c.075.106.162.182.235.29a.659.659,0,0,0,.332.244c.421.149.992-.166,1.345-.38a3.785,3.785,0,0,1,.64-.363,1.239,1.239,0,0,1,1.435.506.225.225,0,0,0,.09.1.2.2,0,0,0,.137-.009q.565-.174,1.111-.4c.173-.071.153-.225.181-.392a.1.1,0,0,1,.022-.056.094.094,0,0,1,.071-.018c.207.007.41.089.617.078a.157.157,0,0,1,.114.021.246.246,0,0,1,.042.073c.1.193.3,0,.376-.115a.632.632,0,0,0-.078-.852,1.283,1.283,0,0,0,.166-.631" transform="translate(-18.921 -23.875)" fill="#262626"/>
          <path id="Path_925242" data-name="Path 925242" d="M20.244,161.455a5.331,5.331,0,0,0-1.214.19,4.638,4.638,0,0,1-.462.168c-.045.007-.336-.011-.238-.1a1.279,1.279,0,0,0-.354.662,2.58,2.58,0,0,0-.033.758c.044.556.326,1.2.985,1.186a2.079,2.079,0,0,0,.449-.088,2.886,2.886,0,0,1,.935-.072c.288.025.57.093.857.128a6.063,6.063,0,0,0,.906.026,4.493,4.493,0,0,0,2.21-.505,1.476,1.476,0,0,0,.571-.567.8.8,0,0,0-.007-.78,1.285,1.285,0,0,0-.822-.446,24,24,0,0,0-3.784-.556" transform="translate(-11.698 -105.338)" fill="#07c3f3"/>
          <path id="Path_925243" data-name="Path 925243" d="M8.234,102.872q.014-.784.028-1.568a23.31,23.31,0,0,0-.176-4.177c-.168-1.032-.475-2.039-.594-3.078A17.213,17.213,0,0,1,7.631,90.2c-1.338-.153-2.329-1.254-3.324-2.16a1.969,1.969,0,0,0-.865-.533.667.667,0,0,0-.861.556,7.245,7.245,0,0,1-.654,1.516,6.028,6.028,0,0,0-.236,4.962c.162.349.368.674.559,1.008q.151.263.289.534a21.925,21.925,0,0,1,1.653,4.773c.1.412.514,1.89.569,2.212.144.834-.1,1.751.009,2.587a14.227,14.227,0,0,0,.42,1.869l1.2,4.388c.208.764.416,1.528.682,2.273a3.713,3.713,0,0,0,2.622-.954c-.293-1.4-.848-7.453-1.455-10.362" transform="translate(-0.82 -57.08)" fill="#404040"/>
          <path id="Path_925244" data-name="Path 925244" d="M10.958,54.5a.841.841,0,0,0-.429-.187,3.379,3.379,0,0,0-1.477.627,8.293,8.293,0,0,0-1.382,1.008,10.534,10.534,0,0,0-2.5,3.817C4.464,61.4,3.813,63.06,3.191,64.727c-.242.646-.49,1.29-.731,1.938a1.826,1.826,0,0,0-.146.584,1.44,1.44,0,0,0,.141.6,4.308,4.308,0,0,0,2.133,2.1,8.583,8.583,0,0,0,2.952.725,1.138,1.138,0,0,0,.49-.028,1.158,1.158,0,0,0,.4-.3,32.689,32.689,0,0,0,4.8-6.076,7.3,7.3,0,0,0,.832-1.711A4.783,4.783,0,0,0,14,60.315a11.584,11.584,0,0,0-1.09-3.321,6.416,6.416,0,0,0-1.952-2.49" transform="translate(-1.509 -35.438)" fill="#07c3f3"/>
          <path id="Path_925245" data-name="Path 925245" d="M42.844,86.523a1.073,1.073,0,0,0-.315-.064,2.006,2.006,0,0,1-.515-.179l-.745-.338c-.043-.019-.094-.06-.073-.1a.075.075,0,0,1,.069-.032.5.5,0,0,1,.186.049,2.839,2.839,0,0,0,1.077.2c.122,0,.276-.04.293-.16a.253.253,0,0,0-.126-.212,2.809,2.809,0,0,0-.891-.4,6.09,6.09,0,0,0-1.374-.318c-.3-.022-.6,0-.9-.024a20.686,20.686,0,0,1-3.338-2.155,5.786,5.786,0,0,0-1.007-.761,1.122,1.122,0,0,1-.589-.588c-.076-.209-.159-.415-.241-.622s-.165-.413-.249-.619c-.039-.093-.274-.493-.241-.578a1.064,1.064,0,0,1-.831.592,4.182,4.182,0,0,1-1.062-.023.328.328,0,0,0-.163.014c-.105.047-.134.182-.138.3a2.525,2.525,0,0,0,.3,1.183,11.138,11.138,0,0,0,.682,1.169c.114.167.252.324.357.494a3.768,3.768,0,0,0,1.534,1.184,14.859,14.859,0,0,0,1.743.67c.505.175,2.244.815,2.591.987.272.134.429.4.72.536a2.347,2.347,0,0,0,.475.155,7.874,7.874,0,0,0,2.213.074c.152-.009.3-.019.453-.042a.284.284,0,0,0,.23-.123.216.216,0,0,0-.125-.263" transform="translate(-20.66 -51.947)" fill="#874f43"/>
          <path id="Path_925246" data-name="Path 925246" d="M28.644,66.57a1.569,1.569,0,0,0-.865-.4c-1.12-.115-1.615,1.3-1.806,2.15a5.987,5.987,0,0,0-.049,1.874,10.029,10.029,0,0,0,.6,2.62.282.282,0,0,0,.075.126.272.272,0,0,0,.109.046,3.577,3.577,0,0,0,2.236-.333,3.845,3.845,0,0,0,1.176-.726.772.772,0,0,0,.219-.315.875.875,0,0,0,.02-.309,9.88,9.88,0,0,0-.96-3.627,3.383,3.383,0,0,0-.751-1.1" transform="translate(-16.881 -43.166)" fill="#cff5ff"/>
        </g>
      </g>
    </g>
  </g>
</svg>
