<svg xmlns="http://www.w3.org/2000/svg" xmlns:xlink="http://www.w3.org/1999/xlink" width="99" height="99" viewBox="0 0 99 99">
  <defs>
    <clipPath id="clip-path">
      <rect id="Rectangle_401223" data-name="Rectangle 401223" width="99" height="99" transform="translate(0)" fill="#8ce6fe"/>
    </clipPath>
    <clipPath id="clip-path-2">
      <rect id="Rectangle_401223-2" data-name="Rectangle 401223" width="88.539" height="88.539" fill="#f3f9ff"/>
    </clipPath>
    <clipPath id="clip-path-3">
      <rect id="Rectangle_409145" data-name="Rectangle 409145" width="59.706" height="68.18" fill="none"/>
    </clipPath>
  </defs>
  <g id="Group_1119142" data-name="Group 1119142" transform="translate(-619.921 -5755.871)">
    <g id="Group_1100724" data-name="Group 1100724" transform="translate(619.921 5755.871)">
      <g id="Group_1099654" data-name="Group 1099654" transform="translate(0 0)">
        <g id="Mask_Group_1099652" data-name="Mask Group 1099652" clip-path="url(#clip-path)">
          <path id="Path_873521" data-name="Path 873521" d="M99,77.066A22,22,0,0,1,77.066,99H21.934A22,22,0,0,1,0,77.066V21.933A22,22,0,0,1,21.934,0H77.066A22,22,0,0,1,99,21.934Z" transform="translate(0)" fill="#ffdcd6"/>
        </g>
      </g>
      <g id="Group_1099659" data-name="Group 1099659" transform="translate(4.77 5.723)">
        <g id="Group_1099652" data-name="Group 1099652" transform="translate(0 0)" clip-path="url(#clip-path-2)">
          <path id="Path_873521-2" data-name="Path 873521" d="M88.539,68.922A19.674,19.674,0,0,1,68.923,88.539H19.616A19.674,19.674,0,0,1,0,68.922V19.616A19.674,19.674,0,0,1,19.616,0H68.923A19.674,19.674,0,0,1,88.539,19.616Z" fill="#f3f9ff"/>
        </g>
      </g>
    </g>
    <g id="Group_1100725" data-name="Group 1100725" transform="translate(636.343 5771.293)">
      <rect id="Rectangle_401104" data-name="Rectangle 401104" width="68" height="69" transform="translate(0.29 -1.295)" fill="none"/>
      <g id="Group_1119377" data-name="Group 1119377" transform="translate(4.917 0.705)">
        <g id="Group_1119376" data-name="Group 1119376" clip-path="url(#clip-path-3)">
          <path id="Path_925059" data-name="Path 925059" d="M54.536,156.477c-4.853,2.54-12.745,2.527-17.628-.029s-4.908-6.686-.055-9.225,12.745-2.527,17.628.029,4.908,6.685.055,9.225" transform="translate(-19.322 -90.193)" fill="#d2e1f1"/>
          <path id="Path_925060" data-name="Path 925060" d="M19.849,139.7c-4.521,2.366-11.873,2.354-16.422-.027s-4.572-6.228-.051-8.594,11.873-2.354,16.422.027,4.572,6.228.051,8.594" transform="translate(0 -80.252)" fill="#d2e1f1"/>
          <path id="Path_925061" data-name="Path 925061" d="M29.086,117.08l-18.239-9.545c-.323-.169-.283-.464.091-.659l17.937-9.387a1.53,1.53,0,0,1,1.26-.047l18.239,9.544c.323.169.283.464-.09.659l-17.937,9.387a1.53,1.53,0,0,1-1.26.047" transform="translate(-6.18 -60.404)" fill="#f2f2f2"/>
          <path id="Path_925062" data-name="Path 925062" d="M49.532,80.284A.273.273,0,0,0,49.4,80.1l-1.643-.866a.274.274,0,0,1,.135.185l2.068,8.34,1.643.865Z" transform="translate(-27.767 -49.174)" fill="#c28652"/>
          <path id="Path_925063" data-name="Path 925063" d="M47.472,63.361l-.666-3.618a.273.273,0,0,0-.135-.2l-1.643-.865a.27.27,0,0,1,.135.2l.667,3.618a.918.918,0,0,1-.465.838l1.643.866a.918.918,0,0,0,.465-.838" transform="translate(-26.181 -36.416)" fill="#c28652"/>
          <path id="Path_925064" data-name="Path 925064" d="M18.434,78.554l-1.643-.866,12.155-6.737,1.643.865Z" transform="translate(-9.763 -44.034)" fill="#e6ab77"/>
          <path id="Path_925065" data-name="Path 925065" d="M18.092,89.576l-1.643-.866a.5.5,0,0,0-.246.394l.04,12.579,1.643.865-.04-12.578a.5.5,0,0,1,.246-.394" transform="translate(-9.421 -55.055)" fill="#c28652"/>
          <path id="Path_925066" data-name="Path 925066" d="M36.789,52.7a.257.257,0,0,0-.239.021L28.2,57.09l1.643.865,8.347-4.368a.257.257,0,0,1,.239-.021Z" transform="translate(-16.399 -32.694)" fill="#e6ab77"/>
          <path id="Path_925067" data-name="Path 925067" d="M33.5,55c.169-.088.311-.032.334.131l2.486,18.018-.781.409-2.068-8.34c-.049-.2-.231-.269-.45-.174L22.035,69.774a.515.515,0,0,0-.276.388L21,81.167l-.832.436-.04-12.578a.5.5,0,0,1,.246-.394L32.53,61.894a.917.917,0,0,0,.465-.838l-.666-3.618c-.039-.208-.22-.287-.442-.19l-6.744,2.941c-.076.033-.135,0-.135-.082l0-.5a.288.288,0,0,1,.146-.23Z" transform="translate(-11.704 -34.111)" fill="#8f5d31"/>
          <path id="Path_925068" data-name="Path 925068" d="M29.643,65.169,28,64.3a.29.29,0,0,0-.147.23l0,.5a.09.09,0,0,0,.043.085l1.643.865A.091.091,0,0,1,29.5,65.9l0-.5a.286.286,0,0,1,.146-.23" transform="translate(-16.195 -39.908)" fill="#c28652"/>
          <path id="Path_925069" data-name="Path 925069" d="M24,82.7l-.015-.006L24,82.684h0s0,.01,0,.016" transform="translate(-13.946 -51.316)" fill="#71ce3f"/>
          <path id="Path_925070" data-name="Path 925070" d="M24,82.7l-.015-.006.014-.01s0,.01,0,.016" transform="translate(-13.946 -51.317)" fill="#653cc6"/>
          <path id="Path_925071" data-name="Path 925071" d="M24,82.7l-.015-.006L24,82.684h0s0,.01,0,.016" transform="translate(-13.946 -51.316)" fill="#936be5"/>
          <path id="Path_925072" data-name="Path 925072" d="M69.231,43.537l-1.666.866-12.7-6.6,1.666-.866a.617.617,0,0,1,.569-.05l12.7,6.6a.618.618,0,0,0-.569.05" transform="translate(-31.899 -22.86)" fill="#d9d9d9"/>
          <path id="Path_925073" data-name="Path 925073" d="M52.646,55.973a.466.466,0,0,1-.234-.382,59.355,59.355,0,0,1-.36-6.86c0-3.6.242-6.748.371-8.171a1.616,1.616,0,0,1,.8-1.183l12.7,6.6a1.617,1.617,0,0,0-.8,1.183c-.129,1.423-.371,4.575-.371,8.171a59.366,59.366,0,0,0,.36,6.86.466.466,0,0,0,.234.382Z" transform="translate(-30.267 -24.438)" fill="#f2f2f2"/>
          <path id="Path_925074" data-name="Path 925074" d="M82.407,64.562a59.366,59.366,0,0,0,.36,6.86c.047.4.393.546.8.332l1.678-.873a1.592,1.592,0,0,0,.808-1.269V54.771c0-.469-.362-.661-.808-.429l-1.666.866a1.616,1.616,0,0,0-.8,1.182c-.129,1.423-.371,4.575-.371,8.171" transform="translate(-47.916 -33.665)" fill="#a6a6a6"/>
          <path id="Path_925075" data-name="Path 925075" d="M32.246,101.968l-.005-1.741L19.578,93.556l.005,1.741a.5.5,0,0,0,.236.472l12.663,6.67a.5.5,0,0,1-.236-.472" transform="translate(-11.384 -58.063)" fill="#d9d9d9"/>
          <path id="Path_925076" data-name="Path 925076" d="M35.143,70.4a.569.569,0,0,0-.482.008c-2.288.917-4.615,2.039-6.734,3.148-3.436,1.8-6.326,3.564-7.622,4.377a1.592,1.592,0,0,0-.727,1.222l12.663,6.67a1.592,1.592,0,0,1,.727-1.222c1.3-.813,4.186-2.579,7.622-4.377,2.119-1.109,4.447-2.231,6.734-3.148a.572.572,0,0,1,.482-.008Z" transform="translate(-11.384 -43.661)" fill="#f2f2f2"/>
          <path id="Path_925077" data-name="Path 925077" d="M58.182,91.137c2.119-1.109,4.447-2.231,6.734-3.148a.474.474,0,0,1,.719.464l.005,1.754a1.59,1.59,0,0,1-.808,1.269L50.652,98.9c-.448.234-.812.047-.814-.42l-.005-1.741a1.592,1.592,0,0,1,.728-1.222c1.3-.813,4.186-2.579,7.621-4.376" transform="translate(-28.976 -54.573)" fill="#a6a6a6"/>
          <path id="Path_925078" data-name="Path 925078" d="M11.652,128.911l-2.345,1.076a12.115,12.115,0,0,0-1.742.917c-.843.57-2.231,2.091-.7,2.743A2.871,2.871,0,0,0,8,133.824a7.5,7.5,0,0,0,3.689-.98c.371-.214.7-.467,1.056-.706a1.855,1.855,0,0,1,.942-.152,3.708,3.708,0,0,0,1.451-.409,1.208,1.208,0,0,0,.438-.37,2.266,2.266,0,0,0-.049-1.7,3.429,3.429,0,0,0-1.03-1.525.674.674,0,0,1-.078.516c-.125.133-.262.05-.416.007a3.207,3.207,0,0,0-1.364-.022,3.932,3.932,0,0,0-.981.426" transform="translate(-3.591 -79.43)" fill="#0069d1"/>
          <path id="Path_925079" data-name="Path 925079" d="M29.7,81.359a6.22,6.22,0,0,0-4.762-.517c-1.785.587-3.563,1.248-5.3,1.95q-1.605.65-3.169,1.382a4.663,4.663,0,0,0-1.77,1.078,3.635,3.635,0,0,0-.894,1.857,22.118,22.118,0,0,0,.01,2.338,14.9,14.9,0,0,0,.465,2.572c.349,1.477,1.34,7.468,1.433,7.8.081.286.412.337.72.371a3.6,3.6,0,0,0,2.246-.494c.405-.25.614-.528.521-.955-.117-.536-.211-3.915-.183-5.034a16.334,16.334,0,0,0-.041-2.511,5.038,5.038,0,0,0-.306-1.225c-.144-.358-.391-.685-.166-1.068.342-.582,1.186-.583,1.808-.73,1.7-.4,3.375-.9,5.047-1.393,1.53-.453,3.062-.907,4.545-1.475a2.1,2.1,0,0,0,.745-.412,1.383,1.383,0,0,0,.359-.822A2.86,2.86,0,0,0,29.7,81.359" transform="translate(-8.017 -50.016)" fill="#262626"/>
          <path id="Path_925080" data-name="Path 925080" d="M22.25,65.4a.293.293,0,0,0,.033.151.328.328,0,0,0,.136.1,3.2,3.2,0,0,0,2.144.138,17.278,17.278,0,0,0,2.045-.735l-.131-2.883c-.015-.325-.03-.65-.073-.972a.349.349,0,0,0-.1-.234.444.444,0,0,0-.2-.077l-2.041-.44c-.3-.064-.667-.16-.87.1a3.193,3.193,0,0,0-.392.948,11.271,11.271,0,0,0-.518,2.486A11.1,11.1,0,0,0,22.25,65.4" transform="translate(-12.934 -37.473)" fill="#0080ff"/>
          <path id="Path_925081" data-name="Path 925081" d="M25.46,143.055c-.17.458-.184,1.09.421,1.274a4.58,4.58,0,0,0,2.018.06,6.461,6.461,0,0,0,2.079-.646,3.4,3.4,0,0,0,1.477-1.448,4,4,0,0,1,.313-.624c.267-.371.74-.577,1.067-.906a2.113,2.113,0,0,0,.307-2.294,2.706,2.706,0,0,0-.87-1.164,2.131,2.131,0,0,0-1.454-.425c-.094.009-.19.054-.282.057-.116,0-.174-.109-.277-.1a.18.18,0,0,0-.114.067,20.714,20.714,0,0,0-1.452,1.725c-.693.872-1.372,1.754-2.043,2.64a7.639,7.639,0,0,0-1.189,1.789" transform="translate(-14.745 -84.923)" fill="#0080ff"/>
          <path id="Path_925082" data-name="Path 925082" d="M47.4,76.607a6.485,6.485,0,0,0-1.551-2.2c.125.257.235.513.066.754a4.074,4.074,0,0,1-.655.673,6.216,6.216,0,0,1-1.614,1.027,6.574,6.574,0,0,1-3.944.4,4.462,4.462,0,0,0-1.528-.12,1.114,1.114,0,0,1-1.034-.45.911.911,0,0,0-.259.777,7.727,7.727,0,0,0,.456,2.477c-1.681,1.466-3.668,2.618-5.361,4.073A3.921,3.921,0,0,0,30.555,86.7a24.927,24.927,0,0,0,.313,3.834c.227,2.2.48,4.4.844,6.592.109.655.188,1.321.32,1.974.063.314.117.437.476.546a4.839,4.839,0,0,0,2.37.052A3.128,3.128,0,0,0,36,99.267a.314.314,0,0,0,.091-.083.287.287,0,0,0,.033-.15c.023-.68.043-1.357.083-2.038q.086-1.439.172-2.878c.049-.829.083-1.659.058-2.489a4.088,4.088,0,0,0-.1-.84,5.737,5.737,0,0,0-.639-1.436q-.177-.313-.36-.624a1.112,1.112,0,0,1,.506-1.579c1.975-.967,4.1-1.694,6.118-2.6a34.366,34.366,0,0,0,3.761-1.968,5.826,5.826,0,0,0,1.341-1.016,3.575,3.575,0,0,0,.854-2.422,6.505,6.505,0,0,0-.52-2.54" transform="translate(-17.76 -46.177)" fill="#404040"/>
          <path id="Path_925083" data-name="Path 925083" d="M28.938,58.727a15.818,15.818,0,0,0,3.419,2.478c1.221.73,2.445,1.46,3.736,2.083a6.428,6.428,0,0,0,4.337.234A10.426,10.426,0,0,0,44.457,61.7c.226-.173.658-.488.674-.783.014-.274-.3-.718-.414-.972a19.022,19.022,0,0,0-1.077-2.015,19.957,19.957,0,0,0-2.867-3.636,15.073,15.073,0,0,0-6.32-3.947,24.864,24.864,0,0,0-7.429-.624c-.013,0,.227.975.236,1.071a4.5,4.5,0,0,1-.067,1.132,11.534,11.534,0,0,0-.246,1.481,7.524,7.524,0,0,0,.715,3.468,7.109,7.109,0,0,0,1.276,1.855" transform="translate(-15.665 -30.846)" fill="#0069d1"/>
          <path id="Path_925084" data-name="Path 925084" d="M29.412,49.548a.928.928,0,0,0-.44-.3,5.989,5.989,0,0,1-1.118-.473,1.689,1.689,0,0,0-.575-.233,4.822,4.822,0,0,1-1.311,3.77.358.358,0,0,0-.1.141.325.325,0,0,0,.05.221,1.99,1.99,0,0,0,.309.492.776.776,0,0,0,.537.259l.275.047a4.543,4.543,0,0,0,1.516.233c.384-.041.706-.524.861-.816a4.554,4.554,0,0,0,.391-2.411,2.063,2.063,0,0,0-.4-.926" transform="translate(-15.039 -30.124)" fill="#663c33"/>
          <path id="Path_925085" data-name="Path 925085" d="M19.131,46.38a4.305,4.305,0,0,0,.7-2.552,3.238,3.238,0,0,0-1.076-2.289,5.2,5.2,0,0,0-3.51-1.227,3.692,3.692,0,0,0-2.22.639,3.814,3.814,0,0,0-1.1,4.549,3.745,3.745,0,0,0,1.662,1.882.522.522,0,0,1,.212.146.389.389,0,0,1,.053.146l.224,1.005a.25.25,0,0,0,.077.156.276.276,0,0,0,.134.043,1.391,1.391,0,0,0,.51-.033,1.206,1.206,0,0,1,.356-.07.639.639,0,0,1,.23.064c.4.181.691.54,1.111.686a1.628,1.628,0,0,0,1.224-.124,3.81,3.81,0,0,0,.962-.744,1.209,1.209,0,0,0,.054-1.985.555.555,0,0,0,.4-.291" transform="translate(-6.735 -25.018)" fill="#874f43"/>
          <path id="Path_925086" data-name="Path 925086" d="M17.615,40.762a.794.794,0,0,0-.109-.346.961.961,0,0,0-.7-.439.891.891,0,0,0-.729-1.095c.077-.185-.083-.4-.287-.465a1.175,1.175,0,0,0-.642.017.509.509,0,0,0-.478-.307c-.079-.007-.643.008-.522.2a.657.657,0,0,0-.432-.278.706.706,0,0,0-.516.108.3.3,0,0,0-.152.236.741.741,0,0,0-.945.017c-.054.056-.406.476-.253.552a1.55,1.55,0,0,0-.367-.145.762.762,0,0,0-.593.166c-.039.028-.385.427-.333.434a1.047,1.047,0,0,0-1.195.926,1.054,1.054,0,0,0-.7.578.9.9,0,0,0,.08.857.2.2,0,0,1,.05.125c-.008.061-.075.1-.13.132a.971.971,0,0,0-.5.8.668.668,0,0,0,.272.438,2.248,2.248,0,0,0,.483.267c-.193.167-.108.473.078.646a1.057,1.057,0,0,0,1.278.063c-.055.041.411.3.455.319a1.079,1.079,0,0,0,.6.034,1.468,1.468,0,0,0,.606.458,1.805,1.805,0,0,0,.506.082.5.5,0,0,0,.2-.015.143.143,0,0,0,.105-.136,1.436,1.436,0,0,0,1.572.195,1.347,1.347,0,0,0,.492.1.419.419,0,0,0,.389-.247c.047-.155-.054-.294-.1-.438a.435.435,0,0,1,.038-.348,2.2,2.2,0,0,1,.393-.742,1.643,1.643,0,0,1,1.587-.53,1,1,0,0,1,.515.3c.114.138.079.261.093.427a.412.412,0,0,0,.321-.336c.038-.156.022-.32.054-.477a1.792,1.792,0,0,0,.085-.407.284.284,0,0,0-.266-.285,1.019,1.019,0,0,0,.074-.609.542.542,0,0,0-.457-.407.793.793,0,0,0,.087-.426" transform="translate(-4.741 -23.605)" fill="#262626"/>
          <path id="Path_925087" data-name="Path 925087" d="M27.7,83.055a1.236,1.236,0,0,0-.665-.86,2.548,2.548,0,0,0-1.148-.268,1.934,1.934,0,0,0-1.156.273c-.134.094-.172.269-.342.31-.085.02-.442-.038-.444-.154A5.465,5.465,0,0,1,23.455,85c-.249.458-.722.556-1.21.729-.584.207-7.136,2.209-7.53,2.268a4.1,4.1,0,0,0-.987.193.238.238,0,0,0-.1.065.224.224,0,0,0-.034.084l-.3,1.2a7.809,7.809,0,0,0-.226,1.128.1.1,0,0,0,.017.083.143.143,0,0,0,.1.027c.386.03.638.413,1.017.487a1.271,1.271,0,0,0,.882-.266A2.371,2.371,0,0,0,16,90.135c.034-.069.061-.14.093-.208a1.565,1.565,0,0,1,1.085-.823c.254-.045,4.3-.244,5.56-.37l.416-.042a17.605,17.605,0,0,0,2.17-.33,6.566,6.566,0,0,0,.8-.236c.168-.063.354-.167.4-.316a1.593,1.593,0,0,0,.185-.321,6.931,6.931,0,0,0,.334-1.041,24.992,24.992,0,0,0,.646-2.923,1.674,1.674,0,0,0,.018-.468" transform="translate(-7.595 -50.845)" fill="#874f43"/>
          <path id="Path_925088" data-name="Path 925088" d="M39.049,65.441a5.048,5.048,0,0,0-.725,2.628,20.682,20.682,0,0,0,.1,4.5.254.254,0,0,0,.054.145.3.3,0,0,0,.16.07,5.257,5.257,0,0,0,2.745-.216A10.273,10.273,0,0,0,43.8,71.314a.537.537,0,0,0,.174-.159.477.477,0,0,0,.044-.226c.03-.919.159-1.835.131-2.754a4.549,4.549,0,0,0-.8-2.621,3.033,3.033,0,0,0-2.221-1.217,2.38,2.38,0,0,0-2.083,1.105" transform="translate(-22.24 -39.927)" fill="#0080ff"/>
          <path id="Path_925089" data-name="Path 925089" d="M18.627,73.7a14.582,14.582,0,0,1-.325,2.147,9.244,9.244,0,0,1-.292,1.135,4.062,4.062,0,0,1-.4.824c-.377.583-3.887,3.988-4.094,4.494a1.506,1.506,0,0,0-.088.8c.037.231.229.422.306.646a3.42,3.42,0,0,1-.051,1.591,3.674,3.674,0,0,1-.318,1.43c-.066.017-.126-.037-.166-.087a5.065,5.065,0,0,1-.488-1.574.222.222,0,0,0-.044-.08c-.081-.084-.233-.017-.329.05a.129.129,0,0,0-.048.05.1.1,0,0,0,.015.074,8.28,8.28,0,0,0,.758,1.413,2.172,2.172,0,0,1,.225.355.484.484,0,0,1,.015.4.146.146,0,0,1-.048.057.143.143,0,0,1-.092.006,1.172,1.172,0,0,1-.384-.181,1.277,1.277,0,0,0-.857-.2,1.3,1.3,0,0,1-.547.07.641.641,0,0,1-.318-.275,7.017,7.017,0,0,1-.465-.733,1.248,1.248,0,0,1-.2-.59,1.4,1.4,0,0,1,.115-.449l.333-.874c.233-.613.454-1.236.742-1.832.576-1.179,1.186-2.341,1.792-3.507.311-.593.624-1.189.942-1.778a5.484,5.484,0,0,0,.614-1.212q.244-1.125.429-2.257a.332.332,0,0,0,.033.151.312.312,0,0,0,.137.1A3.2,3.2,0,0,0,17.674,74a7.277,7.277,0,0,0,.953-.308" transform="translate(-6.042 -45.684)" fill="#663c33"/>
          <path id="Path_925090" data-name="Path 925090" d="M85.382,100.962a.273.273,0,0,0-.135-.185L83.6,99.911a.274.274,0,0,1,.135.185l2.068,8.34,1.643.866Z" transform="translate(-48.612 -62.007)" fill="#c28652"/>
          <path id="Path_925091" data-name="Path 925091" d="M83.323,84.038l-.666-3.618a.273.273,0,0,0-.135-.2l-1.643-.865a.27.27,0,0,1,.135.2l.667,3.618a.918.918,0,0,1-.465.838l1.643.866a.917.917,0,0,0,.465-.838" transform="translate(-47.027 -49.248)" fill="#c28652"/>
          <path id="Path_925092" data-name="Path 925092" d="M54.284,99.232l-1.643-.866L64.8,91.629l1.643.865Z" transform="translate(-30.609 -56.867)" fill="#e6ab77"/>
          <path id="Path_925093" data-name="Path 925093" d="M53.942,110.253l-1.643-.866a.5.5,0,0,0-.246.394l.04,12.579,1.643.865-.04-12.578a.5.5,0,0,1,.246-.394" transform="translate(-30.267 -67.888)" fill="#c28652"/>
          <path id="Path_925094" data-name="Path 925094" d="M72.639,73.378a.258.258,0,0,0-.239.022l-8.347,4.368,1.643.866,8.347-4.368a.258.258,0,0,1,.239-.021Z" transform="translate(-37.244 -45.527)" fill="#e6ab77"/>
          <path id="Path_925095" data-name="Path 925095" d="M69.348,75.681c.169-.088.311-.032.334.131l2.486,18.018-.781.409L69.319,85.9c-.049-.2-.231-.269-.45-.174L57.885,90.451a.515.515,0,0,0-.276.388l-.758,11.006-.833.436L55.979,89.7a.5.5,0,0,1,.246-.394L68.38,82.571a.917.917,0,0,0,.465-.838l-.666-3.618c-.039-.208-.22-.287-.442-.19l-6.744,2.941c-.076.033-.135,0-.135-.082l0-.5a.288.288,0,0,1,.146-.23Z" transform="translate(-32.549 -46.943)" fill="#8f5d31"/>
          <path id="Path_925096" data-name="Path 925096" d="M65.493,85.847l-1.643-.866a.289.289,0,0,0-.147.23l0,.5a.089.089,0,0,0,.043.085l1.643.866a.091.091,0,0,1-.043-.085v-.5a.287.287,0,0,1,.146-.23" transform="translate(-37.041 -52.741)" fill="#c28652"/>
          <path id="Path_925097" data-name="Path 925097" d="M70.408,140.866,52.168,131.32c-.323-.169-.282-.464.091-.659L70.2,121.274a1.53,1.53,0,0,1,1.26-.047L89.7,130.772c.323.169.283.464-.09.659l-17.937,9.387a1.529,1.529,0,0,1-1.26.047" transform="translate(-30.207 -75.165)" fill="#d2e1f1"/>
          <path id="Path_925098" data-name="Path 925098" d="M90.854,104.069a.273.273,0,0,0-.135-.185l-1.643-.866a.274.274,0,0,1,.135.185l2.068,8.34,1.643.866Z" transform="translate(-51.794 -63.936)" fill="#c28652"/>
          <path id="Path_925099" data-name="Path 925099" d="M88.795,87.146l-.666-3.618a.273.273,0,0,0-.135-.2l-1.643-.866a.271.271,0,0,1,.135.2l.667,3.617a.918.918,0,0,1-.465.838l1.643.866a.917.917,0,0,0,.465-.838" transform="translate(-50.209 -51.177)" fill="#c28652"/>
          <path id="Path_925100" data-name="Path 925100" d="M59.756,102.34l-1.643-.866,12.155-6.737,1.643.865Z" transform="translate(-33.79 -58.796)" fill="#e6ab77"/>
          <path id="Path_925101" data-name="Path 925101" d="M59.414,113.361l-1.643-.866a.5.5,0,0,0-.246.394l.04,12.579,1.643.866-.04-12.579a.5.5,0,0,1,.246-.394" transform="translate(-33.448 -69.817)" fill="#c28652"/>
          <path id="Path_925102" data-name="Path 925102" d="M78.111,76.486a.257.257,0,0,0-.239.021l-8.347,4.368,1.643.866,8.347-4.368a.258.258,0,0,1,.239-.021Z" transform="translate(-40.426 -47.457)" fill="#e6ab77"/>
          <path id="Path_925103" data-name="Path 925103" d="M74.821,78.789c.169-.088.311-.032.333.131l2.487,18.018-.782.409-2.068-8.34c-.049-.2-.231-.269-.45-.174L63.358,93.559a.516.516,0,0,0-.277.388l-.757,11.005-.832.436L61.451,92.81a.5.5,0,0,1,.247-.394l12.154-6.737a.916.916,0,0,0,.465-.838l-.666-3.618c-.038-.208-.22-.286-.442-.19l-6.744,2.94c-.076.034-.135,0-.135-.081v-.5a.288.288,0,0,1,.146-.231Z" transform="translate(-35.731 -48.873)" fill="#8f5d31"/>
          <path id="Path_925104" data-name="Path 925104" d="M70.965,88.955l-1.643-.866a.29.29,0,0,0-.147.23l0,.5a.09.09,0,0,0,.043.085l1.643.866a.09.09,0,0,1-.043-.085l0-.5a.288.288,0,0,1,.146-.23" transform="translate(-40.222 -54.67)" fill="#c28652"/>
          <path id="Path_925105" data-name="Path 925105" d="M65.323,106.486l-.015-.006.014-.011h0s0,.01,0,.016" transform="translate(-37.974 -66.077)" fill="#71ce3f"/>
          <path id="Path_925106" data-name="Path 925106" d="M65.323,106.488l-.015-.006.014-.01s0,.01,0,.016" transform="translate(-37.974 -66.079)" fill="#653cc6"/>
          <path id="Path_925107" data-name="Path 925107" d="M65.323,106.486l-.015-.006.014-.011h0s0,.01,0,.016" transform="translate(-37.974 -66.077)" fill="#936be5"/>
          <path id="Path_925108" data-name="Path 925108" d="M110.553,67.323l-1.666.866-12.7-6.6,1.666-.866a.617.617,0,0,1,.569-.05l12.7,6.6a.618.618,0,0,0-.569.05" transform="translate(-55.926 -37.622)" fill="#d9d9d9"/>
          <path id="Path_925109" data-name="Path 925109" d="M93.968,79.759a.466.466,0,0,1-.234-.382,59.355,59.355,0,0,1-.36-6.86c0-3.6.242-6.748.371-8.171a1.616,1.616,0,0,1,.8-1.183l12.7,6.605a1.616,1.616,0,0,0-.8,1.182c-.129,1.423-.371,4.575-.371,8.171a59.366,59.366,0,0,0,.36,6.86.466.466,0,0,0,.234.382Z" transform="translate(-54.294 -39.2)" fill="#f2f2f2"/>
          <path id="Path_925110" data-name="Path 925110" d="M123.729,88.347a59.368,59.368,0,0,0,.36,6.86c.047.4.393.546.8.332l1.679-.873a1.592,1.592,0,0,0,.808-1.269V78.556c0-.469-.362-.661-.808-.429l-1.666.866a1.616,1.616,0,0,0-.8,1.182c-.129,1.423-.371,4.575-.371,8.171" transform="translate(-71.943 -48.427)" fill="#a6a6a6"/>
          <path id="Path_925111" data-name="Path 925111" d="M73.568,125.754l-.005-1.741L60.9,117.342l.005,1.741a.5.5,0,0,0,.236.472l12.663,6.67a.5.5,0,0,1-.236-.472" transform="translate(-35.411 -72.825)" fill="#d9d9d9"/>
          <path id="Path_925112" data-name="Path 925112" d="M76.466,94.186a.569.569,0,0,0-.482.008c-2.288.917-4.615,2.039-6.734,3.148-3.436,1.8-6.326,3.563-7.621,4.376a1.591,1.591,0,0,0-.727,1.222l12.663,6.67a1.591,1.591,0,0,1,.727-1.222c1.3-.813,4.186-2.579,7.622-4.377,2.119-1.109,4.447-2.231,6.734-3.148a.572.572,0,0,1,.482-.008Z" transform="translate(-35.411 -58.423)" fill="#f2f2f2"/>
          <path id="Path_925113" data-name="Path 925113" d="M99.5,114.923c2.119-1.109,4.447-2.231,6.734-3.148a.474.474,0,0,1,.719.464l.005,1.754a1.591,1.591,0,0,1-.808,1.269l-14.18,7.421c-.449.234-.812.047-.814-.42l-.005-1.741a1.592,1.592,0,0,1,.728-1.222c1.3-.813,4.185-2.579,7.621-4.376" transform="translate(-53.003 -69.335)" fill="#a6a6a6"/>
          <path id="Path_925114" data-name="Path 925114" d="M62.388,60.993a1.654,1.654,0,0,0-.239-.887c-.326-.466-.871-.388-1.352-.2a1.656,1.656,0,0,0-.377-.192,3.547,3.547,0,0,1-.621-.371c-.42-.265-4.7-3.254-4.887-3.442-.236-.239-.561-.214-.858-.37a3.351,3.351,0,0,0-.486-.2c-.358-.122-.728-.211-1.088-.329-.259-.085-.511-.185-.776-.252-.4-.1-.812-.123-1.216-.2a14.026,14.026,0,0,0-1.774-.362c-.156-.008-.344.015-.409.143-.131-.033-.3-.041-.378.059s0,.273.121.363a1.61,1.61,0,0,0,.491.233c.638.205,1.321.281,1.956.5a.591.591,0,0,1,.216.11.547.547,0,0,1,.123.21l.217.549A11.262,11.262,0,0,0,49.6,56.8c-.136.053-.284.123-.326.25a.293.293,0,0,0,.165.326.722.722,0,0,0,.414.059c.423-.044.8-.266,1.219-.333.614-.1,1.276.137,1.855-.073.211-.076.428-.212.645-.149.146.042,3.361,3.743,4.726,4.93.3.264.629.508.961.744.161.115.323.228.488.339a2.445,2.445,0,0,0,1.956-.1.994.994,0,0,0,.573-.414.9.9,0,0,0,.074-.3,6.565,6.565,0,0,0,.036-1.088" transform="translate(-27.846 -33.628)" fill="#663c33"/>
          <path id="Path_925115" data-name="Path 925115" d="M49.481,144.86c-.537.192-1.069.4-1.606.593a18.169,18.169,0,0,0-3.124,1.259,2.163,2.163,0,0,0-.749.642.9.9,0,0,0,.171,1.186,2.557,2.557,0,0,0,1.421.592,5.589,5.589,0,0,0,1.583-.081,12.046,12.046,0,0,0,1.756-.435,8.862,8.862,0,0,1,2.006-.628,5.369,5.369,0,0,1,.824.094,7.346,7.346,0,0,0,1.151.061c1.313-.078,1.307-1.826.923-2.648a3.419,3.419,0,0,0-1.731-1.6.863.863,0,0,1-.1.37.7.7,0,0,1-.851.1,13.052,13.052,0,0,0-1.672.494" transform="translate(-25.498 -89.304)" fill="#eebc32"/>
          <path id="Path_925116" data-name="Path 925116" d="M64.7,101.241c-.162-.31-.48-.5-.525-.841-.022-.169.01-.944.274-.994-.985.184-1.961.4-2.935.63-2.486.58-4.953,1.219-7.409,1.9-1,.276-2,.554-2.985.858a3.049,3.049,0,0,0-1.331.6,2.146,2.146,0,0,0-.559,1.433,5.194,5.194,0,0,0,.257,1.425c.935,3.352,2.883,10.771,3.041,11.022a1.085,1.085,0,0,0,.82.327,3.8,3.8,0,0,0,2.252-.537,1.158,1.158,0,0,0,.42-.387,1.935,1.935,0,0,0,.087-.872,4.132,4.132,0,0,0-.121-1.032l-.416-2.131a26.239,26.239,0,0,0-.862-3.535,12.664,12.664,0,0,0-.947-2.107.527.527,0,0,1,.514-.768,38.951,38.951,0,0,0,7.784-.759,8.385,8.385,0,0,0,1.374-.39,2.551,2.551,0,0,0,.976-.578,2.1,2.1,0,0,0,.459-.952,3.266,3.266,0,0,0-.169-2.305" transform="translate(-28.627 -61.694)" fill="#262626"/>
          <path id="Path_925117" data-name="Path 925117" d="M76.98,67.414a1.353,1.353,0,0,0,.193,1.177,3.488,3.488,0,0,0,.831.958,4.337,4.337,0,0,0,1.361.77c.045.016.492.126.493.138a8.62,8.62,0,0,1,.176-2.665,3.844,3.844,0,0,0,.172-1.922,1.136,1.136,0,0,0-.3-.493c-.033-.033-.38-.314-.29-.368a12.149,12.149,0,0,0-2.54,2.273.6.6,0,0,0-.093.131" transform="translate(-44.717 -40.347)" fill="#fd0"/>
          <path id="Path_925118" data-name="Path 925118" d="M62.6,162.383q-.225.252-.444.508a2.353,2.353,0,0,0-.53.849.962.962,0,0,0,.42,1.134,2.674,2.674,0,0,0,1.334.307,5.132,5.132,0,0,0,1.9-.447,5.733,5.733,0,0,0,2.1-1.417,4.639,4.639,0,0,1,1.2-1.217c.258-.135.555-.2.811-.339a1.385,1.385,0,0,0,.575-1.8c-.3-.735-1.086-1.206-1.592-1.843a.885.885,0,0,1-.061.427c-.045.112-.613,0-.761.014-.217.016-.424.107-.635.122-.105.008-.194-.036-.292,0a1.521,1.521,0,0,0-.317.244q-.33.257-.651.521-.642.53-1.25,1.093-.953.883-1.813,1.843" transform="translate(-35.805 -98.131)" fill="#fcdf8e"/>
          <path id="Path_925119" data-name="Path 925119" d="M74.754,100.181a3.93,3.93,0,0,1-3.527,1.491,11.742,11.742,0,0,1-3.885-1.116c-.268-.113-.532-.091-.746-.278-.1-.088-.4-.472-.354-.608q-.161.44-.292.889a13.7,13.7,0,0,0-.535,3.272c-.019.469.048.664-.418.895-.142.07-.286.137-.43.2-1.064.5-2.134.992-3.2,1.492-1.338.629-2.673,1.263-3.99,1.928a17.208,17.208,0,0,0-2.69,1.516,4.4,4.4,0,0,0-1.02.992c-.793,1.189.233,3.073.872,4.149a26.687,26.687,0,0,0,2.281,3.069q2.027,2.5,3.884,5.112a.766.766,0,0,0,.21.223.783.783,0,0,0,.358.091,3.418,3.418,0,0,0,2.634-.951.214.214,0,0,0,.038-.322,21.908,21.908,0,0,1-1.616-3.614c-.28-.819-.492-1.659-.841-2.458a5.912,5.912,0,0,0-1.5-1.853,19.214,19.214,0,0,0-1.446-1.283c4.08-1.623,8.494-2.415,12.735-3.653a7.071,7.071,0,0,0,3.37-1.729A4.6,4.6,0,0,0,75.689,105a8.511,8.511,0,0,0-.935-4.822" transform="translate(-31.039 -61.858)" fill="#404040"/>
          <path id="Path_925120" data-name="Path 925120" d="M82.035,62.088a2.789,2.789,0,0,0-.728,1.03c-.133.505.457,10.918.547,12.069.045.576.09,1.151.142,1.727.046.511.448.787.892,1.085a7.476,7.476,0,0,0,8.4-.122,1.029,1.029,0,0,0,.322-.318.986.986,0,0,0,.081-.469l.013-2.065c.008-1.288.016-2.576-.014-3.863A20.815,20.815,0,0,0,91.062,66a9.448,9.448,0,0,0-2.684-4.528,5.359,5.359,0,0,0-2.784-1.4,2.143,2.143,0,0,0-1.926.514c-.476.548-1.123.967-1.633,1.5" transform="translate(-47.265 -37.261)" fill="#eebc32"/>
          <path id="Path_925121" data-name="Path 925121" d="M75.623,43.944c-.008.2-.015.4-.038.6-.028.248-.072.5-.1.747a2.017,2.017,0,0,1-.239.757c-.058.1-.127.228-.051.319a.434.434,0,0,0,.19.1.746.746,0,0,1,.426.481,2.39,2.39,0,0,1,.077.632,7.24,7.24,0,0,0,.167,1.249.5.5,0,0,0,.091.222.527.527,0,0,0,.236.137,3.035,3.035,0,0,0,1.185.106c.332-.022.5.343.673.57q.4.513.74,1.057c.211.333.308.761.807.76a1.806,1.806,0,0,0,.5-.09,7.326,7.326,0,0,0,2.365-1.181,2.158,2.158,0,0,0,.688-.753c.157-.337.014-.56-.195-.827a3.081,3.081,0,0,1-.514-.976.729.729,0,0,1-.043-.242.874.874,0,0,1,.091-.307,6.57,6.57,0,0,0,.658-3.364,3.407,3.407,0,0,0-2-2.751A4.7,4.7,0,0,0,79.6,40.9a5.573,5.573,0,0,0-2.266.4,2.775,2.775,0,0,0-1.543,1.5,3.725,3.725,0,0,0-.167,1.147" transform="translate(-43.701 -25.382)" fill="#874f43"/>
          <path id="Path_925122" data-name="Path 925122" d="M84.041,40.421a.54.54,0,0,0-.17-.084.605.605,0,0,0-.454-.991.53.53,0,0,0-.164-.6,1.12,1.12,0,0,0-.743-.118.632.632,0,0,0-.533-.316,2.011,2.011,0,0,0-.658.089,1.175,1.175,0,0,0-1.374,0,.982.982,0,0,0-1.366.151,2.085,2.085,0,0,0-1.079.068.529.529,0,0,0-.26.126c-.1.1-.085.274-.266.233a.55.55,0,0,0-.648.588c0,.105.046.474.209.464a.591.591,0,0,0-.445.4.529.529,0,0,0,.2.548c.046.035.1.069.114.123a.169.169,0,0,1-.015.091c-.087.233-.237.5-.089.7.072.1.209.171.22.29a.345.345,0,0,1-.047.17,1.022,1.022,0,0,0-.1.6c.047.259.207.349.425.477a2,2,0,0,1,.543.515c.21.289.181.947.606,1.068a1.091,1.091,0,0,1,.715-.886,1.244,1.244,0,0,1,.623-.088,1.379,1.379,0,0,1,.5.186,2.186,2.186,0,0,1,.721.665c.17.253.28.537.463.782.309.412,1.277.828,1.62.225a.62.62,0,0,0,.239.165.677.677,0,0,0,.642-.15,1.441,1.441,0,0,0,.353-.543c.1-.233.173-.533-.031-.7-.023-.019-.052-.04-.052-.068a.081.081,0,0,1,.029-.054c.143-.151.347-.223.418-.415a.811.811,0,0,0-.065-.682.489.489,0,0,0,.417-.323.43.43,0,0,0-.179-.47c-.039-.026-.087-.054-.089-.1a.12.12,0,0,1,.012-.05A.9.9,0,0,0,84.4,42a.617.617,0,0,0-.078-.221c-.02-.032-.164-.154-.164-.173A1.691,1.691,0,0,0,84.3,40.9a.675.675,0,0,0-.259-.48" transform="translate(-44.235 -23.697)" fill="#262626"/>
          <path id="Path_925123" data-name="Path 925123" d="M72.722,94.138a10.333,10.333,0,0,0,.158-1.03c-.023.231-.552.5-.776.436s-.265-.321-.453-.449a1.837,1.837,0,0,0-1.367-.221c-.21.042-.416.222-.6.249a.432.432,0,0,1-.43-.376,24.586,24.586,0,0,1-1.261,3.5,6.22,6.22,0,0,1-1,1.3q-.505.56-1.035,1.1c-.807.826-3.909,3.843-5.038,4.012a4.323,4.323,0,0,1-.771.019.551.551,0,0,0-.345.086c-1.346.958-3.147,1.362-4.3,2.511a.588.588,0,0,0-.2.334.24.24,0,0,0,.241.26.273.273,0,0,0,.2.28.884.884,0,0,0,.392.025,6.315,6.315,0,0,0,2.292-.678c0,.2-.2.342-.385.453l-.96.587a.267.267,0,0,0-.131.129.169.169,0,0,0,.113.187.514.514,0,0,0,.252.021,10.484,10.484,0,0,0,2.133-.767c.4-.131.821-.2,1.225-.315a4.422,4.422,0,0,0,1.288-.621,1.509,1.509,0,0,0,.394-.371c.086-.127.134-.272.212-.4a1.508,1.508,0,0,1,.411-.432,26.541,26.541,0,0,0,7.517-5.077,9.253,9.253,0,0,0,1.578-2.675,10.654,10.654,0,0,0,.654-2.075" transform="translate(-32.152 -57.562)" fill="#874f43"/>
          <path id="Path_925124" data-name="Path 925124" d="M87.8,79.217c-.085.319-.158.643-.227.968-.121.572-.269,2.3-.279,2.582a3.406,3.406,0,0,0-.019.8,5.569,5.569,0,0,0,2.328.42,12.36,12.36,0,0,0,3.729-.433.355.355,0,0,0,.171-.087.3.3,0,0,0,.058-.157,10.46,10.46,0,0,0-.465-5.126,4.209,4.209,0,0,0-.834-1.509,2.842,2.842,0,0,0-1.465-.826c-.909-.159-1.712.692-2.119,1.305a6.91,6.91,0,0,0-.879,2.062" transform="translate(-50.733 -47.062)" fill="#fcdf8e"/>
          <path id="Path_925125" data-name="Path 925125" d="M126.7,124.747a.273.273,0,0,0-.135-.185l-1.643-.866a.273.273,0,0,1,.135.185l2.068,8.34,1.643.865Z" transform="translate(-72.639 -76.769)" fill="#c28652"/>
          <path id="Path_925126" data-name="Path 925126" d="M124.645,107.824l-.666-3.618a.273.273,0,0,0-.135-.2l-1.643-.865a.27.27,0,0,1,.135.2l.667,3.618a.918.918,0,0,1-.465.838l1.643.866a.916.916,0,0,0,.465-.838" transform="translate(-71.054 -64.01)" fill="#c28652"/>
          <path id="Path_925127" data-name="Path 925127" d="M95.607,123.017l-1.643-.866,12.155-6.737,1.643.865Z" transform="translate(-54.636 -71.629)" fill="#e6ab77"/>
          <path id="Path_925128" data-name="Path 925128" d="M95.265,134.039l-1.643-.866a.5.5,0,0,0-.246.394l.04,12.579,1.643.865-.04-12.578a.5.5,0,0,1,.247-.394" transform="translate(-54.294 -82.65)" fill="#c28652"/>
          <path id="Path_925129" data-name="Path 925129" d="M113.962,97.163a.257.257,0,0,0-.239.021l-8.347,4.368,1.643.866,8.347-4.368a.258.258,0,0,1,.239-.021Z" transform="translate(-61.272 -60.289)" fill="#e6ab77"/>
          <path id="Path_925130" data-name="Path 925130" d="M110.672,99.467c.169-.088.311-.032.334.131l2.486,18.018-.781.409-2.068-8.34c-.049-.2-.231-.269-.45-.174l-10.984,4.727a.515.515,0,0,0-.276.388l-.758,11.005-.833.436-.04-12.578a.5.5,0,0,1,.246-.394l12.155-6.737a.917.917,0,0,0,.465-.838L109.5,101.9c-.039-.208-.22-.287-.442-.19l-6.744,2.941c-.076.033-.135,0-.135-.082l0-.5a.288.288,0,0,1,.146-.23Z" transform="translate(-56.577 -61.706)" fill="#8f5d31"/>
          <path id="Path_925131" data-name="Path 925131" d="M106.815,109.633l-1.643-.866a.29.29,0,0,0-.147.23l0,.5a.089.089,0,0,0,.043.085l1.643.866a.091.091,0,0,1-.043-.085v-.5a.287.287,0,0,1,.146-.23" transform="translate(-61.068 -67.503)" fill="#c28652"/>
          <path id="Path_925132" data-name="Path 925132" d="M102.548,52.62a2.148,2.148,0,0,0,.554-.2l.781-.412a2.149,2.149,0,0,1-.553.2Z" transform="translate(-59.627 -32.275)" fill="#f2f2f2"/>
          <path id="Path_925133" data-name="Path 925133" d="M110.127,50.846l.781-.412a2.888,2.888,0,0,0,1.307-1.635l-.781.411a2.885,2.885,0,0,1-1.307,1.635" transform="translate(-64.034 -30.286)" fill="#f2f2f2"/>
          <path id="Path_925134" data-name="Path 925134" d="M113,27.937,101.852,22.1a.319.319,0,0,0-.3-.027l-.781.412a.32.32,0,0,1,.3.026l11.151,5.836a.812.812,0,0,1,.414.649l-.021,6.641a.256.256,0,0,1-.121.241l.781-.412a.255.255,0,0,0,.121-.241l.021-6.641a.813.813,0,0,0-.414-.65" transform="translate(-58.596 -13.685)" fill="#f69a8b"/>
          <path id="Path_925135" data-name="Path 925135" d="M112.025,29.022a.813.813,0,0,1,.414.65l-.021,6.641c0,.238-.188.335-.416.215l-6.2-3.246c-.258.761-1.285,2.864-4.48,1.421.1-.021,2.05-.418,1.656-2.9l-2.125-1.112a.818.818,0,0,1-.414-.65l.021-6.641c0-.241.188-.335.416-.215Z" transform="translate(-58.4 -14.358)" fill="#ffdcd6"/>
          <path id="Path_925136" data-name="Path 925136" d="M112.432,37.173a1.175,1.175,0,0,1,.084-.5.508.508,0,0,1,.2-.236,2.581,2.581,0,0,1,.344-.146,1.021,1.021,0,0,0,.4-.227.589.589,0,0,0,.132-.429,1.252,1.252,0,0,0-.23-.7,1.461,1.461,0,0,0-.535-.508.658.658,0,0,0-.553-.08.62.62,0,0,0-.337.366l-.536-.541a.876.876,0,0,1,.265-.365.822.822,0,0,1,.5-.176,1.447,1.447,0,0,1,.73.2,2.791,2.791,0,0,1,.995.89,2.091,2.091,0,0,1,.389,1.209,1.265,1.265,0,0,1-.087.516.662.662,0,0,1-.222.281,1.813,1.813,0,0,1-.358.178,3.051,3.051,0,0,0-.3.137.408.408,0,0,0-.163.2,1.035,1.035,0,0,0-.066.414v.3l-.647-.339Zm.035,1.675a.6.6,0,0,1-.118-.344.206.206,0,0,1,.122-.215.356.356,0,0,1,.3.042.786.786,0,0,1,.289.263.613.613,0,0,1,.115.34.218.218,0,0,1-.112.223.336.336,0,0,1-.292-.044.825.825,0,0,1-.3-.266" transform="translate(-64.771 -20.875)"/>
          <path id="Path_925137" data-name="Path 925137" d="M36.188,32.372l-.781.412c-.406,2.062,1.531,4.491,1.633,4.62l.781-.412c-.1-.128-2.038-2.558-1.632-4.62" transform="translate(-20.555 -20.091)" fill="#f2f2f2"/>
          <path id="Path_925138" data-name="Path 925138" d="M24.52,6.972a.813.813,0,0,1,.414.65l-.021,6.641c0,.238-.188.335-.416.215l-2.125-1.112c-.406,2.062,1.531,4.492,1.632,4.62a10.013,10.013,0,0,1-4.456-6.1l-6.2-3.245a.818.818,0,0,1-.414-.65l.021-6.641c0-.241.188-.335.416-.215Z" transform="translate(-7.519 -0.673)" fill="#ffdcd6"/>
          <path id="Path_925139" data-name="Path 925139" d="M23.491,11.176a5.351,5.351,0,0,1,2.718,4.267c0,1.57-1.23,2.2-2.735,1.414a5.355,5.355,0,0,1-2.719-4.269c.005-1.569,1.231-2.2,2.737-1.412" transform="translate(-12.068 -6.726)" fill="#eebc32"/>
          <path id="Path_925140" data-name="Path 925140" d="M24.483,14.814c0,.3-.231.415-.516.266a1.015,1.015,0,0,1-.515-.806c0-.3.231-.415.515-.267a1.015,1.015,0,0,1,.516.806" transform="translate(-13.636 -8.654)" fill="#333"/>
          <path id="Path_925141" data-name="Path 925141" d="M29.656,17.8c0,.3-.231.415-.516.266a1.015,1.015,0,0,1-.515-.806c0-.3.231-.415.515-.266a1.014,1.014,0,0,1,.516.806" transform="translate(-16.644 -10.508)" fill="#333"/>
          <path id="Path_925142" data-name="Path 925142" d="M25.4,20.109a2.691,2.691,0,0,1,1.289,1.744,1.186,1.186,0,0,0,.034-.289A2.606,2.606,0,0,0,25.4,19.5c-.731-.382-1.323-.076-1.323.684a1.672,1.672,0,0,0,.034.324c.134-.542.66-.724,1.289-.395" transform="translate(-14.001 -11.998)" fill="#333"/>
          <path id="Path_925143" data-name="Path 925143" d="M25.5,5.888,14.348.052a.321.321,0,0,0-.3-.027l-.781.412a.32.32,0,0,1,.3.027L24.717,6.3a.812.812,0,0,1,.414.649L25.11,13.59a.255.255,0,0,1-.121.241l.781-.411a.255.255,0,0,0,.121-.241l.021-6.641a.814.814,0,0,0-.414-.649" transform="translate(-7.717 0)" fill="#f69a8b"/>
        </g>
      </g>
    </g>
  </g>
</svg>
