<svg id="Group_1119139" data-name="Group 1119139" xmlns="http://www.w3.org/2000/svg" xmlns:xlink="http://www.w3.org/1999/xlink" width="105.334" height="105.693" viewBox="0 0 105.334 105.693">
  <defs>
    <clipPath id="clip-path">
      <rect id="Rectangle_407255" data-name="Rectangle 407255" width="105.334" height="105.693" transform="translate(0)" fill="#07c3f3"/>
    </clipPath>
    <clipPath id="clip-path-2">
      <rect id="Rectangle_401492" data-name="Rectangle 401492" width="60.345" height="60.346" transform="translate(-0.289 -1.985)" fill="#953c2d" stroke="#707070" stroke-width="1"/>
    </clipPath>
    <clipPath id="clip-path-3">
      <rect id="Rectangle_409141" data-name="Rectangle 409141" width="59.064" height="59.082" fill="#953c2d"/>
    </clipPath>
  </defs>
  <g id="Group_1116923" data-name="Group 1116923" clip-path="url(#clip-path)">
    <path id="Path_893365" data-name="Path 893365" d="M104.048,31.292C97.88,10.265,51.742-13.615,17.656,9.414s-9.13,105.365-4.625,88.724c4.329-15.992,23.523-2.928,37.93-2.46C67,96.2,77.411,92.049,77.386,91.987c7.4-2.756,12.628-6.379,17-13.195,8.73-13.615,13.376-34.847,9.664-47.5" transform="translate(0.001 2.676)" fill="#f69a8b"/>
  </g>
  <g id="Group_1115380" data-name="Group 1115380" transform="translate(20 20)">
    <rect id="Rectangle_401104" data-name="Rectangle 401104" width="60.924" height="61.907" transform="translate(2.711 0.015)" fill="none"/>
    <g id="Mask_Group_1098697" data-name="Mask Group 1098697" transform="translate(3 3)" clip-path="url(#clip-path-2)">
      <g id="Group_1119370" data-name="Group 1119370" transform="translate(0.634 -1.063)">
        <g id="Group_1119369" data-name="Group 1119369" clip-path="url(#clip-path-3)">
          <path id="Path_924939" data-name="Path 924939" d="M27.052.081C56.522-1.953,70.78,35.1,47.345,52.978,27.088,68.435-1.355,52.561.05,27.476c.788-14.055,12.956-26.426,27-27.4M8.251,30.947a36.936,36.936,0,0,1-4.9,0c-.107,0-.243.27-.259.42A25.16,25.16,0,0,0,3.481,34.2a26.715,26.715,0,0,0,21.37,21.37,25.162,25.162,0,0,0,2.828.389c.15-.015.42-.152.42-.259V50.8c0-.318,1.027-.841,1.436-.841s1.436.524,1.436.841v4.9c0,.107.27.243.42.259a24.614,24.614,0,0,0,2.824-.393A26.692,26.692,0,0,0,55.592,34.2a25.161,25.161,0,0,0,.389-2.828c-.015-.15-.152-.42-.259-.42h-4.9c-.242,0-.938-1.039-.938-1.436s.7-1.436.938-1.436h4.9c.107,0,.243-.27.259-.42a25.161,25.161,0,0,0-.389-2.828A26.69,26.69,0,0,0,34.217,3.459a24.613,24.613,0,0,0-2.824-.393c-.15.015-.42.152-.42.259v4.9c0,.318-1.027.841-1.436.841S28.1,8.542,28.1,8.225v-4.9c0-.107-.27-.243-.42-.259a25.16,25.16,0,0,0-2.828.389A26.7,26.7,0,0,0,3.485,24.83a24.613,24.613,0,0,0-.393,2.824c.015.15.152.42.259.42h4.9c.386,0,.94,1.018.94,1.436a1.819,1.819,0,0,1-.94,1.436" transform="translate(0 0)" fill="#953c2d"/>
          <path id="Path_924940" data-name="Path 924940" d="M71.571,108.038a1.58,1.58,0,0,1-.036,3.005A21.5,21.5,0,0,1,67.084,111a3.159,3.159,0,0,1-2.362-2.875,29.647,29.647,0,0,1,.563-9.08c.124-.431.809-1.5.457-1.737l-2.081-.726a7.259,7.259,0,0,0-3.115,4.313c-.186,1.2.217,2.9-.255,3.969a1.538,1.538,0,0,1-2.781,0c-.542-1.228.016-4.7.5-6a11.659,11.659,0,0,1,3.311-4.457,6.72,6.72,0,0,1,7.8-9.857c2.138-8.044,13.931-8.018,16.052,0a6.745,6.745,0,0,1,7.782,9.949,8.806,8.806,0,0,1,3.326,4.2c.514,1.364,1.05,4.818.464,6.127a1.562,1.562,0,0,1-2.443.413c-.835-.8-.375-3.356-.555-4.513a6.588,6.588,0,0,0-3.08-4.177l-2.116.759-.147.306a11.646,11.646,0,0,1,1.167,4.248,47.1,47.1,0,0,1-.007,6.427,3.2,3.2,0,0,1-2.49,2.746,21.861,21.861,0,0,1-4.313,0,1.532,1.532,0,0,1-.972-2.415,2.808,2.808,0,0,1,.764-.587h3.97v-6.673a15.055,15.055,0,0,0-.816-2.394,8.8,8.8,0,0,0-4.6-4.538,9.026,9.026,0,0,1-8.109,0,9.6,9.6,0,0,0-4.8,5.5c-.818,2.572-.274,5.427-.429,8.1,1.095.16,2.792-.217,3.8,0m4.773-26.479a5.6,5.6,0,0,0-4.67,5.762c.431,5.9,8.813,6.92,10.633,1.383a5.47,5.47,0,0,0-5.963-7.145M70.453,92.477l-.006-.371a8.443,8.443,0,0,1-1.287-2.266c-.237-.684-.268-1.976-.76-2.281-1.667-1.034-4.06.282-4.718,1.947a3.624,3.624,0,0,0,4.307,4.814c.517-.154,1.688-1.74,2.464-1.843m13.386,0c.776.1,1.946,1.689,2.464,1.843a3.624,3.624,0,0,0,4.307-4.814c-.657-1.665-3.051-2.981-4.718-1.947-.492.305-.523,1.6-.76,2.281a8.439,8.439,0,0,1-1.287,2.266Z" transform="translate(-47.609 -65.267)" fill="#953c2d"/>
          <path id="Path_924941" data-name="Path 924941" d="M166.453,252.11a1.642,1.642,0,0,1,1.071,3.1,1.642,1.642,0,1,1-1.071-3.1" transform="translate(-137.387 -209.472)" fill="#953c2d"/>
        </g>
      </g>
    </g>
  </g>
</svg>
