<svg id="Group_1119134" data-name="Group 1119134" xmlns="http://www.w3.org/2000/svg" xmlns:xlink="http://www.w3.org/1999/xlink" width="105.334" height="105.693" viewBox="0 0 105.334 105.693">
  <defs>
    <clipPath id="clip-path">
      <rect id="Rectangle_407255" data-name="Rectangle 407255" width="105.334" height="105.693" transform="translate(0)" fill="#07c3f3"/>
    </clipPath>
    <clipPath id="clip-path-2">
      <rect id="Rectangle_401492" data-name="Rectangle 401492" width="65.388" height="65.389" transform="translate(-0.289 0.26)" fill="#953c2d" stroke="#707070" stroke-width="1"/>
    </clipPath>
    <clipPath id="clip-path-3">
      <rect id="Rectangle_409135" data-name="Rectangle 409135" width="60" height="60.03" fill="#953c2d"/>
    </clipPath>
  </defs>
  <g id="Group_1116923" data-name="Group 1116923" clip-path="url(#clip-path)">
    <path id="Path_893365" data-name="Path 893365" d="M104.048,31.292C97.88,10.265,51.742-13.615,17.656,9.414s-9.13,105.365-4.625,88.724c4.329-15.992,23.523-2.928,37.93-2.46C67,96.2,77.411,92.049,77.386,91.987c7.4-2.756,12.628-6.379,17-13.195,8.73-13.615,13.376-34.847,9.664-47.5" transform="translate(0.001 2.676)" fill="#f69a8b"/>
  </g>
  <g id="Group_1115380" data-name="Group 1115380" transform="translate(20 20)">
    <rect id="Rectangle_401104" data-name="Rectangle 401104" width="60.924" height="61.907" transform="translate(2.232 0)" fill="none"/>
    <g id="Group_1098697" data-name="Group 1098697" transform="translate(0 0)" clip-path="url(#clip-path-2)">
      <g id="Group_1119362" data-name="Group 1119362" transform="translate(2.711 2.26)">
        <g id="Group_1119361" data-name="Group 1119361" transform="translate(0 0)" clip-path="url(#clip-path-3)">
          <path id="Path_924905" data-name="Path 924905" d="M218.129,208.066c12.771-1.527,19.1,14.462,8.951,21.833-9.123,6.629-21.4-1.606-18.962-12.606a12.31,12.31,0,0,1,10.011-9.227m.518,1.72c-13,1.415-11.363,21.5,1.837,20.729,13.912-.814,12.472-22.287-1.837-20.729" transform="translate(-172.111 -172.243)" fill="#953c2d"/>
          <path id="Path_924906" data-name="Path 924906" d="M218.663.28a12.149,12.149,0,1,1-9.207,18.208A12.165,12.165,0,0,1,218.663.28M219.005,2c-13.546,1.276-11.816,21.944,2.008,20.73C234.389,21.553,232.633.713,219.005,2" transform="translate(-172.126 -0.181)" fill="#953c2d"/>
          <path id="Path_924907" data-name="Path 924907" d="M10.465,208.171c12.547-1.345,18.79,13.917,9.221,21.588-7.528,6.035-19.021.9-19.661-8.673-.411-6.152,4.194-12.246,10.44-12.915m.34,1.715c-12.88,1.47-11.331,21.353,1.84,20.733,13.984-.658,12.541-22.374-1.84-20.733" transform="translate(0.001 -172.346)" fill="#953c2d"/>
          <path id="Path_924908" data-name="Path 924908" d="M19.124,2.157a.883.883,0,0,1-.562,1.49c-.549,0-2.581-1.2-3.51-1.451C5.164-.461-2.26,11.111,4.335,18.924c7.486,8.869,21.89.337,17.547-10.677-.378-.958-1.775-2.4-1.088-3.232.952-1.151,2.159,1.315,2.479,2.013,5.386,11.755-8.916,22.684-18.7,14.577S2.344-2.221,14.752.262c.8.16,3.914,1.346,4.372,1.895" transform="translate(-0.086 0)" fill="#953c2d"/>
          <path id="Path_924909" data-name="Path 924909" d="M48.772,45.031l-10.533.051c-.1-.109-.275-.226-.329-.358a51.312,51.312,0,0,1-.1-6.617,1.53,1.53,0,0,1,.2-.833l4.864-3.9a1.05,1.05,0,0,1,1.195.036l4.881,4.049c-.09,1.125.324,7.061-.177,7.567m-1.505-1.505V38.287L43.4,35.274l-3.865,3.013v4.981l.258.258Z" transform="translate(-31.269 -27.504)" fill="#953c2d"/>
          <path id="Path_924910" data-name="Path 924910" d="M140.122,155.172a3.457,3.457,0,0,0-2.089-.916,52.71,52.71,0,0,0-7.39-.008c-4.206.364-2.73,4.414-2.992,7.314-.114,1.258-1.255,1.555-1.641.766a41.821,41.821,0,0,1-.04-6.054,4.685,4.685,0,0,1,3.991-3.739,59.338,59.338,0,0,1,8.425-.006,4.623,4.623,0,0,1,4.2,4.046,40.464,40.464,0,0,1-.033,5.632c-.148.5-.781.546-1.225.437a.807.807,0,0,1-.42-.612c-.427-1.976.688-5.286-.785-6.859" transform="translate(-104.26 -126.208)" fill="#953c2d"/>
          <path id="Path_924911" data-name="Path 924911" d="M156.263,104.149c5.39-.933,6.045,6.931,1.138,7.33-4.7.382-5.389-6.594-1.138-7.33m2.22,2.249c-2.017-2.116-4.886,1.628-2.41,3.01a1.946,1.946,0,0,0,2.41-3.01" transform="translate(-127.084 -86.196)" fill="#953c2d"/>
          <path id="Path_924912" data-name="Path 924912" d="M148.359,187.644c-.824.822-1.572-.144-1.677-1.075a31.088,31.088,0,0,1,.01-4.97c.195-1.395,1.667-1.444,1.868-.172a34.486,34.486,0,0,1,.018,5.321c-.023.266-.029.706-.22.9" transform="translate(-121.41 -149.506)" fill="#953c2d"/>
          <path id="Path_924913" data-name="Path 924913" d="M192.375,180.714a2.519,2.519,0,0,1,.395,1.065,31.708,31.708,0,0,1,0,4.813c-.186,1.674-1.706,1.7-1.873.506a36.892,36.892,0,0,1,.11-6.047.938.938,0,0,1,1.373-.338" transform="translate(-158.045 -149.53)" fill="#953c2d"/>
          <path id="Path_924914" data-name="Path 924914" d="M242.715,248c-.655.181-.668,1.4-.612,1.955l.869.536v6.1h7.472l.258-.258v-5.84c0-.289.793-.41.832-.454a3.438,3.438,0,0,0-.01-1.228c-.241-1.029-1.413-.669-1.694-1.094a1.152,1.152,0,0,1,.056-1.219c2.518-.817,3.867,1.692,3.357,3.959-.127.564-.726.755-.819,1.242-.379,1.982,1.121,6.348-1.8,6.618a53.81,53.81,0,0,1-7.742,0c-2.816-.336-1.165-4.878-1.624-6.754-.037-.149-.482-.254-.672-.568a3.194,3.194,0,0,1,1.785-4.705h4.809c.56,0,.56,1.718,0,1.718a34.767,34.767,0,0,0-4.466,0" transform="translate(-198.978 -203.976)" fill="#953c2d"/>
          <path id="Path_924915" data-name="Path 924915" d="M260.445,34.969c-2.01-.873-3.172-2.708-1.861-4.781.491-.776,1.634-1.1,1.777-1.314.261-.388-.075-1.349.9-1.518,1.062-.185.733.91.993,1.343.317.529,1.868.234,1.812,1.465-.061,1.366-1.78.47-1.9.6l.022,2.81c.648.482,1.456.645,2.039,1.274a3.636,3.636,0,0,1-.8,5.334c-.293.187-1.09.394-1.183.535-.259.4.244,1.931-1.156,1.523-.865-.252-.568-1.425-.646-1.509-.046-.049-.941-.167-1.312-.32-.765-.315-1.667-.748-1.172-1.748.466-.944,1.831.256,2.491.344Zm0-4.036c-.394-.075-.274.026-.383.219a1.308,1.308,0,0,0,.128,1.668c.388.072.238-.17.255-.425.034-.483-.023-.979,0-1.462m1.719,4.809v2.92c.641.167,1.23-1.123,1.2-1.621-.033-.482-.594-1.463-1.2-1.3" transform="translate(-213.53 -22.64)" fill="#953c2d"/>
          <path id="Path_924916" data-name="Path 924916" d="M34.146,246.186a5.1,5.1,0,0,1,2.57.267c.281.093.682.481.826.491.2.013,1.32-.7,1.9-.783A4.357,4.357,0,0,1,44.452,251c-.323,2.5-3.443,5.271-5.5,6.525-1.791,1.092-2.142.5-3.717-.655-2.48-1.823-5.776-4.978-4.106-8.37a4.8,4.8,0,0,1,3.015-2.309m.343,1.714a3.056,3.056,0,0,0-1.705,1.217c-1.485,2.813,2.745,6.01,4.9,7.128,1.866-1.285,5.973-4.213,4.839-6.837a2.665,2.665,0,0,0-3.01-1.464c-.649.165-1.492,1.093-1.8,1.126-.827.086-1.475-1.527-3.218-1.17" transform="translate(-25.408 -203.843)" fill="#953c2d"/>
          <path id="Path_924917" data-name="Path 924917" d="M66.344,66.191a1.284,1.284,0,0,1,.912.051c.791.809.315,3.084-1.034,2.408-.524-.262-.57-2.25.122-2.458" transform="translate(-54.52 -54.773)" fill="#953c2d"/>
        </g>
      </g>
    </g>
  </g>
</svg>
