<svg xmlns="http://www.w3.org/2000/svg" xmlns:xlink="http://www.w3.org/1999/xlink" width="158.357" height="158" viewBox="0 0 158.357 158">
  <defs>
    <clipPath id="clip-path">
      <rect id="Rectangle_407255" data-name="Rectangle 407255" width="158" height="158" transform="translate(-4 -4)" fill="#d9c3ac"/>
    </clipPath>
    <clipPath id="clip-path-2">
      <rect id="Rectangle_401492" data-name="Rectangle 401492" width="97.31" height="97.311" transform="translate(0 0.41)" fill="#6b4502" stroke="#707070" stroke-width="1"/>
    </clipPath>
    <clipPath id="clip-path-3">
      <rect id="Rectangle_409139" data-name="Rectangle 409139" width="85.801" height="94.234" fill="#6b4502"/>
    </clipPath>
  </defs>
  <g id="Group_1118033" data-name="Group 1118033" transform="translate(-307 -7641)">
    <g id="Group_1116923" data-name="Group 1116923" transform="translate(311 7645)" clip-path="url(#clip-path)">
      <path id="Path_893365" data-name="Path 893365" d="M148.324,46.778C139.531,15.346,73.76-20.354,25.169,14.072s-13.015,157.51-6.593,132.633c6.172-23.906,33.533-4.377,54.071-3.677,22.869.779,37.705-5.425,37.669-5.518,10.542-4.12,18-9.536,24.231-19.725,12.445-20.354,19.068-52.093,13.776-71.008" transform="translate(-0.246 0)" fill="#d9c3ac"/>
    </g>
    <g id="Group_1115380" data-name="Group 1115380" transform="translate(337 7671)">
      <rect id="Rectangle_401104" data-name="Rectangle 401104" width="90.666" height="92.129" transform="translate(3.322 0)" fill="none"/>
      <g id="Mask_Group_1098697" data-name="Mask Group 1098697" transform="translate(0 0.001)" clip-path="url(#clip-path-2)">
        <g id="Group_1119366" data-name="Group 1119366" transform="translate(6.001 1.41)">
          <g id="Group_1119365" data-name="Group 1119365" clip-path="url(#clip-path-3)">
            <path id="Path_924920" data-name="Path 924920" d="M125.311,171.289a7.936,7.936,0,0,1,4.859,1.38c3.267,2.3,4.116,5.964,3.8,9.788-.817,3.773-.073,8.429-.906,12.1-.53,2.339-2.507,3.155-4.744,3l-.4.433-2.573,19.29a1.365,1.365,0,0,1-.59.517,42.534,42.534,0,0,1-7.813.2c-.872-.162-1.3-1.083-1.465-1.856l-2.04-18.163-.415-.415c-2.041.178-3.926-.463-4.748-2.448.112-6.927-4.021-18.916,4.03-22.7,3.736-1.756,5.3.122,8.227,2.047.721,0,3.3-2.966,4.78-3.177m-10.264,4.159c-6.059,2.021-3.863,10.088-3.513,15.026.058.818-.319,3.163.457,3.418,1.743.234,3.87-.662,4.591,1.5l2.189,18.568c.243.714,2.606.6,2.886.194l2.18-18.852c.736-2.413,4.715-.653,5.1-1.822-.348-4.485,1.249-9.969.574-14.334-.235-1.523-2.088-3.2-3.489-3.693-1.085-.088-4.154,3.2-5.482,3.23-1.551.031-3.923-2.754-5.49-3.232" transform="translate(-77.613 -123.858)" fill="#6b4502"/>
            <path id="Path_924921" data-name="Path 924921" d="M131.517.121c9.483-1.5,13.793,11.266,5.8,15.766-6.741,3.8-14.444-2.751-12.227-10.013A8.608,8.608,0,0,1,131.517.121m.55,4.15c-5.469,1-3.963,9.983,2.089,8.727,5.283-1.1,4.222-9.883-2.089-8.727" transform="translate(-90.193 0.001)" fill="#6b4502"/>
            <path id="Path_924922" data-name="Path 924922" d="M2.843,88.485c-7.629-7.218,2.381-19.206,10.833-12.908,9.257,6.9-2.225,21.053-10.833,12.908m4.81-10.35a4.656,4.656,0,0,0-3.46,3.455,4.453,4.453,0,1,0,3.46-3.455" transform="translate(-0.093 -53.381)" fill="#6b4502"/>
            <path id="Path_924923" data-name="Path 924923" d="M256.474,74.179c10.439-1.511,13.557,13.282,4.138,16.314-11.763,3.786-15.468-14.675-4.138-16.314m.267,4.143c-4.415.913-4.225,8.09.232,8.773,7.237,1.108,6.9-10.247-.232-8.773" transform="translate(-180.551 -53.572)" fill="#6b4502"/>
            <path id="Path_924924" data-name="Path 924924" d="M2.22,209.056C8.9,201.131,21.881,211.11,15.1,219.87S-5.345,218.027,2.22,209.056m5.061,1.06a4.947,4.947,0,0,0-3.257,3.959,4.47,4.47,0,0,0,7.067,4c3.984-2.963,1.08-8.975-3.81-7.959" transform="translate(0 -149.112)" fill="#6b4502"/>
            <path id="Path_924925" data-name="Path 924925" d="M262.984,208.279c7.629,7.218-2.381,19.206-10.833,12.908-9.281-6.916,2.373-20.913,10.833-12.908m-6.9,1.626c-4.413.916-4.233,8.09.232,8.773,7.195,1.1,6.944-10.262-.232-8.773" transform="translate(-179.897 -148.901)" fill="#6b4502"/>
            <path id="Path_924926" data-name="Path 924926" d="M135.315,114.332c7.442-.827,10.381,7.211,6.379,12.742-6.475,8.949-16.348-3.124-10.974-10.144a6.625,6.625,0,0,1,4.6-2.6m.551,3.849c-4.273.585-3.041,7.212.433,8.186,3.974-1.115,4.676-8.885-.433-8.186" transform="translate(-93.426 -82.648)" fill="#6b4502"/>
            <path id="Path_924927" data-name="Path 924927" d="M79.288,48.257c.127.731,2,3.093,1.674,3.57L68.513,58.909l-1.931-3.468Z" transform="translate(-48.156 -34.902)" fill="#6b4502"/>
            <path id="Path_924928" data-name="Path 924928" d="M193.566,49.257l12.427,7.173-1.811,3.207L191.849,52.57c-.407-.62,1.2-2.719,1.717-3.313" transform="translate(-138.708 -35.625)" fill="#6b4502"/>
            <path id="Path_924929" data-name="Path 924929" d="M80.96,261.433c.286.406-1.224,2.749-1.56,3.235-.147.213.029.442-.451.31l-12.358-7.3,2.071-3.456Z" transform="translate(-48.162 -183.867)" fill="#6b4502"/>
            <path id="Path_924930" data-name="Path 924930" d="M206.055,257.855l-12.3,7.151-2.034-3.122L204,254.313a11.168,11.168,0,0,1,2.058,3.542" transform="translate(-138.66 -183.932)" fill="#6b4502"/>
            <path id="Path_924931" data-name="Path 924931" d="M194.591,128.124l-1.584-3.291,12.608-6.636,1.547,3.6Z" transform="translate(-139.593 -85.486)" fill="#6b4502"/>
            <path id="Path_924932" data-name="Path 924932" d="M67.719,119.271l12.166,6.338c.4.613-1.249,2.707-1.532,3.487l-12.341-6.521Z" transform="translate(-47.744 -86.263)" fill="#6b4502"/>
            <rect id="Rectangle_409137" data-name="Rectangle 409137" width="3.874" height="11.623" transform="translate(6.526 41.567)" fill="#6b4502"/>
            <rect id="Rectangle_409138" data-name="Rectangle 409138" width="3.874" height="11.623" transform="translate(75.436 41.567)" fill="#6b4502"/>
            <path id="Path_924933" data-name="Path 924933" d="M151.732,79.99h-4.151V72.379a4.517,4.517,0,0,1,4.151,0Z" transform="translate(-106.738 -51.983)" fill="#6b4502"/>
            <path id="Path_924934" data-name="Path 924934" d="M74.1,200.89l-7.031,3.347L65.5,200.784l6.532-3.449Z" transform="translate(-47.375 -142.723)" fill="#6b4502"/>
            <path id="Path_924935" data-name="Path 924935" d="M223.129,201.467l-2.073,3.547-6.519-3.422,1.561-3.472Z" transform="translate(-155.164 -143.291)" fill="#6b4502"/>
          </g>
        </g>
      </g>
    </g>
    <path id="Path_893317" data-name="Path 893317" d="M22.933,42.9C13.62,42.9,5.1,38.964.669,34.93A2.045,2.045,0,0,1,3.419,31.9c6.764,6.148,25.724,12.252,38.909-1.51A18.409,18.409,0,0,0,47.31,21.06a21.362,21.362,0,0,1-6-2.779C35.414,14.315,32.9,8.074,35.344,3.44,37,.289,39.444-.065,40.769.008,44.34.2,48.01,3.774,50.12,9.11a22.936,22.936,0,0,1,1.644,8.657c7.787.791,17.927-2.83,28.293-15.149a2.044,2.044,0,0,1,3.129,2.632C71.773,18.811,60.308,22.771,51.341,21.842A22.964,22.964,0,0,1,45.28,33.223,30.2,30.2,0,0,1,22.933,42.9M40.446,4.088c-.3,0-.878.106-1.484,1.256-1.425,2.708.566,6.811,4.629,9.543a17,17,0,0,0,4.026,1.983,19.647,19.647,0,0,0-1.3-6.258c-1.57-3.971-4.166-6.435-5.768-6.521-.03,0-.063,0-.1,0" transform="translate(463.896 7641) rotate(89)" fill="#025974"/>
  </g>
</svg>
