<svg xmlns="http://www.w3.org/2000/svg" xmlns:xlink="http://www.w3.org/1999/xlink" width="400.873" height="315" viewBox="0 0 400.873 315">
  <defs>
    <clipPath id="clip-path">
      <rect id="Rectangle_409111" data-name="Rectangle 409111" width="296.826" height="315" fill="none"/>
    </clipPath>
    <clipPath id="clip-path-2">
      <path id="Path_924572" data-name="Path 924572" d="M25.618,229.706c-.007.012-5.314,8.918-2.34,54.709,0,0,11.514-.161,21.842.706,0,0,2.618-23.057,7.3-50.308a15.56,15.56,0,0,0,.768-3.712l.788-10.108,1.2,5.156c-1.1,5.952-3,24.489,5.724,60.249,0,0,11.31-2.158,21.632-3.1,0,0-2.708-35.379-1.924-55.283l-.039-.007c-.008-.345-.029-.692-.068-1.038l-1.616-14.7-6.642-50.518-15.215,6.675.1-1.686L24.082,159.5Z" transform="translate(-22.374 -159.497)" fill="none"/>
    </clipPath>
    <clipPath id="clip-path-4">
      <path id="Path_924578" data-name="Path 924578" d="M66.107,98.491c1.524,2.39-.472,9.051,1.533,11.06,3.061,3.072,13.731,5.681,20.795,5.673-.511-6.551,1.243-14.8.99-21.352-1.793-.577-4.193-1.374-6.505-2.222-.207-.076-.409-.153-.614-.229-1.8-.673-3.51-1.366-4.76-1.992l-.631-.313q-.669-.333-1.311-.645c-1.29-.628-2.495-1.188-3.627-1.665l-.042-.019q-.373-.156-.735-.3a26.871,26.871,0,0,0-2.566-.89c-.218-.062-.428-.11-.64-.162,1.716,5.5-4.991,8.181-1.886,13.056" transform="translate(-65.274 -85.435)" fill="none"/>
    </clipPath>
    <clipPath id="clip-path-6">
      <path id="Path_924586" data-name="Path 924586" d="M55.734,101.414c.526,8.5,1.133,16.913,1.41,25.419.493,15.11-.778,31.066,3.092,45.777,9.877,5.238,13.419-4.747,13.419-4.747-.683-11.847-3.912-54.195-3.912-54.195-1.637-12.117.02-26.188.174-27.663-3.242-3.66-14.347-7.83-14.347-7.83-2.069,7.224-.289,15.928.163,23.239" transform="translate(-54.591 -78.175)" fill="none"/>
    </clipPath>
    <clipPath id="clip-path-7">
      <path id="Path_924590" data-name="Path 924590" d="M28.68,78.5s11.422,22.631-3.936,29.329c0,0-2.6,35-3.273,62.17,9.442,13.718,27.21,4.187,27.21,4.187s4.7-48.252-.069-75.931c0,0-1.795-18.042-6.236-21.554Z" transform="translate(-21.471 -76.698)" fill="none"/>
    </clipPath>
    <clipPath id="clip-path-9">
      <path id="Path_924595" data-name="Path 924595" d="M7.034,114.631,28.2,117.76c.339,0,2.333-7.187,2.591-7.972a77.869,77.869,0,0,0,2.091-9.338,25.462,25.462,0,0,0,0-11.655c-1.112-3.947-3.871-6.721-6.942-9.282,0,0-17.027,14.292-18.9,35.118" transform="translate(-7.034 -79.513)" fill="none"/>
    </clipPath>
    <clipPath id="clip-path-11">
      <path id="Path_924619" data-name="Path 924619" d="M186,32.424a9.071,9.071,0,0,0-2.014,1.227c-5.22,1.572-8.993,19.448-8.993,19.448l7.633,1.13c-.119,1.656-.224,3.309-.28,4.956-.02.628-.043,1.288-.068,1.972-.021.56-.042,1.133-.064,1.721-.012.318-.026.637-.037.961,0,.078-.007.156-.009.233l0,.061c-.069,1.757-.146,3.592-.225,5.416q-.042.993-.085,1.974-.039.859-.075,1.7c-.031.678-.061,1.345-.09,1.994q-.2,4.316-.415,8.631c-.054,1.094-.516,2.906.161,3.9,2.226,1.7,6.707,2.141,9.532,2.325,6.378.412,12.9.676,19.078-1.278.524-.167,1.411-.286,1.7-.81a1.519,1.519,0,0,0,.133-.7c.04-1.533-.01-3.066-.044-4.6,0-.192-.044-1.788.418-1.539a.626.626,0,0,1,.236.3,35.348,35.348,0,0,1,1.752,4.054c.137.378.852,1.9,1.307,1a3.1,3.1,0,0,0-.052-1.932c-.009-.068-.02-.137-.03-.207-1.863-12.605-2.414-25.228-3.011-37.941a23.184,23.184,0,0,0-.157-3.427l.955.444,2.971.792,7.024,2.689,4.234-10.453c-10.789-7.077-18.905-7.18-18.905-7.18l-.033.091c-1.806-.241-3.353-.455-4.845-.617l-.106-.011-.051-.005-.032,0q-.7-.072-1.4-.127c-.164-.013-.328-.027-.494-.038a.484.484,0,0,0-.054,0c-.817-.056-1.66-.093-2.567-.1l-.245,0c-4.695,0-8.619,1.824-12.751,3.961" transform="translate(-174.994 -28.463)" fill="none"/>
    </clipPath>
    <clipPath id="clip-path-13">
      <path id="Path_924645" data-name="Path 924645" d="M178.991,170.252l-14.448-6.243L158.5,212.09l-1.459,13.99c-.034.329-.051.658-.059.987l-.037.006c.851,18.926-1.534,52.586-1.534,52.586,9.822.837,20.591,2.828,20.591,2.828,8.106-34.055,6.2-51.674,5.118-57.328l3.38-14.917,1.478,8.116,2.573,12.6a14.84,14.84,0,0,0,1.161,3.413C197.329,259.544,202.5,281,202.5,281c9.647-2.03,20.531-3.227,20.531-3.227-2.345-39.885-7.613-49.771-8.494-51.166l-4.3-64.315Z" transform="translate(-155.411 -162.289)" fill="none"/>
    </clipPath>
    <clipPath id="clip-path-15">
      <path id="Path_924660" data-name="Path 924660" d="M163.5,101.706h.011l-.416.208Zm4.659-16.331-6.893,4.679a34.761,34.761,0,0,0-8.285,7.573c-2.171,2.906-4.3,6.444-3.245,10.145a5.775,5.775,0,0,0,.258.7h0l.005.011c.017.04.029.086.046.125l.015-.007c7.184,13.958,12.424,26.253,12.424,26.253,5.423-2.222,11.66-4.087,11.66-4.087-3.2-13.082-5.918-20.415-7.792-24.452a30.317,30.317,0,0,0,5.392-9.937c1.153-3.595,3-8.216,5.449-10.721,0-.063,0-.125.005-.189a3.73,3.73,0,0,1,.1-1.412,1.814,1.814,0,0,1,1.416-.946c.366-.016,1.1.132,1.223.546l-.044-.825h-.015a.039.039,0,0,1-.015,0l-.057-1.469c-.131-.048-.261-.1-.395-.16-.032-.013-.063-.023-.095-.037a13.487,13.487,0,0,1-2.636-1.577l-8.524,5.787" transform="translate(-149.456 -79.588)" fill="none"/>
    </clipPath>
    <clipPath id="clip-path-17">
      <path id="Path_924688" data-name="Path 924688" d="M190.255,82.326c-1.031.677-2.036,1.4-3.037,2.119a18.085,18.085,0,0,1-3.374,2.343,3.133,3.133,0,0,1-2.444.07A4.108,4.108,0,0,1,179.2,84c-.132-.444-.942-.608-1.345-.591a2,2,0,0,0-1.559,1.043,4.085,4.085,0,0,0-.114,1.556c-.073,3.136-.268,6.316,2.592,8.131a12.431,12.431,0,0,0,8.007,1.417,7.6,7.6,0,0,0,5.758-5.814,18.348,18.348,0,0,0,.694-5.043c-.016-.64-.14-1.306-.2-1.943a1.428,1.428,0,0,0-.381-.59,1.406,1.406,0,0,0-.955-.37,2.763,2.763,0,0,0-1.444.533" transform="translate(-176.148 -81.794)" fill="none"/>
    </clipPath>
    <clipPath id="clip-path-19">
      <path id="Path_924694" data-name="Path 924694" d="M191.243,80.445c-3.291,6.853-8.481,13-12.891,19.087-2.4,3.313-5.3,7.613-4.078,11.92a5.348,5.348,0,0,0,1.218,2.208c6.566,12.868,11.371,23.689,11.371,23.689,5.262-2.155,11.313-3.966,11.313-3.966-3.056-12.483-5.655-19.572-7.471-23.529l19.639-24.01-3.174-4.3c-1.949-2.638-4.748-5.46-8-5.041l-5.73-.355c-1.02,1.142-1.542,2.934-2.195,4.294" transform="translate(-173.985 -76.151)" fill="none"/>
    </clipPath>
    <clipPath id="clip-path-21">
      <path id="Path_924703" data-name="Path 924703" d="M201.862,34.694c-2.35,3.424-1.015,8.258-.792,12.071.043.741.891,11,.683,11.046L218,54.6c.2-.04-1.338-7.9-1.531-8.747C215.458,41.373,213.7,33.2,208.217,32.2a6.653,6.653,0,0,0-1.185-.107,6.248,6.248,0,0,0-5.17,2.6" transform="translate(-200.492 -32.094)" fill="none"/>
    </clipPath>
    <clipPath id="clip-path-23">
      <path id="Path_924744" data-name="Path 924744" d="M243.269,170.655l-11.656-.875-11.139-4.219-3.687,48.054-.906,17.044a6.648,6.648,0,0,0,.123,2.756c1.368,18.927.048,47.631.048,47.631,9.846.488,20.677,2.1,20.677,2.1,7.518-37.407,3.834-54.893,2.784-58.713l1.418-7.472.447,2.8,2.293,12.659a14.732,14.732,0,0,0,.674,2.438l-.095.027c7.131,25.538,11.887,47.371,11.887,47.371,9.689-1.815,20.6-2.77,20.6-2.77-1.311-35.786-5.5-47.53-6.969-50.6l-2.786-66.524Z" transform="translate(-215.814 -162.362)" fill="none"/>
    </clipPath>
    <clipPath id="clip-path-25">
      <path id="Path_924750" data-name="Path 924750" d="M266.79,89.018a10.449,10.449,0,0,0,5.2,9.035,8.151,8.151,0,0,0,6.727-8V87.808a8.159,8.159,0,0,0-6.5-7.962,10.455,10.455,0,0,0-5.432,9.172" transform="translate(-266.79 -79.846)" fill="none"/>
    </clipPath>
    <clipPath id="clip-path-26">
      <rect id="Rectangle_409123" data-name="Rectangle 409123" width="296.826" height="315" fill="#953c2d"/>
    </clipPath>
    <clipPath id="clip-path-27">
      <path id="Path_924779" data-name="Path 924779" d="M239.021,85.707a25.511,25.511,0,0,0-5.481,1.97l-.121.063a28.983,28.983,0,0,0-2.83,1.616c-.1.064-.193.125-.289.189l-.023.015-.088.06a6.636,6.636,0,0,1-2.065.88,6.546,6.546,0,0,0-1.489.592c-.068.036-.133.091-.2.131l-1.665.267c-.054.04-.1.085-.159.126-.01-.017-.018-.036-.029-.052a4.892,4.892,0,0,0-.948.825,45.141,45.141,0,0,0-13.619,17.08c6.059,1.527,7.643,2.73,12.893,6.656-.05.965-.524,10.679-.59,11.808-.05.886-.107,1.816-.167,2.78-.049.79-.1,1.6-.151,2.426-.029.448-.058.9-.087,1.356-.007.109-.013.219-.022.328,0,.029,0,.057-.005.085-.16,2.477-.334,5.065-.51,7.637-.064.931-.127,1.861-.191,2.781q-.085,1.212-.168,2.4c-.067.956-.134,1.9-.2,2.812q-.432,6.083-.893,12.166c-.116,1.542-.831,4.083.088,5.5,3.081,2.484,9.389,3.262,13.369,3.62,8.989.81,18.188,1.417,26.972-1.122.745-.216,2-.353,2.429-1.083a2.136,2.136,0,0,0,.214-.983c.111-2.162.095-4.327.1-6.49,0-.271,0-2.525.647-2.158a.91.91,0,0,1,.323.427A50.217,50.217,0,0,1,266.4,166.2c.18.539,1.135,2.709,1.809,1.463.467-.866.106-1.823-.005-2.728-.012-.1-.024-.2-.036-.292-.394-3.227-.776-6.452-1.09-9.688-.009-.094-.018-.193-.028-.289-.013-.139-.026-.281-.04-.42q-.17-1.781-.334-3.713c-.049-.587-.1-1.179-.148-1.783q-.134-1.675-.257-3.424c-.093-1.319-.179-2.667-.256-4.031-.005-.074-.009-.147-.013-.221-.108-1.912-.2-3.857-.268-5.813,0-.147-.009-.293-.013-.439-.019-.561-.037-1.122-.051-1.683-.045-1.741-.069-3.481-.07-5.206,0-.466,0-.932,0-1.394,0-.136.005-.27.006-.406.036-3.627.188-7.146.5-10.387,0-.03.005-.062.008-.091s0-.032,0-.048c.016-.176.039-.343.058-.517.123-1.171.263-2.311.432-3.4.076-.563.088-.489.233-1.241.043-.224.273-.384.319-.64-5.05-5.625-10.434-15.447-6.428-22.625-3.315-.514-4.635-1.095-7.191-1.435l-.15-.021-.072-.009-.044-.007c-.656-.084-1.31-.161-1.97-.23-.231-.024-.462-.048-.695-.071-.027,0-.052-.005-.078-.006-1.151-.108-2.339-.189-3.62-.239-.863-.034-1.765-.053-2.727-.057h-.076a22.421,22.421,0,0,0-5.086.6" transform="translate(-210.015 -85.111)" fill="none"/>
    </clipPath>
    <clipPath id="clip-path-29">
      <path id="Path_924826" data-name="Path 924826" d="M257.854,88.016a5.244,5.244,0,0,0-.638,2.291c-.023.2-.045.4-.066.594-.618,5.664-1.738,12.535-1.979,18.227-.134,3.146,2.487,4.588,4.2,7,1.821,2.564,3.985,4.883,5.479,7.655.094.174.873,1.375.79,1.517a34.717,34.717,0,0,0,2.977-27.544c-1.338-4.2-3.77-8.394-7.8-10.179a3.644,3.644,0,0,0-1.434-.33,1.722,1.722,0,0,0-1.532.767" transform="translate(-255.166 -87.249)" fill="none"/>
    </clipPath>
  </defs>
  <g id="Group_1118083" data-name="Group 1118083" transform="translate(-285.348 -3591.166)">
    <path id="Path_893294" data-name="Path 893294" d="M40.767,0h319.34c22.515,0,40.767,15.055,40.767,33.627V182.706c0,18.572-18.252,33.627-40.767,33.627H40.767C18.252,216.333,0,201.278,0,182.706V33.627C0,15.055,18.252,0,40.767,0Z" transform="translate(285.348 3689.833)" fill="#fff0ee"/>
    <g id="Group_1119356" data-name="Group 1119356" transform="translate(337.348 3591.166)">
      <path id="Path_924546" data-name="Path 924546" d="M24.768,154.841v11.777l29.379,4.837,17.35-9.226-1.23-15.168-15.606-4.587Z" transform="translate(0.694 3.99)" fill="#00172e"/>
      <g id="Group_1119297" data-name="Group 1119297">
        <g id="Group_1119296" data-name="Group 1119296" clip-path="url(#clip-path)">
          <path id="Path_924547" data-name="Path 924547" d="M65.27,292.458l12.519-1.235-2.383-21.278c-4.6,1.113-8.518-1.655-12.97-.383Z" transform="translate(1.749 7.54)" fill="#f5b584"/>
          <path id="Path_924548" data-name="Path 924548" d="M64.7,289.339l-1.157,9.85s19.4,7.583,36.813,3.419c0,0,1.063-5.666-8.2-8.326-2.913-.836-9.239-2.379-10.912-3.963-2.892-2.737-1.245-9.66-16.541-.981" transform="translate(1.78 7.985)" fill="#736e30"/>
          <path id="Path_924549" data-name="Path 924549" d="M100.384,302.037l.058,1.522s-1.863,3.711-23.055.7A81.052,81.052,0,0,1,63.7,301.365l-.156-2.558s23.646,6.963,36.842,3.23" transform="translate(1.78 8.369)" fill="#fff"/>
          <path id="Path_924550" data-name="Path 924550" d="M84.108,292.014a3.809,3.809,0,0,0-4.258.874" transform="translate(2.236 8.17)" fill="none" stroke="#fff" stroke-miterlimit="10" stroke-width="0.514"/>
          <path id="Path_924551" data-name="Path 924551" d="M82.009,290.666a3.811,3.811,0,0,0-4.259.874" transform="translate(2.178 8.132)" fill="none" stroke="#fff" stroke-miterlimit="10" stroke-width="0.514"/>
          <path id="Path_924552" data-name="Path 924552" d="M80.174,288.917a3.809,3.809,0,0,0-4.258.874" transform="translate(2.126 8.083)" fill="none" stroke="#fff" stroke-miterlimit="10" stroke-width="0.514"/>
          <path id="Path_924553" data-name="Path 924553" d="M78.987,287.078a3.81,3.81,0,0,0-4.258.874" transform="translate(2.093 8.032)" fill="none" stroke="#fff" stroke-miterlimit="10" stroke-width="0.514"/>
          <path id="Path_924554" data-name="Path 924554" d="M24.886,291.461l12.512,1.3,1.931-21.323c-4.727.17-8.014-3.329-12.63-2.975Z" transform="translate(0.697 7.518)" fill="#f5b584"/>
          <path id="Path_924555" data-name="Path 924555" d="M24.919,289.339l-1.157,9.85s19.4,7.583,36.813,3.419c0,0,1.063-5.666-8.2-8.326-2.912-.836-9.239-2.379-10.912-3.963-2.892-2.737-1.245-9.66-16.541-.981" transform="translate(0.666 7.985)" fill="#736e30"/>
          <path id="Path_924556" data-name="Path 924556" d="M60.6,302.037l.058,1.522s-1.862,3.711-23.054.7a81.052,81.052,0,0,1-13.688-2.895l-.156-2.558s23.646,6.963,36.841,3.23" transform="translate(0.666 8.369)" fill="#fff"/>
          <path id="Path_924557" data-name="Path 924557" d="M44.328,292.014a3.809,3.809,0,0,0-4.258.874" transform="translate(1.122 8.17)" fill="none" stroke="#fff" stroke-miterlimit="10" stroke-width="0.514"/>
          <path id="Path_924558" data-name="Path 924558" d="M42.228,290.666a3.809,3.809,0,0,0-4.258.874" transform="translate(1.063 8.132)" fill="none" stroke="#fff" stroke-miterlimit="10" stroke-width="0.514"/>
          <path id="Path_924559" data-name="Path 924559" d="M40.393,288.917a3.809,3.809,0,0,0-4.258.874" transform="translate(1.012 8.083)" fill="none" stroke="#fff" stroke-miterlimit="10" stroke-width="0.514"/>
          <path id="Path_924560" data-name="Path 924560" d="M39.206,287.078a3.81,3.81,0,0,0-4.258.874" transform="translate(0.979 8.032)" fill="none" stroke="#fff" stroke-miterlimit="10" stroke-width="0.514"/>
          <path id="Path_924561" data-name="Path 924561" d="M24.035,159.5l1.612,73.68S37.614,249.863,47.67,241.7a15.141,15.141,0,0,0,5.475-10.6L54.2,217.614l2.884-50.872Z" transform="translate(0.673 4.467)" fill="#00172e"/>
          <path id="Path_924562" data-name="Path 924562" d="M25.618,227.793S20.3,236.68,23.278,282.5c0,0,11.514-.162,21.843.705,0,0,2.649-23.346,7.39-50.821" transform="translate(0.627 6.38)" fill="#00172e"/>
          <path id="Path_924563" data-name="Path 924563" d="M42.246,174.448l15.511,66.706s11.1,6.524,19.716-5.943a12.26,12.26,0,0,0,2.106-8.3l-1.617-14.7L71.32,161.691Z" transform="translate(1.183 4.529)" fill="#00172e"/>
          <path id="Path_924564" data-name="Path 924564" d="M54.807,222.205s-5.657,17.828,5.228,62.437c0,0,11.31-2.159,21.633-3.1,0,0-2.709-35.379-1.925-55.284" transform="translate(1.494 6.223)" fill="#00172e"/>
        </g>
      </g>
      <g id="Group_1119299" data-name="Group 1119299" transform="translate(23 163.964)">
        <g id="Group_1119298" data-name="Group 1119298" clip-path="url(#clip-path-2)">
          <path id="Path_924565" data-name="Path 924565" d="M18.412,274.828s23.351-1.5,32.192,1.668" transform="translate(-22.484 -156.277)" fill="none" stroke="#004387" stroke-miterlimit="10" stroke-width="0.569"/>
          <path id="Path_924566" data-name="Path 924566" d="M29.326,184.088a4.378,4.378,0,0,0,3.661-.579,8.593,8.593,0,0,0,3.7-6.348,19.936,19.936,0,0,0-.844-7.51" transform="translate(-22.179 -159.213)" fill="none" stroke="#004387" stroke-miterlimit="10" stroke-width="0.569"/>
          <path id="Path_924567" data-name="Path 924567" d="M28.5,277.4a822.7,822.7,0,0,0,3.7-93.621" transform="translate(-22.202 -158.817)" fill="none" stroke="#004387" stroke-miterlimit="10" stroke-width="0.569"/>
          <path id="Path_924568" data-name="Path 924568" d="M56.292,276.827a185.621,185.621,0,0,1,33.137-4.289" transform="translate(-21.424 -156.331)" fill="none" stroke="#004387" stroke-miterlimit="10" stroke-width="0.569"/>
          <path id="Path_924569" data-name="Path 924569" d="M56.656,189.035c4.955,13.174,6.5,31.822,6.856,45.893s-.079,28.214,1.834,42.158" transform="translate(-21.413 -158.67)" fill="none" stroke="#004387" stroke-miterlimit="10" stroke-width="0.569"/>
          <path id="Path_924570" data-name="Path 924570" d="M54.329,167.061c0-.348.077,26.089.077,26.089l-1.485,27.671" transform="translate(-21.518 -159.285)" fill="none" stroke="#004387" stroke-miterlimit="10" stroke-width="0.569"/>
          <path id="Path_924571" data-name="Path 924571" d="M54.366,186.205s3.972.04,3.8-2.927.08-17.022.08-17.022" transform="translate(-21.477 -159.308)" fill="none" stroke="#004387" stroke-miterlimit="10" stroke-width="0.569"/>
        </g>
      </g>
      <g id="Group_1119301" data-name="Group 1119301">
        <g id="Group_1119300" data-name="Group 1119300" clip-path="url(#clip-path)">
          <path id="Path_924573" data-name="Path 924573" d="M22.967,160.8c.414-3.391.816-6.784,1.146-10.186.009-.1.02-.2.029-.3.014-.146.028-.3.042-.442q.179-1.874.352-3.9c.052-.617.1-1.24.155-1.874q.142-1.761.271-3.6c.1-1.387.187-2.8.269-4.238,0-.077.009-.154.013-.232.114-2.011.21-4.055.282-6.113.005-.154.009-.308.014-.463.02-.589.039-1.178.054-1.768.047-1.832.072-3.661.073-5.474,0-.489,0-.98,0-1.466,0-.144-.005-.285-.006-.427-.038-3.814-.2-7.514-.528-10.923,0-.031-.005-.064-.008-.1l0-.051c-.019-.185-.041-.361-.061-.544-.13-1.232-.277-2.429-.454-3.57-.08-.592-.093-.515-.246-1.306-.045-.235-.287-.4-.334-.673C29.334,97.23,29.8,87.115,25.59,79.567c3.486-.541,10.067-1.364,12.757-1.722l.156-.021.077-.01.046-.007c.688-.089,1.376-.17,2.07-.243.243-.025.485-.051.731-.074l.081-.007c1.211-.113,2.46-.2,3.806-.251.908-.035,1.857-.056,2.868-.059a23.581,23.581,0,0,1,5.428.625,26.855,26.855,0,0,1,5.764,2.071l.129.066a30.672,30.672,0,0,1,2.976,1.7l.3.2.025.016c.41.271.8.542,1.159.8a6.58,6.58,0,0,1,2.672.8A10.5,10.5,0,0,1,68.913,85.2c-2.323,9.918-3.068,21.063,1.894,29.9.016.3.034.6.045.867.02.472.043,1,.07,1.551.065,1.356.15,2.933.253,4.679.053.931.114,1.91.175,2.923q.077,1.244.159,2.552.046.706.091,1.426c.007.114.016.229.023.344l.006.089c.169,2.6.351,5.327.536,8.031.068.98.135,1.956.2,2.924q.089,1.275.176,2.52c.071,1,.14,1.993.209,2.956q.453,6.4.94,12.793c.121,1.621.874,4.294-.093,5.789-3.24,2.612-9.874,3.429-14.058,3.807-9.451.851-19.125,1.49-28.362-1.18-.783-.227-2.106-.371-2.555-1.138A2.249,2.249,0,0,1,28.4,165c-.116-2.273-.1-4.55-.106-6.824,0-.286,0-2.655-.68-2.268a.946.946,0,0,0-.339.447,53.07,53.07,0,0,0-2.449,6.083c-.188.566-1.192,2.849-1.9,1.538-.492-.911-.112-1.916,0-2.869.013-.1.026-.2.038-.307" transform="translate(0.635 2.161)" fill="#c43b4e"/>
          <path id="Path_924574" data-name="Path 924574" d="M135.454,95.894c.78-.894,1.6-1.755,2.311-2.712a10.414,10.414,0,0,0,.938-1.509c.226-.453,1.175-2.613,1.786-1.2.842,1.945-.091,4.193-1.39,5.6a48.378,48.378,0,0,0,6.714-2.322,2.2,2.2,0,0,1,.291-.116l0,0s4.558-2.524,5.721-2.236c1.6.366-1.651,2.8-2.59,3.478l.06.057c1.151-.62,2.717-1.353,3.412-1.18,1.7.389-1.227,2.633-1.738,3.011.028.036.052.072.078.107a3.492,3.492,0,0,1,2.222-.746c1.628.372-.588,2.413-1.171,2.917a1.833,1.833,0,0,1,1.168-.121c1.862.426-3.441,3.985-3.441,3.985l0-.01c-4.11,3.467-12.4,5.357-13.921,5.681-1.6-2.9-1.766-6.555-3.227-9.663q1.428-1.474,2.78-3.019" transform="translate(3.716 2.521)" fill="#f5b584"/>
          <path id="Path_924575" data-name="Path 924575" d="M135.039,98.643s-32.39,6.063-65.921-12.135l1,12.858s19.7,19.958,68.189,9.146" transform="translate(1.936 2.423)" fill="#f5b584"/>
          <path id="Path_924576" data-name="Path 924576" d="M82.919,91.65c-.207-.076-.409-.152-.614-.229-1.8-.673-3.51-1.365-4.76-1.991-.215-.108-.42-.209-.63-.314q-.671-.333-1.312-.645c-1.289-.628-2.495-1.187-3.627-1.665l-.042-.017q-.373-.157-.735-.3a26.792,26.792,0,0,0-2.566-.891c-.218-.062-.428-.11-.64-.162,1.717,5.5-4.991,8.181-1.885,13.056,1.522,2.39-.472,9.052,1.532,11.061,3.061,3.071,13.731,5.681,20.795,5.673-.51-6.551,1.243-14.8.991-21.353-1.794-.577-4.193-1.373-6.506-2.222" transform="translate(1.828 2.393)" fill="#c43b4e"/>
        </g>
      </g>
      <g id="Group_1119303" data-name="Group 1119303" transform="translate(67.103 87.828)">
        <g id="Group_1119302" data-name="Group 1119302" clip-path="url(#clip-path-4)">
          <path id="Path_924577" data-name="Path 924577" d="M84.245,86.932c-2.195,13.532-3.657,27.6.1,40.783" transform="translate(-64.805 -85.393)" fill="none" stroke="#e69ea7" stroke-miterlimit="10" stroke-width="0.569"/>
        </g>
      </g>
      <g id="Group_1119305" data-name="Group 1119305">
        <g id="Group_1119304" data-name="Group 1119304" clip-path="url(#clip-path)">
          <path id="Path_924579" data-name="Path 924579" d="M55.719,73.572l-.285,5.3c-.046.846,2.022,2.02,1.236,2.337-.534,4.333-6.419,4.155-7.9,4.155-2.533,0-6.353-3.656-7.123-5.4L44.837,66.66s2.279,9.682,10.882,6.912" transform="translate(1.167 1.867)" fill="#f5b584"/>
          <path id="Path_924580" data-name="Path 924580" d="M44.625,67.5s.736,9.912,10.873,9.292l.139-3.516Z" transform="translate(1.25 1.89)"/>
          <path id="Path_924581" data-name="Path 924581" d="M55.57,78.176s11.106,4.171,14.348,7.829c-.154,1.474-1.809,15.546-.175,27.663,0,0,3.229,42.349,3.913,54.195,0,0-3.543,9.985-13.419,4.748-3.87-14.712-2.6-30.668-3.092-45.778-.278-8.506-.884-16.921-1.41-25.419C55.281,94.1,53.5,85.4,55.57,78.176" transform="translate(1.529 2.19)" fill="#005cba"/>
          <path id="Path_924582" data-name="Path 924582" d="M42.377,76.7l-13.7,1.8s11.421,22.63-3.938,29.329c0,0-2.6,35-3.271,62.169,9.441,13.718,27.209,4.187,27.209,4.187s4.7-48.252-.069-75.93c0,0-1.795-18.043-6.236-21.554" transform="translate(0.601 2.148)" fill="#005cba"/>
        </g>
      </g>
      <g id="Group_1119307" data-name="Group 1119307" transform="translate(56.12 80.364)">
        <g id="Group_1119306" data-name="Group 1119306" clip-path="url(#clip-path-6)">
          <path id="Path_924583" data-name="Path 924583" d="M57.561,78.779c-.583,10.152-.08,20.33.423,30.486.537,10.848,1.084,21.922,1.6,32.857.3,6.252.931,11.9.992,18.147.031,3.146.42,7.151,2.543,10.013a6.265,6.265,0,0,0,8.191-.653c1.918-1.771,3.318-4.028,5.274-5.767" transform="translate(-54.515 -78.158)" fill="none" stroke="#4c91d9" stroke-miterlimit="10" stroke-width="0.569"/>
          <path id="Path_924584" data-name="Path 924584" d="M64.531,149.675a1.27,1.27,0,0,0-1.353,1.439l.64,4.955a4.113,4.113,0,0,0,.546,1.848,3.88,3.88,0,0,0,1.215,1.016A36.8,36.8,0,0,0,71.1,161.72a1.991,1.991,0,0,0,1.1.209,2.051,2.051,0,0,0,.906-.542,31.867,31.867,0,0,0,3.607-3.507c1.147-1.575.533-2.526.657-4.471a23.906,23.906,0,0,0-.156-4.121c-.043-.394-.087-.963-.484-1.18-.43-.235-1.061.162-1.469.3a26.158,26.158,0,0,1-10.73,1.267Z" transform="translate(-54.35 -76.218)" fill="none" stroke="#4c91d9" stroke-miterlimit="10" stroke-width="0.639"/>
          <path id="Path_924585" data-name="Path 924585" d="M77.356,151.6a8.521,8.521,0,0,1-6.271,3.709,9.749,9.749,0,0,1-7.482-2.274c-.152-.132-.217-.475-.019-.443" transform="translate(-54.342 -76.119)" fill="none" stroke="#4c91d9" stroke-miterlimit="10" stroke-width="0.639"/>
        </g>
      </g>
      <g id="Group_1119309" data-name="Group 1119309" transform="translate(22.072 78.846)">
        <g id="Group_1119308" data-name="Group 1119308" clip-path="url(#clip-path-7)">
          <path id="Path_924587" data-name="Path 924587" d="M38.262,75.019c4.321,10.828,6.112,22.5,7.137,34.11a278.118,278.118,0,0,1-.859,57.244,10.64,10.64,0,0,1-.9,3.683c-1.43,2.755-4.89,3.752-7.992,3.849a23.885,23.885,0,0,1-19.492-9.346" transform="translate(-21.62 -76.745)" fill="none" stroke="#4c91d9" stroke-miterlimit="10" stroke-width="0.569"/>
          <path id="Path_924588" data-name="Path 924588" d="M38.062,151.417a1.27,1.27,0,0,1,1.545,1.231l.074,5a4.091,4.091,0,0,1-.277,1.907,3.867,3.867,0,0,1-1.057,1.179,36.74,36.74,0,0,1-5.066,3.548,2.007,2.007,0,0,1-1.06.364,2.064,2.064,0,0,1-.974-.406,31.9,31.9,0,0,1-4.071-2.956c-1.361-1.4-.888-2.424-1.29-4.331a23.991,23.991,0,0,1-.434-4.1c-.013-.4-.05-.965.31-1.237.393-.294,1.074.009,1.5.087a26.194,26.194,0,0,0,10.8-.281Z" transform="translate(-21.36 -74.606)" fill="none" stroke="#4c91d9" stroke-miterlimit="10" stroke-width="0.639"/>
          <path id="Path_924589" data-name="Path 924589" d="M25.645,155.179a8.516,8.516,0,0,0,6.736,2.775,9.748,9.748,0,0,0,7.08-3.32c.132-.152.148-.5-.044-.441" transform="translate(-21.354 -74.528)" fill="none" stroke="#4c91d9" stroke-miterlimit="10" stroke-width="0.639"/>
        </g>
      </g>
      <g id="Group_1119311" data-name="Group 1119311">
        <g id="Group_1119310" data-name="Group 1119310" clip-path="url(#clip-path)">
          <path id="Path_924591" data-name="Path 924591" d="M24.955,170.558c.9.764,1.764,1.573,2.724,2.263a10.237,10.237,0,0,0,1.511.911c.453.219,2.611,1.135,1.217,1.759-1.922.861-4.167-.037-5.586-1.308a48.124,48.124,0,0,0,2.393,6.64,2.334,2.334,0,0,1,.12.288l0,0s2.566,4.5,2.295,5.655c-.343,1.6-2.809-1.6-3.489-2.528-.019.02-.036.039-.056.059.631,1.137,1.38,2.683,1.217,3.375-.365,1.7-2.633-1.186-3.014-1.688-.035.028-.071.053-.106.079a3.469,3.469,0,0,1,.771,2.2c-.348,1.623-2.4-.554-2.914-1.125a1.815,1.815,0,0,1,.136,1.159c-.4,1.855-4-3.369-4-3.369l.01,0c-3.5-4.039-5.482-12.255-5.824-13.759,2.863-1.629,6.49-1.838,9.56-3.329q1.482,1.4,3.035,2.721" transform="translate(0.346 4.701)" fill="#f5b584"/>
          <path id="Path_924592" data-name="Path 924592" d="M22.4,170.265s-4.305-33.255,8.23-61.493l-13.56-7.065s-15.8,23.893-4.434,71.931" transform="translate(0.239 2.849)" fill="#f5b584"/>
          <path id="Path_924593" data-name="Path 924593" d="M25.938,79.513S8.91,93.805,7.035,114.631L28.2,117.76c.339,0,2.333-7.187,2.591-7.971a77.728,77.728,0,0,0,2.09-9.339,25.448,25.448,0,0,0,0-11.655c-1.112-3.945-3.871-6.721-6.942-9.282" transform="translate(0.197 2.227)" fill="#c43b4e"/>
        </g>
      </g>
      <g id="Group_1119313" data-name="Group 1119313" transform="translate(7.231 81.74)">
        <g id="Group_1119312" data-name="Group 1119312" clip-path="url(#clip-path-9)">
          <path id="Path_924594" data-name="Path 924594" d="M.1,107.947c1.939-.766,4.115-.452,6.171-.11q15.186,2.53,30.112,6.378" transform="translate(-7.228 -78.73)" fill="none" stroke="#e69ea7" stroke-miterlimit="10" stroke-width="0.569"/>
        </g>
      </g>
      <g id="Group_1119315" data-name="Group 1119315">
        <g id="Group_1119314" data-name="Group 1119314" clip-path="url(#clip-path)">
          <path id="Path_924596" data-name="Path 924596" d="M64.569,57.445C61.73,63.475,51.443,75.569,44,70.675c-6.742-4.434-8.507-15.76-5.257-22.764,2.24-4.828,6.894-9.971,12.529-10.409,5.392-.418,10.114,2.945,12.721,7.491a15.58,15.58,0,0,1,2.026,6.173,11.183,11.183,0,0,1-1.449,6.279" transform="translate(1.041 1.049)" fill="#e88b2f"/>
          <path id="Path_924597" data-name="Path 924597" d="M38.955,62.8a5.482,5.482,0,0,0,3.715.946c-.384,0,1.306,4.929,1.517,5.33A14.689,14.689,0,0,0,47.8,73.514c3.013,2.5,5.464,3.732,9.17,1.725a14.846,14.846,0,0,0,7.515-10.4c.874-4.61-.116-9.432-.491-14.094a4.251,4.251,0,0,0-.621-2.241c-.381-.511-1.4-4.132-1.968-4.411-3.857-1.882-6.417-1.7-10.7-2.034-1.647-.127-4.656,1.882-6,2.838-2.042,1.449,1.059,1.528,1.035,4.031-.01.986.116,1.977.17,2.961.06,1.107.258,2.574-.273,3.593a3.023,3.023,0,0,1-1.584,1.286c-.775.321-1.6.571-2.4.833-.619.2-1.3.313-1.891.575a2.663,2.663,0,0,0-1.65,2.009,2.864,2.864,0,0,0,.837,2.617" transform="translate(1.066 1.178)" fill="#f5b584"/>
          <path id="Path_924598" data-name="Path 924598" d="M55.637,57.135,55.6,61.107s1.979-.737,1.462.319a9.136,9.136,0,0,1-1.233,1.857" transform="translate(1.557 1.6)" fill="none" stroke="#000" stroke-miterlimit="10" stroke-width="0.616"/>
          <path id="Path_924599" data-name="Path 924599" d="M42.469,61.765s-1.738.118-1.347-2.625" transform="translate(1.15 1.656)" fill="none" stroke="#000" stroke-miterlimit="10" stroke-width="0.616"/>
          <path id="Path_924600" data-name="Path 924600" d="M41.99,59.042s-2.048-.272-1.813,2.654" transform="translate(1.125 1.653)" fill="none" stroke="#000" stroke-miterlimit="10" stroke-width="0.616"/>
          <path id="Path_924601" data-name="Path 924601" d="M50.216,61.574c0,.478-.643.866-1.434.866s-1.434-.388-1.434-.866.641-.866,1.434-.866,1.434.388,1.434.866" transform="translate(1.326 1.7)" fill="#e0722b"/>
          <path id="Path_924602" data-name="Path 924602" d="M63.88,61.574c0,.478-.643.866-1.434.866s-1.434-.388-1.434-.866.641-.866,1.434-.866,1.434.388,1.434.866" transform="translate(1.709 1.7)" fill="#e0722b"/>
          <path id="Path_924603" data-name="Path 924603" d="M51.168,56.746c0,.769.393,1.393.876,1.393s.877-.624.877-1.393-.393-1.393-.877-1.393-.876.624-.876,1.393" transform="translate(1.433 1.55)"/>
          <path id="Path_924604" data-name="Path 924604" d="M58.46,56.746c0,.769.393,1.393.876,1.393s.877-.624.877-1.393-.393-1.393-.877-1.393-.876.624-.876,1.393" transform="translate(1.637 1.55)"/>
          <path id="Path_924605" data-name="Path 924605" d="M49.538,53.654a.07.07,0,0,1-.028-.045.6.6,0,0,1,.3-.655,3.625,3.625,0,0,1,1.869-.557c.426-.017,2.089.006,1.963.715a.1.1,0,0,1-.025.057.106.106,0,0,1-.071.022c-.643.05-1.314.076-1.967.133a18.193,18.193,0,0,0-2,.333.077.077,0,0,1-.05,0" transform="translate(1.386 1.467)" fill="#e88b2f"/>
          <path id="Path_924606" data-name="Path 924606" d="M61.828,53.654a.074.074,0,0,0,.028-.045.6.6,0,0,0-.3-.655,3.625,3.625,0,0,0-1.869-.557c-.426-.017-2.089.006-1.963.715a.1.1,0,0,0,.025.057.106.106,0,0,0,.071.022c.643.05,1.314.076,1.967.133a18.193,18.193,0,0,1,2,.333.077.077,0,0,0,.05,0" transform="translate(1.616 1.467)" fill="#e88b2f"/>
          <path id="Path_924607" data-name="Path 924607" d="M56.311,66.221s-3.521.828-4.587-1.317" transform="translate(1.449 1.818)" fill="none" stroke="#000" stroke-miterlimit="10" stroke-width="0.616"/>
          <path id="Path_924608" data-name="Path 924608" d="M45.619,49s5.518-4.917,17.95-.932l-.5-2.054-1.594-3.283s-7.408-3.282-7.784-3.282-9,.844-9,.844a35.257,35.257,0,0,0-2.158,3.377,28.271,28.271,0,0,0,1.5,4.5,8.765,8.765,0,0,0,1.585.83" transform="translate(1.191 1.105)" fill="#e88b2f"/>
          <path id="Path_924609" data-name="Path 924609" d="M42.239,42.521s5.429-7.691,15.531-4.071,12.667-.151,13.421-.9,2.036,11.709-5.315,13.62Z" transform="translate(1.183 1.05)" fill="#e88b2f"/>
          <path id="Path_924610" data-name="Path 924610" d="M180.531,36.509a52.069,52.069,0,0,0-5.151,13.62l11.271,4.824,3.487-7.316L191.671,45l1.906-4.849-.513-5.621-2.39-1.173a7.72,7.72,0,0,0-10.142,3.152" transform="translate(4.912 0.912)" fill="#bfba47"/>
          <path id="Path_924611" data-name="Path 924611" d="M213.494,74.362l-.707,5.889a7.71,7.71,0,0,1-6.458,7.607l-15.945,2.626-13.229-7.036.938-11.566,11.9-3.5Z" transform="translate(4.962 1.915)" fill="#5e2706"/>
          <path id="Path_924612" data-name="Path 924612" d="M215.421,73.835c.207-4.369.406-8.726.836-13.111.646-6.6,1.037-13.313-.658-19.8-1.924-7.358-7.747-12.208-15.5-12.323a29.5,29.5,0,0,0-6.008.188,15.038,15.038,0,0,0-4.366,1.521,12.224,12.224,0,0,0-3.749,2.345,9.094,9.094,0,0,0-1.958,3.94c-.813,3.4-.723,6.914-.942,10.38-.215,3.384-.964,6.713-1.076,10.106-.02.584-.041,1.2-.064,1.834q-.028.782-.06,1.6c-.011.3-.023.593-.035.9,0,.072-.005.144-.008.216,0,.019,0,.038,0,.057-.065,1.636-.136,3.343-.21,5.041-.026.615-.053,1.228-.08,1.836q-.034.8-.07,1.581c-.028.631-.057,1.251-.083,1.856q-.184,4.017-.387,8.033c-.051,1.018-.48,2.7.149,3.626,2.072,1.585,6.242,1.993,8.871,2.163,5.937.384,12.009.631,17.755-1.187,1.33-.421,1.642-.631,1.81-2.078.156-1.335-.068-2.952.536-4.189a4.226,4.226,0,0,1,1.356,1.04,5.265,5.265,0,0,1,.83,1.283c.415.862.657,1.8,1.1,2.655.854,1.653,1.639-2.416,1.673-2.964.136-2.191.242-4.372.344-6.551" transform="translate(5.064 0.8)" fill="#fcdf8e"/>
        </g>
      </g>
      <g id="Group_1119317" data-name="Group 1119317" transform="translate(179.895 29.26)">
        <g id="Group_1119316" data-name="Group 1119316" clip-path="url(#clip-path-11)">
          <path id="Path_924613" data-name="Path 924613" d="M195.98,33.648a36.158,36.158,0,0,0,3.638,2.824c.31.21.759.406,1.021.139a.831.831,0,0,0,.158-.6c0-1.434.155-4.593.154-6.026" transform="translate(-174.406 -28.42)" fill="none" stroke="#b3af44" stroke-miterlimit="10" stroke-width="0.569"/>
          <path id="Path_924614" data-name="Path 924614" d="M193.891,33.737a32.763,32.763,0,0,1-3.176,2.73c-.27.206-.669.4-.919.174a.741.741,0,0,1-.171-.537c-.065-1.3.865-4.257.8-5.558" transform="translate(-174.584 -28.405)" fill="none" stroke="#b3af44" stroke-miterlimit="10" stroke-width="0.569"/>
          <path id="Path_924615" data-name="Path 924615" d="M194.679,33.2c-1.274,3.192-2.976,37-1.747,56.026" transform="translate(-174.504 -28.33)" fill="none" stroke="#b3af44" stroke-miterlimit="10" stroke-width="0.569"/>
          <path id="Path_924616" data-name="Path 924616" d="M173.64,48.707A30.611,30.611,0,0,0,183,50.826" transform="translate(-175.032 -27.896)" fill="none" stroke="#47a1fe" stroke-miterlimit="10" stroke-width="0.503"/>
          <path id="Path_924617" data-name="Path 924617" d="M197.4,44.521l9.849-.249.211,4.483-3.08,2.619a2.974,2.974,0,0,1-3.807.037l-3.062-2.5Z" transform="translate(-174.367 -28.02)" fill="none" stroke="#b3af44" stroke-miterlimit="10" stroke-width="0.569"/>
          <path id="Path_924618" data-name="Path 924618" d="M197.355,46.51a12.08,12.08,0,0,0,9.926-.391" transform="translate(-174.368 -27.968)" fill="none" stroke="#b3af44" stroke-miterlimit="10" stroke-width="0.569"/>
        </g>
      </g>
      <g id="Group_1119319" data-name="Group 1119319">
        <g id="Group_1119318" data-name="Group 1119318" clip-path="url(#clip-path)">
          <path id="Path_924620" data-name="Path 924620" d="M209.194,157.535v11.2l-27.941,4.6-16.5-8.774,1.169-14.425,14.841-4.363Z" transform="translate(4.614 4.083)" fill="#361603"/>
          <path id="Path_924621" data-name="Path 924621" d="M172.623,289.66l-11.905-1.175,2.266-20.234c4.371,1.059,8.1-1.575,12.334-.365Z" transform="translate(4.501 7.494)" fill="#e08b55"/>
          <path id="Path_924622" data-name="Path 924622" d="M174.872,296.563l-.029.48a77.075,77.075,0,0,1-13.018,2.752c-20.154,2.864-21.926-.665-21.926-.665l.028-.72a4.767,4.767,0,0,0-.08,1.285h0l-.054,1.447s1.771,3.529,21.925.665a77.075,77.075,0,0,0,13.018-2.752l.148-2.433Z" transform="translate(3.915 8.306)" fill="#fff"/>
          <path id="Path_924623" data-name="Path 924623" d="M161.821,300.158a77.123,77.123,0,0,0,13.018-2.753l.029-.479-1.093-9.31c-14.546-8.254-12.98-1.671-15.731.932-1.592,1.506-7.607,2.974-10.378,3.77-5.91,1.7-7.4,4.674-7.743,6.454l-.028.721s1.771,3.529,21.925.665" transform="translate(3.918 7.943)" fill="#69202a"/>
          <path id="Path_924624" data-name="Path 924624" d="M152.072,290.136a5.788,5.788,0,0,1,3.679,3.676" transform="translate(4.259 8.126)" fill="none" stroke="#fff" stroke-miterlimit="10" stroke-width="0.5"/>
          <path id="Path_924625" data-name="Path 924625" d="M154.029,289.266a5.788,5.788,0,0,1,3.679,3.676" transform="translate(4.314 8.102)" fill="none" stroke="#fff" stroke-miterlimit="10" stroke-width="0.5"/>
          <path id="Path_924626" data-name="Path 924626" d="M155.986,288.4a5.785,5.785,0,0,1,3.679,3.676" transform="translate(4.369 8.077)" fill="none" stroke="#fff" stroke-miterlimit="10" stroke-width="0.5"/>
          <path id="Path_924627" data-name="Path 924627" d="M157.943,287.527a5.782,5.782,0,0,1,3.678,3.676" transform="translate(4.424 8.053)" fill="none" stroke="#fff" stroke-miterlimit="10" stroke-width="0.5"/>
          <path id="Path_924628" data-name="Path 924628" d="M220.616,287.8l-11.749,2.254-3.573-20.046c4.492-.225,7.32-3.81,11.723-3.852Z" transform="translate(5.75 7.454)" fill="#e08b55"/>
          <path id="Path_924629" data-name="Path 924629" d="M222.492,296.122l-.029.48a77.077,77.077,0,0,1-13.018,2.752c-20.154,2.864-21.926-.665-21.926-.665l.028-.72a4.767,4.767,0,0,0-.08,1.285h0l-.054,1.447s1.771,3.529,21.925.665a77.077,77.077,0,0,0,13.018-2.752l.148-2.433Z" transform="translate(5.249 8.294)" fill="#fff"/>
          <path id="Path_924630" data-name="Path 924630" d="M209.441,299.717a77.21,77.21,0,0,0,13.018-2.752l.029-.48-1.093-9.31c-14.546-8.255-12.98-1.671-15.731.932-1.592,1.506-7.607,2.974-10.378,3.77-5.91,1.7-7.4,4.674-7.743,6.454l-.028.721s1.771,3.529,21.925.665" transform="translate(5.252 7.93)" fill="#69202a"/>
          <path id="Path_924631" data-name="Path 924631" d="M199.692,289.7a5.788,5.788,0,0,1,3.679,3.676" transform="translate(5.593 8.114)" fill="none" stroke="#fff" stroke-miterlimit="10" stroke-width="0.5"/>
          <path id="Path_924632" data-name="Path 924632" d="M201.649,288.825a5.788,5.788,0,0,1,3.679,3.676" transform="translate(5.648 8.089)" fill="none" stroke="#fff" stroke-miterlimit="10" stroke-width="0.5"/>
          <path id="Path_924633" data-name="Path 924633" d="M203.6,287.956a5.788,5.788,0,0,1,3.679,3.676" transform="translate(5.702 8.065)" fill="none" stroke="#fff" stroke-miterlimit="10" stroke-width="0.5"/>
          <path id="Path_924634" data-name="Path 924634" d="M205.562,287.086a5.785,5.785,0,0,1,3.679,3.676" transform="translate(5.757 8.041)" fill="none" stroke="#fff" stroke-miterlimit="10" stroke-width="0.5"/>
          <path id="Path_924635" data-name="Path 924635" d="M209.647,162.29l4.5,67.406s-9.336,17.152-19.784,10.631a14.4,14.4,0,0,1-6.411-9.364l-2.573-12.605L176.7,170.685Z" transform="translate(4.949 4.545)" fill="#361603"/>
          <path id="Path_924636" data-name="Path 924636" d="M213.481,224.665s6.059,7.765,8.623,51.358c0,0-10.886,1.2-20.531,3.227,0,0-5.238-21.723-12.933-47.1" transform="translate(5.283 6.292)" fill="#361603"/>
          <path id="Path_924637" data-name="Path 924637" d="M192.219,175.937l-14.392,63.522s-10.524,6.264-18.782-5.546A11.648,11.648,0,0,1,157,226.032l1.459-13.99,6.045-48.079Z" transform="translate(4.395 4.592)" fill="#361603"/>
          <path id="Path_924638" data-name="Path 924638" d="M180.638,221.425s5.474,16.923-4.637,59.405c0,0-10.768-1.991-20.59-2.828,0,0,2.385-33.66,1.533-52.586" transform="translate(4.353 6.202)" fill="#361603"/>
        </g>
      </g>
      <g id="Group_1119321" data-name="Group 1119321" transform="translate(159.764 166.834)">
        <g id="Group_1119320" data-name="Group 1119320" clip-path="url(#clip-path-13)">
          <path id="Path_924639" data-name="Path 924639" d="M200.677,230.873c0,7.592-5.5,13.748-12.277,13.748s-6.781-27.5,0-27.5,12.277,6.156,12.277,13.748" transform="translate(-154.63 -160.753)" fill="#6b2c06"/>
          <path id="Path_924640" data-name="Path 924640" d="M170.027,225.554c0,7.592-5.5,13.748-12.278,13.748s-12.277-6.156-12.277-13.748,5.5-13.748,12.277-13.748,12.278,6.156,12.278,13.748" transform="translate(-155.689 -160.902)" fill="#6b2c06"/>
          <path id="Path_924641" data-name="Path 924641" d="M196.96,171.2s-1.519,10.024,10.806,10.024" transform="translate(-154.249 -162.039)" fill="none" stroke="#692b05" stroke-miterlimit="10" stroke-width="0.469"/>
          <line id="Line_3385" data-name="Line 3385" x1="27.875" y1="3.012" transform="translate(-1.695 109.719)" fill="none" stroke="#692b05" stroke-miterlimit="10" stroke-width="0.469"/>
          <path id="Path_924642" data-name="Path 924642" d="M182.385,166.352l-.91,15.984s-2.99-1.026-3.319-3.166l.44-12.186" transform="translate(-154.774 -162.175)" fill="none" stroke="#692b05" stroke-miterlimit="10" stroke-width="0.469"/>
          <line id="Line_3386" data-name="Line 3386" x2="2.19" y2="28.353" transform="translate(26.628 19.779)" fill="none" stroke="#692b05" stroke-miterlimit="10" stroke-width="0.469"/>
          <path id="Path_924643" data-name="Path 924643" d="M181.944,185.006s-2.944-1.536-4.037,1.626-4.559,38.888-4.559,38.888L169.6,273.629" transform="translate(-155.013 -161.663)" fill="none" stroke="#692b05" stroke-miterlimit="10" stroke-width="0.469"/>
          <line id="Line_3387" data-name="Line 3387" x1="27.053" y2="3.794" transform="translate(42.573 107.473)" fill="none" stroke="#692b05" stroke-miterlimit="10" stroke-width="0.469"/>
          <path id="Path_924644" data-name="Path 924644" d="M203.411,180.752c.515,2.832-.117,38.888,1.75,48.059a22.3,22.3,0,0,0,1.448,4.549l6.6,37.382" transform="translate(-154.067 -161.772)" fill="none" stroke="#692b05" stroke-miterlimit="10" stroke-width="0.469"/>
        </g>
      </g>
      <g id="Group_1119323" data-name="Group 1119323">
        <g id="Group_1119322" data-name="Group 1119322" clip-path="url(#clip-path)">
          <path id="Path_924646" data-name="Path 924646" d="M151.974,135.656a7.464,7.464,0,1,0,7.463-7.463,7.463,7.463,0,0,0-7.463,7.463" transform="translate(4.256 3.59)" fill="#e08b55"/>
          <path id="Path_924647" data-name="Path 924647" d="M211.027,163.2c-.394-3.226-.776-6.452-1.09-9.686l-.028-.29c-.013-.139-.027-.281-.04-.42q-.17-1.783-.334-3.714c-.05-.586-.1-1.178-.148-1.782q-.134-1.675-.258-3.424c-.093-1.319-.178-2.667-.256-4.031l-.012-.221c-.109-1.913-.2-3.857-.268-5.813-.005-.147-.009-.293-.014-.44q-.028-.84-.05-1.682c-.045-1.741-.069-3.482-.07-5.206,0-.466,0-.932,0-1.4,0-.136.005-.269.006-.405.036-3.627.188-7.146.5-10.387,0-.03.005-.062.007-.091l.005-.048c.017-.176.039-.343.058-.518.122-1.17.263-2.31.432-3.4.076-.562.087-.489.233-1.241.044-.224.273-.384.318-.64-5.049-5.625-9.118-15.573-5.112-22.752-3.315-.514-5.949-.969-8.507-1.31l-.149-.02-.073-.01-.044-.006c-.654-.084-1.309-.161-1.969-.23-.231-.025-.462-.049-.695-.071l-.078-.007c-1.151-.107-2.34-.188-3.62-.237-.863-.034-1.765-.053-2.727-.057a22.372,22.372,0,0,0-5.162.6,25.457,25.457,0,0,0-5.481,1.97l-.122.062a29.172,29.172,0,0,0-2.829,1.617,8.188,8.188,0,0,1-2.015,1.016,3.746,3.746,0,0,0-2.015,1.039,6.33,6.33,0,0,0-.765,1.754c-.391,1.039-.947,2.01-1.4,3.024q-.763,1.715-1.368,3.5a42.6,42.6,0,0,0-2.261,13.516,41.673,41.673,0,0,0,.536,6.852,13.476,13.476,0,0,0,.734,3.161,5.45,5.45,0,0,1,.379.955,14.011,14.011,0,0,1-.1,3.766c-.051.886-.107,1.816-.167,2.78-.048.79-.1,1.6-.152,2.426q-.042.672-.086,1.356l-.022.328c0,.029,0,.058-.005.085-.16,2.477-.334,5.065-.51,7.637-.064.931-.129,1.861-.192,2.781q-.083,1.212-.167,2.4c-.067.956-.134,1.9-.2,2.811q-.43,6.085-.893,12.167c-.116,1.541-.832,4.083.088,5.5,3.081,2.485,9.39,3.262,13.369,3.621,8.989.81,18.188,1.417,26.972-1.123.745-.215,2-.353,2.43-1.082a2.139,2.139,0,0,0,.213-.982c.111-2.161.095-4.327.1-6.49,0-.271,0-2.525.646-2.157a.9.9,0,0,1,.324.426,50.222,50.222,0,0,1,2.327,5.785c.179.539,1.135,2.709,1.808,1.463.468-.867.107-1.823,0-2.728-.012-.1-.024-.2-.036-.293" transform="translate(4.549 2.343)" fill="#736e30"/>
          <path id="Path_924648" data-name="Path 924648" d="M201.671,113.85c3.11,10.072,7.985,20.913,9.1,26.308,3.119-.581,6.972.285,10.009.131-.259-9.711-3.467-20.038-5.816-28.872-3.787.825-9.5,1.492-13.29,2.433" transform="translate(5.648 3.121)" fill="#e08b55"/>
          <path id="Path_924649" data-name="Path 924649" d="M220.823,141.2a7.464,7.464,0,1,1-7.464-7.463,7.464,7.464,0,0,1,7.464,7.463" transform="translate(5.767 3.746)" fill="#e08b55"/>
          <path id="Path_924650" data-name="Path 924650" d="M204.11,84.236s7.473,1.608,14.367,28.2l-16.141,5.652-3.236-9.171-.864-3.776.146-6.743.329-7.386Z" transform="translate(5.552 2.359)" fill="#736e30"/>
          <path id="Path_924651" data-name="Path 924651" d="M197.9,114.281c7.815-3.79,14.4-6.1,19.291-6.889" transform="translate(5.543 3.008)" fill="none" stroke="#4d4920" stroke-miterlimit="10" stroke-width="0.569"/>
          <path id="Path_924652" data-name="Path 924652" d="M199.5,117.678c-8.886-15.016-7.609-28.786,6.031-33.989" transform="translate(5.429 2.344)" fill="none" stroke="#4d4920" stroke-miterlimit="10" stroke-width="0.569"/>
          <path id="Path_924653" data-name="Path 924653" d="M162.387,161.029c13.271,2.775,16.944,5.1,43.486.15" transform="translate(4.548 4.51)" fill="none" stroke="#4d4920" stroke-miterlimit="10" stroke-width="0.569"/>
          <path id="Path_924654" data-name="Path 924654" d="M205.341,115.955,199.96,118l-.951-1.863" transform="translate(5.574 3.248)" fill="none" stroke="#4d4920" stroke-miterlimit="10" stroke-width="0.569"/>
          <path id="Path_924655" data-name="Path 924655" d="M173.222,137.492l-6.148,1.043-4.292-7.732c2.673-.077,4.4-2.171,7.017-2.139Z" transform="translate(4.559 3.604)" fill="#e09667"/>
          <path id="Path_924656" data-name="Path 924656" d="M175.678,139.88h0l-2.891-4.8c-9.9-.908-7.44,2.275-8.292,4.359-.493,1.206-3.392,3.475-4.7,4.584-3.721,3.161-2.612,5.628-2.341,6.108h0l.325.8s1.824,1.478,12.039-5.011a45.838,45.838,0,0,0,6.377-4.679Z" transform="translate(4.4 3.779)"/>
          <path id="Path_924657" data-name="Path 924657" d="M163.581,101.061s4.375,3.891,10.546,29.106c0,0-6.237,1.867-11.66,4.087,0,0-5.272-12.37-12.491-26.382" transform="translate(4.2 2.83)" fill="#5e2706"/>
          <path id="Path_924658" data-name="Path 924658" d="M179.893,82.831c-.01,0-.02,0-.031,0l-.058-1.469c-.13-.048-.261-.1-.394-.16-.032-.012-.063-.023-.095-.037a13.508,13.508,0,0,1-2.636-1.576l-8.523,5.786-6.894,4.679a34.762,34.762,0,0,0-8.285,7.573c-2.172,2.906-4.3,6.444-3.246,10.146a6.235,6.235,0,0,0,.309.836l13.456-6.9.124-.005a17.63,17.63,0,0,1,2.719,4.626,30.318,30.318,0,0,0,5.4-9.947c1.153-3.595,3-8.216,5.449-10.72,0-.064,0-.126.005-.19a3.705,3.705,0,0,1,.1-1.411,1.819,1.819,0,0,1,1.415-.948c.366-.014,1.1.134,1.224.547Z" transform="translate(4.186 2.229)" fill="#5e2706"/>
        </g>
      </g>
      <g id="Group_1119325" data-name="Group 1119325" transform="translate(153.642 81.817)">
        <g id="Group_1119324" data-name="Group 1119324" clip-path="url(#clip-path-15)">
          <line id="Line_3388" data-name="Line 3388" y1="5.834" x2="17.112" transform="translate(8.407 44.798)" fill="none" stroke="#9c410a" stroke-miterlimit="10" stroke-width="0.569"/>
          <path id="Path_924659" data-name="Path 924659" d="M175.19,90.377l-12.206,10.285a7.688,7.688,0,0,0-2.306,8.185l5.826,18.089" transform="translate(-149.152 -79.286)" fill="none" stroke="#9c410a" stroke-miterlimit="10" stroke-width="0.569"/>
        </g>
      </g>
      <g id="Group_1119327" data-name="Group 1119327">
        <g id="Group_1119326" data-name="Group 1119326" clip-path="url(#clip-path)">
          <path id="Path_924661" data-name="Path 924661" d="M162.787,134.655c-5.762-10.994-7.8-19.3-7.963-21.148.014-.035.032-.068.046-.1-2.554,1.049-5.155,4.252-8.386,3.756,1.85,9.707,3.385,14.658,6.2,21.449a93.98,93.98,0,0,0,10.1-3.956" transform="translate(4.103 3.176)" fill="#e08b55"/>
          <path id="Path_924662" data-name="Path 924662" d="M146.889,114.854c1.079-1.863,3.769-3.258,4.494-4.012s1.463-1.449,2.115-2.247a9.006,9.006,0,0,0,.874-1.264c.215-.382,1.127-2.209,1.594-.963a4.721,4.721,0,0,1-1.438,4.786,41.926,41.926,0,0,0,5.9-1.723,2,2,0,0,1,.257-.088l0,0s4.048-1.989,5.041-1.69c1.37.383-1.546,2.354-2.386,2.9l.048.05c1.022-.486,2.407-1.054,3-.876,1.457.409-1.173,2.226-1.629,2.53.022.032.042.065.063.1a3.023,3.023,0,0,1,1.952-.552c1.392.392-.612,2.061-1.136,2.473a1.59,1.59,0,0,1,1.015-.056c1.591.447-3.145,3.3-3.145,3.3l0-.008c-3.7,2.824-10.951,4.106-12.279,4.322l-.01-.026c-.377.064-.739.113-1.112.173-1.566-2.87-3.337-4.361-3.221-7.119" transform="translate(4.114 2.967)" fill="#e08b55"/>
          <path id="Path_924663" data-name="Path 924663" d="M153.461,116.526a3.537,3.537,0,1,1-3.536-3.536,3.536,3.536,0,0,1,3.536,3.536" transform="translate(4.1 3.165)" fill="#e08b55"/>
          <path id="Path_924664" data-name="Path 924664" d="M150.4,119.837a14.621,14.621,0,0,0,7.414.061" transform="translate(4.212 3.356)" fill="none" stroke="#a6673f" stroke-miterlimit="10" stroke-width="0.569"/>
          <path id="Path_924665" data-name="Path 924665" d="M162.443,136.648s.772-1.716-6.094-16.306" transform="translate(4.379 3.37)" fill="none" stroke="#a6673f" stroke-miterlimit="10" stroke-width="0.569"/>
          <path id="Path_924666" data-name="Path 924666" d="M178.912,80.247l.271,5.044a2.07,2.07,0,0,0,1.3,1.81,11.378,11.378,0,0,0,3.974.919c2.41,0,5.348-.59,6.081-2.251l-1.272-12.1s-2.168,9.209-10.35,6.574" transform="translate(5.011 2.063)" fill="#e08b55"/>
          <path id="Path_924667" data-name="Path 924667" d="M189.384,74.47s-.7,9.425-10.341,8.836l-.132-3.343Z" transform="translate(5.011 2.086)"/>
          <path id="Path_924668" data-name="Path 924668" d="M170.881,64.91s14.956,24.519,23.354,7.869c1.275-2.527.335-5.251.577-8.07.127-1.493.71-3.055.784-4.509.18-3.516-.439-6.867-2.727-9.641a13.588,13.588,0,0,0-9.343-4.617c-5.127-.4-9.618,2.8-12.1,7.124a14.815,14.815,0,0,0-1.928,5.871,10.631,10.631,0,0,0,1.379,5.972" transform="translate(4.746 1.286)"/>
          <path id="Path_924669" data-name="Path 924669" d="M195.185,70a5.217,5.217,0,0,1-3.533.9c.366,0-1.242,4.688-1.442,5.069a14,14,0,0,1-3.438,4.224c-2.866,2.375-5.2,3.548-8.722,1.641a14.124,14.124,0,0,1-7.147-9.895c-.831-4.383.111-8.969.468-13.4a4.041,4.041,0,0,1,.591-2.131c.362-.485,1.326-3.929,1.871-4.2,3.668-1.79,6.1-1.618,10.172-1.934,1.566-.122,4.427,1.789,5.707,2.7,1.942,1.379-1.007,1.453-.984,3.833.009.938-.111,1.88-.161,2.816a7,7,0,0,0,.26,3.416,2.872,2.872,0,0,0,1.506,1.224c.737.3,1.521.543,2.28.792.588.193,1.232.3,1.8.546a2.534,2.534,0,0,1,1.569,1.91,2.726,2.726,0,0,1-.8,2.49" transform="translate(4.777 1.408)" fill="#e08b55"/>
          <path id="Path_924670" data-name="Path 924670" d="M189.852,63.637s.624,8.336-2.6,8.567-9.283-2.379-15.876,1.346c0,0,1.741,5.935,7.282,8.223a6.423,6.423,0,0,0,3.045.682c2.5-.183,4.6-1.969,6.232-3.731a12.873,12.873,0,0,0,2.056-2.748,16.217,16.217,0,0,0,1.239-3.25c.088-.321.167-.646.244-.969.072-.305.156-.611.2-.922.007-.053.012-.106.016-.159a.954.954,0,0,1,0-.146c-.607.336-.691-.645-.672-.957a50.824,50.824,0,0,0,.286-5.309Z" transform="translate(4.8 1.782)"/>
          <path id="Path_924671" data-name="Path 924671" d="M178.72,63.917l.041,3.83s-1.909-.71-1.41.307a8.825,8.825,0,0,0,1.189,1.791" transform="translate(4.965 1.79)" fill="none" stroke="#000" stroke-miterlimit="10" stroke-width="0.594"/>
          <path id="Path_924672" data-name="Path 924672" d="M191.414,68.382s1.676.114,1.3-2.531" transform="translate(5.361 1.844)" fill="none" stroke="#000" stroke-miterlimit="10" stroke-width="0.594"/>
          <path id="Path_924673" data-name="Path 924673" d="M191.888,65.756s1.975-.264,1.749,2.559" transform="translate(5.374 1.841)" fill="none" stroke="#000" stroke-miterlimit="10" stroke-width="0.594"/>
          <path id="Path_924674" data-name="Path 924674" d="M183.982,68.2c0,.462.619.835,1.383.835s1.384-.373,1.384-.835-.619-.835-1.384-.835-1.383.373-1.383.835" transform="translate(5.153 1.887)" fill="#e0722b"/>
          <path id="Path_924675" data-name="Path 924675" d="M170.8,68.2c0,.462.619.835,1.383.835s1.384-.373,1.384-.835-.62-.835-1.384-.835-1.383.373-1.383.835" transform="translate(4.784 1.887)" fill="#e0722b"/>
          <path id="Path_924676" data-name="Path 924676" d="M183.035,63.542c0,.742-.378,1.344-.845,1.344s-.845-.6-.845-1.344.378-1.343.845-1.343.845.6.845,1.343" transform="translate(5.079 1.742)"/>
          <path id="Path_924677" data-name="Path 924677" d="M176,63.542c0,.742-.378,1.344-.845,1.344s-.845-.6-.845-1.344.378-1.343.845-1.343.845.6.845,1.343" transform="translate(4.882 1.742)"/>
          <path id="Path_924678" data-name="Path 924678" d="M184.669,60.56a.064.064,0,0,0,.027-.043.576.576,0,0,0-.292-.632,3.49,3.49,0,0,0-1.8-.537c-.411-.017-2.015.005-1.894.69a.09.09,0,0,0,.024.054.1.1,0,0,0,.068.021c.62.048,1.267.073,1.9.127a17.621,17.621,0,0,1,1.923.322.074.074,0,0,0,.049,0" transform="translate(5.061 1.662)"/>
          <path id="Path_924679" data-name="Path 924679" d="M172.818,60.56a.064.064,0,0,1-.027-.043.576.576,0,0,1,.292-.632,3.49,3.49,0,0,1,1.8-.537c.411-.017,2.015.005,1.894.69a.1.1,0,0,1-.023.054.107.107,0,0,1-.069.021c-.62.048-1.266.073-1.9.127a17.621,17.621,0,0,0-1.923.322.073.073,0,0,1-.049,0" transform="translate(4.839 1.662)"/>
          <path id="Path_924680" data-name="Path 924680" d="M177.962,72.8a6.278,6.278,0,0,0,4.718-.485" transform="translate(4.984 2.025)" fill="none" stroke="#e08b55" stroke-miterlimit="10" stroke-width="0.569"/>
          <path id="Path_924681" data-name="Path 924681" d="M189.278,58.6l.3-.152c.049-1.943-1.866-3.669-3.753-4.133-4.493-1.1-9.73,1.008-14.33.889a8.825,8.825,0,0,1-4.877-1.294c-1.936-1.356-2.174-3.561-1.567-5.68a7.593,7.593,0,0,1,1.733-3.22c1.358-1.407,2.984-1.511,4.817-1.35,5.914.519,13.329-.072,18.458,3.372a8.424,8.424,0,0,1,2.835,2.893c1.983,3.709-1.3,6.335-3.619,8.674" transform="translate(4.614 1.221)"/>
          <path id="Path_924682" data-name="Path 924682" d="M190.256,82.327c-1.033.677-2.036,1.4-3.038,2.119a18.059,18.059,0,0,1-3.375,2.343,3.126,3.126,0,0,1-2.443.07A4.1,4.1,0,0,1,179.2,84c-.133-.444-.942-.609-1.347-.591a1.994,1.994,0,0,0-1.557,1.044,4.057,4.057,0,0,0-.115,1.555c-.073,3.136-.268,6.316,2.592,8.131a12.424,12.424,0,0,0,8.007,1.417,7.6,7.6,0,0,0,5.757-5.814,18.317,18.317,0,0,0,.695-5.044c-.015-.639-.14-1.3-.2-1.941a1.438,1.438,0,0,0-.38-.59,1.888,1.888,0,0,0-2.4.161" transform="translate(4.933 2.291)" fill="#878346"/>
        </g>
      </g>
      <g id="Group_1119329" data-name="Group 1119329" transform="translate(181.081 84.085)">
        <g id="Group_1119328" data-name="Group 1119328" clip-path="url(#clip-path-17)">
          <path id="Path_924683" data-name="Path 924683" d="M187.942,80.9a6.153,6.153,0,0,0,7.758,4.43" transform="translate(-175.817 -81.819)" fill="none" stroke="#d1cb6c" stroke-miterlimit="10" stroke-width="0.569"/>
          <path id="Path_924684" data-name="Path 924684" d="M186.258,81a9.605,9.605,0,0,0,7.874,9.615" transform="translate(-175.865 -81.816)" fill="none" stroke="#d1cb6c" stroke-miterlimit="10" stroke-width="0.569"/>
          <path id="Path_924685" data-name="Path 924685" d="M184.713,81.842a12.437,12.437,0,0,0,5.315,12.652" transform="translate(-175.914 -81.793)" fill="none" stroke="#d1cb6c" stroke-miterlimit="10" stroke-width="0.569"/>
          <path id="Path_924686" data-name="Path 924686" d="M185.615,98.085a16.013,16.013,0,0,1-2.961-13.779l-.046.458" transform="translate(-175.979 -81.724)" fill="none" stroke="#d1cb6c" stroke-miterlimit="10" stroke-width="0.569"/>
          <path id="Path_924687" data-name="Path 924687" d="M175.908,91.134a26.2,26.2,0,0,1,4.074-7.962,1.1,1.1,0,0,1,.458-.411c.2-.072.966.693,1.018.9a16.358,16.358,0,0,0-2.006,11.6" transform="translate(-176.155 -81.767)" fill="none" stroke="#d1cb6c" stroke-miterlimit="10" stroke-width="0.569"/>
        </g>
      </g>
      <g id="Group_1119331" data-name="Group 1119331">
        <g id="Group_1119330" data-name="Group 1119330" clip-path="url(#clip-path)">
          <path id="Path_924689" data-name="Path 924689" d="M197.278,139.7l-5.963,1.012-4.165-7.5c2.594-.075,4.268-2.106,6.809-2.077Z" transform="translate(5.242 3.673)" fill="#e09667"/>
          <path id="Path_924690" data-name="Path 924690" d="M199.66,142.017h0l-2.8-4.662c-9.607-.88-7.219,2.207-8.045,4.229-.479,1.17-3.292,3.371-4.558,4.447-3.611,3.068-2.535,5.461-2.271,5.926h0l.315.774s1.77,1.434,11.68-4.86a44.486,44.486,0,0,0,6.188-4.541Z" transform="translate(5.087 3.843)"/>
          <path id="Path_924691" data-name="Path 924691" d="M210.346,85.844l-23.5,28.728s-10.634,3.713-12.573-3.12c-1.222-4.306,1.677-8.606,4.077-11.92,4.41-6.088,9.6-12.234,12.892-19.087.653-1.36,1.174-3.152,2.194-4.294l5.731.355c3.253-.418,6.053,2.4,8,5.041Z" transform="translate(4.873 2.133)" fill="#5e2706"/>
          <path id="Path_924692" data-name="Path 924692" d="M187.926,104.354s4.245,3.775,10.232,28.239c0,0-6.051,1.81-11.312,3.965,0,0-5.23-11.779-12.234-25.372" transform="translate(4.89 2.923)" fill="#5e2706"/>
        </g>
      </g>
      <g id="Group_1119333" data-name="Group 1119333" transform="translate(178.858 78.284)">
        <g id="Group_1119332" data-name="Group 1119332" clip-path="url(#clip-path-19)">
          <line id="Line_3389" data-name="Line 3389" y1="7.237" x2="21.849" transform="translate(7.37 48.776)" fill="none" stroke="#9c410a" stroke-miterlimit="10" stroke-width="0.569"/>
          <path id="Path_924693" data-name="Path 924693" d="M205.815,78.857l-19.245,25.148a9.832,9.832,0,0,0-1.279,9.343l5.734,15.054" transform="translate(-173.686 -76.075)" fill="none" stroke="#9c410a" stroke-miterlimit="10" stroke-width="0.569"/>
        </g>
      </g>
      <g id="Group_1119335" data-name="Group 1119335">
        <g id="Group_1119334" data-name="Group 1119334" clip-path="url(#clip-path)">
          <path id="Path_924695" data-name="Path 924695" d="M197.48,121.309c-.761-.72-2.837-1.926-3.564-2.68s-1.462-1.449-2.114-2.247a8.922,8.922,0,0,1-.874-1.264c-.215-.382-1.128-2.21-1.6-.963a4.72,4.72,0,0,0,1.439,4.786,41.885,41.885,0,0,1-5.9-1.723,2,2,0,0,0-.257-.088l0,0s-4.047-1.989-5.041-1.691c-1.37.384,1.547,2.355,2.387,2.9l-.048.051c-1.023-.486-2.408-1.054-3-.876-1.457.409,1.174,2.226,1.63,2.53l-.064.1a3.02,3.02,0,0,0-1.951-.552c-1.393.391.612,2.061,1.135,2.473a1.589,1.589,0,0,0-1.015-.056c-1.591.446,3.145,3.3,3.145,3.3l0-.008c3.7,2.824,10.951,4.106,12.278,4.322l.011-.026c.376.064.738.113,1.111.173a16.3,16.3,0,0,0,2.29-8.451" transform="translate(4.987 3.185)" fill="#e08b55"/>
          <path id="Path_924696" data-name="Path 924696" d="M214.8,138.254c.092-.118-3.666-3.774-4.014-4.125q-2.066-2.086-4.163-4.141c-2.654-2.6-5.217-5.354-8.037-7.781-.231-.2-1.239-1.212-1.6-1.132-.283.064-.241,1.318-.4,1.555-.57.872-1.061,1.791-1.634,2.662a9.907,9.907,0,0,1-1.477,1.826c-.168.155-1.8,1.434-1.984,1.183a132.31,132.31,0,0,0,18.056,19.516c2.159-2.141,3.316-7.049,5.252-9.563" transform="translate(5.363 3.391)" fill="#e08b55"/>
          <path id="Path_924697" data-name="Path 924697" d="M198.752,124.123a3.537,3.537,0,1,1-3.536-3.536,3.536,3.536,0,0,1,3.536,3.536" transform="translate(5.368 3.377)" fill="#e08b55"/>
          <path id="Path_924698" data-name="Path 924698" d="M213.837,49.017l-10.113,2.825c.7,11.053.727,10.8.214,21.471,2.2.068,4.6,1.779,6.684,2.232a45.678,45.678,0,0,0,3.215-26.528" transform="translate(5.706 1.373)" fill="#e09667"/>
          <path id="Path_924699" data-name="Path 924699" d="M193.253,78.468c.029-.014.058-.028.088-.041a4.512,4.512,0,0,1,1.832-.236,69.156,69.156,0,0,0,9.476-.775c.388-.054,4.371-.834,4.4-.754a35.881,35.881,0,0,0-3.226-5.645c-.1-.146-3.965.818-4.413.893-1.566.261-3.137.477-4.708.684-3.079.4-6.18.639-9.241,1.177-.685.12-1.367.273-2.062.337a6.049,6.049,0,0,1-1.039.012c-.3-.024-1.668-.2-1.145.531a3.2,3.2,0,0,0,3.232,1,28.242,28.242,0,0,1-3.2,2.664c-.053.034-.1.072-.148.108,0,0-2.646,1.52-2.856,2.192-.3.915,1.909.023,2.53-.245l.011.046c-.661.391-1.5.954-1.626,1.354-.322.972,1.692.183,2.036.042.01.024.02.047.031.072-.45.225-.942.541-1.049.887-.307.929,1.389.436,1.818.3a1.078,1.078,0,0,0-.414.549c-.351,1.063,3.042-.518,3.037-.519.379.064,1.216-.507,1.546-.688a13.742,13.742,0,0,0,1.611-1.051c.625-.468,1.239-.969,1.826-1.484a8.158,8.158,0,0,1,1.649-1.41" transform="translate(5.048 1.989)" fill="#e09667"/>
          <path id="Path_924700" data-name="Path 924700" d="M210.781,73.886a2.82,2.82,0,1,1-2.82-2.82,2.82,2.82,0,0,1,2.82,2.82" transform="translate(5.745 1.99)" fill="#e09667"/>
          <path id="Path_924701" data-name="Path 924701" d="M201.752,57.811,218,54.6c.2-.039-1.338-7.9-1.531-8.747C215.458,41.373,213.7,33.2,208.217,32.2a6.36,6.36,0,0,0-6.356,2.494c-2.349,3.424-1.014,8.257-.792,12.07.043.741.892,11,.683,11.046" transform="translate(5.615 0.899)" fill="#bfba47"/>
        </g>
      </g>
      <g id="Group_1119337" data-name="Group 1119337" transform="translate(206.107 32.993)">
        <g id="Group_1119336" data-name="Group 1119336" clip-path="url(#clip-path-21)">
          <path id="Path_924702" data-name="Path 924702" d="M199.766,53.619c7.515-1.963,13.372-2.326,20.887-4.29" transform="translate(-200.512 -31.611)" fill="none" stroke="#fef961" stroke-miterlimit="10" stroke-width="0.5"/>
        </g>
      </g>
      <g id="Group_1119339" data-name="Group 1119339">
        <g id="Group_1119338" data-name="Group 1119338" clip-path="url(#clip-path)">
          <path id="Path_924704" data-name="Path 924704" d="M191.053,27.037l.313,3.955a1.628,1.628,0,0,0,1.054,1.4,8.94,8.94,0,0,0,3.137.643c1.892-.048,4.187-.57,4.729-1.888l-1.238-9.47s-1.519,7.271-7.995,5.365" transform="translate(5.351 0.607)" fill="#e09667"/>
          <path id="Path_924705" data-name="Path 924705" d="M199.16,22.3s-.363,7.413-7.942,7.142l-.17-2.622Z" transform="translate(5.351 0.624)"/>
          <path id="Path_924706" data-name="Path 924706" d="M184.441,15.159s12.227,18.952,18.49,5.715c.951-2.009.159-4.128.293-6.347.07-1.174.5-2.412.526-3.555a10.578,10.578,0,0,0-2.333-7.514A10.663,10.663,0,0,0,193.992.02c-4.033-.211-7.762,1.314-9.623,4.757-.77,1.425-1.013,4.1-1.129,5.722a8.357,8.357,0,0,0,1.2,4.661" transform="translate(5.132 0)"/>
          <path id="Path_924707" data-name="Path 924707" d="M203.619,18.557a4.093,4.093,0,0,1-2.756.776c.288-.008-.881,3.7-1.032,4.008a10.972,10.972,0,0,1-2.614,3.383c-2.2,1.921-4.009,2.889-6.815,1.461a11.089,11.089,0,0,1-5.806-7.625c-.739-3.425-.09-7.044.1-10.532a3.172,3.172,0,0,1,.421-1.685c.276-.389,1.581.248,2,.028,2.843-1.477,3.027-.521,6.216-.849,1.226-.126,1.741.344,2.765,1.033,1.551,1.043,2.075-.96,2.14.909a8.364,8.364,0,0,1-.026,1.076,5.5,5.5,0,0,0,.271,2.678,2.256,2.256,0,0,0,1.207.93c.585.225,1.2.4,1.805.576.466.141.973.209,1.423.394a1.99,1.99,0,0,1,1.27,1.469,2.142,2.142,0,0,1-.576,1.97" transform="translate(5.16 0.21)" fill="#e09667"/>
          <path id="Path_924708" data-name="Path 924708" d="M196.486,10.708a3.551,3.551,0,0,1-1.775-2.717,4.779,4.779,0,0,1-3.391,2.945c-1.32.16-2.116-1.116-2.463-2.4-.452,1.713-2.691,2.876-4.333,3.539-.346.14-.4-.02-.655-.29a.926.926,0,0,1-.182-.6,3.849,3.849,0,0,1,.169-1.632,2.852,2.852,0,0,1,1.61-1.492,8.485,8.485,0,0,1,2.2-.476l3.964-.494a17.243,17.243,0,0,1,2.561-.192,8.722,8.722,0,0,1,4.581,1.441,3,3,0,0,1,1.071,1.07,1.5,1.5,0,0,1,.151.907.612.612,0,0,1-.468.57,3.717,3.717,0,0,1-1.966.2,3.461,3.461,0,0,1-1.071-.378" transform="translate(5.144 0.193)"/>
          <path id="Path_924709" data-name="Path 924709" d="M190.5,14.71l.107,2.963s-1.491-.512-1.086.265a6.811,6.811,0,0,0,.955,1.362" transform="translate(5.306 0.412)" fill="none" stroke="#000" stroke-miterlimit="10" stroke-width="0.46"/>
          <path id="Path_924710" data-name="Path 924710" d="M200.406,17.916s1.3.057.955-1.984" transform="translate(5.613 0.446)" fill="none" stroke="#000" stroke-miterlimit="10" stroke-width="0.46"/>
          <path id="Path_924711" data-name="Path 924711" d="M200.722,15.875s1.522-.243,1.4,1.946" transform="translate(5.622 0.444)" fill="none" stroke="#000" stroke-miterlimit="10" stroke-width="0.46"/>
          <path id="Path_924712" data-name="Path 924712" d="M194.653,17.918c.009.357.5.634,1.087.619s1.063-.317,1.054-.673-.5-.633-1.087-.619-1.063.317-1.054.673" transform="translate(5.452 0.483)" fill="#e0722b"/>
          <path id="Path_924713" data-name="Path 924713" d="M184.458,18.176c.009.357.5.634,1.087.619s1.063-.317,1.054-.672-.5-.634-1.087-.62-1.063.317-1.054.673" transform="translate(5.166 0.49)" fill="#e0722b"/>
          <path id="Path_924714" data-name="Path 924714" d="M193.829,14.335c.014.574-.266,1.047-.627,1.056s-.666-.449-.681-1.023.266-1.047.628-1.056.665.449.68,1.023" transform="translate(5.392 0.373)"/>
          <path id="Path_924715" data-name="Path 924715" d="M188.389,14.473c.014.574-.266,1.047-.628,1.056s-.665-.449-.68-1.023.266-1.047.628-1.056.665.449.68,1.023" transform="translate(5.24 0.377)"/>
          <path id="Path_924716" data-name="Path 924716" d="M195.036,12.66a.052.052,0,0,0,.02-.034.445.445,0,0,0-.238-.483,2.7,2.7,0,0,0-1.4-.38c-.319-.005-1.558.043-1.452.571a.073.073,0,0,0,.02.042.083.083,0,0,0,.052.014c.481.026.982.032,1.47.062a13.51,13.51,0,0,1,1.495.211.06.06,0,0,0,.038,0" transform="translate(5.376 0.329)"/>
          <path id="Path_924717" data-name="Path 924717" d="M185.866,12.892a.052.052,0,0,1-.022-.033.445.445,0,0,1,.214-.494,2.7,2.7,0,0,1,1.384-.45c.318-.022,1.558-.036,1.478.5a.076.076,0,0,1-.016.043.079.079,0,0,1-.052.017c-.479.049-.98.081-1.465.136a13.666,13.666,0,0,0-1.482.286.054.054,0,0,1-.038,0" transform="translate(5.205 0.333)"/>
          <path id="Path_924718" data-name="Path 924718" d="M190.228,21.494s2.393.254,3.676-.762" transform="translate(5.328 0.581)" fill="none" stroke="#000" stroke-miterlimit="10" stroke-width="0.46"/>
          <path id="Path_924719" data-name="Path 924719" d="M232.371,292.911l-11.905-1.175,2.266-20.234c4.371,1.059,8.1-1.575,12.334-.365Z" transform="translate(6.175 7.585)" fill="#e08b55"/>
          <path id="Path_924720" data-name="Path 924720" d="M234.336,300.226l-.029.48a77.075,77.075,0,0,1-13.018,2.752c-20.154,2.864-21.926-.665-21.926-.665l.028-.72a4.766,4.766,0,0,0-.08,1.285h0l-.054,1.447s1.771,3.529,21.925.665a77.074,77.074,0,0,0,13.018-2.752l.148-2.433Z" transform="translate(5.581 8.409)" fill="#fff"/>
          <path id="Path_924721" data-name="Path 924721" d="M221.286,303.822a77.124,77.124,0,0,0,13.018-2.753l.029-.479-1.093-9.31c-14.546-8.255-12.98-1.671-15.731.932-1.592,1.506-7.607,2.974-10.378,3.77-5.91,1.7-7.4,4.674-7.744,6.454l-.027.721s1.771,3.529,21.925.665" transform="translate(5.584 8.045)"/>
          <path id="Path_924722" data-name="Path 924722" d="M211.536,293.8a5.788,5.788,0,0,1,3.679,3.676" transform="translate(5.925 8.229)" fill="none" stroke="#fff" stroke-miterlimit="10" stroke-width="0.5"/>
          <path id="Path_924723" data-name="Path 924723" d="M213.493,292.93a5.788,5.788,0,0,1,3.679,3.676" transform="translate(5.979 8.204)" fill="none" stroke="#fff" stroke-miterlimit="10" stroke-width="0.5"/>
          <path id="Path_924724" data-name="Path 924724" d="M215.45,292.061a5.788,5.788,0,0,1,3.679,3.676" transform="translate(6.034 8.18)" fill="none" stroke="#fff" stroke-miterlimit="10" stroke-width="0.5"/>
          <path id="Path_924725" data-name="Path 924725" d="M217.407,291.191a5.785,5.785,0,0,1,3.679,3.676" transform="translate(6.089 8.156)" fill="none" stroke="#fff" stroke-miterlimit="10" stroke-width="0.5"/>
          <path id="Path_924726" data-name="Path 924726" d="M273.649,291.734l-11.741,2.3L258.26,274c4.491-.244,7.306-3.838,11.709-3.9Z" transform="translate(7.233 7.565)" fill="#e08b55"/>
          <path id="Path_924727" data-name="Path 924727" d="M275.277,298.892l-.029.48a77.082,77.082,0,0,1-13.019,2.752c-20.154,2.864-21.925-.665-21.925-.665l.028-.721a4.768,4.768,0,0,0-.08,1.285h0l-.055,1.447s1.771,3.529,21.925.665a77.082,77.082,0,0,0,13.018-2.752l.148-2.433Z" transform="translate(6.727 8.371)" fill="#fff"/>
          <path id="Path_924728" data-name="Path 924728" d="M262.227,302.487a77.127,77.127,0,0,0,13.018-2.753l.03-.479-1.094-9.31c-14.546-8.255-12.98-1.671-15.731.932-1.592,1.506-7.607,2.974-10.378,3.769-5.909,1.7-7.4,4.675-7.743,6.455l-.028.721s1.771,3.529,21.925.665" transform="translate(6.73 8.008)"/>
          <path id="Path_924729" data-name="Path 924729" d="M252.477,292.465a5.785,5.785,0,0,1,3.679,3.676" transform="translate(7.071 8.191)" fill="none" stroke="#fff" stroke-miterlimit="10" stroke-width="0.5"/>
          <path id="Path_924730" data-name="Path 924730" d="M254.434,291.6a5.785,5.785,0,0,1,3.679,3.676" transform="translate(7.126 8.167)" fill="none" stroke="#fff" stroke-miterlimit="10" stroke-width="0.5"/>
          <path id="Path_924731" data-name="Path 924731" d="M256.391,290.726a5.785,5.785,0,0,1,3.679,3.676" transform="translate(7.181 8.143)" fill="none" stroke="#fff" stroke-miterlimit="10" stroke-width="0.5"/>
          <path id="Path_924732" data-name="Path 924732" d="M258.348,289.856a5.788,5.788,0,0,1,3.679,3.676" transform="translate(7.236 8.118)" fill="none" stroke="#fff" stroke-miterlimit="10" stroke-width="0.5"/>
          <path id="Path_924733" data-name="Path 924733" d="M265.374,159v11.2l-30.421,2.678-14.019-6.853L222.1,151.6l14.841-4.363Z" transform="translate(6.188 4.124)" fill="#007dfe"/>
          <path id="Path_924734" data-name="Path 924734" d="M266.493,162.362l2.905,69.374s-9.715,16.941-20.014,10.189a14.4,14.4,0,0,1-6.2-9.5l-2.293-12.658-7.628-47.855Z" transform="translate(6.533 4.547)" fill="#07c3f3"/>
          <path id="Path_924735" data-name="Path 924735" d="M268.478,226.163s5.886,7.9,7.483,51.537c0,0-10.909.955-20.6,2.772,0,0-4.755-21.834-11.887-47.372" transform="translate(6.819 6.334)" fill="#07c3f3"/>
          <path id="Path_924736" data-name="Path 924736" d="M248.6,176.461l-12.14,63.99s-10.3,6.632-18.966-4.879c-1.685-2.238-1.8-2.206-1.612-5l.906-17.045,3.687-48.054Z" transform="translate(6.044 4.634)" fill="#07c3f3"/>
          <path id="Path_924737" data-name="Path 924737" d="M239.262,221.944s6.069,16.72-2.535,59.533c0,0-10.831-1.611-20.677-2.1,0,0,1.381-29.976-.14-48.859" transform="translate(6.047 6.216)" fill="#07c3f3"/>
        </g>
      </g>
      <g id="Group_1119341" data-name="Group 1119341" transform="translate(221.858 166.909)">
        <g id="Group_1119340" data-name="Group 1119340" clip-path="url(#clip-path-23)">
          <path id="Path_924738" data-name="Path 924738" d="M253.857,170.853s-3.186,9.85,9.236,11.886" transform="translate(-214.759 -162.124)" fill="none" stroke="#000" stroke-miterlimit="10" stroke-width="0.479"/>
          <line id="Line_3390" data-name="Line 3390" x1="25.767" y1="2.967" transform="translate(-1.09 110.283)" fill="none" stroke="#000" stroke-miterlimit="10" stroke-width="0.479"/>
          <path id="Path_924739" data-name="Path 924739" d="M237.627,168.443l-.929,16.324s-.047-.016-.132-.049a5.091,5.091,0,0,1-3.2-4.936l.386-10.692" transform="translate(-215.322 -162.192)" fill="none" stroke="#000" stroke-miterlimit="10" stroke-width="0.479"/>
          <line id="Line_3391" data-name="Line 3391" x2="3.827" y2="33.9" transform="translate(21.459 22.551)" fill="none" stroke="#000" stroke-miterlimit="10" stroke-width="0.479"/>
          <path id="Path_924740" data-name="Path 924740" d="M237.284,187.72s-2.5-.981-3.619,2.249-2.709,35.2-2.709,35.2l-.238,48.326" transform="translate(-215.397 -161.656)" fill="none" stroke="#000" stroke-miterlimit="10" stroke-width="0.479"/>
          <line id="Line_3392" data-name="Line 3392" x1="24.473" y2="2.803" transform="translate(37.996 109.814)" fill="none" stroke="#000" stroke-miterlimit="10" stroke-width="0.479"/>
          <path id="Path_924741" data-name="Path 924741" d="M259.85,181.866c.944,5.195-.284,11.425-.5,16.655-.272,6.64-.473,13.3-.091,19.934.5,8.764,2.288,17.386,3.929,25.988s2.861,17.273,4.246,25.91q.163,1.015.326,2.03" transform="translate(-214.603 -161.816)" fill="none" stroke="#000" stroke-miterlimit="10" stroke-width="0.479"/>
          <path id="Path_924742" data-name="Path 924742" d="M257.644,230.511c0-7.591-5.5-13.747-12.278-13.747a11.126,11.126,0,0,0-5,1.2l2.281,12.586a14.816,14.816,0,0,0,1.084,3.438c.973,3.49,1.9,6.906,2.776,10.206,6.245-.645,11.137-6.521,11.137-13.683" transform="translate(-215.126 -160.838)" fill="#025974"/>
          <path id="Path_924743" data-name="Path 924743" d="M227.669,227.829c0-7.115-4.829-12.968-11.016-13.675l-.823,11.986c-.023.329-.028.659-.023.988l-.257,3.609c.34,4.23.764,5.607.876,10.781,6.3-.588,11.243-6.487,11.243-13.689" transform="translate(-215.821 -160.911)" fill="#025974"/>
        </g>
      </g>
      <g id="Group_1119343" data-name="Group 1119343">
        <g id="Group_1119342" data-name="Group 1119342" clip-path="url(#clip-path)">
          <path id="Path_924745" data-name="Path 924745" d="M273.209,142.388a28.615,28.615,0,0,0,7.13-3.231c-1.22-15.976-14.116-41.473-14.116-41.473L260,102.871l-3.9,41.6a87.793,87.793,0,0,0,12.466-.99,39.1,39.1,0,0,0,4.645-1.092" transform="translate(7.173 2.736)" fill="#736e30"/>
          <path id="Path_924746" data-name="Path 924746" d="M277.14,149.294c2.81-2.013,3.612-6.154,3.222-11.268a28.581,28.581,0,0,1-7.13,3.232,39.1,39.1,0,0,1-4.645,1.092,87.956,87.956,0,0,1-12.466.99l-.769,8.2s10.2,6.052,21.788-2.248" transform="translate(7.152 3.866)" fill="#4f4c21"/>
          <path id="Path_924747" data-name="Path 924747" d="M267.918,89.035a10.013,10.013,0,0,1,5.194-8.773.457.457,0,0,0-.127-.847,8.608,8.608,0,0,0-1.72-.174H251.381a8.594,8.594,0,0,0-8.584,8.584v2.247a8.594,8.594,0,0,0,8.584,8.584h19.885a8.43,8.43,0,0,0,1.479-.138.456.456,0,0,0,.151-.843,10.044,10.044,0,0,1-4.978-8.64" transform="translate(6.8 2.219)" fill="#736e30"/>
          <path id="Path_924748" data-name="Path 924748" d="M278.721,90.056V87.808a8.159,8.159,0,0,0-6.5-7.962,10.452,10.452,0,0,0-.227,18.207,8.152,8.152,0,0,0,6.727-8" transform="translate(7.472 2.236)" fill="#4f4c21"/>
        </g>
      </g>
      <g id="Group_1119345" data-name="Group 1119345" transform="translate(274.262 82.082)">
        <g id="Group_1119344" data-name="Group 1119344" clip-path="url(#clip-path-25)">
          <path id="Path_924749" data-name="Path 924749" d="M275.985,89.286a3.545,3.545,0,1,1,3.545,3.545A3.545,3.545,0,0,1,275.985,89.286Z" transform="translate(-266.532 -79.681)" fill="none" stroke="#736e30" stroke-miterlimit="10" stroke-width="0.5"/>
          <circle id="Ellipse_11823" data-name="Ellipse 11823" cx="6.83" cy="6.83" r="6.83" transform="translate(6.167 2.775)" fill="none" stroke="#736e30" stroke-miterlimit="10" stroke-width="0.5"/>
          <circle id="Ellipse_11824" data-name="Ellipse 11824" cx="9.77" cy="9.77" r="9.77" transform="translate(2.766 -0.166)" fill="none" stroke="#736e30" stroke-miterlimit="10" stroke-width="0.5"/>
        </g>
      </g>
      <g id="Group_1119347" data-name="Group 1119347">
        <g id="Group_1119346" data-name="Group 1119346" clip-path="url(#clip-path-26)">
          <path id="Path_924751" data-name="Path 924751" d="M227.255,90.947l-2.5.4c-.053.04-.1.085-.158.125l-.029-.051a4.829,4.829,0,0,0-.948.825,47.3,47.3,0,0,0-13.843,17.574c6.121,3.6,7.632,11.817,13.676,15.5.262-.143.528-.279.778-.443a3.387,3.387,0,0,1,.544-.383c.085-.032.12-.1.222-.078s.456.548.469.538a28.752,28.752,0,0,0,5-5.838c.034.13.066.243.1.368,1.883-9.327,1.567-20.294-3.313-28.534" transform="translate(5.875 2.547)" fill="#953c2d"/>
          <path id="Path_924752" data-name="Path 924752" d="M267.888,164.664c-.394-3.226-.776-6.452-1.09-9.686-.009-.1-.018-.194-.028-.29-.013-.139-.027-.281-.04-.42q-.17-1.783-.335-3.714c-.049-.586-.1-1.178-.147-1.782q-.134-1.675-.258-3.424c-.093-1.319-.178-2.667-.256-4.031l-.012-.221c-.109-1.913-.2-3.857-.268-5.813-.005-.147-.009-.293-.014-.44q-.028-.84-.05-1.682c-.045-1.741-.069-3.482-.07-5.206,0-.466,0-.932,0-1.4,0-.136.005-.269.006-.405.036-3.627.187-7.146.5-10.387,0-.03.005-.062.007-.091l.005-.048c.017-.176.039-.343.058-.518.122-1.17.263-2.31.432-3.4.076-.562.087-.489.233-1.241.043-.224.273-.384.318-.64-5.049-5.626-10.434-15.447-6.428-22.625-3.314-.514-4.633-1.1-7.191-1.436l-.149-.02-.073-.01L253,85.735c-.654-.084-1.309-.161-1.969-.23-.231-.024-.462-.049-.7-.071l-.077-.007c-1.151-.107-2.34-.188-3.62-.237-.863-.034-1.765-.053-2.727-.057a22.372,22.372,0,0,0-5.162.6,25.456,25.456,0,0,0-5.481,1.97l-.122.063a28.96,28.96,0,0,0-2.829,1.616l-.288.189-.024.015-.089.06a6.65,6.65,0,0,1-2.065.88,6.538,6.538,0,0,0-1.488.592,9.921,9.921,0,0,0-2.166,1.653c2.209,9.432,2.917,20.031-1.8,28.439-.015.282-.032.567-.043.824-.017.448-.041.95-.066,1.475-.062,1.289-.144,2.79-.241,4.45-.051.886-.107,1.816-.167,2.779-.048.791-.1,1.6-.152,2.427-.028.448-.058.9-.086,1.356l-.022.328c0,.029,0,.058-.005.085-.16,2.478-.334,5.065-.51,7.637-.064.931-.128,1.861-.192,2.781q-.083,1.212-.167,2.4c-.067.956-.134,1.9-.2,2.811q-.43,6.085-.893,12.167c-.116,1.542-.832,4.083.087,5.5,3.082,2.485,9.391,3.262,13.37,3.621,8.988.81,18.188,1.417,26.972-1.123.745-.215,2-.353,2.43-1.083a2.138,2.138,0,0,0,.213-.982c.111-2.162.095-4.327.1-6.49,0-.271,0-2.525.646-2.157a.9.9,0,0,1,.323.426,50.234,50.234,0,0,1,2.328,5.785c.179.539,1.135,2.709,1.808,1.463.468-.867.107-1.823,0-2.728-.012-.1-.024-.2-.036-.293" transform="translate(6.141 2.384)" fill="#953c2d"/>
          <path id="Path_924753" data-name="Path 924753" d="M215.8,126.167a12.143,12.143,0,0,1-4.121-.723,6.772,6.772,0,0,1-3.175-2.139c-1.282-1.7-1.254-4.04-.922-6.143a27.449,27.449,0,0,1,2.739-8.332,23.157,23.157,0,0,1,11.541,6.155" transform="translate(5.809 3.048)" fill="#953c2d"/>
        </g>
      </g>
      <g id="Group_1119349" data-name="Group 1119349" transform="translate(215.897 87.495)">
        <g id="Group_1119348" data-name="Group 1119348" clip-path="url(#clip-path-27)">
          <path id="Path_924754" data-name="Path 924754" d="M209.194,93.05q34.814.76,69.6-1.785" transform="translate(-210.038 -84.939)" fill="none" stroke="#e6818e" stroke-miterlimit="10" stroke-width="0.569"/>
          <path id="Path_924755" data-name="Path 924755" d="M206.356,98.725a529.475,529.475,0,0,0,79.657-3.882" transform="translate(-210.117 -84.838)" fill="none" stroke="#e6818e" stroke-miterlimit="10" stroke-width="0.569"/>
          <path id="Path_924756" data-name="Path 924756" d="M202.428,104.169a445.11,445.11,0,0,0,82.836-6.294" transform="translate(-210.228 -84.754)" fill="none" stroke="#e6818e" stroke-miterlimit="10" stroke-width="0.569"/>
          <path id="Path_924757" data-name="Path 924757" d="M197.2,110.471a377.371,377.371,0,0,0,93.469-8.775" transform="translate(-210.374 -84.646)" fill="none" stroke="#e6818e" stroke-miterlimit="10" stroke-width="0.569"/>
          <path id="Path_924758" data-name="Path 924758" d="M200.048,117.885a582.749,582.749,0,0,0,80.275-6.293" transform="translate(-210.294 -84.369)" fill="none" stroke="#e6818e" stroke-miterlimit="10" stroke-width="0.569"/>
          <path id="Path_924759" data-name="Path 924759" d="M201.669,126.184a543.349,543.349,0,0,0,75.55-6.5" transform="translate(-210.249 -84.143)" fill="none" stroke="#e6818e" stroke-miterlimit="10" stroke-width="0.569"/>
          <path id="Path_924760" data-name="Path 924760" d="M201.034,132.488a491.651,491.651,0,0,0,74.19-5.7" transform="translate(-210.267 -83.944)" fill="none" stroke="#e6818e" stroke-miterlimit="10" stroke-width="0.569"/>
          <path id="Path_924761" data-name="Path 924761" d="M194.445,142.395q39.022-1.678,77.808-6.67" transform="translate(-210.451 -83.693)" fill="none" stroke="#e6818e" stroke-miterlimit="10" stroke-width="0.569"/>
          <path id="Path_924762" data-name="Path 924762" d="M197.721,148.786a544.283,544.283,0,0,0,73.633-5.273" transform="translate(-210.359 -83.475)" fill="none" stroke="#e6818e" stroke-miterlimit="10" stroke-width="0.569"/>
          <path id="Path_924763" data-name="Path 924763" d="M194.606,156.525a673.117,673.117,0,0,0,84.376-4.137" transform="translate(-210.447 -83.227)" fill="none" stroke="#e6818e" stroke-miterlimit="10" stroke-width="0.569"/>
          <path id="Path_924764" data-name="Path 924764" d="M198.646,165.81q37.947-2.342,75.6-7.93" transform="translate(-210.333 -83.073)" fill="none" stroke="#e6818e" stroke-miterlimit="10" stroke-width="0.569"/>
          <path id="Path_924765" data-name="Path 924765" d="M205.941,169.912c22.3-.769,45.56.278,65.948-5.191" transform="translate(-210.129 -82.881)" fill="none" stroke="#e6818e" stroke-miterlimit="10" stroke-width="0.569"/>
          <path id="Path_924766" data-name="Path 924766" d="M210.672,85.274a467.832,467.832,0,0,0-1.668,89.2" transform="translate(-210.082 -85.106)" fill="none" stroke="#e6818e" stroke-miterlimit="10" stroke-width="0.569"/>
          <path id="Path_924767" data-name="Path 924767" d="M215.807,81.291a478.942,478.942,0,0,0-1.568,93.117" transform="translate(-209.94 -85.218)" fill="none" stroke="#e6818e" stroke-miterlimit="10" stroke-width="0.569"/>
          <path id="Path_924768" data-name="Path 924768" d="M221.367,81.269A317.342,317.342,0,0,0,219.8,176.9" transform="translate(-209.822 -85.219)" fill="none" stroke="#e6818e" stroke-miterlimit="10" stroke-width="0.569"/>
          <path id="Path_924769" data-name="Path 924769" d="M227.623,78.036a303.6,303.6,0,0,0-1.123,99.1" transform="translate(-209.652 -85.309)" fill="none" stroke="#e6818e" stroke-miterlimit="10" stroke-width="0.569"/>
          <path id="Path_924770" data-name="Path 924770" d="M232.135,81.507a261.019,261.019,0,0,0-.218,97.3" transform="translate(-209.527 -85.212)" fill="none" stroke="#e6818e" stroke-miterlimit="10" stroke-width="0.569"/>
          <path id="Path_924771" data-name="Path 924771" d="M240.838,78.055a261.382,261.382,0,0,0-3.765,108.1" transform="translate(-209.367 -85.309)" fill="none" stroke="#e6818e" stroke-miterlimit="10" stroke-width="0.569"/>
          <path id="Path_924772" data-name="Path 924772" d="M245.591,80.043a257.656,257.656,0,0,0-2.271,102.106" transform="translate(-209.195 -85.253)" fill="none" stroke="#e6818e" stroke-miterlimit="10" stroke-width="0.569"/>
          <path id="Path_924773" data-name="Path 924773" d="M251.015,80.412A310.243,310.243,0,0,0,246.7,181.92" transform="translate(-209.052 -85.243)" fill="none" stroke="#e6818e" stroke-miterlimit="10" stroke-width="0.569"/>
          <path id="Path_924774" data-name="Path 924774" d="M255.1,81.9a305.828,305.828,0,0,0-2.775,97.309" transform="translate(-208.904 -85.201)" fill="none" stroke="#e6818e" stroke-miterlimit="10" stroke-width="0.569"/>
          <path id="Path_924775" data-name="Path 924775" d="M262.763,77.785a229.286,229.286,0,0,0-5.281,97.119" transform="translate(-208.767 -85.316)" fill="none" stroke="#e6818e" stroke-miterlimit="10" stroke-width="0.569"/>
          <path id="Path_924776" data-name="Path 924776" d="M267.055,80.274a250.981,250.981,0,0,0-3.224,98.924" transform="translate(-208.604 -85.246)" fill="none" stroke="#e6818e" stroke-miterlimit="10" stroke-width="0.569"/>
          <path id="Path_924777" data-name="Path 924777" d="M272.126,83.737a265.525,265.525,0,0,0-3.314,96.228" transform="translate(-208.449 -85.149)" fill="none" stroke="#e6818e" stroke-miterlimit="10" stroke-width="0.569"/>
          <path id="Path_924778" data-name="Path 924778" d="M278.251,85.158a204.278,204.278,0,0,0-5.3,84.184" transform="translate(-208.312 -85.11)" fill="none" stroke="#e6818e" stroke-miterlimit="10" stroke-width="0.569"/>
        </g>
      </g>
      <g id="Group_1119351" data-name="Group 1119351">
        <g id="Group_1119350" data-name="Group 1119350" clip-path="url(#clip-path)">
          <path id="Path_924780" data-name="Path 924780" d="M235.092,81.708l.271,5.044a2.073,2.073,0,0,0,1.3,1.811,11.4,11.4,0,0,0,3.974.918c2.41,0,5.349-.59,6.081-2.251l-1.273-12.1s-2.167,9.208-10.349,6.573" transform="translate(6.584 2.104)" fill="#e08b55"/>
          <path id="Path_924781" data-name="Path 924781" d="M245.564,75.931s-.7,9.425-10.341,8.836l-.132-3.343Z" transform="translate(6.584 2.127)"/>
          <path id="Path_924782" data-name="Path 924782" d="M227.061,66.372s14.956,24.519,23.354,7.869c1.275-2.527.335-5.25.577-8.07.127-1.493.709-3.056.784-4.509.18-3.517-.439-6.867-2.727-9.641a13.584,13.584,0,0,0-9.343-4.617c-5.127-.4-9.618,2.8-12.1,7.124a14.815,14.815,0,0,0-1.928,5.871,10.631,10.631,0,0,0,1.379,5.972" transform="translate(6.32 1.327)"/>
          <path id="Path_924783" data-name="Path 924783" d="M251.365,71.475a5.212,5.212,0,0,1-3.533.9c.366,0-1.242,4.688-1.442,5.069a14,14,0,0,1-3.438,4.224c-2.866,2.375-5.2,3.548-8.722,1.641a14.124,14.124,0,0,1-7.147-9.895c-.71-3.75-.125-7.566.266-11.316.3-2.851.65-6.231,2.93-8.258a11.847,11.847,0,0,1,8.569-2.6c2.1.134,7.555,1.2,7.24,4.167a7.773,7.773,0,0,1-.674,2.027c-.913,2.268-1.88,7.07,1.1,8.3.737.305,1.521.544,2.28.793.588.193,1.232.3,1.8.546a2.534,2.534,0,0,1,1.569,1.91,2.726,2.726,0,0,1-.8,2.49" transform="translate(6.351 1.434)" fill="#e08b55"/>
          <path id="Path_924784" data-name="Path 924784" d="M235.144,65.491l.041,3.8s-1.9-.706-1.4.305a8.771,8.771,0,0,0,1.18,1.777" transform="translate(6.545 1.834)" fill="none" stroke="#000" stroke-miterlimit="10" stroke-width="0.59"/>
          <path id="Path_924785" data-name="Path 924785" d="M247.749,69.923s1.664.113,1.289-2.513" transform="translate(6.939 1.888)" fill="none" stroke="#000" stroke-miterlimit="10" stroke-width="0.59"/>
          <path id="Path_924786" data-name="Path 924786" d="M248.219,67.317s1.96-.262,1.736,2.54" transform="translate(6.952 1.885)" fill="none" stroke="#000" stroke-miterlimit="10" stroke-width="0.59"/>
          <path id="Path_924787" data-name="Path 924787" d="M240.37,69.741c0,.457.615.829,1.373.829s1.373-.371,1.373-.829-.615-.829-1.373-.829-1.373.371-1.373.829" transform="translate(6.732 1.93)" fill="#e0722b"/>
          <path id="Path_924788" data-name="Path 924788" d="M227.286,69.741c0,.457.615.829,1.373.829s1.373-.371,1.373-.829-.615-.829-1.373-.829-1.373.371-1.373.829" transform="translate(6.366 1.93)" fill="#e0722b"/>
          <path id="Path_924789" data-name="Path 924789" d="M239.429,65.118c0,.736-.375,1.333-.839,1.333s-.839-.6-.839-1.333.375-1.333.839-1.333.839.6.839,1.333" transform="translate(6.659 1.786)"/>
          <path id="Path_924790" data-name="Path 924790" d="M232.448,65.118c0,.736-.376,1.333-.84,1.333s-.838-.6-.838-1.333.374-1.333.838-1.333.84.6.84,1.333" transform="translate(6.463 1.786)"/>
          <path id="Path_924791" data-name="Path 924791" d="M241.052,62.158a.062.062,0,0,0,.027-.043.572.572,0,0,0-.29-.627,3.473,3.473,0,0,0-1.79-.534c-.408-.016-2,.005-1.88.685a.094.094,0,0,0,.024.054.109.109,0,0,0,.068.022c.615.047,1.257.072,1.882.125a17.4,17.4,0,0,1,1.911.32.071.071,0,0,0,.048,0" transform="translate(6.641 1.707)"/>
          <path id="Path_924792" data-name="Path 924792" d="M229.285,62.158a.066.066,0,0,1-.027-.043.571.571,0,0,1,.291-.627,3.466,3.466,0,0,1,1.789-.534c.408-.016,2,.005,1.88.685a.094.094,0,0,1-.024.054.108.108,0,0,1-.067.022c-.616.047-1.258.072-1.883.125a17.4,17.4,0,0,0-1.911.32.071.071,0,0,1-.048,0" transform="translate(6.42 1.707)"/>
          <path id="Path_924793" data-name="Path 924793" d="M234.579,74.173a5.4,5.4,0,0,0,5.186-.61" transform="translate(6.57 2.06)" fill="none" stroke="#000" stroke-miterlimit="10" stroke-width="0.59"/>
          <path id="Path_924794" data-name="Path 924794" d="M246.436,83.788c-1.032.677-2.038,1.4-3.038,2.119a18.051,18.051,0,0,1-3.374,2.343,3.128,3.128,0,0,1-2.444.07,4.107,4.107,0,0,1-2.2-2.859c-.133-.444-.942-.609-1.346-.591a2,2,0,0,0-1.558,1.044,4.058,4.058,0,0,0-.114,1.555c-.073,3.136-.269,6.316,2.592,8.131a12.421,12.421,0,0,0,8.006,1.417,7.6,7.6,0,0,0,5.758-5.814,18.276,18.276,0,0,0,.694-5.044c-.015-.639-.14-1.3-.2-1.941a1.422,1.422,0,0,0-.381-.59c-.755-.663-1.649-.331-2.4.161" transform="translate(6.507 2.332)" fill="#8f2b39"/>
          <path id="Path_924795" data-name="Path 924795" d="M242.706,86.837c-1.1-.845-1.9-7.056-3.041-5.638a4.72,4.72,0,0,0-.053,5,44.628,44.628,0,0,1-5.339-3.565h0s-3.27-3.1-4.308-3.116c-1.422-.041.775,2.709,1.415,3.477l-.061.035c-2.748-2.848-4.365-1.752-1.8,1.17l-.089.073c-2.3-2.433-3.02-.39-1.352,1.591-3.508-1.845.77,3.541,1.067,3.731v-.009c2.69,3.8,9.23,7.184,10.432,7.785,1.973-2.084,3.566-4.491,5.466-6.779-.584-1.03-1.807-2.693-2.337-3.752" transform="translate(6.349 2.227)" fill="#e08b55"/>
          <path id="Path_924796" data-name="Path 924796" d="M237.465,94.878c2.066,9.59,4.676,19.49,9.217,28.232a23.276,23.276,0,0,0,4.073,5.914c1.641,1.627,5.4,4.242,7.88,3.128,1.182-.529,1.563-2.006,1.68-3.3.613-6.708-2-13.179-5.039-19.009-3.467-6.646-7.072-13.234-10.761-19.758" transform="translate(6.651 2.523)" fill="#e08b55"/>
          <path id="Path_924797" data-name="Path 924797" d="M229.609,79.4c.99-.078,1.9.887,2.565,1.5a30.57,30.57,0,0,0,7.22,5.177,6.19,6.19,0,0,1-.423-3.2c.059-.442.42-2.362,1.259-1.784.51.352.682,1.531.863,2.063l.953,2.805c.171.5.4,1.07.9,1.246" transform="translate(6.431 2.224)" fill="none" stroke="#bf7749" stroke-miterlimit="10" stroke-width="0.5"/>
          <path id="Path_924798" data-name="Path 924798" d="M254.74,117.365a12.662,12.662,0,0,1,5.223-9.287c1.878-1.333,4.465-2.109,6.466-.971a5.245,5.245,0,0,1,2.393,3.89,11.789,11.789,0,0,1-.509,4.672,39.73,39.73,0,0,1-6.849,13.394c-1.024,1.349-2.295,2.746-3.98,2.908" transform="translate(7.135 2.984)" fill="#e08b55"/>
          <path id="Path_924799" data-name="Path 924799" d="M256.426,112.5a21.5,21.5,0,0,1,3.644,13.89" transform="translate(7.182 3.151)" fill="none" stroke="#bf7749" stroke-miterlimit="10" stroke-width="0.5"/>
          <path id="Path_924800" data-name="Path 924800" d="M257.18,90.863q.032-.3.066-.594a5.245,5.245,0,0,1,.639-2.291c.65-1,1.966-.879,2.966-.436,4.03,1.784,6.46,5.98,7.8,10.178a34.721,34.721,0,0,1-2.976,27.544c.081-.142-.7-1.344-.791-1.517-1.5-2.772-3.66-5.091-5.479-7.654-1.716-2.416-4.335-3.858-4.2-7,.241-5.692,1.362-12.562,1.979-18.227" transform="translate(7.147 2.443)" fill="#953c2d"/>
        </g>
      </g>
      <g id="Group_1119353" data-name="Group 1119353" transform="translate(262.313 89.693)">
        <g id="Group_1119352" data-name="Group 1119352" clip-path="url(#clip-path-29)">
          <path id="Path_924801" data-name="Path 924801" d="M209.519,86.795q34.814.76,69.6-1.784" transform="translate(-256.445 -87.312)" fill="none" stroke="#e6818e" stroke-miterlimit="10" stroke-width="0.569"/>
          <path id="Path_924802" data-name="Path 924802" d="M206.681,92.469a529.5,529.5,0,0,0,79.658-3.882" transform="translate(-256.524 -87.212)" fill="none" stroke="#e6818e" stroke-miterlimit="10" stroke-width="0.569"/>
          <path id="Path_924803" data-name="Path 924803" d="M202.753,97.913a445.109,445.109,0,0,0,82.836-6.294" transform="translate(-256.634 -87.127)" fill="none" stroke="#e6818e" stroke-miterlimit="10" stroke-width="0.569"/>
          <path id="Path_924804" data-name="Path 924804" d="M197.527,104.216A377.37,377.37,0,0,0,291,95.441" transform="translate(-256.781 -87.02)" fill="none" stroke="#e6818e" stroke-miterlimit="10" stroke-width="0.569"/>
          <path id="Path_924805" data-name="Path 924805" d="M200.372,111.63a582.913,582.913,0,0,0,80.276-6.294" transform="translate(-256.701 -86.742)" fill="none" stroke="#e6818e" stroke-miterlimit="10" stroke-width="0.569"/>
          <path id="Path_924806" data-name="Path 924806" d="M201.994,119.928a543.348,543.348,0,0,0,75.55-6.5" transform="translate(-256.655 -86.516)" fill="none" stroke="#e6818e" stroke-miterlimit="10" stroke-width="0.569"/>
          <path id="Path_924807" data-name="Path 924807" d="M201.359,126.233a491.651,491.651,0,0,0,74.19-5.7" transform="translate(-256.673 -86.317)" fill="none" stroke="#e6818e" stroke-miterlimit="10" stroke-width="0.569"/>
          <path id="Path_924808" data-name="Path 924808" d="M194.77,136.14q39.022-1.678,77.808-6.67" transform="translate(-256.858 -86.066)" fill="none" stroke="#e6818e" stroke-miterlimit="10" stroke-width="0.569"/>
          <path id="Path_924809" data-name="Path 924809" d="M198.046,142.53a544.285,544.285,0,0,0,73.633-5.273" transform="translate(-256.766 -85.848)" fill="none" stroke="#e6818e" stroke-miterlimit="10" stroke-width="0.569"/>
          <path id="Path_924810" data-name="Path 924810" d="M194.931,150.269a672.923,672.923,0,0,0,84.376-4.136" transform="translate(-256.853 -85.6)" fill="none" stroke="#e6818e" stroke-miterlimit="10" stroke-width="0.569"/>
          <path id="Path_924811" data-name="Path 924811" d="M198.971,159.554q37.947-2.342,75.6-7.93" transform="translate(-256.74 -85.446)" fill="none" stroke="#e6818e" stroke-miterlimit="10" stroke-width="0.569"/>
          <path id="Path_924812" data-name="Path 924812" d="M206.266,163.656c22.3-.769,45.56.278,65.948-5.191" transform="translate(-256.536 -85.254)" fill="none" stroke="#e6818e" stroke-miterlimit="10" stroke-width="0.569"/>
          <path id="Path_924813" data-name="Path 924813" d="M211,79.018a467.823,467.823,0,0,0-1.668,89.2" transform="translate(-256.489 -87.48)" fill="none" stroke="#e6818e" stroke-miterlimit="10" stroke-width="0.569"/>
          <path id="Path_924814" data-name="Path 924814" d="M216.132,75.036a478.945,478.945,0,0,0-1.568,93.117" transform="translate(-256.347 -87.591)" fill="none" stroke="#e6818e" stroke-miterlimit="10" stroke-width="0.569"/>
          <path id="Path_924815" data-name="Path 924815" d="M221.692,75.014a317.343,317.343,0,0,0-1.569,95.629" transform="translate(-256.228 -87.592)" fill="none" stroke="#e6818e" stroke-miterlimit="10" stroke-width="0.569"/>
          <path id="Path_924816" data-name="Path 924816" d="M227.948,71.78a303.6,303.6,0,0,0-1.123,99.1" transform="translate(-256.059 -87.682)" fill="none" stroke="#e6818e" stroke-miterlimit="10" stroke-width="0.569"/>
          <path id="Path_924817" data-name="Path 924817" d="M232.46,75.251a261.019,261.019,0,0,0-.218,97.3" transform="translate(-255.933 -87.585)" fill="none" stroke="#e6818e" stroke-miterlimit="10" stroke-width="0.569"/>
          <path id="Path_924818" data-name="Path 924818" d="M241.163,71.8A261.382,261.382,0,0,0,237.4,179.9" transform="translate(-255.774 -87.682)" fill="none" stroke="#e6818e" stroke-miterlimit="10" stroke-width="0.569"/>
          <path id="Path_924819" data-name="Path 924819" d="M245.916,73.787a257.637,257.637,0,0,0-2.271,102.106" transform="translate(-255.602 -87.626)" fill="none" stroke="#e6818e" stroke-miterlimit="10" stroke-width="0.569"/>
          <path id="Path_924820" data-name="Path 924820" d="M251.34,74.156a310.246,310.246,0,0,0-4.315,101.508" transform="translate(-255.459 -87.616)" fill="none" stroke="#e6818e" stroke-miterlimit="10" stroke-width="0.569"/>
          <path id="Path_924821" data-name="Path 924821" d="M255.422,75.649a305.828,305.828,0,0,0-2.775,97.309" transform="translate(-255.311 -87.574)" fill="none" stroke="#e6818e" stroke-miterlimit="10" stroke-width="0.569"/>
          <path id="Path_924822" data-name="Path 924822" d="M263.088,71.529a229.288,229.288,0,0,0-5.281,97.119" transform="translate(-255.174 -87.689)" fill="none" stroke="#e6818e" stroke-miterlimit="10" stroke-width="0.569"/>
          <path id="Path_924823" data-name="Path 924823" d="M267.38,74.018a251,251,0,0,0-3.225,98.924" transform="translate(-255.011 -87.62)" fill="none" stroke="#e6818e" stroke-miterlimit="10" stroke-width="0.569"/>
          <path id="Path_924824" data-name="Path 924824" d="M272.451,77.481a265.525,265.525,0,0,0-3.314,96.228" transform="translate(-254.856 -87.523)" fill="none" stroke="#e6818e" stroke-miterlimit="10" stroke-width="0.569"/>
          <path id="Path_924825" data-name="Path 924825" d="M278.576,78.9a204.278,204.278,0,0,0-5.3,84.184" transform="translate(-254.719 -87.483)" fill="none" stroke="#e6818e" stroke-miterlimit="10" stroke-width="0.569"/>
        </g>
      </g>
      <g id="Group_1119355" data-name="Group 1119355">
        <g id="Group_1119354" data-name="Group 1119354" clip-path="url(#clip-path)">
          <path id="Path_924827" data-name="Path 924827" d="M247.562,120.316c1.1.84,7.307-.015,6.238,1.46a4.724,4.724,0,0,1-4.811,1.359,44.256,44.256,0,0,0,4.839,4.222v0s3.852,2.344,4.135,3.343c.412,1.361-2.818-.039-3.726-.456-.006.023-.011.046-.017.069,3.466,1.906,2.832,3.753-.659,2.045-.015.036-.031.069-.046.1,2.949,1.579,1.166,2.814-1.182,1.721,2.7,2.9-3.62.184-3.88-.052h.009c-4.37-1.6-9.349-7.03-10.244-8.033,1.495-2.449,3.4-4.617,5.112-7.048,1.146.293,3.072,1.037,4.232,1.272" transform="translate(6.672 3.334)" fill="#e08b55"/>
          <path id="Path_924828" data-name="Path 924828" d="M222.435,114.16c-1.937-.425-3.919-.795-5.916-1.042-3.746,3.019-6.034,7.848-3.429,12.631a129.493,129.493,0,0,0,28.454,1.683l2.777-8.058c-7.263-1.852-14.564-3.606-21.885-5.214" transform="translate(5.937 3.168)" fill="#e08b55"/>
          <path id="Path_924829" data-name="Path 924829" d="M245.206,119.538a14.389,14.389,0,0,0,4.061,1.112l3.6.125a.93.93,0,0,1,.633.183.618.618,0,0,1,.014.769,1.6,1.6,0,0,1-.666.487,9.667,9.667,0,0,1-4.219.929l2.818,2.223c1.922,1.516,3.849,3.036,5.612,4.735.169.162.351.389.262.605-.079.193-.323.248-.531.258a3.93,3.93,0,0,1-2.563-.79" transform="translate(6.868 3.348)" fill="none" stroke="#bf7749" stroke-miterlimit="10" stroke-width="0.5"/>
          <path id="Path_924830" data-name="Path 924830" d="M209.861,120.411c-.189-5.023,5.46-6.691,9.512-6.669a13.252,13.252,0,0,1,3.634.476" transform="translate(5.878 3.186)" fill="none" stroke="#bf7749" stroke-miterlimit="10" stroke-width="0.5"/>
          <path id="Path_924831" data-name="Path 924831" d="M257.669,84.754l-3.963-.189a132.116,132.116,0,0,0-4.087,15.561c1.17,1.931,2.068,3.861,3.062,5.792a149.9,149.9,0,0,1,4.988-21.164" transform="translate(6.991 2.368)" fill="#4f4c21"/>
          <path id="Path_924832" data-name="Path 924832" d="M262.255,134.243a10.194,10.194,0,0,1-5.733-3.442,4.588,4.588,0,0,1-2.469-.651l-.047.1c2.791,1.495,1.344,2.676-.809,1.875a14.448,14.448,0,0,0,9.059,5.321l13.717,4.075,2.372-1.422Z" transform="translate(7.091 3.645)" fill="#4f4c21"/>
          <path id="Path_924833" data-name="Path 924833" d="M255.855,111.028c-.613-5.123.292-9.615.731-14.757.033-.39.114-.847.468-1.017" transform="translate(7.16 2.668)" fill="none" stroke="#9c3a8b" stroke-miterlimit="10" stroke-width="0.5"/>
          <path id="Path_924834" data-name="Path 924834" d="M255.847,106.9c5.394,2.942,8.761,8.489,11.877,13.785" transform="translate(7.166 2.994)" fill="none" stroke="#9c3a8b" stroke-miterlimit="10" stroke-width="0.5"/>
          <path id="Path_924835" data-name="Path 924835" d="M222.566,114.233a71.671,71.671,0,0,1,5.372-17.819" transform="translate(6.234 2.7)" fill="none" stroke="#9c3a8b" stroke-miterlimit="10" stroke-width="0.5"/>
        </g>
      </g>
    </g>
  </g>
</svg>
