<svg xmlns="http://www.w3.org/2000/svg" xmlns:xlink="http://www.w3.org/1999/xlink" width="99" height="99" viewBox="0 0 99 99">
  <defs>
    <clipPath id="clip-path">
      <rect id="Rectangle_401223" data-name="Rectangle 401223" width="99" height="99" transform="translate(0)" fill="#8ce6fe"/>
    </clipPath>
    <clipPath id="clip-path-2">
      <rect id="Rectangle_401223-2" data-name="Rectangle 401223" width="88.539" height="88.539" fill="#f3f9ff"/>
    </clipPath>
    <clipPath id="clip-path-3">
      <rect id="Rectangle_409188" data-name="Rectangle 409188" width="48.615" height="67.861" transform="translate(0 0)" fill="none"/>
    </clipPath>
  </defs>
  <g id="Group_1119261" data-name="Group 1119261" transform="translate(-619.921 -5755.871)">
    <g id="Group_1100724" data-name="Group 1100724" transform="translate(619.921 5755.871)">
      <g id="Group_1099654" data-name="Group 1099654" transform="translate(0 0)">
        <g id="Group_1099652" data-name="Group 1099652" clip-path="url(#clip-path)">
          <path id="Path_873521" data-name="Path 873521" d="M99,77.066A22,22,0,0,1,77.066,99H21.934A22,22,0,0,1,0,77.066V21.933A22,22,0,0,1,21.934,0H77.066A22,22,0,0,1,99,21.934Z" transform="translate(0)" fill="#ffdcd6"/>
        </g>
      </g>
      <g id="Group_1099659" data-name="Group 1099659" transform="translate(4.77 5.723)">
        <g id="Group_1099652-2" data-name="Group 1099652" transform="translate(0 0)" clip-path="url(#clip-path-2)">
          <path id="Path_873521-2" data-name="Path 873521" d="M88.539,68.922A19.674,19.674,0,0,1,68.923,88.539H19.616A19.674,19.674,0,0,1,0,68.922V19.616A19.674,19.674,0,0,1,19.616,0H68.923A19.674,19.674,0,0,1,88.539,19.616Z" fill="#f3f9ff"/>
        </g>
      </g>
    </g>
    <g id="Group_1100725" data-name="Group 1100725" transform="translate(636.343 5771.293)">
      <rect id="Rectangle_401104" data-name="Rectangle 401104" width="68" height="69" transform="translate(0.29 -0.295)" fill="none"/>
      <g id="Group_1119460" data-name="Group 1119460" transform="translate(9.29 0.705)">
        <rect id="Rectangle_409181" data-name="Rectangle 409181" width="48.614" height="48.614" transform="translate(0 19.247)" fill="#fff0ee"/>
        <g id="Group_1119459" data-name="Group 1119459">
          <g id="Group_1119458" data-name="Group 1119458" clip-path="url(#clip-path-3)">
            <path id="Path_925408" data-name="Path 925408" d="M11.741,63.373a8.4,8.4,0,0,1-2.974-3.536l1.386-.656a6.9,6.9,0,0,0,2.427,2.908ZM8.389,58.934a13.5,13.5,0,0,1-.8-4.424l1.534-.03a12.174,12.174,0,0,0,.7,3.923Zm.744-5.32L7.6,53.548a15.426,15.426,0,0,1,.828-4.39l1.449.5a13.917,13.917,0,0,0-.745,3.955m1.053-4.76-1.413-.6a12.68,12.68,0,0,1,2.435-3.794l1.116,1.052a11.155,11.155,0,0,0-2.138,3.338m20.958-3.522a13.792,13.792,0,0,1-4.385-.977l.543-1.434a12.287,12.287,0,0,0,3.889.878Zm1-.028-.135-1.527A5.072,5.072,0,0,0,35.3,42.234l1.092,1.077A6.632,6.632,0,0,1,32.146,45.3m-19.215-.378L11.91,43.781a10.614,10.614,0,0,1,3.963-2.237l.452,1.466a9.083,9.083,0,0,0-3.394,1.916m12.959-.92a19.927,19.927,0,0,0-3.915-1.195l.282-1.508a21.464,21.464,0,0,1,4.219,1.286ZM17.142,42.8l-.323-1.5a12.459,12.459,0,0,1,2.607-.269,18.013,18.013,0,0,1,1.887.125l-.2,1.52a13.3,13.3,0,0,0-1.69-.112,10.927,10.927,0,0,0-2.285.235m19.908-.243-1.214-.937a12.546,12.546,0,0,0,1.8-3.566l1.449.5a14.013,14.013,0,0,1-2.036,4m2.328-4.892-1.466-.452c.345-1.117.667-2.409,1.014-4.064l1.5.314c-.357,1.7-.69,3.038-1.049,4.2" fill="#eebc32"/>
            <path id="Path_925409" data-name="Path 925409" d="M42.4,38.633l-2.779-6.175-4.969,4.7L33.6,36.044l6.536-6.183L43.8,38Z" fill="#eebc32"/>
            <rect id="Rectangle_409182" data-name="Rectangle 409182" width="2.339" height="13.862" transform="translate(7.048 29.229) rotate(-45)" fill="#953c2d"/>
            <rect id="Rectangle_409183" data-name="Rectangle 409183" width="13.862" height="2.339" transform="translate(7.048 37.377) rotate(-45)" fill="#953c2d"/>
            <rect id="Rectangle_409184" data-name="Rectangle 409184" width="2.339" height="13.862" transform="translate(18.546 50.409) rotate(-45)" fill="#953c2d"/>
            <rect id="Rectangle_409185" data-name="Rectangle 409185" width="13.862" height="2.339" transform="translate(18.546 58.557) rotate(-45)" fill="#953c2d"/>
            <path id="Path_925410" data-name="Path 925410" d="M44.169,27.494c0,.938-2.074,1.7-4.633,1.7s-4.632-.761-4.632-1.7,2.074-1.7,4.632-1.7,4.633.761,4.633,1.7" fill="#953c2d"/>
            <path id="Path_925411" data-name="Path 925411" d="M44.528,12.686H24.087l4.942-6.343L24.087,0H44.528Z" transform="translate(-4.087)" fill="#07c3f3"/>
            <rect id="Rectangle_409186" data-name="Rectangle 409186" width="1.809" height="27.549" transform="translate(38.632 0)" fill="#f7a22e"/>
            <rect id="Rectangle_409187" data-name="Rectangle 409187" width="0.905" height="27.549" transform="translate(39.536 0)" fill="#f69512"/>
            <path id="Path_925412" data-name="Path 925412" d="M37.545,4.251,36.172,2.88,31.937,7.116,29.414,4.593,28.042,5.965l2.522,2.522-.026.027L31.91,9.888l.027-.027.027.027,1.372-1.373-.027-.027Z" fill="#fff"/>
          </g>
        </g>
      </g>
    </g>
  </g>
</svg>
