<svg xmlns="http://www.w3.org/2000/svg" xmlns:xlink="http://www.w3.org/1999/xlink" width="400" height="325.673" viewBox="0 0 400 325.673">
  <defs>
    <clipPath id="clip-path">
      <rect id="Rectangle_409132" data-name="Rectangle 409132" width="316" height="316" transform="translate(0 -0.333)" fill="none"/>
    </clipPath>
  </defs>
  <g id="Group_1119048" data-name="Group 1119048" transform="translate(-179.711 -897)">
    <g id="Group_1119049" data-name="Group 1119049" transform="translate(179.711 897)">
      <g id="Group_1118637" data-name="Group 1118637">
        <path id="Path_891656" data-name="Path 891656" d="M22,0H379c13.807,0,21,11.571,21,19.677V304.569c0,8.106-7.193,20.677-21,20.677H22c-13.807,0-22-12.571-22-20.677V19.677C0,11.571,8.193,0,22,0Z" fill="#fff0c5"/>
      </g>
      <g id="Group_1119358" data-name="Group 1119358" transform="translate(43.334 9.34)">
        <g id="Group_1119357" data-name="Group 1119357" transform="translate(0.666 0.666)" clip-path="url(#clip-path)">
          <path id="Path_924836" data-name="Path 924836" d="M316.675,158.338A158.338,158.338,0,1,1,158.338,0,158.338,158.338,0,0,1,316.675,158.338" transform="translate(-0.669 -0.669)" fill="#f69a8b"/>
          <rect id="Rectangle_409126" data-name="Rectangle 409126" width="117.71" height="87.285" transform="translate(93.349 227.234)" fill="#ffdcd6"/>
          <path id="Path_924837" data-name="Path 924837" d="M1053.4,1422a.381.381,0,0,1-.382-.381v-77.149a.382.382,0,0,1,.763,0v77.149a.381.381,0,0,1-.382.381" transform="translate(-871.464 -1112.167)" fill="#f7f1eb"/>
          <path id="Path_924838" data-name="Path 924838" d="M749.667,1545.4a.381.381,0,0,1-.382-.381V1493.7a.382.382,0,1,1,.763,0v51.326a.381.381,0,0,1-.382.381" transform="translate(-620.293 -1235.571)" fill="#f7f1eb"/>
          <path id="Path_924839" data-name="Path 924839" d="M685.2,1348.881a.376.376,0,0,1-.146-.029.381.381,0,0,1-.236-.353v-26.634a.382.382,0,0,1,.763,0v25.712l5.389-5.4a.393.393,0,0,1,.54,0l4.8,4.8,4.956-4.964a.382.382,0,0,1,.54,0l5.325,5.333v-25.489a.382.382,0,1,1,.763,0v26.411a.382.382,0,0,1-.651.27l-5.707-5.716-4.956,4.964a.393.393,0,0,1-.54,0l-4.8-4.8-5.771,5.779a.382.382,0,0,1-.27.112" transform="translate(-566.986 -1093.474)" fill="#f7f1eb"/>
          <path id="Path_924840" data-name="Path 924840" d="M8.747,1667.4l6.356,2.686h112.1l6.356-2.686,2.686-6.356v-12.639l-2.686-6.356-6.356-2.686H15.1l-6.356,2.686-2.686,6.356v12.639Z" transform="translate(-5.681 -1356.346)" fill="#84524d"/>
          <path id="Path_924841" data-name="Path 924841" d="M6.061,1648.407a9.042,9.042,0,0,0,9.042-9.042H6.061Z" transform="translate(-5.681 -1356.347)" fill="#efbc73"/>
          <path id="Path_924842" data-name="Path 924842" d="M6.061,1773.695H15.1a9.042,9.042,0,0,0-9.042-9.042Z" transform="translate(-5.681 -1459.955)" fill="#efbc73"/>
          <path id="Path_924843" data-name="Path 924843" d="M715.17,1764.653a9.042,9.042,0,0,0-9.042,9.042h9.042Z" transform="translate(-584.604 -1459.955)" fill="#efbc73"/>
          <path id="Path_924844" data-name="Path 924844" d="M715.17,1639.364h-9.042a9.042,9.042,0,0,0,9.042,9.042Z" transform="translate(-584.604 -1356.346)" fill="#efbc73"/>
          <path id="Path_924845" data-name="Path 924845" d="M134.424,1726.693H4.238a.382.382,0,0,1,0-.763H134.424a.382.382,0,0,1,0,.763" transform="translate(-3.858 -1427.933)" fill="#363e44"/>
          <path id="Path_924846" data-name="Path 924846" d="M330.641,1702.813H302.486a.381.381,0,0,1-.382-.381v-12.639a.381.381,0,0,1,.763,0v12.257h27.392v-12.257a.382.382,0,0,1,.763,0v12.639a.381.381,0,0,1-.382.381" transform="translate(-250.495 -1397.733)" fill="#363e44"/>
          <rect id="Rectangle_409127" data-name="Rectangle 409127" width="104.114" height="30.723" transform="translate(14.615 252.577)" fill="#b77250"/>
          <path id="Path_924847" data-name="Path 924847" d="M191.239,1550.785H87.017a.382.382,0,1,1,0-.763H191.239a.382.382,0,0,1,0,.763" transform="translate(-72.312 -1282.465)" fill="#363e44"/>
          <path id="Path_924848" data-name="Path 924848" d="M330.641,1526.907H302.486a.381.381,0,0,1-.382-.382v-12.638a.381.381,0,0,1,.763,0v12.257h27.392v-12.257a.382.382,0,0,1,.763,0v12.638a.381.381,0,0,1-.382.382" transform="translate(-250.495 -1252.268)" fill="#363e44"/>
          <rect id="Rectangle_409128" data-name="Rectangle 409128" width="94.948" height="70.406" transform="translate(15.788 181.804)" fill="#eebc32"/>
          <path id="Path_924849" data-name="Path 924849" d="M506.2,1138.887a.381.381,0,0,1-.382-.382v-62.23a.382.382,0,0,1,.763,0v62.23a.381.381,0,0,1-.382.382" transform="translate(-418.955 -890.383)" fill="#e0aa63"/>
          <path id="Path_924850" data-name="Path 924850" d="M261.2,1238.426a.381.381,0,0,1-.382-.381v-41.4a.382.382,0,1,1,.763,0v41.4a.381.381,0,0,1-.382.381" transform="translate(-216.356 -989.923)" fill="#e0aa63"/>
          <path id="Path_924851" data-name="Path 924851" d="M209.206,1079.908a.375.375,0,0,1-.146-.029.381.381,0,0,1-.236-.353v-21.484a.381.381,0,0,1,.763,0V1078.6l4.221-4.227a.393.393,0,0,1,.54,0l3.817,3.823,3.945-3.952a.393.393,0,0,1,.54,0l4.17,4.176v-20.381a.381.381,0,0,1,.763,0v21.3a.382.382,0,0,1-.652.27l-4.551-4.558-3.945,3.952a.393.393,0,0,1-.54,0l-3.817-3.823-4.6,4.61a.382.382,0,0,1-.27.112" transform="translate(-173.357 -875.305)" fill="#f7f1eb"/>
          <rect id="Rectangle_409129" data-name="Rectangle 409129" width="199.804" height="139.027" transform="translate(32.528 18.687)" fill="#953c2d"/>
          <rect id="Rectangle_409130" data-name="Rectangle 409130" width="183.628" height="122.902" transform="translate(40.616 26.749)" fill="#fff"/>
          <path id="Path_924852" data-name="Path 924852" d="M1153.52,633.143v-4.78l-1.075-.934v-3.772l-2.516-2.185v3.978l-1.516,1.316-2.419-2.1,2.193-1.9-3.87-3.361-8.386,7.283h-2.58l-3.711,3.223c-.058,3.817-.118,9.663.056,9.663h6.451v-1.942h4.816v2.839h2.322v3.063l3.053,2.652,8.687-7.544v-5.49Z" transform="translate(-934.78 -512.883)" fill="#e6d0be"/>
          <path id="Path_924853" data-name="Path 924853" d="M321.4,252.936c0-.672-.516-9.86,0-9.86h-6.451v-5.154h8.773l3.225,2.8v-5.49l6.644-5.77h6.644v-4.09h8.773v-12.1l-3.354-2.913-6.967,6.05-3.1-2.689,6.967-6.05,1.677,1.457,3.87-3.361,4.9,4.258,2.709-2.353v-5.154H343.073l3.1-2.689H328.108l-5.1-4.426h-7.031l-15.32,13.305h6.289l4.209-3.656,4.306,3.74-4.516,3.922v6.611l-5.305,4.608v18.025Z" transform="translate(-249.302 -162.256)" fill="#e6d0be"/>
          <path id="Path_924854" data-name="Path 924854" d="M427.267,527.886h8.9l12.421,10.788h5.188v7.258L450,549.209v7.9s-3,1.933-3,2.6V577.7l3.385,2.94v2.942l-15.124-13.135V560.049l-4.551-3.952V550.47l-6.756-5.868V533.364Z" transform="translate(-351.265 -437.206)" fill="#e6d0be"/>
          <path id="Path_924855" data-name="Path 924855" d="M661.123,249.8v13.949s11.61-1.345,11.61,0,6.966,6.05,6.966,6.05v13.613c0,.672,4.888,4.245,4.888,4.245v6.511h6.529l6.244-5.423v-9.2l4.149-3.6v-8.5l6.22-5.4-3.008-2.613h-4.511l-3.8-3.3v-9.858l5.772,5.013-3.516,3.054,3.193,2.773,6-5.21v-2.269h5.515L718.4,254v3.529l4.16,3.613,8.8-7.647,2.612,2.269V262.4h4.741l-2.322-2.017v-2.857l2.576,2.237,1.972,1.712,5.031-4.369-4.361-3.787,7.547-6.554-6.959-6.044,11.567-10.046-8.031-6.974,7.762-6.741v4.267l6.832,5.934V221.73l-3.975-3.452,8.06-7H760v-2.992H725.948l-6.192-5.378-7.547,6.554,1.935,1.681-7.257,6.3-2.9-2.521-4.257,3.7-6.482-5.63-10.74,9.327,2.9,2.521v2.269l1.983-1.723V221.9h3.725v1.242l-6.122,5.317-2.445-2.124-7.1,6.163v1.886l-1.473,1.279H670.53v1.634l-1.849,1.606,2.763,2.4h3.129v-2.773l2.548-2.213,2.193,1.9s1.129-2.1,1.774-1.54,2.774,2.129,2.774,2.409.323,1.737,0,1.737,1.29-1.12,1.29-1.12v-1.849l-2-1.737.806-.7,2.193,1.9v2.325l1.725,1.5v-1.331l1.508-1.309L693,235.369v-1.884h2.346v2.129a6.184,6.184,0,0,1,1.613,0l1.645,1.429v1.429h-3.645v-1.12H692.44l-2.354,2.045v1.26l1.6,1.387h3.661v2.535H688.57l-1.9-1.653-2.741,2.381-2.419-2.1v-1.877H676.7l-2.225,1.933H669.67l-6,5.214v1.256Z" transform="translate(-547.387 -168.464)" fill="#e6d0be"/>
          <path id="Path_924856" data-name="Path 924856" d="M481.244,163.785a.382.382,0,0,1-.379-.343c-.127-1.249-.317-2.505-.564-3.733a.382.382,0,1,1,.748-.151c.252,1.251.446,2.532.576,3.806a.382.382,0,0,1-.341.418l-.039,0m-75.975-.346a.381.381,0,0,1-.357-.247c-.449-1.2-.922-2.383-1.408-3.528a.382.382,0,0,1,.7-.3c.49,1.156.967,2.353,1.42,3.558a.382.382,0,0,1-.223.491.388.388,0,0,1-.134.024m.732-1.36a.428.428,0,0,1-.057,0,.382.382,0,0,1-.32-.434c.19-1.265.445-2.535.757-3.774a.382.382,0,1,1,.74.186c-.306,1.215-.556,2.461-.743,3.7a.381.381,0,0,1-.377.325m-78.133-2.454a.413.413,0,0,1-.056,0,.381.381,0,0,1-.322-.433,33.432,33.432,0,0,1,.786-3.775.382.382,0,1,1,.737.2,32.6,32.6,0,0,0-.768,3.688.382.382,0,0,1-.377.326m74.42-3.207a.381.381,0,0,1-.344-.217c-.551-1.151-1.13-2.289-1.722-3.383a.382.382,0,1,1,.671-.363c.6,1.1,1.184,2.254,1.74,3.416a.381.381,0,0,1-.344.546m77.452-.1a.381.381,0,0,1-.365-.27c-.366-1.2-.8-2.394-1.278-3.553a.381.381,0,1,1,.7-.293c.491,1.181.93,2.4,1.3,3.623a.381.381,0,0,1-.254.476.375.375,0,0,1-.111.017m-71.877-1.626a.381.381,0,0,1-.359-.51c.433-1.2.93-2.4,1.479-3.556a.381.381,0,1,1,.689.327c-.538,1.133-1.026,2.306-1.45,3.486a.382.382,0,0,1-.359.253m-78.029-2.422a.377.377,0,0,1-.138-.026.381.381,0,0,1-.217-.494,38.013,38.013,0,0,1,1.58-3.513.381.381,0,1,1,.679.347,37.3,37.3,0,0,0-1.548,3.442.382.382,0,0,1-.356.243m68.818-2.559a.381.381,0,0,1-.326-.182c-.669-1.089-1.367-2.157-2.077-3.172a.382.382,0,0,1,.626-.437c.719,1.028,1.426,2.108,2.1,3.21a.381.381,0,0,1-.325.581m78.162-.427a.381.381,0,0,1-.337-.2c-.591-1.1-1.245-2.194-1.942-3.237a.381.381,0,1,1,.634-.424c.711,1.064,1.377,2.175,1.981,3.3a.382.382,0,0,1-.336.562m-65.685-1.475a.381.381,0,0,1-.327-.578c.658-1.1,1.379-2.173,2.141-3.2a.382.382,0,1,1,.613.455c-.748,1.009-1.454,2.065-2.1,3.139a.381.381,0,0,1-.328.185M333.3,145.488a.382.382,0,0,1-.321-.587c.686-1.072,1.435-2.129,2.226-3.142a.381.381,0,1,1,.6.469c-.776.994-1.511,2.032-2.184,3.084a.381.381,0,0,1-.322.176m60.979-2.02a.382.382,0,0,1-.3-.143c-.8-1-1.631-1.962-2.472-2.869a.381.381,0,1,1,.559-.519c.853.92,1.7,1.9,2.508,2.91a.381.381,0,0,1-.3.62m78.307-.514a.381.381,0,0,1-.3-.14c-.8-.973-1.648-1.915-2.531-2.8a.381.381,0,1,1,.54-.539c.9.9,1.769,1.865,2.581,2.856a.382.382,0,0,1-.295.623m-56.917-1.263a.382.382,0,0,1-.283-.638c.858-.949,1.772-1.867,2.717-2.729a.382.382,0,0,1,.514.564c-.927.845-1.823,1.746-2.665,2.677a.382.382,0,0,1-.283.126m-77.682-2.214a.381.381,0,0,1-.278-.643c.876-.934,1.805-1.837,2.761-2.684a.381.381,0,1,1,.506.571c-.938.832-1.85,1.719-2.711,2.636a.38.38,0,0,1-.278.12m51.1-1.59a.379.379,0,0,1-.258-.1c-.937-.861-1.909-1.682-2.889-2.437a.382.382,0,1,1,.466-.6c1,.769,1.987,1.6,2.94,2.48a.382.382,0,0,1-.258.663m78.122-.329a.38.38,0,0,1-.242-.087c-.971-.8-1.99-1.559-3.028-2.255a.382.382,0,1,1,.425-.634c1.059.71,2.1,1.484,3.088,2.3a.381.381,0,0,1-.243.676m-45.91-1a.382.382,0,0,1-.229-.687c1.027-.769,2.1-1.493,3.192-2.153a.381.381,0,1,1,.395.653c-1.07.648-2.123,1.358-3.13,2.112a.38.38,0,0,1-.228.076m-77.608-2.138a.382.382,0,0,1-.226-.689c1.039-.761,2.12-1.476,3.214-2.125a.382.382,0,0,1,.389.657c-1.073.636-2.134,1.338-3.153,2.084a.378.378,0,0,1-.225.074m117.19-1.1a.378.378,0,0,1-.179-.045,37.152,37.152,0,0,0-3.416-1.606.382.382,0,0,1,.289-.706,37.939,37.939,0,0,1,3.486,1.639.381.381,0,0,1-.18.718m-77.833-.075a.38.38,0,0,1-.2-.059c-1.072-.676-2.178-1.3-3.288-1.853a.381.381,0,0,1,.341-.683c1.132.565,2.261,1.2,3.354,1.89a.381.381,0,0,1-.2.7m44.767-.631a.382.382,0,0,1-.165-.726A38.413,38.413,0,0,1,431.2,130.4a.382.382,0,0,1,.258.718,37.618,37.618,0,0,0-3.484,1.453.379.379,0,0,1-.164.037m-77.563-2.073a.382.382,0,0,1-.16-.728,35.043,35.043,0,0,1,3.586-1.422.382.382,0,0,1,.241.724,34.134,34.134,0,0,0-3.508,1.39.381.381,0,0,1-.16.035m103.579-.1a.387.387,0,0,1-.107-.015,36.1,36.1,0,0,0-3.672-.87.381.381,0,1,1,.136-.751,36.808,36.808,0,0,1,3.75.888.382.382,0,0,1-.107.748m-18.848-.395a.382.382,0,0,1-.091-.752,37.045,37.045,0,0,1,3.782-.728.381.381,0,1,1,.105.756,36.364,36.364,0,0,0-3.7.713.394.394,0,0,1-.092.011m-58.748-.192a.383.383,0,0,1-.134-.024,35.491,35.491,0,0,0-3.6-1.134.382.382,0,0,1,.19-.739,36.4,36.4,0,0,1,3.674,1.159.382.382,0,0,1-.134.739m70.1-.775h-.029c-.143-.011-.285-.02-.427-.029-.741-.045-1.492-.065-2.226-.067q-.561,0-1.118.018a.371.371,0,0,1-.394-.369.381.381,0,0,1,.369-.394c.391-.013.781-.025,1.177-.019.741,0,1.494.023,2.24.069l.437.03a.381.381,0,0,1-.028.762m-88.855-.932a.381.381,0,0,1-.076-.755,29.824,29.824,0,0,1,3.825-.53.381.381,0,1,1,.055.761,29.236,29.236,0,0,0-3.727.516.387.387,0,0,1-.077.008m11.382-.195a.411.411,0,0,1-.056,0,37.282,37.282,0,0,0-3.755-.358.382.382,0,0,1,.034-.762,37.908,37.908,0,0,1,3.833.366.382.382,0,0,1-.055.759" transform="translate(-271.485 -105.547)" fill="#363e44"/>
          <path id="Path_924857" data-name="Path 924857" d="M616.746,46.436a.382.382,0,0,1-.361-.258c-.408-1.191-.865-2.38-1.356-3.535a.381.381,0,1,1,.7-.3c.5,1.171.962,2.378,1.376,3.586a.382.382,0,0,1-.237.485.391.391,0,0,1-.124.02M525.828,41.96a.382.382,0,0,1-.35-.532c.5-1.17,1.062-2.337,1.657-3.467a.381.381,0,1,1,.675.355c-.586,1.113-1.136,2.262-1.632,3.414a.382.382,0,0,1-.351.231m87.93-2.537a.381.381,0,0,1-.339-.207c-.577-1.12-1.2-2.23-1.856-3.3a.382.382,0,1,1,.651-.4c.664,1.086,1.3,2.212,1.883,3.348a.381.381,0,0,1-.164.514.376.376,0,0,1-.174.042M529.38,35.218a.381.381,0,0,1-.322-.585c.679-1.077,1.41-2.143,2.173-3.168a.381.381,0,0,1,.612.455c-.751,1.01-1.471,2.059-2.14,3.12a.381.381,0,0,1-.323.178m80.4-2.3a.381.381,0,0,1-.31-.159c-.733-1.021-1.513-2.028-2.32-2.992a.382.382,0,0,1,.586-.49c.819.979,1.611,2,2.354,3.037a.382.382,0,0,1-.31.6M533.929,29.1a.382.382,0,0,1-.288-.632c.836-.961,1.721-1.9,2.631-2.8a.382.382,0,0,1,.536.543c-.9.884-1.768,1.812-2.591,2.758a.38.38,0,0,1-.288.131m70.961-2.032a.38.38,0,0,1-.274-.116c-.877-.9-1.8-1.783-2.737-2.616a.381.381,0,0,1,.506-.571c.953.845,1.888,1.738,2.778,2.655a.381.381,0,0,1-.274.647M539.354,23.75a.381.381,0,0,1-.247-.672c.974-.825,1.991-1.623,3.023-2.372a.382.382,0,0,1,.448.618c-1.016.737-2.018,1.524-2.978,2.336a.38.38,0,0,1-.246.091m59.832-1.735a.379.379,0,0,1-.231-.078c-1-.762-2.044-1.494-3.1-2.177a.381.381,0,0,1,.415-.64c1.069.693,2.127,1.436,3.144,2.209a.381.381,0,0,1-.231.685m-53.662-2.74a.382.382,0,0,1-.2-.706c1.087-.669,2.213-1.3,3.347-1.888a.381.381,0,1,1,.349.678c-1.117.575-2.226,1.2-3.3,1.86a.38.38,0,0,1-.2.057m47.263-1.4a.381.381,0,0,1-.182-.046c-1.109-.6-2.25-1.167-3.393-1.677a.382.382,0,0,1,.311-.7c1.16.518,2.32,1.091,3.446,1.7a.382.382,0,0,1-.183.717M552.3,15.787a.382.382,0,0,1-.148-.733c1.179-.5,2.39-.95,3.6-1.35a.382.382,0,0,1,.24.724c-1.19.394-2.382.841-3.543,1.329a.382.382,0,0,1-.148.03m33.526-1.021a.383.383,0,0,1-.128-.022c-1.186-.421-2.4-.8-3.613-1.122a.381.381,0,1,1,.2-.737c1.231.329,2.467.712,3.672,1.14a.382.382,0,0,1-.128.741m-26.29-1.372a.382.382,0,0,1-.09-.752c1.243-.3,2.511-.56,3.769-.76a.382.382,0,0,1,.12.753c-1.238.2-2.485.449-3.708.748a.384.384,0,0,1-.091.011m18.926-.591a.4.4,0,0,1-.068-.006c-1.24-.225-2.5-.4-3.746-.518a.381.381,0,1,1,.073-.76c1.267.121,2.548.3,3.809.527a.382.382,0,0,1-.068.757m-11.4-.606a.381.381,0,0,1-.028-.762c1.273-.1,2.568-.134,3.845-.121a.382.382,0,0,1,0,.763h0c-1.256-.015-2.529.026-3.78.119h-.029" transform="translate(-435.189 -10.023)" fill="#363e44"/>
          <path id="Path_924858" data-name="Path 924858" d="M470.373,192.751a10.628,10.628,0,0,1,10.635,10.621c0,5.866-10.635,18.811-10.635,18.811s-10.635-12.945-10.635-18.811a10.628,10.628,0,0,1,10.635-10.621" transform="translate(-380.851 -160.065)" fill="#d87355"/>
          <path id="Path_924859" data-name="Path 924859" d="M493.7,219.4a7.277,7.277,0,1,1-7.277-7.268A7.272,7.272,0,0,1,493.7,219.4" transform="translate(-396.898 -176.092)" fill="#fff"/>
          <path id="Path_924860" data-name="Path 924860" d="M1122.744,571.7a8.4,8.4,0,0,1,8.4,8.391c0,4.634-8.4,14.86-8.4,14.86s-8.4-10.226-8.4-14.86a8.4,8.4,0,0,1,8.4-8.391" transform="translate(-922.178 -473.442)" fill="#d87355"/>
          <path id="Path_924861" data-name="Path 924861" d="M1141.17,592.756a5.749,5.749,0,1,1-5.749-5.741,5.745,5.745,0,0,1,5.749,5.741" transform="translate(-934.856 -486.103)" fill="#fff"/>
          <path id="Path_924862" data-name="Path 924862" d="M704.238,337.446a16.312,16.312,0,0,1,16.323,16.3c0,9-16.323,28.871-16.323,28.871s-16.323-19.868-16.323-28.871a16.312,16.312,0,0,1,16.323-16.3" transform="translate(-569.543 -279.721)" fill="#d87355"/>
          <path id="Path_924863" data-name="Path 924863" d="M736.021,367.142a12.231,12.231,0,1,1-12.231-12.216,12.223,12.223,0,0,1,12.231,12.216" transform="translate(-589.094 -294.176)" fill="#fff"/>
          <path id="Path_924864" data-name="Path 924864" d="M278.711,315.466a13.985,13.985,0,0,1,13.994,13.976c0,7.719-13.994,24.753-13.994,24.753s-13.994-17.034-13.994-24.753a13.985,13.985,0,0,1,13.994-13.976" transform="translate(-219.578 -261.545)" fill="#d87355"/>
          <path id="Path_924865" data-name="Path 924865" d="M309.4,350.532a9.575,9.575,0,1,1-9.576-9.563,9.569,9.569,0,0,1,9.576,9.563" transform="translate(-240.695 -282.634)" fill="#fff"/>
          <path id="Path_924866" data-name="Path 924866" d="M1010.487,216.619a10.7,10.7,0,0,1,10.7,10.688c0,5.9-10.7,18.929-10.7,18.929s-10.7-13.026-10.7-18.929a10.7,10.7,0,0,1,10.7-10.688" transform="translate(-827.445 -179.803)" fill="#d87355"/>
          <path id="Path_924867" data-name="Path 924867" d="M1033.958,243.434a7.323,7.323,0,1,1-7.323-7.313,7.318,7.318,0,0,1,7.323,7.313" transform="translate(-843.593 -195.93)" fill="#fff"/>
          <path id="Path_924868" data-name="Path 924868" d="M1303.816,440.315c2.444-4.961,4.306-7.637,7.508-8.709,4.3-1.441,8.407,1.4,8.831,1.708.271.194,4.286,2.717,4.453,7.482a13.1,13.1,0,0,1-6.193,11.705l-1.192,10.332a6.052,6.052,0,0,1-6.707,5.314l-.752-.087a6.048,6.048,0,0,1-5.321-6.7l.8-6.9c-2.087-.419-3.683-1.22-4.228-2.363-.976-2.047-.073-5.94,2.805-11.782" transform="translate(-1076.231 -357.252)" fill="#bc8271"/>
          <path id="Path_924869" data-name="Path 924869" d="M1324.993,551.123a.38.38,0,0,1-.378-.435l.359-2.519a.382.382,0,0,1,.756.107l-.359,2.519a.382.382,0,0,1-.378.328" transform="translate(-1096.061 -453.708)" fill="#363e44"/>
          <path id="Path_924870" data-name="Path 924870" d="M1349.964,514.553a.381.381,0,0,1-.25-.67c.321-.278.608-.536.906-.8.249-.224.505-.455.795-.709a.381.381,0,1,1,.5.573c-.287.253-.542.481-.788.7-.3.272-.592.533-.916.814a.381.381,0,0,1-.25.093" transform="translate(-1116.71 -424.296)" fill="#363e44"/>
          <path id="Path_924871" data-name="Path 924871" d="M1340.166,396.609a5.017,5.017,0,0,0-3.1-6.387l-.012,0a4.315,4.315,0,0,0-3.127-7.307,4.319,4.319,0,0,0-6.309-4.925,5.039,5.039,0,0,0-9.565-.721c-.118-.053-.237-.1-.361-.146a4.322,4.322,0,1,0-2.838,8.166c.065.023.131.038.2.057-1.072,4.084,3,5.992,3.225,6.139l-3.3,4.991c.63.435,1.369,1,2,1.437,1.057-1.782,2.067-2.27,3.2-2.1a3.34,3.34,0,0,1,2.438,4.053,4.206,4.206,0,0,1-3.172,3.306c1.7.617,3.488,1.214,5.376,1.774q1.477.438,2.9.81a12.026,12.026,0,0,0,7.43-5.781,5.026,5.026,0,0,0,5.013-3.365" transform="translate(-1085.587 -310.055)" fill="#363e44"/>
          <path id="Path_924872" data-name="Path 924872" d="M1081.349,1648.125l17.037,6.16,5.065-23.006-18.026-3.586Z" transform="translate(-894.894 -1346.695)" fill="#bc8271"/>
          <path id="Path_924873" data-name="Path 924873" d="M1014.8,1742.431l-4.262-17.672H992.072l-8.856,2.416c-6.426,1.738-10.761,8.915-10.7,15.256Z" transform="translate(-804.892 -1426.964)" fill="#363e44"/>
          <rect id="Rectangle_409131" data-name="Rectangle 409131" width="18.539" height="12.74" transform="translate(236.467 286.639)" fill="#bc8271"/>
          <path id="Path_924874" data-name="Path 924874" d="M1356.6,1724.758h18.539s4.027,5.662,5.15,8.836a51.665,51.665,0,0,1,2.021,8.836h-28.591Z" transform="translate(-1120.129 -1426.963)" fill="#363e44"/>
          <path id="Path_924875" data-name="Path 924875" d="M1124.758,991.84l-15.191,77.777h-28.939l20.5-129.791,52.385,3.031,1.763,126.76h-26.949Z" transform="translate(-894.298 -777.861)" fill="#6b4502"/>
          <path id="Path_924876" data-name="Path 924876" d="M930.836,339.487s-9.554-16.239-12.808-24.136a12.263,12.263,0,0,1-1.069-3.555,7.828,7.828,0,0,0-.315-2.211c-1.086-3.629-4.283-4.093-7.168-7.389-3.274-3.74-3-7.7-4.268-7.673-.883.016-1.408,1.48-1.3,4.611h0c-.353-2.37-.973-5.563-2.284-5.364-1.5.31-1.214,4.147-.927,6.46-.348-2.8-1.371-4.184-2.074-3.891-1.107.461-1.343,2.694-.74,6.376h0c-1.127-2.426-1.763-2.847-2.321-2.437-1.02.749-.61,4.1.289,6.688,1.011,2.919,4.337,7.2,5.024,8.7,1.416,3.1,13.379,33.071,14.093,33.865,4.114,4.578,15.874-10.046,15.874-10.046" transform="translate(-740.758 -243.595)" fill="#bc8271"/>
          <path id="Path_924877" data-name="Path 924877" d="M991.785,335.42c.274-4.908,1.414-6.62,2.192-6.552,1.307.115,2.512,4.052,3.016,11.275-1.655-1.276-3.552-3.448-5.208-4.724" transform="translate(-820.829 -272.626)" fill="#bc8271"/>
          <path id="Path_924878" data-name="Path 924878" d="M994.771,356.809a.38.38,0,0,1-.291-.134c-.2-.23-.4-.474-.605-.725a21.235,21.235,0,0,0-3.008-3.159.381.381,0,0,1,.474-.6,21.81,21.81,0,0,1,3.122,3.27c.206.25.406.491.6.718a.381.381,0,0,1-.291.629" transform="translate(-819.95 -291.847)" fill="#363e44"/>
          <path id="Path_924879" data-name="Path 924879" d="M948.9,331.86a.381.381,0,0,1-.3-.142,10.086,10.086,0,0,1-1.981-4.075.382.382,0,0,1,.744-.172,9.32,9.32,0,0,0,1.831,3.767.382.382,0,0,1-.3.621" transform="translate(-783.471 -271.228)" fill="#363e44"/>
          <path id="Path_924880" data-name="Path 924880" d="M930.157,336.087a.381.381,0,0,1-.3-.142,10.08,10.08,0,0,1-1.981-4.075.382.382,0,0,1,.744-.171,9.312,9.312,0,0,0,1.831,3.767.382.382,0,0,1-.3.621" transform="translate(-767.973 -274.723)" fill="#363e44"/>
          <path id="Path_924881" data-name="Path 924881" d="M913.573,352.537a.381.381,0,0,1-.3-.142,10.095,10.095,0,0,1-1.981-4.075.382.382,0,0,1,.744-.172,9.331,9.331,0,0,0,1.831,3.767.382.382,0,0,1-.3.621" transform="translate(-754.259 -288.327)" fill="#363e44"/>
          <path id="Path_924882" data-name="Path 924882" d="M1075.188,491.518c-5.9-17.506-49.835-33.088-60.422-35-8.1-1.46-44.747-9.2-44.747-9.2l-10.76-21.666L942.25,435.36s8.069,24.772,13.016,30.679c5.677,6.778,27.594,16.817,27.594,16.817L979.273,524.8l64.252,7.133-1.451-36.108,8.47,3.663-8.331,13.346,16.01,11.05s20.887-20.732,16.964-32.369" transform="translate(-779.866 -352.665)" fill="#025974"/>
          <path id="Path_924883" data-name="Path 924883" d="M1465.521,930.472l-6.241,8.5c-2.105,2.867-7.493,9.983-4.644,12.08.71.523,1.985.142,2.739-.776a2.45,2.45,0,0,0,.9,3.148c1.274.649,2.9-.948,2.98-1a2.17,2.17,0,0,0,.665,2.819c.955.524,2.194-.313,3.02-1.219a1.815,1.815,0,0,0,.782,2.5c.928.413,2.064-.273,3.255-1.647.7-.956,11.209-14.267,11.209-14.267Z" transform="translate(-1202.913 -770.126)" fill="#bc8271"/>
          <path id="Path_924884" data-name="Path 924884" d="M1466.193,1004.273a1.668,1.668,0,0,1-.862-.239l-15.148-9.088a3.374,3.374,0,1,1,3.477-5.783l15.148,9.088a1.677,1.677,0,0,1,.575,2.3l-1.747,2.906a1.682,1.682,0,0,1-1.443.814m-14.267-14.827a2.615,2.615,0,0,0-2.244,1.266h0a2.607,2.607,0,0,0,.895,3.58l15.148,9.088a.918.918,0,0,0,1.258-.314l1.747-2.906a.914.914,0,0,0-.313-1.255l-15.148-9.088a2.6,2.6,0,0,0-1.341-.372m-2.572,1.069h0Z" transform="translate(-1198.547 -818.264)" fill="#84524d"/>
          <path id="Path_924885" data-name="Path 924885" d="M1563.219,1062.443a.381.381,0,0,1-.2-.054l-8.14-4.883a.382.382,0,0,1-.131-.524l1.751-2.91a.381.381,0,0,1,.523-.13l8.2,4.92a.382.382,0,1,1-.393.655l-7.875-4.725-1.357,2.257,7.812,4.687a.381.381,0,0,1-.2.708" transform="translate(-1286.332 -872.184)" fill="#84524d"/>
          <path id="Path_924886" data-name="Path 924886" d="M1610.16,1077.384a19.4,19.4,0,1,1,14.518-6.488,19.364,19.364,0,0,1-14.518,6.488m.021-38.033a18.641,18.641,0,1,0,12.408,4.715,18.637,18.637,0,0,0-12.408-4.715" transform="translate(-1316.136 -859.533)" fill="#84524d"/>
          <path id="Path_924887" data-name="Path 924887" d="M1608.938,1077.616h-.021a.381.381,0,0,1-.36-.4,16.369,16.369,0,0,1,10.191-14.246.381.381,0,1,1,.286.707,15.608,15.608,0,0,0-9.715,13.58.381.381,0,0,1-.38.361" transform="translate(-1330.87 -879.67)" fill="#84524d"/>
          <path id="Path_924888" data-name="Path 924888" d="M1781.277,1107.263a.382.382,0,0,1-.381-.373,15.553,15.553,0,0,0-2.514-8.134.382.382,0,0,1,.64-.417,16.32,16.32,0,0,1,2.638,8.532.382.382,0,0,1-.373.391Z" transform="translate(-1471.256 -908.802)" fill="#84524d"/>
          <path id="Path_924889" data-name="Path 924889" d="M1737.817,1176.224a.382.382,0,0,1-.151-.732,15.616,15.616,0,0,0,9.222-11.8.382.382,0,1,1,.753.123,16.382,16.382,0,0,1-9.673,12.38.382.382,0,0,1-.151.031" transform="translate(-1437.447 -962.722)" fill="#84524d"/>
          <path id="Path_924890" data-name="Path 924890" d="M1610.958,1162.348a.381.381,0,0,1-.334-.2,16.458,16.458,0,0,1-1.974-6.707.381.381,0,0,1,.353-.408.376.376,0,0,1,.408.353,15.7,15.7,0,0,0,1.881,6.395.381.381,0,0,1-.334.565" transform="translate(-1330.946 -955.828)" fill="#84524d"/>
          <path id="Path_924891" data-name="Path 924891" d="M1456.428,1013.037c.74-1.38,2.56-3.207,3.633-2.814,1.041.381,1.247,2.675.694,4.127.839-1.471,2.272-2.248,3.081-1.907.921.389,1.15,2.188.477,4.16,1.217-1.752,2.673-2.477,3.514-2.058s.933,2.037.13,3.835c1.063-1.407,2.553-2.651,3.31-2.21.718.417.125,3.713-.745,5.258Z" transform="translate(-1205.067 -836.031)" fill="#bc8271"/>
          <path id="Path_924892" data-name="Path 924892" d="M1474.226,1017.535a.382.382,0,0,1-.331-.57c.858-1.506.993-3.62.651-3.817-.418-.241-1.571.343-2.557,1.565l-.208.258-.316-.163a.4.4,0,0,1-.166-.507c.638-1.515.488-2.719-.016-2.967-.555-.271-1.722.233-2.8,1.7l-.193.263-.322-.141a.4.4,0,0,1-.2-.485c.561-1.741.286-3.077-.291-3.318-.529-.222-1.631.325-2.365,1.463l-.181.28-.335-.131a.407.407,0,0,1-.213-.491c.408-1.3.144-2.982-.506-3.217-.763-.274-2.021.862-2.67,2.056a.381.381,0,1,1-.671-.364c.816-1.5,2.354-2.859,3.6-2.41.922.334,1.256,1.623,1.2,2.852a2.485,2.485,0,0,1,2.437-.743c.818.341,1.189,1.468,1.028,2.882.992-.912,2.043-1.264,2.819-.883.732.359,1.012,1.327.805,2.54.854-.7,1.808-1.1,2.5-.7,1,.573.491,3.349-.368,4.856a.382.382,0,0,1-.332.193m-9.753-7.131h0" transform="translate(-1208.428 -832.96)" fill="#363e44"/>
        </g>
      </g>
    </g>
  </g>
</svg>
