<svg xmlns="http://www.w3.org/2000/svg" xmlns:xlink="http://www.w3.org/1999/xlink" width="99" height="99" viewBox="0 0 99 99">
  <defs>
    <clipPath id="clip-path">
      <rect id="Rectangle_401223" data-name="Rectangle 401223" width="99" height="99" transform="translate(0)" fill="#8ce6fe"/>
    </clipPath>
    <clipPath id="clip-path-2">
      <rect id="Rectangle_401223-2" data-name="Rectangle 401223" width="88.539" height="88.539" fill="#f3f9ff"/>
    </clipPath>
    <clipPath id="clip-path-3">
      <rect id="Rectangle_408911" data-name="Rectangle 408911" width="65.71" height="61.765" fill="none"/>
    </clipPath>
  </defs>
  <g id="Group_1119461" data-name="Group 1119461" transform="translate(-619.921 -5755.871)">
    <g id="Group_1100724" data-name="Group 1100724" transform="translate(619.921 5755.871)">
      <g id="Group_1099654" data-name="Group 1099654" transform="translate(0 0)">
        <g id="Mask_Group_1099652" data-name="Mask Group 1099652" clip-path="url(#clip-path)">
          <path id="Path_873521" data-name="Path 873521" d="M99,77.066A22,22,0,0,1,77.066,99H21.934A22,22,0,0,1,0,77.066V21.933A22,22,0,0,1,21.934,0H77.066A22,22,0,0,1,99,21.934Z" transform="translate(0)" fill="#ffdcd6"/>
        </g>
      </g>
      <g id="Group_1099659" data-name="Group 1099659" transform="translate(4.77 5.723)">
        <g id="Group_1099652" data-name="Group 1099652" transform="translate(0 0)" clip-path="url(#clip-path-2)">
          <path id="Path_873521-2" data-name="Path 873521" d="M88.539,68.922A19.674,19.674,0,0,1,68.923,88.539H19.616A19.674,19.674,0,0,1,0,68.922V19.616A19.674,19.674,0,0,1,19.616,0H68.923A19.674,19.674,0,0,1,88.539,19.616Z" fill="#f3f9ff"/>
        </g>
      </g>
    </g>
    <g id="Group_1100725" data-name="Group 1100725" transform="translate(636.343 5771.293)">
      <rect id="Rectangle_401104" data-name="Rectangle 401104" width="68" height="69" transform="translate(0.29 -0.116)" fill="none"/>
      <g id="Group_1118998" data-name="Group 1118998" transform="translate(1.29 3.885)">
        <g id="Group_1118997" data-name="Group 1118997" transform="translate(0 0)" clip-path="url(#clip-path-3)">
          <path id="Path_922999" data-name="Path 922999" d="M38.991,60.03c-10.059-6.985-11.795-4.729-20.878-.6-9.841,4.475-15.77.167-16.37-7.1-1.228-14.867,18.1-8.11,16.135-23.894-1.448-11.63,3.857-16.7,10.98-17.836,7.047-1.125,16.9,1.376,16.326,12.38-.319,6.087,8.475,8.628,14.179,11.568,8.578,4.422,7.274,15.69,3.759,20.764-5.908,8.528-14.727,11.247-24.13,4.717" transform="translate(-0.308 -1.892)" fill="#f0f8ff"/>
          <path id="Path_923000" data-name="Path 923000" d="M42.93,56.607s8.269.5,8.993-1.424-.428-4.451,2.535-6.082,4.3-4.189,5.572-3.488c1.644.9.148,2.833-1.561,4.568a4.368,4.368,0,0,0-1.028,5.058c1.033,2.645-2.456,3.322-2.551,6.651-.04,1.362-2.873,5.616-9.845,2.672Z" transform="translate(-7.845 -8.313)" fill="#c2c23c"/>
          <path id="Path_923001" data-name="Path 923001" d="M28.772,51.717S18.321,56.3,16.31,54.15s-1.925-5.986-6.679-6.694-7.91-3.4-9.174-1.878c-1.63,1.958,1.387,3.751,4.573,5.193a6.424,6.424,0,0,1,4.153,6.083C9.317,60.781,14.22,60,16.2,64.28c.811,1.751,6.859,5.928,14.262-1.219Z" transform="translate(2.34 -5.899)" fill="#c2c23c"/>
          <path id="Path_923002" data-name="Path 923002" d="M33.788,65.426c-4.063.466-18.393-5.446-18.536-5.506l.051-.1c.144.06,14.447,5.961,18.48,5.5Z" transform="translate(-2.787 -10.932)" fill="#969924"/>
          <path id="Path_923003" data-name="Path 923003" d="M22.9,62.792a2.05,2.05,0,0,1-1.319.53l-.007-.1c.742-.1,1.192-.312,1.337-.642.239-.546-.425-1.237-.432-1.245l.086-.074c.029.03.715.748.449,1.353a.756.756,0,0,1-.114.182" transform="translate(-3.942 -11.194)" fill="#969924"/>
          <path id="Path_923004" data-name="Path 923004" d="M18.742,61.227a2.047,2.047,0,0,1-1.319.531l-.007-.105c.744-.095,1.193-.311,1.337-.642.24-.545-.424-1.238-.432-1.245l.086-.074c.03.03.717.747.45,1.353a.764.764,0,0,1-.115.181" transform="translate(-3.183 -10.908)" fill="#969924"/>
          <path id="Path_923005" data-name="Path 923005" d="M16.3,60.36a2.052,2.052,0,0,1-1.32.53l-.008-.1c.744-.1,1.194-.312,1.338-.642.239-.546-.425-1.239-.432-1.245l.086-.074c.029.029.715.745.449,1.353a.728.728,0,0,1-.114.182" transform="translate(-2.736 -10.75)" fill="#969924"/>
          <path id="Path_923006" data-name="Path 923006" d="M21.072,62.127a1.713,1.713,0,0,1-1.1.443l-.007-.1c.61-.079.982-.256,1.1-.526.2-.445-.35-1.017-.356-1.022l.085-.074c.025.025.6.623.374,1.129a.6.6,0,0,1-.1.154" transform="translate(-3.649 -11.119)" fill="#969924"/>
          <path id="Path_923007" data-name="Path 923007" d="M24.989,63.53a2.052,2.052,0,0,1-1.319.53l-.008-.105c.743-.095,1.192-.311,1.337-.642.239-.545-.425-1.238-.432-1.245l.086-.074c.03.03.716.747.45,1.353a.765.765,0,0,1-.114.182" transform="translate(-4.324 -11.329)" fill="#969924"/>
          <path id="Path_923008" data-name="Path 923008" d="M27.328,64.546a2.058,2.058,0,0,1-1.319.531L26,64.972c.743-.1,1.194-.312,1.338-.642.239-.545-.425-1.237-.432-1.245l.086-.074c.029.029.715.746.449,1.353a.765.765,0,0,1-.114.182" transform="translate(-4.752 -11.515)" fill="#969924"/>
          <path id="Path_923009" data-name="Path 923009" d="M29.345,65.108a1.473,1.473,0,0,1-.95.382l-.007-.105c.521-.066.836-.217.937-.445.166-.378-.3-.864-.3-.869L29.106,64c.021.021.515.538.322.977a.58.58,0,0,1-.083.134" transform="translate(-5.188 -11.695)" fill="#969924"/>
          <path id="Path_923010" data-name="Path 923010" d="M25.609,63.558s-3.527.543-3.682-2.683-1.161-4.662-4.5-6.2-3.981-3.437-3.619-5.82-5.478-3.338-3.821-5.78c2.647-3.9.742-5.3-1.464-6.241-2.477-1.059-3.933-4.091-.826-4.635s6.363,3.321,6.957,5.163,1.42,3.527,5.049,3.881,4.96,1.567,6.109,3.925S26.334,47.6,29.985,50Z" transform="translate(1.256 -3.528)" fill="#969924"/>
          <path id="Path_923011" data-name="Path 923011" d="M35.119,61.386c-5.6-1.963-20.311-18.619-20.458-18.785l.132-.093c.147.168,14.832,16.791,20.388,18.74Z" transform="translate(-2.679 -7.768)" fill="#c2c23c"/>
          <path id="Path_923012" data-name="Path 923012" d="M22.41,51.254a3.044,3.044,0,0,1-2.07-.149l.06-.14c1.03.344,1.76.35,2.168.016.674-.552.27-1.863.266-1.876l.16-.042c.018.058.434,1.414-.315,2.027a1.112,1.112,0,0,1-.27.163" transform="translate(-3.717 -8.966)" fill="#c2c23c"/>
          <path id="Path_923013" data-name="Path 923013" d="M18.043,46.618a3.043,3.043,0,0,1-2.07-.148l.06-.141c1.032.347,1.761.351,2.168.017.675-.551.271-1.863.267-1.876l.16-.041c.02.058.436,1.415-.315,2.028a1.118,1.118,0,0,1-.271.161" transform="translate(-2.919 -8.119)" fill="#c2c23c"/>
          <path id="Path_923014" data-name="Path 923014" d="M15.446,43.961a3.046,3.046,0,0,1-2.07-.15l.06-.14c1.03.346,1.76.351,2.168.017.674-.552.271-1.863.266-1.876l.16-.041c.019.056.435,1.412-.315,2.026a1.1,1.1,0,0,1-.27.163" transform="translate(-2.444 -7.633)" fill="#c2c23c"/>
          <path id="Path_923015" data-name="Path 923015" d="M20.527,49.224A2.542,2.542,0,0,1,18.8,49.1l.06-.14c.847.284,1.449.29,1.782.016.551-.45.221-1.531.217-1.541l.159-.041c.016.047.363,1.178-.265,1.691a.9.9,0,0,1-.228.138" transform="translate(-3.436 -8.661)" fill="#c2c23c"/>
          <path id="Path_923016" data-name="Path 923016" d="M24.641,53.524a3.05,3.05,0,0,1-2.07-.15l.06-.141c1.03.347,1.76.351,2.167.017.674-.551.271-1.863.267-1.876l.161-.04c.019.057.434,1.413-.315,2.027a1.123,1.123,0,0,1-.271.163" transform="translate(-4.125 -9.381)" fill="#c2c23c"/>
          <path id="Path_923017" data-name="Path 923017" d="M27.008,56.309a3.047,3.047,0,0,1-2.07-.148L25,56.02c1.031.345,1.761.351,2.168.016.674-.551.271-1.862.267-1.875l.16-.042c.018.056.435,1.413-.315,2.026a1.092,1.092,0,0,1-.27.163" transform="translate(-4.557 -9.89)" fill="#c2c23c"/>
          <path id="Path_923018" data-name="Path 923018" d="M29.344,58.267a2.185,2.185,0,0,1-1.491-.106l.061-.14c.722.243,1.232.247,1.514.017.468-.382.185-1.3.182-1.312l.161-.04c.013.04.312,1.017-.23,1.461a.872.872,0,0,1-.2.119" transform="translate(-5.09 -10.359)" fill="#c2c23c"/>
          <path id="Path_923019" data-name="Path 923019" d="M46.229,69.167c3.29-2.046,10.31-14.756,10.379-14.883l-.1-.041c-.07.127-7.076,12.813-10.342,14.845Z" transform="translate(-8.437 -9.912)" fill="#969924"/>
          <path id="Path_923020" data-name="Path 923020" d="M54.847,60.982a1.986,1.986,0,0,0,1.3-.389l-.058-.08c-.608.365-1.072.472-1.38.318-.508-.256-.436-1.149-.436-1.158l-.108,0c0,.039-.076.964.489,1.248a.733.733,0,0,0,.2.065" transform="translate(-9.897 -10.904)" fill="#969924"/>
          <path id="Path_923021" data-name="Path 923021" d="M56.974,57.406a1.988,1.988,0,0,0,1.3-.388l-.059-.081c-.608.367-1.073.474-1.38.319C56.327,57,56.4,56.106,56.4,56.1l-.108,0c0,.04-.077.964.489,1.248a.741.741,0,0,0,.2.065" transform="translate(-10.286 -10.25)" fill="#969924"/>
          <path id="Path_923022" data-name="Path 923022" d="M58.253,55.343a1.987,1.987,0,0,0,1.3-.39l-.057-.081c-.608.367-1.073.474-1.38.319-.508-.256-.437-1.15-.436-1.158l-.109,0c0,.039-.076.962.489,1.247a.706.706,0,0,0,.2.066" transform="translate(-10.52 -9.873)" fill="#969924"/>
          <path id="Path_923023" data-name="Path 923023" d="M55.823,59.406a1.661,1.661,0,0,0,1.084-.324L56.848,59c-.5.3-.883.391-1.134.262-.415-.208-.358-.944-.357-.951l-.108,0c0,.033-.065.8.409,1.041a.587.587,0,0,0,.165.056" transform="translate(-10.096 -10.655)" fill="#969924"/>
          <path id="Path_923024" data-name="Path 923024" d="M53.747,62.746a1.99,1.99,0,0,0,1.3-.389l-.058-.082c-.607.368-1.071.474-1.38.319-.508-.255-.437-1.149-.436-1.158l-.109,0c0,.039-.076.963.489,1.248a.743.743,0,0,0,.2.065" transform="translate(-9.696 -11.226)" fill="#969924"/>
          <path id="Path_923025" data-name="Path 923025" d="M52.633,64.859a1.993,1.993,0,0,0,1.3-.388l-.058-.081c-.608.366-1.074.473-1.38.318-.508-.256-.437-1.148-.436-1.158l-.109,0c0,.038-.076.963.489,1.247a.743.743,0,0,0,.2.065" transform="translate(-9.493 -11.612)" fill="#969924"/>
          <path id="Path_923026" data-name="Path 923026" d="M51.527,66.414a1.43,1.43,0,0,0,.935-.28l-.058-.08c-.426.257-.751.332-.964.226-.353-.177-.3-.8-.3-.81l-.109,0c0,.028-.055.693.355.9a.589.589,0,0,0,.143.048" transform="translate(-9.325 -11.964)" fill="#969924"/>
          <path id="Path_923027" data-name="Path 923027" d="M58.233,19.235c0,1.465-8.313,2.583-18.377,2.583S21.481,20.7,21.481,19.235s8.311-2.719,18.375-2.719,18.377,1.254,18.377,2.719" transform="translate(-3.926 -3.018)" fill="#07c3f3"/>
          <path id="Path_923028" data-name="Path 923028" d="M29.459,24.676c-.171-.251-4.163-6.2-3.14-11.088A6.389,6.389,0,0,1,29.3,9.369a12.745,12.745,0,0,1,2.423-1.218C32.31,5.077,34.1,3.063,36.91,2.506a9.7,9.7,0,0,1,3-.17A5.412,5.412,0,0,1,42.486.365c2.623-1,5.858.1,7.866,2.653a8.707,8.707,0,0,1,1.489,2.83,8.007,8.007,0,0,1,2.507.417,4.086,4.086,0,0,1,2.431,2.5c.839,2.343-.1,5.6-2.8,9.677l-.682-.45c3.168-4.8,3.221-7.516,2.707-8.951a3.282,3.282,0,0,0-1.91-2,7.287,7.287,0,0,0-2.05-.38A11.642,11.642,0,0,1,49.8,15.516a4.18,4.18,0,0,1-2.907,1.736h-.012A3.247,3.247,0,0,1,44.3,15.68c-1.108-1.511-.762-4.021.861-6.245A8.681,8.681,0,0,1,50.994,5.9a7.877,7.877,0,0,0-1.285-2.374C47.919,1.244,45.068.259,42.776,1.129A4.645,4.645,0,0,0,40.793,2.5a4.456,4.456,0,0,1,3.291,3.132c.522,1.694.748,3.893-.185,4.979a1.943,1.943,0,0,1-1.873.6C40.581,11,39.24,8.925,38.976,6.491a6.359,6.359,0,0,1,.486-3.379,9.417,9.417,0,0,0-2.395.195A5.571,5.571,0,0,0,32.6,7.888a4.362,4.362,0,0,1,3.541.452c1.912,1.26,2.406,4.119,2.047,6.392a3.873,3.873,0,0,1-3.353,2.818h-.011c-.891,0-2.457-.521-3.038-3.984a16.7,16.7,0,0,1-.2-4.485,12.8,12.8,0,0,0-1.851.981,5.6,5.6,0,0,0-2.618,3.692C26.167,18.3,30.1,24.159,30.135,24.217Zm2.975-15.9a15.588,15.588,0,0,0,.156,4.654c.357,2.13,1.149,3.3,2.231,3.3h.007A3.1,3.1,0,0,0,37.379,14.6c.307-1.949-.091-4.528-1.691-5.582a3.787,3.787,0,0,0-3.254-.246M51.212,6.686a7.692,7.692,0,0,0-5.39,3.23c-1.39,1.906-1.744,4.077-.861,5.28a2.49,2.49,0,0,0,1.916,1.239h.008a3.393,3.393,0,0,0,2.243-1.389c1.952-2.838,2.654-5.781,2.085-8.361m-10.9-3.464A5.694,5.694,0,0,0,39.789,6.4c.238,2.188,1.433,3.865,2.357,4a1.16,1.16,0,0,0,1.134-.326c.671-.781.5-2.676.024-4.206a3.709,3.709,0,0,0-2.989-2.65" transform="translate(-4.779 0)" fill="#025974"/>
          <path id="Path_923029" data-name="Path 923029" d="M38.691,22.467c-9.532,0-17.372-1.042-18.326-2.377.116,4.087.286,4.246-1.773,6.2-2.713,2.578-3.649,2.462-3.461,4.4.183,1.894,2.693,1.272,3.5,1.886,1.434,1.084.4,2.342-.731,3.147s-1.482,1.877-.312,3.062c0,0-1.292,1.341,0,2.248s2.734-.228,1.5,2.189.687,4.624,4.725,3.927c1.773-.306,4.345-1.438,5.65.2s-.339,10.307-2.711,13.358,19.277,4.472,21.6.011c.744-1.427-3.593-6.538-3.262-9.479s1.306-4.714,4.426-9.532c4.079-6.3,7.537-14.557,7.51-21.644-.879,1.347-8.754,2.4-18.34,2.4" transform="translate(-2.761 -3.667)" fill="#8ce6fe"/>
          <path id="Path_923030" data-name="Path 923030" d="M79.718,36.211c.369,1.514-.616,5.864-.616,5.864l-.947-1.017L77.77,36.3s1.577-1.6,1.948-.088" transform="translate(-14.212 -6.498)" fill="#fbb99d"/>
          <path id="Path_923031" data-name="Path 923031" d="M79.215,35.879s-.3-3.827-1.757-4.95a2.274,2.274,0,0,0-2.853.11s2.712,3.4,2.694,5.584,1.916-.745,1.916-.745" transform="translate(-13.634 -5.566)" fill="#fbb99d"/>
          <path id="Path_923032" data-name="Path 923032" d="M77.661,42.885a1,1,0,0,0-.276.534c-.018.131,0,.264-.008.4a3.38,3.38,0,0,1-.206.8.474.474,0,0,0-.028.174.154.154,0,0,0,.264.114.414.414,0,0,0,.105-.152,2.287,2.287,0,0,1,.279-.565.214.214,0,0,1,.2-.091c.106.026.129.166.123.275a1.3,1.3,0,0,1-.128.557.6.6,0,0,1-.445.329c-.118.012-.26-.012-.335.079a.2.2,0,0,0,.047.268.424.424,0,0,0,.285.075,1.957,1.957,0,0,0,.351-.055,1.8,1.8,0,0,0,.675-.243,1.255,1.255,0,0,0,.468-.826,5.083,5.083,0,0,0,.026-.973,9.464,9.464,0,0,1,.061-1.291.722.722,0,0,0-.065-.519.6.6,0,0,0-.25-.175.919.919,0,0,0-.349-.092.431.431,0,0,0-.329.129.675.675,0,0,0-.078.554c.016.11.086.284,0,.378-.106.122-.275.2-.389.32" transform="translate(-14.097 -7.584)" fill="#fbb99d"/>
          <path id="Path_923033" data-name="Path 923033" d="M75.6,29.456a3.357,3.357,0,0,1,3.219,2.551c.856,2.344.652,2.234.652,2.234l-2.2.579s-2.533-3.7-1.669-5.364" transform="translate(-13.783 -5.382)" fill="#fce6d9"/>
          <path id="Path_923034" data-name="Path 923034" d="M75.491,49.218,66.82,42.87l.171-1.3,8.244-.65Z" transform="translate(-12.211 -7.478)" fill="#025974"/>
          <path id="Path_923035" data-name="Path 923035" d="M66.868,69.15s-.333.4-.723.95-.686,1.116-.137,1.377,1.213-.38,1.427-.76.459-.338.755-.591.14-1.189.14-1.189Z" transform="translate(-12.008 -12.598)" fill="#feb801"/>
          <path id="Path_923036" data-name="Path 923036" d="M71.982,46.467c-.8,1.051-3.464,17.975-3.464,17.975-.8.7-2,0-2,0-.867-8.629.205-21.447.205-21.447s6.058,4.523,5.258,3.473" transform="translate(-12.094 -7.857)" fill="#025974"/>
          <path id="Path_923037" data-name="Path 923037" d="M76.552,69.49s.333.4.723.95.685,1.116.137,1.377-1.213-.38-1.428-.76-.459-.338-.755-.591-.14-1.188-.14-1.188Z" transform="translate(-13.715 -12.66)" fill="#feb801"/>
          <path id="Path_923038" data-name="Path 923038" d="M70.72,46.631c.8,1.05,3.464,17.975,3.464,17.975.8.7,2,0,2,0,.867-8.63-.074-22.232-.074-22.232s-6.189,5.307-5.389,4.257" transform="translate(-12.911 -7.743)" fill="#025974"/>
          <path id="Path_923039" data-name="Path 923039" d="M62.346,35.066s3.569-.751,4.556-2.285a2.055,2.055,0,0,0-.14-2.628s-3.151,2.917-5.2,3.164.78,1.75.78,1.75" transform="translate(-11.115 -5.51)" fill="#fbb99d"/>
          <path id="Path_923040" data-name="Path 923040" d="M69.463,29.238s.347-.023.092,1.7c-.315,2.128-3.883,3.374-3.883,3.374L63.82,32.28s3.419-3.042,5.643-3.042" transform="translate(-11.663 -5.343)" fill="#fce6d9"/>
          <path id="Path_923041" data-name="Path 923041" d="M68,30.724c.567-1.887,3.3-1.984,5.525-1.635,1.5.236,2.344,1.259,2.346,3.1,0,1.21.1,6.306-.633,7.743,0,0-2.5,1.921-8.281-.4A31.731,31.731,0,0,1,68,30.724" transform="translate(-12.236 -5.287)" fill="#fce6d9"/>
          <path id="Path_923042" data-name="Path 923042" d="M62.362,35.572c-1.4.538-4.51.145-4.51.145l.239-1.088,4.1-.917s1.568,1.321.168,1.86" transform="translate(-10.572 -6.16)" fill="#fbb99d"/>
          <path id="Path_923043" data-name="Path 923043" d="M56.034,34.539c-.491-.136-.964-.328-1.457-.454a1.569,1.569,0,0,0-.423-.063.286.286,0,0,0-.154.038.123.123,0,0,0-.052.14c.021.048.082.082.076.134-.008.07-.116.066-.167.115a.125.125,0,0,0,0,.159.358.358,0,0,0,.136.1l.4.21a.35.35,0,0,1-.225.1.385.385,0,0,0-.106.011.077.077,0,0,0-.056.081.105.105,0,0,0,.037.05,1.49,1.49,0,0,0,.71.3,7,7,0,0,1,.766.147.429.429,0,0,1,.289.205.49.49,0,0,1-.094.422l-.185.312c-.047.079-.087.195-.014.251a.173.173,0,0,0,.157.006,2.227,2.227,0,0,0,.661-.472,2.652,2.652,0,0,1,1.358-.584.374.374,0,0,0,.12-.028.288.288,0,0,0,.119-.123,1.053,1.053,0,0,0,.145-.663.234.234,0,0,0-.032-.1.231.231,0,0,0-.1-.074,1.72,1.72,0,0,0-.852-.066,3.809,3.809,0,0,1-1.054-.159" transform="translate(-9.837 -6.217)" fill="#fbb99d"/>
          <path id="Path_923044" data-name="Path 923044" d="M73.127,30.032a82.962,82.962,0,0,1-.709,10.206l-.71.046a47.454,47.454,0,0,0,.808-10.252Z" transform="translate(-13.104 -5.488)" fill="#fdfefd"/>
          <path id="Path_923045" data-name="Path 923045" d="M75.5,42.589S70.085,43.679,66.7,42l.231-.9a16.417,16.417,0,0,0,8.483.454Z" transform="translate(-12.189 -7.512)" fill="#70649b"/>
          <path id="Path_923046" data-name="Path 923046" d="M74.037,41.809h-.482l-.114,1.5h.794Z" transform="translate(-13.421 -7.64)" fill="#8172a9"/>
          <path id="Path_923047" data-name="Path 923047" d="M69.845,41.572l-.349-.114-.6,1.374.716.233Z" transform="translate(-12.591 -7.576)" fill="#8172a9"/>
          <path id="Path_923048" data-name="Path 923048" d="M73.169,31.367a.159.159,0,0,0,.012-.226.161.161,0,0,0-.226-.012.159.159,0,0,0-.013.226.162.162,0,0,0,.227.012" transform="translate(-13.322 -5.681)" fill="#edd0c3"/>
          <path id="Path_923049" data-name="Path 923049" d="M73.169,33.2a.159.159,0,0,0,.012-.226.161.161,0,0,0-.226-.012.158.158,0,0,0-.013.225.161.161,0,0,0,.227.013" transform="translate(-13.322 -6.016)" fill="#edd0c3"/>
          <path id="Path_923050" data-name="Path 923050" d="M73.083,34.875a.162.162,0,0,0-.227-.012.158.158,0,0,0-.012.225.16.16,0,1,0,.239-.212" transform="translate(-13.304 -6.363)" fill="#edd0c3"/>
          <path id="Path_923051" data-name="Path 923051" d="M72.66,37.089a.159.159,0,0,0-.012.226.161.161,0,0,0,.226.012.159.159,0,0,0,.013-.226.162.162,0,0,0-.227-.012" transform="translate(-13.269 -6.77)" fill="#edd0c3"/>
          <path id="Path_923052" data-name="Path 923052" d="M72.489,39.629a.165.165,0,0,0-.012.226.15.15,0,0,0,.217.012.165.165,0,0,0,.012-.226.15.15,0,0,0-.217-.012" transform="translate(-13.238 -7.234)" fill="#edd0c3"/>
          <path id="Path_923053" data-name="Path 923053" d="M76.21,33.928H74.561l.078-.081c-.037.533-.022,1.609.6,1.781.586.163.968-.4,1-.933a2.523,2.523,0,0,0-.1-.826.078.078,0,0,1,.15-.042c.23.781.109,2.067-.955,1.981-.823-.067-.891-1.317-.847-1.96a.082.082,0,0,1,.078-.081H76.21a.081.081,0,0,1,0,.162" transform="translate(-13.61 -6.17)" fill="#edd0c3"/>
          <path id="Path_923054" data-name="Path 923054" d="M69.152,33.376l1.71.194a.081.081,0,0,1,.078.081c.009.761-.233,2.05-1.2,1.932s-.874-1.428-.659-2.147a.078.078,0,1,1,.15.042,2.577,2.577,0,0,0-.083,1.4.727.727,0,0,0,.927.517,1.1,1.1,0,0,0,.6-.817c.071-.261.06-.528.114-.787.01-.045,0-.094,0-.139-.027.22.136.025.023.072-.029.012-.112-.013-.143-.016l-1.512-.172c-.1-.011-.1-.173,0-.162" transform="translate(-12.597 -6.099)" fill="#edd0c3"/>
          <path id="Path_923055" data-name="Path 923055" d="M74.159,26.386s-2.29.511-2.162.705-.1.585-.1.964a2.185,2.185,0,0,1-.623,1.262c-.247.291.192.638.582.714,1.681.329,2.743-.324,2.387-.889a3.1,3.1,0,0,1-.083-2.757" transform="translate(-13.012 -4.822)" fill="#fbb99d"/>
          <path id="Path_923056" data-name="Path 923056" d="M72.02,28.047c.006-.379.229-.771.1-.965s2.343-.745,2.343-.745a1.875,1.875,0,0,0-.439,1,6.848,6.848,0,0,1-2.143,1.25,1.528,1.528,0,0,0,.137-.538" transform="translate(-13.136 -4.813)" fill="#dc8162"/>
          <path id="Path_923057" data-name="Path 923057" d="M71.635,22.483c-.962.755-1.782,3.362-.776,4.6.552.682,2.565-.042,3.508-1.527a3.322,3.322,0,0,0-.078-2.5,1.933,1.933,0,0,0-2.654-.575" transform="translate(-12.865 -4.049)" fill="#fbb99d"/>
          <path id="Path_923058" data-name="Path 923058" d="M70.552,24.305c0,.16.216-1.577,1.156-1.695.382-.047.3.371.74.4.379.029,1.515-.762,1.078,1.582-.021.113.082.245.132.347.062.124-.131.409-.127.55s.393-.28.386-.145c-.013.216-.16.408-.178.624-.031.4.3.175.432-.013l.545-.772a1.174,1.174,0,0,0,.217-.409c.016-.065.065-.387.118-.409a.75.75,0,0,1,.355-.045,2.844,2.844,0,0,0-.162-1.014,1.657,1.657,0,0,0-.62-.806,2.271,2.271,0,0,0,.387,0,.093.093,0,0,0,.06-.02c.029-.03,0-.08-.021-.114a3.05,3.05,0,0,0-.664-.642c-.152-.109-.585-.427-.789-.343a.394.394,0,0,0,.187-.159,6.938,6.938,0,0,0-1.594.083,2.547,2.547,0,0,0,.263-.42,2.287,2.287,0,0,0-1.2.672,1.67,1.67,0,0,0-.376,1.376c.013.11-.029.127-.072.2a1.77,1.77,0,0,0-.13.355,2.749,2.749,0,0,0-.128.8" transform="translate(-12.893 -3.818)" fill="#53424d"/>
          <path id="Path_923059" data-name="Path 923059" d="M73.833,26.029s.695-.635,1.077-.452-.154,1.267-.946,1.116-.345-.493-.132-.664" transform="translate(-13.434 -4.668)" fill="#fbb99d"/>
          <path id="Path_923060" data-name="Path 923060" d="M73.3,25.632c.021-.011-.024.01-.032.012a.454.454,0,0,1-.109.024c-.145.011-.208-.086-.239-.208-.02-.077-.141-.037-.122.04a.377.377,0,0,0,.574.235c.074-.036,0-.139-.072-.1" transform="translate(-13.303 -4.645)" fill="#1e100c"/>
          <path id="Path_923061" data-name="Path 923061" d="M71.675,25.035a.439.439,0,0,1-.122.077c-.142.058-.22-.031-.268-.157-.029-.074-.15-.035-.122.04.057.149.163.284.347.257a.524.524,0,0,0,.262-.136c.06-.054-.038-.136-.1-.082" transform="translate(-13.004 -4.553)" fill="#1e100c"/>
          <path id="Path_923062" data-name="Path 923062" d="M71.506,24.222a.381.381,0,0,1,.447.271c.034.094.175.032.141-.061a.526.526,0,0,0-.612-.361.077.077,0,0,0,.024.152" transform="translate(-13.052 -4.396)" fill="#552b19"/>
          <path id="Path_923063" data-name="Path 923063" d="M73,24.879a.383.383,0,0,1,.5.14c.057.081.176-.017.118-.1a.527.527,0,0,0-.687-.181c-.088.043-.025.183.065.14" transform="translate(-13.321 -4.51)" fill="#552b19"/>
          <path id="Path_923064" data-name="Path 923064" d="M72.25,24.927a.764.764,0,0,1-.034.427c-.083.19-.316.248-.459.395-.2.2-.047.355.214.467.063.027.1-.052.042-.078-.584-.25.163-.472.288-.713a.815.815,0,0,0,.056-.5c-.009-.056-.116-.051-.106.006" transform="translate(-13.097 -4.547)" fill="#dc8162"/>
          <path id="Path_923065" data-name="Path 923065" d="M72.424,26.895s-.026.53-.462.478a.511.511,0,0,1-.426-.529Z" transform="translate(-13.073 -4.905)" fill="#faffff"/>
          <path id="Path_923066" data-name="Path 923066" d="M73.549,26.734a.3.3,0,1,1-.139-.4.3.3,0,0,1,.139.4" transform="translate(-13.337 -4.807)" fill="#f3a498"/>
          <path id="Path_923067" data-name="Path 923067" d="M70.684,25.578a.3.3,0,1,1-.1.416.3.3,0,0,1,.1-.416" transform="translate(-12.891 -4.666)" fill="#f3a498"/>
        </g>
      </g>
    </g>
  </g>
</svg>
