<svg xmlns="http://www.w3.org/2000/svg" xmlns:xlink="http://www.w3.org/1999/xlink" width="158.357" height="158" viewBox="0 0 158.357 158">
  <defs>
    <clipPath id="clip-path">
      <rect id="Rectangle_407255" data-name="Rectangle 407255" width="158" height="158" transform="translate(-4 -4)" fill="#d9c3ac"/>
    </clipPath>
    <clipPath id="clip-path-2">
      <rect id="Rectangle_401492" data-name="Rectangle 401492" width="97.31" height="97.311" transform="translate(0 0.41)" fill="#6b4502" stroke="#707070" stroke-width="1"/>
    </clipPath>
    <clipPath id="clip-path-3">
      <rect id="Rectangle_409136" data-name="Rectangle 409136" width="81.132" height="93.98" fill="#6b4502"/>
    </clipPath>
  </defs>
  <g id="Group_1118032" data-name="Group 1118032" transform="translate(-307 -7641)">
    <g id="Group_1116923" data-name="Group 1116923" transform="translate(311 7645)" clip-path="url(#clip-path)">
      <path id="Path_893365" data-name="Path 893365" d="M148.324,46.778C139.531,15.346,73.76-20.354,25.169,14.072s-13.015,157.51-6.593,132.633c6.172-23.906,33.533-4.377,54.071-3.677,22.869.779,37.705-5.425,37.669-5.518,10.542-4.12,18-9.536,24.231-19.725,12.445-20.354,19.068-52.093,13.776-71.008" transform="translate(-0.246 0)" fill="#d9c3ac"/>
    </g>
    <g id="Group_1115380" data-name="Group 1115380" transform="translate(337 7671)">
      <rect id="Rectangle_401104" data-name="Rectangle 401104" width="90.666" height="92.129" transform="translate(3.322 0)" fill="none"/>
      <g id="Mask_Group_1098697" data-name="Mask Group 1098697" transform="translate(0 0.001)" clip-path="url(#clip-path-2)">
        <g id="Group_1119364" data-name="Group 1119364" transform="translate(8 1.411)">
          <g id="Group_1119363" data-name="Group 1119363" clip-path="url(#clip-path-3)">
            <path id="Path_924918" data-name="Path 924918" d="M0,40.179C.509-.61,55.5-15.748,75.87,20.456c13.9,24.71-1.141,55.283-28.732,59.969-.7,3.471,1.8,11.984-2.672,13.266a29.285,29.285,0,0,1-7.207.127c-5.086-.922-2.394-9.79-3.12-13.393A40.787,40.787,0,0,1,2.58,54.113,45.362,45.362,0,0,1,0,40.753ZM39.347,2.556c-.8.1-1.632,1.134-2.13,1.747-3.85,4.737-4.88,12.414-6.2,18.209-.011.3.381.121.616.043,2.528-.837,4.831-2.174,7.717-2.192Zm2.585,0V20.362a23.76,23.76,0,0,1,7.731,2.178c.234.1.614.276.6-.028-1.323-5.8-2.353-13.473-6.2-18.209-.231-.285-1.818-2.1-2.13-1.747m-6.318.29a24.574,24.574,0,0,0-12.344,8.763c-.762.981-4.964,7.112-4.3,7.877,3.294,1.1,6.543,2.479,10.035,2.889.932-6.723,2.525-14,6.607-19.529M62.3,19.474c.617-.866-3.5-6.849-4.288-7.866A24.574,24.574,0,0,0,45.665,2.845c4.082,5.528,5.675,12.805,6.606,19.529a48.384,48.384,0,0,0,10.025-2.9M26.71,4.856a34.114,34.114,0,0,0-14.934,10.62c.972.171,4.442,3.073,5.146,2.57A38.56,38.56,0,0,1,26.71,4.856M69.5,15.475A34.115,34.115,0,0,0,54.569,4.856a38.246,38.246,0,0,1,9.788,13.189c.707.5,4.173-2.4,5.146-2.57M2.728,39.6h9.334a60.749,60.749,0,0,1,3.757-19.353l-5.338-3.308A38.62,38.62,0,0,0,2.288,38.89a.868.868,0,0,0,.44.715m66.487,0H78.55c.143,0,.473-.474.44-.715C78.4,30.954,75.861,23.141,70.8,16.943l-5.338,3.308A60.894,60.894,0,0,1,69.216,39.6m-54.855,0h6.318a20.257,20.257,0,0,1,5.162-12.787c.36-.409,2.6-2.14,2.3-2.433a38.02,38.02,0,0,1-10.333-3.161A53.139,53.139,0,0,0,14.36,39.6m52.558,0a53.139,53.139,0,0,0-3.451-18.381,38.02,38.02,0,0,1-10.333,3.161c-.3.293,1.944,2.023,2.3,2.433A20.312,20.312,0,0,1,60.6,39.6ZM52.975,53.23a17.825,17.825,0,0,0-.57-26.254c-13.979-12.087-34.928,2.332-28.419,19.8A17.826,17.826,0,0,0,52.975,53.23m-40.913-11.9H2.728a.808.808,0,0,0-.418.69C2.9,49.8,5.4,57.687,10.48,63.66L15.761,60.4a61.994,61.994,0,0,1-3.7-19.07m8.616,0H14.36C14.467,47.46,15.4,53.848,17.974,59.4l10.172-3.137c-4.231-3.958-7.33-8.941-7.467-14.931m46.239,0H60.6c-.136,5.99-3.236,10.973-7.467,14.931L63.3,59.4c2.589-5.541,3.476-11.949,3.614-18.068m2.3,0a61.994,61.994,0,0,1-3.7,19.07L70.8,63.66c5.078-5.973,7.585-13.857,8.169-21.643a.807.807,0,0,0-.418-.69ZM31.02,57.986c.91,4.966,1.7,10.2,4.162,14.642a2.146,2.146,0,0,0,1.02-1.559c.437-3.252-.324-7.523-.052-10.892Zm19.237,0-5.13,2.191c.271,3.369-.489,7.64-.052,10.892a2.145,2.145,0,0,0,1.02,1.559c2.484-4.442,3.211-9.682,4.162-14.642m-21.252.575c-.5-.506-6.849,1.6-7.9,2-.812.316-2.256.531-2.107,1.518.125.827,2.277,4.287,2.884,5.181,2.958,4.359,7.317,8.379,12.292,10.25.129-2.028-1.245-3.757-1.935-5.673a58.88,58.88,0,0,1-3.233-13.282M47.1,77.515c5.791-2.207,10.877-7.339,13.832-12.731.343-.626,1.648-2.832,1.266-3.365-.422-.589-9.46-3.336-9.929-2.858a59.263,59.263,0,0,1-3.228,13.287c-.375,1.041-2.528,4.865-1.94,5.668M42.793,60.283H38.485V71.2h4.308Zm-25.852,2.3L11.78,65.6A38.7,38.7,0,0,0,27,76.076a34.754,34.754,0,0,1-10.056-13.5m37.341,13.5c5.9-2.026,11-5.983,15.216-10.48l-5.16-3.015a35.065,35.065,0,0,1-10.056,13.5M37.539,73.554a2.549,2.549,0,0,0-1.358,2.088l.2,14.749c.41,2.038,5.766,1.747,7.228,1.292,1.154-.358,1.359-1.134,1.484-2.25.5-4.458-.266-9.96-.128-14.519A2.33,2.33,0,0,0,43.5,73.5a37.724,37.724,0,0,0-5.965.052" transform="translate(0 0)" fill="#6b4502"/>
            <path id="Path_924919" data-name="Path 924919" d="M102.053,86.091c20.489-1.375,22.455,29.492,2.783,31.213-21.487,1.879-23.284-29.837-2.783-31.213m10.279,5.785C98.465,79.4,80.86,100.618,94.354,112c13.612,11.479,30.529-8.833,17.978-20.123" transform="translate(-62.478 -61.334)" fill="#6b4502"/>
          </g>
        </g>
      </g>
    </g>
    <path id="Path_893317" data-name="Path 893317" d="M22.933,42.9C13.62,42.9,5.1,38.964.669,34.93A2.045,2.045,0,0,1,3.419,31.9c6.764,6.148,25.724,12.252,38.909-1.51A18.409,18.409,0,0,0,47.31,21.06a21.362,21.362,0,0,1-6-2.779C35.414,14.315,32.9,8.074,35.344,3.44,37,.289,39.444-.065,40.769.008,44.34.2,48.01,3.774,50.12,9.11a22.936,22.936,0,0,1,1.644,8.657c7.787.791,17.927-2.83,28.293-15.149a2.044,2.044,0,0,1,3.129,2.632C71.773,18.811,60.308,22.771,51.341,21.842A22.964,22.964,0,0,1,45.28,33.223,30.2,30.2,0,0,1,22.933,42.9M40.446,4.088c-.3,0-.878.106-1.484,1.256-1.425,2.708.566,6.811,4.629,9.543a17,17,0,0,0,4.026,1.983,19.647,19.647,0,0,0-1.3-6.258c-1.57-3.971-4.166-6.435-5.768-6.521-.03,0-.063,0-.1,0" transform="translate(463.896 7641) rotate(89)" fill="#025974"/>
  </g>
</svg>
