<svg xmlns="http://www.w3.org/2000/svg" xmlns:xlink="http://www.w3.org/1999/xlink" width="99" height="99" viewBox="0 0 99 99">
  <defs>
    <clipPath id="clip-path">
      <rect id="Rectangle_401223" data-name="Rectangle 401223" width="99" height="99" transform="translate(0)" fill="#8ce6fe"/>
    </clipPath>
    <clipPath id="clip-path-2">
      <rect id="Rectangle_401223-2" data-name="Rectangle 401223" width="88.539" height="88.539" fill="#f3f9ff"/>
    </clipPath>
    <clipPath id="clip-path-3">
      <rect id="Rectangle_409144" data-name="Rectangle 409144" width="50.691" height="67.628" fill="none"/>
    </clipPath>
  </defs>
  <g id="Group_1119143" data-name="Group 1119143" transform="translate(-619.921 -5755.871)">
    <g id="Group_1100724" data-name="Group 1100724" transform="translate(619.921 5755.871)">
      <g id="Group_1099654" data-name="Group 1099654" transform="translate(0 0)">
        <g id="Group_1099652" data-name="Group 1099652" clip-path="url(#clip-path)">
          <path id="Path_873521" data-name="Path 873521" d="M99,77.066A22,22,0,0,1,77.066,99H21.934A22,22,0,0,1,0,77.066V21.933A22,22,0,0,1,21.934,0H77.066A22,22,0,0,1,99,21.934Z" transform="translate(0)" fill="#ffdcd6"/>
        </g>
      </g>
      <g id="Group_1099659" data-name="Group 1099659" transform="translate(4.77 5.723)">
        <g id="Group_1099652-2" data-name="Group 1099652" transform="translate(0 0)" clip-path="url(#clip-path-2)">
          <path id="Path_873521-2" data-name="Path 873521" d="M88.539,68.922A19.674,19.674,0,0,1,68.923,88.539H19.616A19.674,19.674,0,0,1,0,68.922V19.616A19.674,19.674,0,0,1,19.616,0H68.923A19.674,19.674,0,0,1,88.539,19.616Z" fill="#f3f9ff"/>
        </g>
      </g>
    </g>
    <g id="Group_1100725" data-name="Group 1100725" transform="translate(636.343 5771.293)">
      <rect id="Rectangle_401104" data-name="Rectangle 401104" width="68" height="69" transform="translate(0.29 -0.295)" fill="none"/>
      <g id="Group_1119375" data-name="Group 1119375" transform="translate(8.265 0.705)">
        <g id="Group_1119374" data-name="Group 1119374" clip-path="url(#clip-path-3)">
          <path id="Path_924984" data-name="Path 924984" d="M90.859,179.738,73.7,171.407c-.368-.179-.321-.49.1-.7l.974-.473a1.864,1.864,0,0,1,1.433-.05l17.159,8.331c.367.178.321.49-.1.7l-.974.473a1.863,1.863,0,0,1-1.433.05" transform="translate(-43.756 -112.23)" fill="#b0c0d2"/>
          <path id="Path_924985" data-name="Path 924985" d="M93.984,63.043l-15.79-7.669a.878.878,0,0,0-.773-.049l-1.558.758,1.833,1.2.448-.1V88.663a2.321,2.321,0,0,0,1.192,1.915L93.182,99.1v.525l1.611-.792v-.005a.851.851,0,0,0,.382-.79V64.958a2.321,2.321,0,0,0-1.192-1.915" transform="translate(-45.194 -36.465)" fill="#999"/>
          <path id="Path_924986" data-name="Path 924986" d="M91.57,65.854V64.368l-1.553.981-6.786-2.393-5.085-3.113V57.188l-.45.095-1.831-1.2,1.557-.758a.887.887,0,0,1,.772.047l15.789,7.671A2.252,2.252,0,0,1,95,64.186Z" transform="translate(-45.195 -36.467)" fill="#e6e6e6"/>
          <path id="Path_924987" data-name="Path 924987" d="M91.784,101.053l-15.79-7.669A2.322,2.322,0,0,1,74.8,91.469V58.386a.767.767,0,0,1,1.192-.758L91.784,65.3a2.322,2.322,0,0,1,1.192,1.915v33.083a.767.767,0,0,1-1.192.758" transform="translate(-44.562 -37.95)" fill="#ccc"/>
          <path id="Path_924988" data-name="Path 924988" d="M75.665,92.4V59.268a.559.559,0,0,1,.868-.553l15.739,7.644a1.692,1.692,0,0,1,.869,1.4v33.136a.559.559,0,0,1-.869.552L76.533,93.8a1.692,1.692,0,0,1-.868-1.4" transform="translate(-45.075 -38.689)" fill="#333"/>
          <path id="Path_924989" data-name="Path 924989" d="M93.358,69.867v32.1c0,.477-.4.666-.892.427L77.7,95.22a1.631,1.631,0,0,1-.9-1.3V61.827c0-.477.4-.67.9-.43l2.7,1.31A.486.486,0,0,1,80.64,63l.125.48A1.946,1.946,0,0,0,81.789,64.7l6.584,3.2c.5.244.934.151,1.024-.219l.125-.358c.031-.089.13-.113.243-.058l2.7,1.312a1.629,1.629,0,0,1,.892,1.3" transform="translate(-45.754 -40.449)" fill="#fff"/>
          <path id="Path_924990" data-name="Path 924990" d="M89.211,68.472c0,.255-.215.358-.479.23a.872.872,0,0,1-.479-.695c0-.255.215-.358.479-.23a.873.873,0,0,1,.479.7" transform="translate(-52.574 -44.691)" fill="#666"/>
          <path id="Path_924991" data-name="Path 924991" d="M89.314,68.82c0,.14-.118.2-.262.126a.478.478,0,0,1-.263-.381c0-.14.118-.2.263-.126a.479.479,0,0,1,.262.381" transform="translate(-52.893 -45.144)" fill="#333"/>
          <path id="Path_924992" data-name="Path 924992" d="M95.861,70.027l-4.685-2.275a.272.272,0,0,1-.14-.225v-.16a.09.09,0,0,1,.14-.089l4.685,2.276a.272.272,0,0,1,.14.224v.16a.09.09,0,0,1-.14.089" transform="translate(-54.232 -44.389)"/>
          <path id="Path_924993" data-name="Path 924993" d="M121.262,98.718a.419.419,0,0,0-.364.03.928.928,0,0,0-.509.742l.013,3.932a.286.286,0,0,0,.15.275l.284.139a.287.287,0,0,1-.15-.275l-.013-3.932a.926.926,0,0,1,.509-.742.418.418,0,0,1,.363-.03Z" transform="translate(-71.718 -65.126)" fill="#e6e6e6"/>
          <path id="Path_924994" data-name="Path 924994" d="M121.6,99.156c.283-.137.512-.027.513.246l.013,3.932a.93.93,0,0,1-.509.742c-.283.137-.512.025-.513-.246L121.09,99.9a.927.927,0,0,1,.509-.742" transform="translate(-72.136 -65.395)" fill="#bfbfbf"/>
          <path id="Path_924995" data-name="Path 924995" d="M121.94,100.476c.232-.113.42-.022.42.2l.011,3.226a.763.763,0,0,1-.418.609c-.232.113-.42.02-.421-.2l-.011-3.226a.761.761,0,0,1,.418-.609" transform="translate(-72.393 -66.274)" fill="#ccc"/>
          <path id="Path_924996" data-name="Path 924996" d="M98.693,78.594a.5.5,0,0,1,.113.222,1.518,1.518,0,0,1,1.325,1.324,1.081,1.081,0,0,1,.414,1.434,1.207,1.207,0,0,1,.05,1.316.421.421,0,0,0-.089.221.475.475,0,0,0,.089.2,1.066,1.066,0,0,1-.011.965c-.136.31-.351.591-.517.891a.272.272,0,0,1,.21.262c.052.416-.2.825-.163,1.243.012.143.058.284.059.428a1.166,1.166,0,0,1-.439.818,1.448,1.448,0,0,1-.863.417,2.093,2.093,0,0,1-.744-.13c-.51-.155-.552-.525-.73-.911a4.971,4.971,0,0,1-.492-1.484,6.18,6.18,0,0,1,.46-2.488c.179-.578.61-1.646.137-2.171q-.346-.384-.731-.741c-.468-.435-1.183-.97-.5-1.534a1.164,1.164,0,0,1,.98-.211,1.14,1.14,0,0,1,.857-.341.85.85,0,0,1,.586.272" transform="translate(-57.183 -51.685)" fill="#262626"/>
          <path id="Path_924997" data-name="Path 924997" d="M75.748,112.321c-.282.409-.614.8-.858,1.223a3.508,3.508,0,0,0-.171,3.184.795.795,0,0,0,.985.5,1.634,1.634,0,0,0,.7-.341,4.869,4.869,0,0,0,1.376-2.293,10.475,10.475,0,0,0,.647-2.072,2.111,2.111,0,0,0-.12-1.238,1.411,1.411,0,0,0-1.078-.785.909.909,0,0,0-.9.6c-.087.179-.12.375-.2.557a3.891,3.891,0,0,1-.379.664" transform="translate(-44.331 -72.919)" fill="#663c33"/>
          <path id="Path_924998" data-name="Path 924998" d="M82.162,101.979a.968.968,0,0,0-.04-.47.9.9,0,0,0-.451-.426c-.234-.117-.362-.148-.548-.014a5.845,5.845,0,0,0-1.023.917c-.553.642-1.881,2.735-1.755,3.016a1.433,1.433,0,0,0,.849.686,4.307,4.307,0,0,0,1.474.165c.138,0,.285-.006.355-.115s.089-.243.158-.357a1.653,1.653,0,0,0,.156-.423c.1-.331.209-.659.319-.987a9.055,9.055,0,0,0,.5-1.991" transform="translate(-46.667 -66.639)" fill="#fd0"/>
          <path id="Path_924999" data-name="Path 924999" d="M84.259,152.268l-1.189-.58-3.926-1.906a12.674,12.674,0,0,1-.357-1.69,7.606,7.606,0,0,1-.032-1.91,6.221,6.221,0,0,1,.107-.624c.1-.411.232-1.543.739-1.759a1.044,1.044,0,0,1,.974.237,4.381,4.381,0,0,1,.963.988,8.289,8.289,0,0,1,.8,1.429c.26.57.489,1.147.7,1.732.489,1.339.86,2.711,1.224,4.083" transform="translate(-46.889 -94.863)" fill="#262626"/>
          <path id="Path_925000" data-name="Path 925000" d="M93.759,156.048,87.4,152.959l-1.188-.58c-.129-.5-.253-.991-.367-1.486a1.916,1.916,0,0,0-.382-.907c-.118-.126-.268-.228-.4-.345a2.777,2.777,0,0,1-.721-1.135c0-.015-.011-.027-.014-.042a5.727,5.727,0,0,1-.289-2.78c.043-.276.164-.153.314-.09.11.045.217.084.328.12.418.138.842.225,1.246.4a10.5,10.5,0,0,0,1.681.73,5.115,5.115,0,0,0,2.184-.063,4.241,4.241,0,0,0,1.8-.594,2.169,2.169,0,0,0,.371-1.393,11.657,11.657,0,0,1,1.356,2.834,11.159,11.159,0,0,1,.414,1.783,18.664,18.664,0,0,1,.157,2.132c.039,1.5-.014,3-.125,4.5" transform="translate(-50.026 -95.553)" fill="#404040"/>
          <path id="Path_925001" data-name="Path 925001" d="M85.846,97.7c-.868.7-2.365.384-3.361.926-.844.46-1.006,1.457-1.322,2.212l-1.086,2.6a5.979,5.979,0,0,0-.479,1.5,8.646,8.646,0,0,0,.019,1.464,15.111,15.111,0,0,1-.057,1.758q-.22,2.9-.676,5.788a8.7,8.7,0,0,0-.246,1.456,1.411,1.411,0,0,0,.469.873,4.723,4.723,0,0,0,2.081,1.087,12.849,12.849,0,0,0,8.954-.785c-.058-1.5-.782-2.952-.686-4.448a7.234,7.234,0,0,1,.591-2.2c.474-1.181,1.037-2.335,1.5-3.519.262-.669.528-1.338.726-2.022a4.4,4.4,0,0,0,.17-1.221,3.25,3.25,0,0,0-.156-1.119,2.356,2.356,0,0,0-.733-.954c-.347-.3-.726-.577-1.1-.852a22.256,22.256,0,0,0-4.243-2.608.361.361,0,0,0-.163-.04.37.37,0,0,0-.2.1" transform="translate(-46.847 -64.406)" fill="#eebc32"/>
          <path id="Path_925002" data-name="Path 925002" d="M90.767,99.062a1.962,1.962,0,0,0,.875.077,4.612,4.612,0,0,0,1.866-.612A4.847,4.847,0,0,0,94.892,97.3a1.5,1.5,0,0,0,.271-.48c.061-.215-.031-.313-.177-.484a6.129,6.129,0,0,1-1.276-2.09,4.669,4.669,0,0,1-1.949,2.689,1.876,1.876,0,0,1-.9.367.468.468,0,0,0-.192.036.263.263,0,0,0-.1.24c-.014.3-.07.588-.092.882-.016.219-.061.433.2.561q.048.023.1.043" transform="translate(-53.888 -62.194)" fill="#663c33"/>
          <path id="Path_925003" data-name="Path 925003" d="M83.811,84.779a6.329,6.329,0,0,0,.293,1.273,12.708,12.708,0,0,0,.578,1.355,3.944,3.944,0,0,0,.555.878,2.02,2.02,0,0,0,.918.608,2.364,2.364,0,0,0,1.428-.07,4.534,4.534,0,0,0,1.208-.684,4.031,4.031,0,0,0,.978-.954,1.494,1.494,0,0,0,.251-1.218c.019.067.557-.2.6-.225a2,2,0,0,0,.391-.4,2.742,2.742,0,0,0,.4-1.019,3.452,3.452,0,0,0-.108-2.1,2.962,2.962,0,0,0-1.084-1.33,5.226,5.226,0,0,0-1.979-.8c-.122-.023-.247-.042-.372-.056a3.868,3.868,0,0,0-1.441.1,3.659,3.659,0,0,0-2.379,1.98,4.732,4.732,0,0,0-.232,2.649" transform="translate(-49.878 -52.806)" fill="#874f43"/>
          <path id="Path_925004" data-name="Path 925004" d="M84.491,82.547l.026,0a.675.675,0,0,0,.516.458,2.069,2.069,0,0,0,.782.023.506.506,0,0,0,.35.3,2.049,2.049,0,0,0,.512.07c.485.028.969.079,1.447.152a1.337,1.337,0,0,0,1.071.722,1.342,1.342,0,0,1,.5-1.08.872.872,0,0,1,.8-.179c.656.225.147,1.1.049,1.464a.831.831,0,0,0,.4-.658,1.134,1.134,0,0,1,.018-.359c.069-.194.313-.32.363-.518.045-.178-.081-.353-.111-.533-.044-.27.129-.557.008-.81-.065-.135-.2-.238-.265-.375a1.216,1.216,0,0,1-.049-.381.939.939,0,0,0-.28-.57.532.532,0,0,1-.133-.161.613.613,0,0,1-.02-.183.55.55,0,0,0-.505-.45.472.472,0,0,1-.2-.04.3.3,0,0,1-.1-.13,1.833,1.833,0,0,0-.868-.659,1.192,1.192,0,0,0-1.084-.13.783.783,0,0,0-.692-.13,2.147,2.147,0,0,0-.644.311.976.976,0,0,0-.846.016,1.209,1.209,0,0,0-.547.572,1.235,1.235,0,0,0-1.207.846.467.467,0,0,1-.106.265.745.745,0,0,1-.183.1.849.849,0,0,0-.461.76c-.008.459.1,1.175.723,1.284a2.827,2.827,0,0,0,.729,0" transform="translate(-49.467 -51.714)" fill="#262626"/>
          <path id="Path_925005" data-name="Path 925005" d="M88.55,118.32c-.21.19-.413.385-.6.591a3.121,3.121,0,0,0-.645,1.124l-.315.867a.649.649,0,0,0-.015.6.762.762,0,0,0,.469.248,3.688,3.688,0,0,0,1.395-.017,13.144,13.144,0,0,0,5.577-2.811,10.309,10.309,0,0,0,1.508-1.305,3.187,3.187,0,0,0,.847-1.655,1.144,1.144,0,0,0-.056-.6,1.2,1.2,0,0,0-.42-.488c-1.795-1.29-4.105.455-5.388,1.475q-.99.787-1.942,1.608c-.139.12-.279.241-.414.364" transform="translate(-51.772 -75.505)" fill="#663c33"/>
          <path id="Path_925006" data-name="Path 925006" d="M80.106,97.661a.926.926,0,0,0-.085-.419,1.313,1.313,0,0,0-.366-.376l-.787-.619A1.06,1.06,0,0,1,78.615,96a.738.738,0,0,1-.007-.641,1.712,1.712,0,0,0,.162-.64c0-.065-.035-.144-.112-.152a.187.187,0,0,0-.106.03.787.787,0,0,0-.338.345c-.046.1-.068.2-.117.3a.382.382,0,0,1-.258.212,6.546,6.546,0,0,1,.529-1.241.7.7,0,0,0,.093-.367.313.313,0,0,0-.267-.271.242.242,0,0,1-.118-.026c-.047-.036-.022-.1-.034-.154-.021-.089-.156-.131-.259-.1a.507.507,0,0,0-.242.174,4.524,4.524,0,0,0-.6.925,1.039,1.039,0,0,0-.157.493,1.435,1.435,0,0,0,.325.679c.242.372.388.783.609,1.164.15.259.317.513.474.769a.93.93,0,0,1,.061.717,2.281,2.281,0,0,1-.285.554,13.838,13.838,0,0,1-1.673,2.111c-.354.378-.72.748-1.089,1.115a4.346,4.346,0,0,0-.711.838,2.376,2.376,0,0,0-.277,1.422,6.194,6.194,0,0,0,.352,1.425.7.7,0,0,0,.694.552A2.374,2.374,0,0,0,77,105.659a4.513,4.513,0,0,0,1.25-1.627,11.9,11.9,0,0,0,.651-1.873l.794-2.777a3.607,3.607,0,0,0,.408-1.722" transform="translate(-44.204 -61.557)" fill="#663c33"/>
          <path id="Path_925007" data-name="Path 925007" d="M89.677,94.647a.7.7,0,0,0-.742.592.983.983,0,0,1,0,.336c-.06.163-.282.268-.3.438a.785.785,0,0,1-.34-.568,7.945,7.945,0,0,0-.8-1.959,1,1,0,0,0-.33-.391.5.5,0,0,0-.531-.007.611.611,0,0,0-.4-.254.377.377,0,0,0-.409.2.247.247,0,0,0-.318.1.487.487,0,0,0-.019.321.446.446,0,0,1-.029.32c-.034.053-.087.095-.123.146a.528.528,0,0,0-.073.278l-.074,1.038a4.445,4.445,0,0,0,.073,1.567,6.469,6.469,0,0,1,.347,1.23,6.872,6.872,0,0,1-.06,1.3c-.053.494-.315,2.56-.367,3.1a12.227,12.227,0,0,0,.22,4.3.921.921,0,0,0,.4.628.9.9,0,0,0,.714.021,1.725,1.725,0,0,0,.577-.387,3.988,3.988,0,0,0,1.011-1.5,5.138,5.138,0,0,0,.279-1.708c.011-.581-.03-1.161-.072-1.741q-.106-1.488-.213-2.975c-.022-.306-.013-.61-.006-.918a1.28,1.28,0,0,1,.019-.229c.054-.255.211-.367.421-.54a3.468,3.468,0,0,0,.961-1.421,2.085,2.085,0,0,0,.19-1.318" transform="translate(-50.69 -61.26)" fill="#874f43"/>
          <path id="Path_925008" data-name="Path 925008" d="M103.438,109.143c-.138-.279-.4-.688-.771-.769a2.18,2.18,0,0,0-1.278.1,5.472,5.472,0,0,0-1.2.718,17.954,17.954,0,0,0-2.845,2.572.18.18,0,0,0-.045.071.151.151,0,0,0,.028.1,1.918,1.918,0,0,0,.45.5,4.953,4.953,0,0,0,2.177.99,7.072,7.072,0,0,0,2.487.027.351.351,0,0,0,.128-.037.281.281,0,0,0,.078-.082,5.3,5.3,0,0,0,1.014-2.973,2.617,2.617,0,0,0-.228-1.224" transform="translate(-57.964 -71.483)" fill="#fcdf8e"/>
          <path id="Path_925009" data-name="Path 925009" d="M3.058,179.738l17.159-8.331c.367-.179.321-.49-.1-.7l-.974-.473a1.864,1.864,0,0,0-1.433-.05L.548,178.519c-.367.178-.321.49.1.7l.974.473a1.863,1.863,0,0,0,1.433.05" transform="translate(-0.179 -112.23)" fill="#b0c0d2"/>
          <path id="Path_925010" data-name="Path 925010" d="M1.192,63.043l15.79-7.669a.878.878,0,0,1,.773-.049l1.558.758-1.833,1.2-.448-.1V88.663a2.321,2.321,0,0,1-1.192,1.915L1.994,99.1v.525L.382,98.837v-.005A.851.851,0,0,1,0,98.042V64.958a2.321,2.321,0,0,1,1.192-1.915" transform="translate(0 -36.465)" fill="#ccc"/>
          <path id="Path_925011" data-name="Path 925011" d="M3.864,65.854V64.368l1.553.981L12.2,62.957l5.085-3.113V57.188l.45.095,1.831-1.2-1.557-.758a.887.887,0,0,0-.772.047L1.451,63.046a2.252,2.252,0,0,0-1.018,1.14Z" transform="translate(-0.258 -36.467)" fill="#e6e6e6"/>
          <path id="Path_925012" data-name="Path 925012" d="M46.821,71.016a.42.42,0,0,1,.364.03.927.927,0,0,1,.509.742l-.013,3.932a.286.286,0,0,1-.15.275l-.283.139a.288.288,0,0,0,.15-.275l.013-3.932a.926.926,0,0,0-.509-.742.418.418,0,0,0-.363-.03Z" transform="translate(-27.724 -46.846)" fill="#e6e6e6"/>
          <path id="Path_925013" data-name="Path 925013" d="M46.663,71.454c-.283-.137-.512-.027-.513.246l-.013,3.932a.93.93,0,0,0,.509.742c.283.137.512.025.513-.246l.013-3.932a.927.927,0,0,0-.509-.742" transform="translate(-27.485 -47.114)" fill="#bfbfbf"/>
          <path id="Path_925014" data-name="Path 925014" d="M5.069,101.053l15.79-7.669a2.322,2.322,0,0,0,1.192-1.915V58.386a.767.767,0,0,0-1.192-.758L5.069,65.3a2.322,2.322,0,0,0-1.192,1.915v33.083a.767.767,0,0,0,1.192.758" transform="translate(-2.31 -37.95)" fill="#999"/>
          <path id="Path_925015" data-name="Path 925015" d="M22.215,92.4V59.268a.559.559,0,0,0-.868-.553L5.607,66.359a1.691,1.691,0,0,0-.868,1.4v33.136a.559.559,0,0,0,.868.552L21.347,93.8a1.692,1.692,0,0,0,.868-1.4" transform="translate(-2.823 -38.689)" fill="#333"/>
          <path id="Path_925016" data-name="Path 925016" d="M5.881,69.867v32.1c0,.477.4.666.892.427L21.54,95.22a1.631,1.631,0,0,0,.9-1.3V61.827c0-.477-.4-.67-.9-.43l-2.7,1.31A.486.486,0,0,0,18.6,63l-.125.48A1.945,1.945,0,0,1,17.45,64.7l-6.584,3.2c-.5.244-.934.151-1.024-.219l-.125-.358c-.031-.089-.13-.113-.243-.058l-2.7,1.312a1.629,1.629,0,0,0-.892,1.3" transform="translate(-3.503 -40.449)" fill="#f2f2f2"/>
          <path id="Path_925017" data-name="Path 925017" d="M17.4,77.077c0,.255.215.358.479.23a.872.872,0,0,0,.479-.695c0-.255-.215-.358-.479-.23a.873.873,0,0,0-.479.7" transform="translate(-10.367 -50.369)" fill="#666"/>
          <path id="Path_925018" data-name="Path 925018" d="M17.939,77.426c0,.14.118.2.262.126a.478.478,0,0,0,.263-.381c0-.14-.118-.2-.263-.126a.478.478,0,0,0-.262.381" transform="translate(-10.687 -50.823)" fill="#333"/>
          <path id="Path_925019" data-name="Path 925019" d="M20.456,70.027l4.685-2.275a.272.272,0,0,0,.14-.225v-.16a.09.09,0,0,0-.14-.089l-4.685,2.276a.272.272,0,0,0-.14.224v.16a.09.09,0,0,0,.14.089" transform="translate(-12.103 -44.389)"/>
          <path id="Path_925020" data-name="Path 925020" d="M20.761,95.8a1.278,1.278,0,0,0-.332.32.466.466,0,0,0-.061.437.774.774,0,0,0,.5.356.611.611,0,0,0-.056.9.935.935,0,0,0,1.064.122.24.24,0,0,1,.091-.04.245.245,0,0,1,.1.018,1.143,1.143,0,0,0,.441.06.544.544,0,0,0,.379-.181.536.536,0,0,0,.091-.279,2.052,2.052,0,0,0,.008-.334A.413.413,0,0,1,23,97.021a.789.789,0,0,1,.076-.136.421.421,0,0,0,0-.427,1.54,1.54,0,0,0-.314-.313c-.186-.169-.164-.3-.2-.511-.063-.363-.5-.183-.679-.44a3.032,3.032,0,0,1-.5.3,1.926,1.926,0,0,0-.594.291l-.024.017" transform="translate(-12.116 -62.819)" fill="#262626"/>
          <path id="Path_925021" data-name="Path 925021" d="M42.538,104.714c.663.009,1.326.037,1.989.065.276.012.552.023.827.05a2.874,2.874,0,0,1,.874.153c.2.1.28.422.342.611a3.524,3.524,0,0,1,.155.74,2.674,2.674,0,0,1-.109,1.175,1.867,1.867,0,0,1-1.091,1.251,2.792,2.792,0,0,1-.592.091,12.142,12.142,0,0,1-2.4-.062c-.155-.02-.31-.042-.463-.07-.3-.054-.168-.281-.177-.481a6.253,6.253,0,0,0-.082-.761,2.707,2.707,0,0,0-.278-.873,3.269,3.269,0,0,0-.571-.706,1.4,1.4,0,0,1-.485-.738c-.029-.352.517-.425.836-.436.409-.013.819-.014,1.229-.008" transform="translate(-24.11 -69.1)" fill="#087597"/>
          <path id="Path_925022" data-name="Path 925022" d="M62.436,79.341a1.9,1.9,0,0,0-.26-.815,1.341,1.341,0,0,0-.4-.407c-.061-.04-.162-.057-.214-.1s-.032-.155-.045-.222a.386.386,0,0,0-.195-.229c-.093-.057-.2-.1-.291-.154a.7.7,0,0,0-.3-.142,1.008,1.008,0,0,0-.327.084c-.174.048-.389.026-.514.138a.309.309,0,0,0-.08.119c-.025.064-.038.133-.062.2a1.88,1.88,0,0,1-.13.323,2.952,2.952,0,0,0-.218.478,3,3,0,0,0-.178,1.5.881.881,0,0,0,.148.42.736.736,0,0,0,.089.089c-.063.133-2.042,4.172-2.549,4.872-.028.038-.054.078-.082.118a33.367,33.367,0,0,1-4.81,1.282,1.448,1.448,0,0,0-1.044.531,1.65,1.65,0,0,0-.276.7,2.7,2.7,0,0,0,.09,1.335c.1.3.344.977.782.965a41.63,41.63,0,0,0,6.7-2.111,9.3,9.3,0,0,0,1.244-.574,1.475,1.475,0,0,0,.5-.415A2.922,2.922,0,0,0,60.2,86.8a19.992,19.992,0,0,0,.948-5.1.178.178,0,0,1,.125-.149,1.6,1.6,0,0,0,.247-.12,1.888,1.888,0,0,0,.789-.935,2.414,2.414,0,0,0,.128-1.153" transform="translate(-30.174 -50.993)" fill="#663c33"/>
          <path id="Path_925023" data-name="Path 925023" d="M71.677,65.894a1.463,1.463,0,0,1-1.46-1.362V63.419a.3.3,0,0,1,.6,0v1.123a.9.9,0,0,0,.872.847.92.92,0,0,0,1.065-.811V52.951h.6V64.578a1.48,1.48,0,0,1-1.675,1.315" transform="translate(-41.83 -34.943)" fill="#918ffa"/>
          <path id="Path_925024" data-name="Path 925024" d="M62.861,34.2l-9.125.744c.108-.057.222-.114.336-.17a18.32,18.32,0,0,1,5.773-1.58Z" transform="translate(-32.012 -21.907)" fill="#ffbf00"/>
          <path id="Path_925025" data-name="Path 925025" d="M85.383,35.04l-9-.734,3.367-.933a18.309,18.309,0,0,1,5.4,1.547c.08.039.16.079.238.119" transform="translate(-45.502 -22.024)" fill="#ffbf00"/>
          <path id="Path_925026" data-name="Path 925026" d="M75.258,32.918l-3.4.946-3.018-1.006a25.317,25.317,0,0,1,6.414.06" transform="translate(-41.012 -21.568)" fill="#fd0"/>
          <path id="Path_925027" data-name="Path 925027" d="M74.521,46.724a21.159,21.159,0,0,0-7.9-.023h-.01l3.95-10.586Z" transform="translate(-39.682 -23.833)" fill="#ffbf00"/>
          <path id="Path_925028" data-name="Path 925028" d="M62.547,36.116,58.6,46.7a11.718,11.718,0,0,0-5.439-1.784Z" transform="translate(-31.667 -23.833)" fill="#fd0"/>
          <path id="Path_925029" data-name="Path 925029" d="M85.818,44.951c-2.3-.1-5.471,1.774-5.471,1.774L76.7,37.011l-.307-.895Z" transform="translate(-45.508 -23.833)" fill="#fd0"/>
          <path id="Path_925030" data-name="Path 925030" d="M76.394,36.116v0l0,0Z" transform="translate(-45.508 -23.833)" fill="#3c43c6"/>
          <path id="Path_925031" data-name="Path 925031" d="M88.784,40.7c-1.352.976-2.913,4.156-2.961,4.257l0,0L76.4,36.121l12.386,4.574Z" transform="translate(-45.511 -23.837)" fill="#ffbf00"/>
          <path id="Path_925032" data-name="Path 925032" d="M58.075,36.116l-9.387,8.805a11.781,11.781,0,0,0-3.035-4.214h0Z" transform="translate(-27.195 -23.833)" fill="#ffbf00"/>
          <path id="Path_925033" data-name="Path 925033" d="M88.774,40.692,76.388,36.118l-.006,0h.006l9,.734h0c.034.709,3.287,3.746,3.389,3.842" transform="translate(-45.502 -23.833)" fill="#fd0"/>
          <path id="Path_925034" data-name="Path 925034" d="M58.047,36.155,45.655,40.731c.094-.081,3.079-2.683,3.265-3.83v0h0Z" transform="translate(-27.198 -23.859)" fill="#fd0"/>
          <path id="Path_925035" data-name="Path 925035" d="M75.065,35.086a3.149,3.149,0,0,1-2.436,0c-.675-.328-.678-.858-.008-1.183a3.149,3.149,0,0,1,2.436,0c.675.328.678.857.008,1.183" transform="translate(-42.963 -22.21)" fill="#fd0"/>
          <path id="Path_925036" data-name="Path 925036" d="M76.219,30.456v1.675a.164.164,0,0,1-.1.1.631.631,0,0,1-.487,0,.162.162,0,0,1-.1-.1V30.456Z" transform="translate(-44.997 -20.098)" fill="#ffbf00"/>
          <path id="Path_925037" data-name="Path 925037" d="M76.219,30.117v.032a.164.164,0,0,1-.1.1.629.629,0,0,1-.487,0,.163.163,0,0,1-.1-.1v-.032a.16.16,0,0,1,.1-.1.628.628,0,0,1,.486,0,.168.168,0,0,1,.1.1" transform="translate(-44.997 -19.774)" fill="#fd0"/>
          <path id="Path_925038" data-name="Path 925038" d="M36.2,149.81a1.694,1.694,0,0,1-.664.6l-5.764,2.8-.064.033c-.093-1.507-.179-3.014-.247-4.524-.032-.7-.061-1.4-.085-2.1a1.408,1.408,0,0,1,.057-.546.552.552,0,0,1,.093-.156c.318-.369,1.039,0,1.535.033a4.618,4.618,0,0,0,2.081-.33,4.63,4.63,0,0,1,1.167-.435,2.159,2.159,0,0,0,1.01-.252,2.536,2.536,0,0,1,.439,1.081c.021.1.043.2.064.309a19.5,19.5,0,0,1,.378,3.492" transform="translate(-17.497 -95.64)" fill="#262626"/>
          <path id="Path_925039" data-name="Path 925039" d="M20.765,144.018c-.032.45-.072.9-.114,1.354-.143,1.522-.35,3.038-.578,4.554l-.064.033-5.489,2.666c-.039-.135-.078-.273-.118-.408a28.637,28.637,0,0,1-1.306-7.43,14.137,14.137,0,0,1,.05-1.456,6.937,6.937,0,0,1,.378-1.678c.025-.075.053-.147.078-.219s.054-.126.078-.189a1.972,1.972,0,0,1,1.513-1.258,3.43,3.43,0,0,1,2.38.7A10.969,10.969,0,0,1,19.219,142a7.836,7.836,0,0,1,.606.627c.036.048.072.1.1.144.068.1.054.222.118.313.086.12.292.138.432.2.285.129.3.456.285.726" transform="translate(-7.8 -92.359)" fill="#404040"/>
          <path id="Path_925040" data-name="Path 925040" d="M26.143,110.835c.05-2.468.542-4.924.5-7.391a.381.381,0,0,0-.287-.342,25.994,25.994,0,0,0-5.232-.84c-.232-.021-.465-.043-.7-.054a1.236,1.236,0,0,1-.486-.042.439.439,0,0,1-.144-.174,9.221,9.221,0,0,0-1.4.456c-.577.214-1.153.427-1.719.661a29.165,29.165,0,0,0-2.71,1.163.508.508,0,0,0-.239.2c-.054.122.014.26.032.383a2.731,2.731,0,0,1,0,.364A6.689,6.689,0,0,0,14.121,107a14.162,14.162,0,0,1,.675,5.3c-.173,1.746-.843,3.43-1.158,5.163a.927.927,0,0,0-.006.534,1.991,1.991,0,0,0,.392.468,5.222,5.222,0,0,0,1.015.808,7.441,7.441,0,0,0,2.528.949A13.611,13.611,0,0,0,22.5,120.1a9.306,9.306,0,0,0,3.13-1.188,1.837,1.837,0,0,0,.765-.691,1.263,1.263,0,0,0,.025-.387c.015-.291-.3-5.842-.273-7" transform="translate(-8.098 -67.305)" fill="#025974"/>
          <path id="Path_925041" data-name="Path 925041" d="M24.523,98.122a4.77,4.77,0,0,1-.435.634c-.165.226-.285.393-.1.641a2.374,2.374,0,0,0,1.517.743,5.552,5.552,0,0,0,3.009-.343,1.461,1.461,0,0,0,.659-.457.63.63,0,0,0,.09-.552c-.065-.154-.29-.253-.293-.432,0-.078.036-.13.016-.214a.627.627,0,0,0-.151-.286c-.179-.188-.509-.163-.746-.275a2.9,2.9,0,0,1-.995-.859,2.086,2.086,0,0,0-.9-.8,1.867,1.867,0,0,0-.593-.079,1.53,1.53,0,0,0-.824.17.551.551,0,0,0-.22.545q.033.434.033.869a1.464,1.464,0,0,1-.072.7" transform="translate(-14.235 -63.247)" fill="#663c33"/>
          <path id="Path_925042" data-name="Path 925042" d="M28.835,87.973a1.026,1.026,0,0,1-.566.678,1.387,1.387,0,0,1-.382.058,11.26,11.26,0,0,1-1.169,0,2.787,2.787,0,0,1-1.855-.612c-.314-.327-.454-.814-.919-.969-.1-.034-.209-.048-.313-.073a1.908,1.908,0,0,1-1.214-1.17,4.97,4.97,0,0,1-.359-1.843,2.419,2.419,0,0,1,1.249-2.212,4.735,4.735,0,0,1,2.264-.63,4.01,4.01,0,0,1,2.665,1.121,4.713,4.713,0,0,1,1,3.762,6.644,6.644,0,0,1-.407,1.891" transform="translate(-13.139 -53.584)" fill="#874f43"/>
          <path id="Path_925043" data-name="Path 925043" d="M27.655,80.446a.794.794,0,0,1,.418.544,1.95,1.95,0,0,1-.006.683,1.351,1.351,0,0,0-.9-.743c-.247-.052-.365.05-.576.146a4.049,4.049,0,0,1-.746.229,6.688,6.688,0,0,0-.856.233A3.013,3.013,0,0,0,23.645,82.6a6.92,6.92,0,0,0-.748,1.441.517.517,0,0,0-.34-.29.544.544,0,0,0-.684.447,1.3,1.3,0,0,0,.445.914c.113.113.257.236.23.382a1.606,1.606,0,0,1-.762-.239.68.68,0,0,1-.333-.6.06.06,0,0,0,0-.039c-.012-.019-.041-.022-.066-.025a.559.559,0,0,1-.315-.939.123.123,0,0,0,.032-.05c.006-.031-.019-.06-.04-.085a.609.609,0,0,1,.093-.859.432.432,0,0,1-.268-.4A.4.4,0,0,1,21.011,82c.072-.07.155-.087.14-.186s-.092-.166-.106-.258a.491.491,0,0,1,.064-.329c.065-.11.186-.152.264-.243s.023-.122.006-.21a.4.4,0,0,1,.083-.333,1.185,1.185,0,0,1,.385-.289,1.217,1.217,0,0,1,.61-.183.606.606,0,0,1,.391-.532,1.37,1.37,0,0,1,.762-.08,1.022,1.022,0,0,1,1.119-.122.558.558,0,0,1,.468-.134,1.407,1.407,0,0,1,.473.17.665.665,0,0,1,.817.293c-.013-.031.255.041.279.047a.99.99,0,0,1,.3.1.833.833,0,0,1,.357.5.314.314,0,0,0,.075.163.5.5,0,0,0,.138.073l.018.008" transform="translate(-12.441 -52.192)" fill="#262626"/>
          <path id="Path_925044" data-name="Path 925044" d="M3.963,123.47a.5.5,0,0,0,.065.338.626.626,0,0,0,.3.185A4.655,4.655,0,0,0,6.678,124a.371.371,0,0,0,.137-.044.279.279,0,0,0,.094-.136l2-4.865a.931.931,0,0,0,.1-.39.958.958,0,0,0-.158-.413,4.077,4.077,0,0,0-.815-1.1,1.9,1.9,0,0,0-1.374-.49,1.094,1.094,0,0,0-.995.769c-.133.446-.252.893-.4,1.337-.344,1.012-.741,2.012-1.008,3.041a8.924,8.924,0,0,0-.29,1.753" transform="translate(-2.359 -76.922)" fill="#874f43"/>
          <path id="Path_925045" data-name="Path 925045" d="M4.45,137.241c.106.167.222.33.34.492l.224.306q.936,1.275,1.951,2.507.508.615,1.035,1.22c.267.306.6.839,1.128.85a1.028,1.028,0,0,0,.509-.155,2.679,2.679,0,0,0,.979-.906.242.242,0,0,0,.049-.134c0-.072-.07-.13-.13-.182a6.573,6.573,0,0,1-1.062-1.278,23.429,23.429,0,0,1-2.618-4.421,1.024,1.024,0,0,0-.34-.512,1.144,1.144,0,0,0-.382-.143,4.667,4.667,0,0,0-.944-.116,1.411,1.411,0,0,0-.948.272,1,1,0,0,0-.245,1.014,3.078,3.078,0,0,0,.456,1.188" transform="translate(-2.359 -88.934)" fill="#874f43"/>
          <path id="Path_925046" data-name="Path 925046" d="M15.558,154.389c.08,0,.16-.015.24-.01a.885.885,0,0,1,.384.145c.212.126.411.265.61.4l.676.473a.712.712,0,0,0,.235.123c.067.016.138.015.207.024.137.018.26.079.394.11a.416.416,0,0,0,.384-.068.786.786,0,0,0,.074-.113c.1-.143.3-.23.344-.39.062-.253-.341-.459-.289-.714.15-.027.188.207.338.228a.2.2,0,0,0,.162-.066.476.476,0,0,0,.009-.529,4.63,4.63,0,0,0-1.148-1.532,1.321,1.321,0,0,0-.678-.384,1.357,1.357,0,0,0-.444.024,3.589,3.589,0,0,0-.7.2.359.359,0,0,1-.243.038.293.293,0,0,1-.087-.054l-.3-.246a.213.213,0,0,0-.079-.046.237.237,0,0,0-.106.007,6.862,6.862,0,0,0-.916.272,1.612,1.612,0,0,0-.5.267c-.355.312-.118.591.1.89a3.036,3.036,0,0,0,.674.706,1.121,1.121,0,0,0,.657.236" transform="translate(-8.307 -100.312)" fill="#874f43"/>
          <path id="Path_925047" data-name="Path 925047" d="M10.209,108.577c-.423-.349-1.159.082-1.515.365a10.242,10.242,0,0,0-1.136,1.141c-.435.474-.864.955-1.259,1.453-.188.237-.372.433-.269.729a2.636,2.636,0,0,0,.828,1.141,4.058,4.058,0,0,0,1.614.773,3.6,3.6,0,0,0,1.941-.023.2.2,0,0,0,.093-.05.154.154,0,0,0,.03-.094c.082-1.051.165-2.1.145-3.155a8.856,8.856,0,0,0-.093-1.186c-.053-.337-.077-.845-.378-1.093" transform="translate(-3.575 -71.566)" fill="#087597"/>
          <path id="Path_925048" data-name="Path 925048" d="M74.277,77.973a.828.828,0,0,0-.152.176.722.722,0,0,0-.072.247.583.583,0,0,0,.005.306.89.89,0,0,1,.05.122.366.366,0,0,1-.035.205.435.435,0,0,0-.005.409.516.516,0,0,1,.054.074.192.192,0,0,1,.009.12,1.722,1.722,0,0,0-.038.2.215.215,0,0,0,.074.187c.03.022.067.037.094.062a.283.283,0,0,1,.067.171.41.41,0,0,0,.127.239.312.312,0,0,0,.288.064c.107-.036.167-.137.273-.172a.545.545,0,0,1,.323.033,1.493,1.493,0,0,0,.55.084.815.815,0,0,0,.5-.217.576.576,0,0,0,.18-.447.263.263,0,0,1,0-.08.285.285,0,0,1,.049-.086.645.645,0,0,0,.118-.319.229.229,0,0,0-.03-.152c-.041-.06-.122-.093-.162-.153-.074-.112.027-.247.024-.375a.341.341,0,0,0-.154-.253.993.993,0,0,0-.3-.137A.321.321,0,0,1,76,78.233c-.065-.053-.054-.141-.068-.217-.039-.2-.272-.324-.46-.452a1.229,1.229,0,0,0-.263-.158c-.21-.078-.33.033-.467.149q-.24.2-.466.419" transform="translate(-44.095 -51.064)" fill="#874f43"/>
          <path id="Path_925049" data-name="Path 925049" d="M93.067,7.832a3.407,3.407,0,0,0,.043-.544c.008-2.216-1.846-4.916-4.138-6.029a3.4,3.4,0,0,0-2.952-.243l-.929.454a5.7,5.7,0,0,0-1.5-1.1,2.663,2.663,0,0,0-2.313-.19l-1.738.85a2.4,2.4,0,0,0-1.814.012l-2.012.984a2.668,2.668,0,0,1,2.318.191c.112.054.223.115.335.18l2.013-.984c-.112-.065-.224-.126-.335-.18a4.176,4.176,0,0,0-.45-.185,2.918,2.918,0,0,1,1.985.306,5.828,5.828,0,0,1,1.68,1.273l1.767-.863a4.23,4.23,0,0,1,1.934.474C89.252,3.355,91.1,6.056,91.1,8.271a3.457,3.457,0,0,1-.043.544,5.605,5.605,0,0,1,1.934,3.825,1.829,1.829,0,0,1-.95,1.759l2.012-.984A1.829,1.829,0,0,0,95,11.657a5.608,5.608,0,0,0-1.934-3.825" transform="translate(-45.104 0)" fill="#e6e6e6"/>
          <path id="Path_925050" data-name="Path 925050" d="M85.558,4.152C87.85,5.265,89.7,7.965,89.7,10.181a3.362,3.362,0,0,1-.043.544,5.6,5.6,0,0,1,1.934,3.825c-.006,1.74-1.469,2.441-3.269,1.567L76.609,10.43A5.911,5.911,0,0,1,73.361,5.7c.006-1.738,1.469-2.441,3.269-1.567.112.054.223.115.335.18.274-1.345,1.608-1.822,3.212-1.043a5.84,5.84,0,0,1,1.68,1.273c.693-.961,2.09-1.171,3.7-.389" transform="translate(-43.703 -1.909)" fill="#bfbfbf"/>
          <path id="Path_925051" data-name="Path 925051" d="M120.939,48.155h0l-1.246-1.795-1.233,1.776h0a1.068,1.068,0,0,0-.211.629,1.464,1.464,0,0,0,2.884,0,1.064,1.064,0,0,0-.2-.61" transform="translate(-70.446 -30.594)" fill="#0069d1"/>
          <path id="Path_925052" data-name="Path 925052" d="M120.353,49.345h0l-.671-.966-.664.956h0a.575.575,0,0,0-.113.339.788.788,0,0,0,1.552,0,.572.572,0,0,0-.106-.329" transform="translate(-70.835 -31.926)" fill="#0080ff"/>
          <path id="Path_925053" data-name="Path 925053" d="M84.648,36.007h0L83.4,34.212l-1.233,1.776h0a1.065,1.065,0,0,0-.211.629,1.464,1.464,0,0,0,2.884,0,1.064,1.064,0,0,0-.2-.61" transform="translate(-48.826 -22.577)" fill="#0069d1"/>
          <path id="Path_925054" data-name="Path 925054" d="M84.061,37.2h0l-.671-.966-.663.956h0a.575.575,0,0,0-.113.339.788.788,0,0,0,1.552,0,.572.572,0,0,0-.106-.329" transform="translate(-49.215 -23.909)" fill="#0080ff"/>
          <path id="Path_925055" data-name="Path 925055" d="M70.357,19.364h0l-1.246-1.795L67.88,19.345h0a1.068,1.068,0,0,0-.211.629,1.464,1.464,0,0,0,2.884,0,1.065,1.065,0,0,0-.2-.61" transform="translate(-40.313 -11.594)" fill="#0069d1"/>
          <path id="Path_925056" data-name="Path 925056" d="M69.77,20.554h0l-.671-.966-.663.956h0a.575.575,0,0,0-.113.339.788.788,0,0,0,1.552,0,.572.572,0,0,0-.106-.329" transform="translate(-40.702 -12.926)" fill="#0080ff"/>
          <path id="Path_925057" data-name="Path 925057" d="M106.961,58.395h0L105.717,56.6l-1.233,1.776h0a1.068,1.068,0,0,0-.211.629,1.464,1.464,0,0,0,2.884,0,1.064,1.064,0,0,0-.2-.61" transform="translate(-62.119 -37.351)" fill="#0069d1"/>
          <path id="Path_925058" data-name="Path 925058" d="M106.375,59.585h0l-.671-.966-.664.956h0a.575.575,0,0,0-.113.339.788.788,0,0,0,1.552,0,.572.572,0,0,0-.106-.329" transform="translate(-62.508 -38.684)" fill="#0080ff"/>
        </g>
      </g>
    </g>
  </g>
</svg>
