<svg id="Group_1119280" data-name="Group 1119280" xmlns="http://www.w3.org/2000/svg" xmlns:xlink="http://www.w3.org/1999/xlink" width="105.334" height="105.692" viewBox="0 0 105.334 105.692">
  <defs>
    <clipPath id="clip-path">
      <rect id="Rectangle_407255" data-name="Rectangle 407255" width="105.334" height="105.693" transform="translate(0)" fill="#f69a8b"/>
    </clipPath>
    <clipPath id="clip-path-2">
      <rect id="Rectangle_401492" data-name="Rectangle 401492" width="65.388" height="65.389" transform="translate(-0.289 0.166)" fill="#953c2d" stroke="#707070" stroke-width="1"/>
    </clipPath>
    <clipPath id="clip-path-3">
      <rect id="Rectangle_409170" data-name="Rectangle 409170" width="62.688" height="62.723" fill="#953c2d"/>
    </clipPath>
  </defs>
  <g id="Group_1116923" data-name="Group 1116923" clip-path="url(#clip-path)">
    <path id="Path_893365" data-name="Path 893365" d="M104.048,31.292C97.88,10.265,51.742-13.615,17.656,9.414s-9.13,105.365-4.625,88.724c4.329-15.992,23.523-2.928,37.93-2.46C67,96.2,77.411,92.049,77.386,91.987c7.4-2.756,12.628-6.379,17-13.195,8.73-13.615,13.376-34.847,9.664-47.5" transform="translate(0.001 2.676)" fill="#f69a8b"/>
  </g>
  <g id="Group_1115380" data-name="Group 1115380" transform="translate(20 20)">
    <rect id="Rectangle_401104" data-name="Rectangle 401104" width="60.924" height="61.907" transform="translate(2.232 0)" fill="none"/>
    <g id="Mask_Group_1098697" data-name="Mask Group 1098697" transform="translate(0 0)" clip-path="url(#clip-path-2)">
      <g id="Group_1119448" data-name="Group 1119448" transform="translate(1.711 1.166)">
        <g id="Group_1119447" data-name="Group 1119447" clip-path="url(#clip-path-3)">
          <path id="Path_925338" data-name="Path 925338" d="M205.816,3.137c1.259.118,3.02-.576,3.152,1.2l0,31.669c.034.464-.226,1.2-.693,1.344l-25.3-.134c-.532-.336-.232-2.179-.307-2.793-1.111-.1-2.9.47-3.136-1.029l-.02-25.729.217-.893L185.816.445l1.042-.439L204.788,0c1.594.263.891,1.953,1.028,3.137M203.78,2.026H187.675V7.487a4.34,4.34,0,0,1-.648.648h-5.461V32.385H203.78ZM185.64,6.1l0-2.407-2.4,2.315Zm21.288-.927h-1.111v28.6a4.34,4.34,0,0,1-.648.648H184.713v.926h22.214Z" transform="translate(-146.288)" fill="#953c2d"/>
          <path id="Path_925339" data-name="Path 925339" d="M31.208,160.268a5.452,5.452,0,0,1,.092,9.81,5.6,5.6,0,0,1-4.7,7.256,5.5,5.5,0,0,1-9.371,3.893,5.471,5.471,0,0,1-9.357-3.91,5.582,5.582,0,0,1-4.817-7.4,5.417,5.417,0,0,1,.024-9.763,5.588,5.588,0,0,1,4.776-7.309c-.163-4.8,5.878-7.258,9.212-3.876,3.856-3.287,9.086-1.082,9.6,3.9a5.533,5.533,0,0,1,4.544,7.389M5.244,161.531c-.3.3-1.619.487-2.277,1.147a3.547,3.547,0,0,0,0,4.826c.68.718,2.292.976,2.473,1.61.2.708-.668,1.893-.692,2.752-.064,2.315,3.223,4.7,4.98,2.758.728-.806.7-2.78,2.224-2.034,1.19.583-.205,2.944-.853,3.591-.892.89-1.609.513-1.059,2.394.808,2.764,5.2,3.052,6.179.319l-.15-28.008c-1.439-2.365-5.549-1.672-6.111,1.011-.341,1.627.5,1.459,1.347,2.456.571.673,1.868,2.881.517,3.3-1.86.577-1.223-2.249-3.006-2.664A3.522,3.522,0,0,0,4.771,158.2c-.084,1.069,1.2,2.613.474,3.329M24.5,153.207c.274-.467-.255-1.791-.547-2.248-1.309-2.052-4.689-2.079-5.7.167l.083,28.4a3.491,3.491,0,0,0,6.17-2.562c-1.4-.1-3.839-4.347-1.711-4.465,1.506-.083,1.126,2.338,2.619,2.724a3.483,3.483,0,0,0,4.125-3.2c.045-1.044-.882-2.176-.673-2.865.214-.7,1.248-.76,1.84-1.136a3.446,3.446,0,0,0-.149-5.9c-.513-.3-1.565-.4-1.738-1.054-.145-.546.827-1.9.7-3.084-.236-2.221-3.5-4.366-5.067-2.137-.484.687-.457,1.918-1.491,1.945-2.048.054-.461-3.024.36-3.816.269-.26,1.137-.709,1.172-.769" transform="translate(0 -120.118)" fill="#953c2d"/>
          <path id="Path_925340" data-name="Path 925340" d="M206.386,222.777v-9.349c0-.57.918-.8,1.38-.842.913-.084,4.408-.262,4.693.692-.156,1.874.433,14.589-.237,15.241-.514.5-6.419-.024-7.569.206-.764.25.266,2.518-.864,3.03-.7.316-1.723-.752-2.3-1.209-1.314-1.035-3.415-2.655-4.543-3.788-.457-.459-.738-.706-.516-1.444.214-.71,5.836-4.794,6.768-5.653,1.846-.28.78,2.652,1.328,3.034Zm4.073-8.145h-2.036v9.534c0,.2-.757.594-1.029.637a21.988,21.988,0,0,1-4.022-.029c-.9-.2-1.044-1.049-1.149-1.811l-3.122,2.575-.117.382,3.239,2.594c-.029-.552.487-1.85,1.11-1.85h7.127Z" transform="translate(-160 -173.175)" fill="#953c2d"/>
          <path id="Path_925341" data-name="Path 925341" d="M84.7,36.214c.066-1.213-.474-3.236,1.34-3.113l6.438,5.239a1.191,1.191,0,0,1,.339,1.07c-.136.717-5.93,5.147-6.942,5.838-1.542-.3-1.144-1.915-1.174-3.11H82.85V51.3c0,.613-.644.955-1.2,1.021a18.667,18.667,0,0,1-4.457-.177,1.189,1.189,0,0,1-.412-.514l.056-15.045a1.656,1.656,0,0,1,.367-.373Zm1.574,1.851h-7.5V50.283h2.036V40.749c0-.2.757-.594,1.029-.637.829-.131,4.442-.215,4.8.544.175.368-.094,1.487.367,1.295l3.242-2.957a.716.716,0,0,1-.46-.185A35.609,35.609,0,0,0,87.013,36.4c-.454-.193-.225.868-.314,1.164a1.2,1.2,0,0,1-.424.5" transform="translate(-62.566 -26.969)" fill="#953c2d"/>
          <path id="Path_925342" data-name="Path 925342" d="M39.3,221.076c.852-.13,3.345,2.12,3.906,2.872.7.94,2.238,4.282.125,4.152-1.146-.071-.89-1.246-1.16-2.006-.663-1.865-3.365-2.789-3.654-3.379a1.127,1.127,0,0,1,.783-1.639" transform="translate(-31.286 -180.146)" fill="#953c2d"/>
          <path id="Path_925343" data-name="Path 925343" d="M121.353,223.6a1.345,1.345,0,0,1,.14,1.252c-.485.533-1.2.6-1.819.961-1.832,1.064-1.895,2.477-2.393,4.363-3.467.939-.971-4.237.234-5.416-.417-1.541-2.789.578-2.967-1.316-.152-1.625,2.641-1.546,3.73-.935.489.275,1.087,1.2,1.171,1.21.161.014,1.236-.785,1.9-.119" transform="translate(-93.339 -180.993)" fill="#953c2d"/>
          <path id="Path_925344" data-name="Path 925344" d="M200.924,80.9a2.3,2.3,0,0,1-.964-.89,2.559,2.559,0,0,1-.341-1.332v-1.95a2.559,2.559,0,0,1,.341-1.332,2.3,2.3,0,0,1,.964-.89,3.455,3.455,0,0,1,2.881,0,2.3,2.3,0,0,1,.964.89,2.558,2.558,0,0,1,.341,1.332v1.95a2.559,2.559,0,0,1-.341,1.332,2.3,2.3,0,0,1-.964.89,3.451,3.451,0,0,1-2.881,0m2.113-1.131a1.068,1.068,0,0,0,.447-.424,1.25,1.25,0,0,0,.158-.634V76.694a1.25,1.25,0,0,0-.158-.634,1.067,1.067,0,0,0-.447-.424,1.59,1.59,0,0,0-1.345,0,1.066,1.066,0,0,0-.447.424,1.25,1.25,0,0,0-.158.634V78.71a1.25,1.25,0,0,0,.158.634,1.067,1.067,0,0,0,.447.424,1.59,1.59,0,0,0,1.345,0" transform="translate(-162.665 -60.456)" fill="#953c2d"/>
          <path id="Path_925345" data-name="Path 925345" d="M236.831,74.573h1.417v6.881h-1.417Zm.646,2.963h2.4a.913.913,0,0,0,.447-.106.761.761,0,0,0,.3-.3.9.9,0,0,0,.108-.445.938.938,0,0,0-.106-.452.74.74,0,0,0-.3-.3.928.928,0,0,0-.453-.106h-2.4V74.573h2.369a2.78,2.78,0,0,1,1.239.263,1.969,1.969,0,0,1,.83.741,2.224,2.224,0,0,1,0,2.213,1.958,1.958,0,0,1-.83.736,2.8,2.8,0,0,1-1.239.26h-2.369Z" transform="translate(-192.989 -60.768)" fill="#953c2d"/>
          <path id="Path_925346" data-name="Path 925346" d="M271.154,81.114a4.816,4.816,0,0,1-.967-.291,3.8,3.8,0,0,1-.809-.461l.657-1.07a3.279,3.279,0,0,0,1,.5,3.9,3.9,0,0,0,1.169.178,2.216,2.216,0,0,0,1.076-.215.669.669,0,0,0,.383-.608v0a.57.57,0,0,0-.17-.435,1.043,1.043,0,0,0-.445-.237,5.87,5.87,0,0,0-.7-.137.1.1,0,0,0-.028,0,.1.1,0,0,1-.029,0l-.114-.014a7.531,7.531,0,0,1-1.252-.272,1.84,1.84,0,0,1-.843-.573,1.748,1.748,0,0,1-.347-1.162v0a1.961,1.961,0,0,1,.326-1.141,2.023,2.023,0,0,1,.946-.722,4.039,4.039,0,0,1,1.5-.248,4.157,4.157,0,0,1,.825.085,4.8,4.8,0,0,1,1.59.634l-.6,1.1a3.953,3.953,0,0,0-.907-.426,2.978,2.978,0,0,0-.908-.151,2.121,2.121,0,0,0-1.009.2.606.606,0,0,0-.357.551v0a.611.611,0,0,0,.186.471,1.132,1.132,0,0,0,.46.253,7.821,7.821,0,0,0,.771.17l.041.007.041.007.06.012a.554.554,0,0,0,.059.012,6.737,6.737,0,0,1,1.192.31,1.84,1.84,0,0,1,.8.587,1.734,1.734,0,0,1,.32,1.105v.009a1.881,1.881,0,0,1-.336,1.126,2.079,2.079,0,0,1-.98.715,4.343,4.343,0,0,1-1.549.246,5.552,5.552,0,0,1-1.053-.1" transform="translate(-219.51 -60.456)" fill="#953c2d"/>
        </g>
      </g>
    </g>
  </g>
</svg>
