<svg id="Group_1119282" data-name="Group 1119282" xmlns="http://www.w3.org/2000/svg" xmlns:xlink="http://www.w3.org/1999/xlink" width="105.334" height="105.692" viewBox="0 0 105.334 105.692">
  <defs>
    <clipPath id="clip-path">
      <rect id="Rectangle_407255" data-name="Rectangle 407255" width="105.334" height="105.693" transform="translate(0)" fill="#f69a8b"/>
    </clipPath>
    <clipPath id="clip-path-2">
      <rect id="Rectangle_401492" data-name="Rectangle 401492" width="65.388" height="65.389" transform="translate(-0.289 0.166)" fill="#12263f" stroke="#707070" stroke-width="1"/>
    </clipPath>
    <clipPath id="clip-path-3">
      <rect id="Rectangle_409169" data-name="Rectangle 409169" width="59.203" height="59.132" fill="#953c2d"/>
    </clipPath>
  </defs>
  <g id="Group_1116923" data-name="Group 1116923" clip-path="url(#clip-path)">
    <path id="Path_893365" data-name="Path 893365" d="M104.048,31.292C97.88,10.265,51.742-13.615,17.656,9.414s-9.13,105.365-4.625,88.724c4.329-15.992,23.523-2.928,37.93-2.46C67,96.2,77.411,92.049,77.386,91.987c7.4-2.756,12.628-6.379,17-13.195,8.73-13.615,13.376-34.847,9.664-47.5" transform="translate(0.001 2.676)" fill="#f69a8b"/>
  </g>
  <g id="Group_1115380" data-name="Group 1115380" transform="translate(20 20)">
    <rect id="Rectangle_401104" data-name="Rectangle 401104" width="60.924" height="61.907" transform="translate(2.232 0)" fill="none"/>
    <g id="Mask_Group_1098697" data-name="Mask Group 1098697" transform="translate(0 0)" clip-path="url(#clip-path-2)">
      <g id="Group_1119446" data-name="Group 1119446" transform="translate(2.711 3.166)">
        <g id="Group_1119445" data-name="Group 1119445" clip-path="url(#clip-path-3)">
          <path id="Path_925327" data-name="Path 925327" d="M41.369,27.552l.247.213c13.629-1.65,22.722,14.006,14.4,25.115a15.851,15.851,0,0,1-26.8-2.535L3.671,50.333A4.073,4.073,0,0,1,0,46.375V3.814A3.973,3.973,0,0,1,3.815,0L33.132.021a3.379,3.379,0,0,1,.892.295c.828.376,5.861,5.366,6.586,6.3a10.722,10.722,0,0,1,.759,1.275ZM32.554,2.04H3.313c-.3,0-1.413,1.132-1.275,1.607l.08,43.493c.056.371,1.124,1.178,1.365,1.178H28.316a16.041,16.041,0,0,1,11.2-20.276L39.25,8.821H35.52c-1,0-2.966-2.156-2.966-3.136Zm5.424,4.914L34.59,3.566c-.389,2.688.757,3.672,3.389,3.389m3.352,22.763C32.888,30.671,27.7,39.865,30.3,47.77a13.824,13.824,0,0,0,21.824,6.306c10.729-8.884,3.358-25.955-10.8-24.358" fill="#953c2d"/>
          <path id="Path_925328" data-name="Path 925328" d="M41.78,110.933a1.676,1.676,0,0,1,1.07.048c1.222,1.695-1.75,2.952-2.51,4.274-.348,2.563,1.157,7.929-2.662,8.357a44.444,44.444,0,0,1-6.612,0,3.073,3.073,0,0,1-2.631-2.624,43.093,43.093,0,0,1,0-6.446,3.042,3.042,0,0,1,2.969-2.794c1.334-.134,6.078-.161,7.149.305a4.689,4.689,0,0,1,1.155.872c.184,0,1.638-1.862,2.069-1.992m-3.509,6.406c-.827.449-2.01,2.433-2.954,2.372-.631-.041-3.792-2.8-2.57-3.743,1.147-.886,2.29,1.262,2.7,1.19l2.814-2.785-.622-.559c-1.875.176-4.639-.359-6.4-.03-.6.111-.728.567-.778,1.087a39.8,39.8,0,0,0,.007,5.777,1.227,1.227,0,0,0,.34.846l7.121,0a1.945,1.945,0,0,0,.339-.508Z" transform="translate(-23.516 -92.075)" fill="#953c2d"/>
          <path id="Path_925329" data-name="Path 925329" d="M41.952,28.986a1,1,0,0,1,1.236,1.234c-.117.676-2.431,2.321-2.849,3.094-.433,2.994,1.394,8.082-3,8.524-1.372.138-6.025.163-7.151-.3a3,3,0,0,1-1.747-2.491,43.093,43.093,0,0,1,0-6.446,3.073,3.073,0,0,1,2.631-2.624c1.2-.135,6.819-.137,7.663.306.4.208.557.607.983.718.5,0,1.711-1.853,2.24-2.011M38.271,39.213c.243-.883-.18-2.8,0-3.814-1.148.642-2.041,2.9-3.518,2.246-.126-.056-1.867-1.761-1.982-1.916-.482-.651-.563-1.361.293-1.732,1.1-.475,1.879,1.478,2.387,1.389l2.739-2.7c.218-.5-.8-.814-1.186-.856-.883-.1-5.482-.092-6.068.212-.376.2-.419.5-.465.891a39.531,39.531,0,0,0-.008,5.777c.064.659.234,1.008.934,1.1A43.971,43.971,0,0,0,37.5,39.8a1.559,1.559,0,0,0,.767-.59" transform="translate(-23.516 -24.035)" fill="#953c2d"/>
          <path id="Path_925330" data-name="Path 925330" d="M41.976,191.986a1,1,0,0,1,1.236,1.234c-.117.676-2.431,2.321-2.849,3.094-.431,3.052,1.4,8-3.019,8.508-1.3.15-5.918.17-7.018-.235a3.22,3.22,0,0,1-1.848-2.39,42.356,42.356,0,0,1-.022-6.433,3.094,3.094,0,0,1,2.461-2.794,46.864,46.864,0,0,1,6.958,0c.876.105,1.168.636,1.861,1.027.5,0,1.711-1.853,2.24-2.011M38.3,202.212c.243-.883-.18-2.8,0-3.814-1.009.531-2.111,2.872-3.388,2.285a30.607,30.607,0,0,1-2.356-2.4.95.95,0,0,1,1.173-1.344c.629.191,1.09,1.236,1.751,1.445a26.412,26.412,0,0,0,2.49-2.436c.159-.269.269-.479.086-.781a2.222,2.222,0,0,0-1.19-.337,35.032,35.032,0,0,0-5.693.083.93.93,0,0,0-.666.69c.142,1.958-.2,4.189-.014,6.109.064.659.234,1.008.934,1.1a43.972,43.972,0,0,0,6.108-.013,1.559,1.559,0,0,0,.767-.59" transform="translate(-23.54 -159.404)" fill="#953c2d"/>
          <path id="Path_925331" data-name="Path 925331" d="M128.478,128.247l13.606.053a1.038,1.038,0,0,1-.586,1.949c-3.956-.307-8.494.4-12.378,0-1.345-.14-1.817-1.222-.643-2" transform="translate(-106.144 -106.507)" fill="#953c2d"/>
          <path id="Path_925332" data-name="Path 925332" d="M136.525,47.275c-.186.187-.622.195-.885.217a47.419,47.419,0,0,1-6.8,0c-1.3-.167-1.287-1.827.19-2.032a41.5,41.5,0,0,1,6.43-.011c.352.039,1.024.175,1.189.506a1.527,1.527,0,0,1-.127,1.318" transform="translate(-106.215 -37.647)" fill="#953c2d"/>
          <path id="Path_925333" data-name="Path 925333" d="M128.711,156.643a45.262,45.262,0,0,1,6.231-.032,1.023,1.023,0,0,1-.175,2.02,36.038,36.038,0,0,1-5.882-.031c-1.268-.232-1.335-1.7-.174-1.957" transform="translate(-106.206 -129.987)" fill="#953c2d"/>
          <path id="Path_925334" data-name="Path 925334" d="M128.647,76.092l6.571-.032a.975.975,0,0,1,0,1.856,51.072,51.072,0,0,1-6.433,0,.946.946,0,0,1-.138-1.824" transform="translate(-106.313 -63.167)" fill="#953c2d"/>
          <path id="Path_925335" data-name="Path 925335" d="M128.925,208.875a10.444,10.444,0,0,1,3.366.112.991.991,0,0,1,.163,1.722,13.892,13.892,0,0,1-3.873.123,1.014,1.014,0,0,1,.344-1.957" transform="translate(-106.246 -173.4)" fill="#953c2d"/>
          <path id="Path_925336" data-name="Path 925336" d="M128.5,238.887a16.742,16.742,0,0,1,2.989.006c.776.228.587,1.658-.309,1.826a12.426,12.426,0,0,1-2.5-.031c-.8-.231-.81-1.589-.177-1.8" transform="translate(-106.342 -198.339)" fill="#953c2d"/>
          <path id="Path_925337" data-name="Path 925337" d="M227.22,209.82a1.02,1.02,0,0,1,1.686,1.082l-8.945,13.947a1.028,1.028,0,0,1-1.42.248,24.584,24.584,0,0,1-3.38-3.586,1.154,1.154,0,0,1,.592-1.046c1.155-.677,2.919,2.372,3.282,2.106Z" transform="translate(-178.681 -173.994)" fill="#953c2d"/>
        </g>
      </g>
    </g>
  </g>
</svg>
