<svg xmlns="http://www.w3.org/2000/svg" xmlns:xlink="http://www.w3.org/1999/xlink" width="99" height="99" viewBox="0 0 99 99">
  <defs>
    <clipPath id="clip-path">
      <rect id="Rectangle_401223" data-name="Rectangle 401223" width="99" height="99" transform="translate(0)" fill="#8ce6fe"/>
    </clipPath>
    <clipPath id="clip-path-2">
      <rect id="Rectangle_401223-2" data-name="Rectangle 401223" width="88.539" height="88.539" fill="#f3f9ff"/>
    </clipPath>
    <clipPath id="clip-path-3">
      <rect id="Rectangle_409210" data-name="Rectangle 409210" width="63.29" height="58.309" fill="none"/>
    </clipPath>
  </defs>
  <g id="Group_1119264" data-name="Group 1119264" transform="translate(-619.921 -5755.871)">
    <g id="Group_1100724" data-name="Group 1100724" transform="translate(619.921 5755.871)">
      <g id="Group_1099654" data-name="Group 1099654" transform="translate(0 0)">
        <g id="Group_1099652" data-name="Group 1099652" clip-path="url(#clip-path)">
          <path id="Path_873521" data-name="Path 873521" d="M99,77.066A22,22,0,0,1,77.066,99H21.934A22,22,0,0,1,0,77.066V21.933A22,22,0,0,1,21.934,0H77.066A22,22,0,0,1,99,21.934Z" transform="translate(0)" fill="#ffdcd6"/>
        </g>
      </g>
      <g id="Group_1099659" data-name="Group 1099659" transform="translate(4.77 5.723)">
        <g id="Group_1099652-2" data-name="Group 1099652" transform="translate(0 0)" clip-path="url(#clip-path-2)">
          <path id="Path_873521-2" data-name="Path 873521" d="M88.539,68.922A19.674,19.674,0,0,1,68.923,88.539H19.616A19.674,19.674,0,0,1,0,68.922V19.616A19.674,19.674,0,0,1,19.616,0H68.923A19.674,19.674,0,0,1,88.539,19.616Z" fill="#f3f9ff"/>
        </g>
      </g>
    </g>
    <g id="Group_1100725" data-name="Group 1100725" transform="translate(636.343 5771.293)">
      <rect id="Rectangle_401104" data-name="Rectangle 401104" width="68" height="69" transform="translate(0.29 -0.295)" fill="none"/>
      <g id="Group_1119466" data-name="Group 1119466" transform="translate(2.29 5.705)">
        <g id="Group_1119465" data-name="Group 1119465" transform="translate(0 0)" clip-path="url(#clip-path-3)">
          <path id="Path_925429" data-name="Path 925429" d="M0,3.56V33.709A3.56,3.56,0,0,0,3.561,37.27H49.819a3.561,3.561,0,0,0,3.561-3.561V3.56A3.561,3.561,0,0,0,49.819,0H3.561A3.56,3.56,0,0,0,0,3.56" transform="translate(0 0)" fill="#474646"/>
          <rect id="Rectangle_409206" data-name="Rectangle 409206" width="38.211" height="15.666" transform="translate(6.688 2.969)" fill="#cff5ff"/>
          <path id="Path_925430" data-name="Path 925430" d="M54.266,22.415H57v-2.73H54.266Zm2.017-1.365a.652.652,0,1,1-.652-.653.652.652,0,0,1,.652.653" transform="translate(-6.655 -2.414)" fill="#7d7f7f"/>
          <path id="Path_925431" data-name="Path 925431" d="M3.615,15.448a.826.826,0,0,1,.826.826v8.513a.826.826,0,0,1-1.652,0V16.274a.826.826,0,0,1,.826-.826" transform="translate(-0.342 -1.895)" fill="#4b4c4c"/>
          <rect id="Rectangle_409207" data-name="Rectangle 409207" width="38.211" height="15.668" transform="translate(6.688 18.635)" fill="#8ce6fe"/>
          <path id="Path_925432" data-name="Path 925432" d="M5.884,19.808l2.589.437c.727-1.988.592-3.422-.488-3.611-1.436-.251-2.107.768-2.1,3.174" transform="translate(-0.722 -2.036)" fill="#f5802e"/>
          <path id="Path_925433" data-name="Path 925433" d="M40.6,26.877a5.86,5.86,0,1,1-5.861-5.86,5.861,5.861,0,0,1,5.861,5.86" transform="translate(-3.542 -2.578)" fill="#eebc32"/>
          <path id="Path_925434" data-name="Path 925434" d="M34.906,30.739l-4.6-5,1.644-1.513,2.808,3.053,4.223-5.431,1.763,1.37Z" transform="translate(-3.717 -2.68)" fill="#e2340c"/>
          <rect id="Rectangle_409208" data-name="Rectangle 409208" width="15.962" height="1.256" transform="translate(24.837 7.929)" fill="#474646"/>
          <rect id="Rectangle_409209" data-name="Rectangle 409209" width="15.962" height="1.256" transform="translate(24.837 11.212)" fill="#474646"/>
          <path id="Path_925435" data-name="Path 925435" d="M20.628,20.833h-6.5a2.773,2.773,0,0,0-2.77,2.769v6.5a2.773,2.773,0,0,0,2.77,2.769h6.5A2.772,2.772,0,0,0,23.4,30.106V23.6a2.772,2.772,0,0,0-2.769-2.769m.5,9.273a.5.5,0,0,1-.5.5h-6.5a.5.5,0,0,1-.5-.5V23.6a.5.5,0,0,1,.5-.5h6.5a.5.5,0,0,1,.5.5Z" transform="translate(-1.392 -2.555)" fill="#f69a8b"/>
          <path id="Path_925436" data-name="Path 925436" d="M64.71,43.473l-3.931-8.037a.277.277,0,0,1-.042.058c-1.522-2.985-3.255-2.127-3.935-1.144l-.2-.4a2.081,2.081,0,0,0-3.881.546,2.069,2.069,0,0,0-3.887,1.156l-.138-.27a2.066,2.066,0,0,0-3.873,1.264l-4.7-8.751a1.954,1.954,0,1,0-3.391,1.944l5.627,10.628L45.6,47.182l-3.417-1.51c-6.486-3.189-7.143-.841-7.211-.8a1.105,1.105,0,0,0,.055,1.942l9.794,4.9c4.671,3.638,3.387,2.876,8.078,4.772l2.562,5.127,12.05-5.064-2.316-4.38c.862-2.863,1.278-5.517-.483-8.694" transform="translate(-4.221 -3.301)" fill="#ffc278"/>
          <path id="Path_925437" data-name="Path 925437" d="M38.316,27.7c.884-.477,1.8.477,2.4,2.323L38.6,31.18c-1.367-1.728-1.461-2.841-.285-3.477" transform="translate(-4.599 -3.383)" fill="#f5802e"/>
          <path id="Path_925438" data-name="Path 925438" d="M18.109,29.953,14.6,26.137l1.256-1.156L18,27.313l3.225-4.149,1.347,1.047Z" transform="translate(-1.79 -2.841)" fill="#e2340c"/>
          <path id="Path_925439" data-name="Path 925439" d="M20.628,5.45h-6.5a2.772,2.772,0,0,0-2.77,2.768v6.5a2.773,2.773,0,0,0,2.77,2.769h6.5A2.772,2.772,0,0,0,23.4,14.723v-6.5A2.772,2.772,0,0,0,20.628,5.45m.5,9.273a.5.5,0,0,1-.5.5h-6.5a.5.5,0,0,1-.5-.5v-6.5a.5.5,0,0,1,.5-.5h6.5a.5.5,0,0,1,.5.5Z" transform="translate(-1.392 -0.669)" fill="#f69a8b"/>
          <path id="Path_925440" data-name="Path 925440" d="M18.109,14.57,14.6,10.754,15.854,9.6,18,11.93l3.225-4.149,1.347,1.047Z" transform="translate(-1.79 -0.955)" fill="#e2340c"/>
        </g>
      </g>
    </g>
  </g>
</svg>
