<svg id="Group_1119274" data-name="Group 1119274" xmlns="http://www.w3.org/2000/svg" xmlns:xlink="http://www.w3.org/1999/xlink" width="105.334" height="105.693" viewBox="0 0 105.334 105.693">
  <defs>
    <clipPath id="clip-path">
      <rect id="Rectangle_407255" data-name="Rectangle 407255" width="105.334" height="105.693" transform="translate(0)" fill="#f69a8b"/>
    </clipPath>
    <clipPath id="clip-path-2">
      <rect id="Rectangle_401492" data-name="Rectangle 401492" width="65.388" height="65.389" transform="translate(0 0)" fill="#953c2d" stroke="#707070" stroke-width="1"/>
    </clipPath>
    <clipPath id="clip-path-3">
      <rect id="Rectangle_401491" data-name="Rectangle 401491" width="51.939" height="59.998" fill="#953c2d"/>
    </clipPath>
  </defs>
  <g id="Group_1116923" data-name="Group 1116923" clip-path="url(#clip-path)">
    <path id="Path_893365" data-name="Path 893365" d="M104.048,31.292C97.88,10.265,51.742-13.615,17.656,9.414s-9.13,105.365-4.625,88.724c4.329-15.992,23.523-2.928,37.93-2.46C67,96.2,77.411,92.049,77.386,91.987c7.4-2.756,12.628-6.379,17-13.195,8.73-13.615,13.376-34.847,9.664-47.5" transform="translate(0.001 2.676)" fill="#f69a8b"/>
  </g>
  <g id="Group_1115380" data-name="Group 1115380" transform="translate(20 20)">
    <rect id="Rectangle_401104" data-name="Rectangle 401104" width="60.924" height="61.907" transform="translate(2.232 0)" fill="none"/>
    <g id="Mask_Group_1098697" data-name="Mask Group 1098697" transform="translate(0 0)" clip-path="url(#clip-path-2)">
      <g id="Group_1100236" data-name="Group 1100236" transform="translate(8.892 2.667)">
        <g id="Group_1100235" data-name="Group 1100235" clip-path="url(#clip-path-3)">
          <path id="Path_873786" data-name="Path 873786" d="M46.208,48.258h.445c.9-.005,1.809-.023,2.713-.009a1.826,1.826,0,0,1,.775.164,1.128,1.128,0,0,1,.608,1.108,10.116,10.116,0,0,1-2.056,6.128,10.41,10.41,0,0,1-6.666,4.159,10.8,10.8,0,0,1-1.975.181q-16.6.016-33.2,0A6.473,6.473,0,0,1,.674,56.153a6.621,6.621,0,0,1-.614-2.54C.02,53.042,0,52.469,0,51.9Q0,28.041.013,4.186A5.418,5.418,0,0,1,.33,2.268,3.466,3.466,0,0,1,3.747,0c.045,0,.09,0,.134,0Q21.892,0,39.9,0A3.711,3.711,0,0,1,42.5.921a3.508,3.508,0,0,1,1.176,2.534c.012.232.011.466.011.7q0,12.257,0,24.513a.535.535,0,0,0,.194.368,15.868,15.868,0,0,0,6.687,2.951,2.657,2.657,0,0,1,.591.17,1.009,1.009,0,0,1,.624.818,18.254,18.254,0,0,1,.156,2.061A17.163,17.163,0,0,1,47.47,46.884c-.4.451-.851.864-1.278,1.3l.015.079M33.094,36.468c0-.72-.02-1.4.007-2.079a9.279,9.279,0,0,1,.162-1.464,1.061,1.061,0,0,1,.935-.877c.317-.053.633-.115.95-.173a13.079,13.079,0,0,0,6.032-2.821.608.608,0,0,0,.176-.409c.016-.474-.011-.949-.01-1.424q.007-11.746.023-23.491a1.239,1.239,0,0,0-1.361-1.374c-2.22.033-4.441.011-6.661.011H3.61A1.09,1.09,0,0,0,2.4,3.392a3.513,3.513,0,0,0-.028.562q0,24.567,0,49.133a7.1,7.1,0,0,0,.108,1.2,4.143,4.143,0,0,0,3.5,3.32,4.066,4.066,0,0,0,4.476-2.7,6.2,6.2,0,0,0,.226-2.152c0-1.084-.007-2.168.01-3.251a1.169,1.169,0,0,1,1.162-1.253,3.353,3.353,0,0,1,.375-.018l26.162.014c.153,0,.306-.021.526-.038a17.478,17.478,0,0,1-5.422-9.4c-.09,0-.169-.013-.248-.013H18.256a5.538,5.538,0,0,1-.59-.024,1.19,1.19,0,0,1-1.1-1.145,1.222,1.222,0,0,1,1.1-1.132,6.862,6.862,0,0,1,.724-.034q6.917,0,13.833,0h.874M48.352,50.554h-.516q-7.332,0-14.664,0-9.937,0-19.874,0c-.236,0-.307.065-.3.3.014.9.019,1.81,0,2.714a6.27,6.27,0,0,1-1.4,3.945.494.494,0,0,0-.044.118h.316q14.3,0,28.6,0a5.792,5.792,0,0,0,1.016-.068,8.2,8.2,0,0,0,6.18-4.653,7.108,7.108,0,0,0,.685-2.351M35.477,34.169a15.868,15.868,0,0,0,.282,4.206,15.032,15.032,0,0,0,6.4,9.451c.357.245.364.25.724,0A14.86,14.86,0,0,0,49.6,34.393c-.006-.2-.074-.271-.264-.316A17.957,17.957,0,0,1,44.024,31.9c-.507-.313-1-.651-1.5-.977a15.906,15.906,0,0,1-7.05,3.244" transform="translate(0 -0.001)" fill="#953c2d"/>
          <path id="Path_873787" data-name="Path 873787" d="M43.524,42.5H29.236a3.739,3.739,0,0,1-.429-.015,1.191,1.191,0,0,1-1.179-1.3q-.007-6.342,0-12.684a1.207,1.207,0,0,1,1.263-1.3c.259-.015.519,0,.779,0q14.1,0,28.2,0a2.9,2.9,0,0,1,.639.062,1.264,1.264,0,0,1,.975,1.175c.006.089,0,.179,0,.269q0,6.14,0,12.281A1.316,1.316,0,0,1,58,42.49c-2.829.011-5.658.005-8.486.006H43.524M57.11,29.507H55.591q-12.665,0-25.329,0c-.26,0-.327.067-.327.328q.014,5.04,0,10.079c0,.205.056.254.255.253,1.621-.009,3.241-.008,4.862-.009l21.757-.005c.1,0,.191-.008.3-.013Z" transform="translate(-21.665 -21.32)" fill="#953c2d"/>
          <path id="Path_873788" data-name="Path 873788" d="M35.836,173.136c0,.886-.038,1.775.01,2.658a1.349,1.349,0,0,1-1.507,1.5c-1.074,0-2.147.005-3.221,0-.787-.006-1.575-.013-2.36-.05a1.144,1.144,0,0,1-1.138-1.188q-.02-2.914-.006-5.828a1.118,1.118,0,0,1,1.111-1.177c.276-.025.554-.017.831-.018,1.566,0,3.131,0,4.7,0a2.826,2.826,0,0,1,.741.087,1.156,1.156,0,0,1,.842,1.143q0,1.437,0,2.874m-2.373-1.768c-1.122,0-2.214,0-3.306,0-.2,0-.237.073-.235.255.011,1.03.009,2.061.014,3.091a1.8,1.8,0,0,0,.021.2h3.506Z" transform="translate(-21.652 -132.564)" fill="#953c2d"/>
          <path id="Path_873789" data-name="Path 873789" d="M35.85,118.692c0,.958,0,1.917,0,2.875a1.154,1.154,0,0,1-1.207,1.221q-2.873,0-5.746,0a1.153,1.153,0,0,1-1.265-1.244q-.014-2.848,0-5.7a1.165,1.165,0,0,1,1.26-1.232c1.879,0,3.759,0,5.638,0a1.221,1.221,0,0,1,1.189.672,1.052,1.052,0,0,1,.123.453c.011.985.006,1.97.006,2.955M33.473,117a.97.97,0,0,0-.113-.014c-1.073-.005-2.146-.005-3.218-.018-.208,0-.2.107-.2.254.006.948.007,1.9.009,2.845,0,.113,0,.226,0,.34h3.524Z" transform="translate(-21.666 -89.887)" fill="#953c2d"/>
          <path id="Path_873790" data-name="Path 873790" d="M86.737,114.622q4.323,0,8.647,0a2.291,2.291,0,0,1,.5.053,1.132,1.132,0,0,1,.091,2.167,3.058,3.058,0,0,1-.841.14q-8.23.012-16.461,0a4.681,4.681,0,0,1-.958-.093,1.142,1.142,0,0,1,.264-2.269c1.593,0,3.186,0,4.78,0h3.974Z" transform="translate(-60.172 -89.895)" fill="#953c2d"/>
          <path id="Path_873791" data-name="Path 873791" d="M83.219,196.365q2.6,0,5.21,0a1.173,1.173,0,0,1,1.24,1.3,1.131,1.131,0,0,1-.814.966,2.492,2.492,0,0,1-.659.1q-4.713.009-9.426,0c-.313,0-.626-.02-.938-.051a1.26,1.26,0,0,1-1.11-1.186,1.273,1.273,0,0,1,1.234-1.126q2.632,0,5.263,0" transform="translate(-60.17 -154.003)" fill="#953c2d"/>
          <path id="Path_873792" data-name="Path 873792" d="M83.249,143.9H77.987a1.157,1.157,0,0,1-1.048-.582,1.017,1.017,0,0,1,.322-1.455,2.116,2.116,0,0,1,1-.317c3.311-.023,6.622-.017,9.933-.008a2.294,2.294,0,0,1,.706.138,1.133,1.133,0,0,1,.79,1.323,1.15,1.15,0,0,1-1.153.9c-1.6,0-3.2,0-4.805,0h-.483" transform="translate(-60.2 -111.003)" fill="#953c2d"/>
          <circle id="Ellipse_11825" data-name="Ellipse 11825" cx="3" cy="3" r="3" transform="translate(39.818 33.692)" fill="#953c2d"/>
          <rect id="Rectangle_409174" data-name="Rectangle 409174" width="9" height="7" rx="2" transform="translate(37.818 40.692)" fill="#953c2d"/>
        </g>
      </g>
    </g>
  </g>
</svg>
