<svg id="Group_1119137" data-name="Group 1119137" xmlns="http://www.w3.org/2000/svg" xmlns:xlink="http://www.w3.org/1999/xlink" width="105.334" height="105.693" viewBox="0 0 105.334 105.693">
  <defs>
    <clipPath id="clip-path">
      <rect id="Rectangle_407255" data-name="Rectangle 407255" width="105.334" height="105.693" transform="translate(0)" fill="#07c3f3"/>
    </clipPath>
    <clipPath id="clip-path-2">
      <rect id="Rectangle_401492" data-name="Rectangle 401492" width="65.388" height="65.389" transform="translate(-0.289 0)" fill="#953c2d" stroke="#707070" stroke-width="1"/>
    </clipPath>
    <clipPath id="clip-path-3">
      <rect id="Rectangle_409142" data-name="Rectangle 409142" width="56.554" height="56.608" fill="#953c2d"/>
    </clipPath>
  </defs>
  <g id="Group_1116923" data-name="Group 1116923" clip-path="url(#clip-path)">
    <path id="Path_893365" data-name="Path 893365" d="M104.048,31.292C97.88,10.265,51.742-13.615,17.656,9.414s-9.13,105.365-4.625,88.724c4.329-15.992,23.523-2.928,37.93-2.46C67,96.2,77.411,92.049,77.386,91.987c7.4-2.756,12.628-6.379,17-13.195,8.73-13.615,13.376-34.847,9.664-47.5" transform="translate(0.001 2.676)" fill="#f69a8b"/>
  </g>
  <g id="Group_1115380" data-name="Group 1115380" transform="translate(20 20)">
    <rect id="Rectangle_401104" data-name="Rectangle 401104" width="60.924" height="61.907" transform="translate(1.711 2.015)" fill="none"/>
    <g id="Mask_Group_1098697" data-name="Mask Group 1098697" transform="translate(0 0.015)" clip-path="url(#clip-path-2)">
      <g id="Group_1119371" data-name="Group 1119371" transform="translate(2.907 3.507)">
        <g id="Group_1119371-2" data-name="Group 1119371" clip-path="url(#clip-path-3)">
          <path id="Path_924942" data-name="Path 924942" d="M54.211,39.416a28.818,28.818,0,0,0,.618-20.807,3.229,3.229,0,0,0,1.559-1.986A7.49,7.49,0,0,0,55.2,11.069a6.858,6.858,0,0,0-.259-8.4A6.859,6.859,0,0,0,43.169,4.242c-.495-.226-1.407-.743-1.9-1.022-.386-.219-.691-.392-.842-.464l-.021-.01a15.974,15.974,0,0,0-3.065-1.208,1.26,1.26,0,0,0-1.265.442A1.317,1.317,0,0,0,36,3.363c.168.348.758.626,2.449,1.283.386.15.75.292.912.372.7.344,1.385.748,2.05,1.139.365.214.74.435,1.119.647a7.436,7.436,0,0,0,1.312,4.251c-1.085,1.568-1.749,4.317-1.014,6.077a2.8,2.8,0,0,0,2.432,1.755,26.255,26.255,0,0,0,3.827.016c1.026-.044,2.085-.09,3.062-.038a24.455,24.455,0,0,1-.2,19.206,6.671,6.671,0,0,0-4.926-.009c-.329.12-1.979.767-2.206,1.764a1.106,1.106,0,0,0,.341,1.056c.682.7,1.606.166,2.281-.221a4.05,4.05,0,0,1,.769-.379,4.493,4.493,0,0,1,5.043,1.895,4.309,4.309,0,0,1-.248,5.213A4.379,4.379,0,0,1,45.083,44.2c.089-.723.191-1.542-.272-2.011a1.129,1.129,0,0,0-.975-.291,1.2,1.2,0,0,0-.9.6c-.71,1.15-.234,3.789.067,4.6a4.928,4.928,0,0,0,.6,1.041,5.3,5.3,0,0,1,.3.458,6.068,6.068,0,0,1-1.424,1.111l-.108.071a25.923,25.923,0,0,1-25.914,1.328A24.151,24.151,0,0,1,12.663,48.7a6.816,6.816,0,0,0-.2-8.429,6.7,6.7,0,0,0-7.853-2.173,24.812,24.812,0,0,1-.266-19.237c.549-.05,2.179-.012,3.405.017,1.61.038,3.131.073,3.7,0a2.735,2.735,0,0,0,2.3-1.785c.686-1.749.034-4.511-1.033-6.034a7.445,7.445,0,0,0,1.31-4.266A27,27,0,0,1,29.368,2.494c.222.011.655.075,1.157.149,2.353.347,3.406.424,3.828,0A1.131,1.131,0,0,0,34.669,1.6,1.437,1.437,0,0,0,33.807.587,20.9,20.9,0,0,0,29.891.038,29.4,29.4,0,0,0,15.265,3.184c-.169.086-.406.234-.68.405a12.485,12.485,0,0,1-1.18.679A6.763,6.763,0,0,0,7.54.041,7.376,7.376,0,0,0,.9,3.7a6.849,6.849,0,0,0,.469,7.357,7.5,7.5,0,0,0-1.2,5.567,3.229,3.229,0,0,0,1.56,1.987,28.428,28.428,0,0,0,.642,20.762c-.157.214-.322.406-.5.606A7.072,7.072,0,0,0,1,41.164a6.887,6.887,0,0,0,.356,7.464c-.981,1.505-1.814,4.286-.986,6.13a2.9,2.9,0,0,0,2.557,1.7c1,.089,2.785.147,4.517.147a34.893,34.893,0,0,0,4.01-.17,3.206,3.206,0,0,0,2.527-2.158h0a5.129,5.129,0,0,0,.017-1.315c-.009-.13-.018-.261-.024-.389l3.691,1.842.034.015a28.566,28.566,0,0,0,21.28-.049l3.595-1.8v1.607a5.058,5.058,0,0,0,.817,1.445,3.753,3.753,0,0,0,1.719.8,57.558,57.558,0,0,0,9.278-.1A2.667,2.667,0,0,0,56.3,54.5a7.65,7.65,0,0,0-1.088-5.878,7.067,7.067,0,0,0-1-9.207M53.485,9.136A4.1,4.1,0,0,1,49.891,11.5a4.321,4.321,0,0,1-4.77-4.086,4.262,4.262,0,0,1,3.942-4.88,4.048,4.048,0,0,1,3.927,1.61,5.1,5.1,0,0,1,.5,4.995m-7.791,3.695a6.985,6.985,0,0,0,7.652.007,5.129,5.129,0,0,1,.63,3.147.643.643,0,0,1-.595.453,53.574,53.574,0,0,1-7.561,0,.787.787,0,0,1-.768-.545,4.819,4.819,0,0,1,.643-3.065m8.281,40.72a.643.643,0,0,1-.595.454,53.575,53.575,0,0,1-7.561,0,.778.778,0,0,1-.759-.535A4.849,4.849,0,0,1,45.7,50.4a6.963,6.963,0,0,0,7.652,0,5.126,5.126,0,0,1,.628,3.143M6.561,2.531a5.351,5.351,0,0,1,.628-.038,3.968,3.968,0,0,1,3.328,1.646A5.084,5.084,0,0,1,11,9.119,4.126,4.126,0,0,1,7.389,11.5,4.3,4.3,0,0,1,2.641,7.433a4.313,4.313,0,0,1,3.92-4.9M3.219,12.849a7.07,7.07,0,0,0,7.647-.017,5.068,5.068,0,0,1,.625,3.108.662.662,0,0,1-.612.5,53.41,53.41,0,0,1-7.561,0,.755.755,0,0,1-.742-.5c-.325-.855.3-2.461.643-3.094m4.03,36.224A4.142,4.142,0,0,1,3.377,47.2a5.041,5.041,0,0,1-.2-4.9,4.13,4.13,0,0,1,3.678-2.2,4.493,4.493,0,0,1,.393,8.975M3.215,50.414a6.962,6.962,0,0,0,7.644-.01,5.12,5.12,0,0,1,.625,3.119.654.654,0,0,1-.605.482,53.436,53.436,0,0,1-7.561,0,.755.755,0,0,1-.741-.5c-.325-.855.291-2.455.637-3.1" transform="translate(-0.001 0)" fill="#953c2d"/>
          <path id="Path_924943" data-name="Path 924943" d="M85.7,122.521a6.61,6.61,0,0,0,.567-6.483,5.955,5.955,0,0,0-5.145-3.392,68.923,68.923,0,0,0-8.3-.023c-2.437.09-4.958.183-7.3.044l-.042,0-.042.006a6.415,6.415,0,0,0-4.869,3.339c-1.084.054-2.24.011-3.359-.031a33.573,33.573,0,0,0-4.03.01,6.168,6.168,0,0,0-2.7,11.283,6.646,6.646,0,0,0,3.041.93c.184.023.371.046.566.074-.1,1.383.04,3.62,1.222,4.35a1.54,1.54,0,0,0,.825.234,2.846,2.846,0,0,0,1.541-.565,14.477,14.477,0,0,0,2.081-2.086,11.429,11.429,0,0,1,1.846-1.844,3.91,3.91,0,0,1,1.65-.087,3.016,3.016,0,0,0,2.259-.372,1.557,1.557,0,0,0,.464-1.169l0-.064-.017-.062a1.022,1.022,0,0,0-.6-.635,8.814,8.814,0,0,0-4.745,0,9.3,9.3,0,0,0-2.512,2.3c-.449.507-.908,1.025-1.334,1.425v-2.05a4.6,4.6,0,0,0-.489-1.134,2.81,2.81,0,0,0-2.426-.8,5.542,5.542,0,0,1-.831-.041,3.466,3.466,0,0,1-2.781-3.73,3.5,3.5,0,0,1,3.34-3.5,66.355,66.355,0,0,1,7.872-.021,73.816,73.816,0,0,0,7.383.023,3.662,3.662,0,0,1,2.016,6.466,2.6,2.6,0,0,1-1.641.681,7.95,7.95,0,0,0-.924.159,1.225,1.225,0,0,0-.968,1.234,1.191,1.191,0,0,0,.957,1.163c1.984.378,4.2-.992,5.306-2.6.335.306,1.021,1.04,1.547,1.6a21.083,21.083,0,0,0,1.96,1.968,2.014,2.014,0,0,0,2.458.064c1.028-.656.978-2.279.937-3.583-.007-.211-.013-.415-.014-.6a5.9,5.9,0,0,0,5.237-2.481m-1.532-2.354a3.832,3.832,0,0,1-3.034,2.316,5.071,5.071,0,0,1-.691.03,2.7,2.7,0,0,0-1.915.488c-.029.026-.667.837-.667,1.145v2.232l-3.2-3.141c-.008-.187-.014-.369-.021-.546a6.594,6.594,0,0,0-1.263-4.379c-.614-.787-2.5-2.319-3.76-2.319H63.781a4.413,4.413,0,0,1,2.687-.885,114.73,114.73,0,0,1,13.791-.008,4.264,4.264,0,0,1,3.417,1.506,3.561,3.561,0,0,1,.49,3.561" transform="translate(-39.429 -93.035)" fill="#953c2d"/>
        </g>
      </g>
    </g>
  </g>
</svg>
