<svg id="Group_1119276" data-name="Group 1119276" xmlns="http://www.w3.org/2000/svg" xmlns:xlink="http://www.w3.org/1999/xlink" width="105.334" height="105.693" viewBox="0 0 105.334 105.693">
  <defs>
    <clipPath id="clip-path">
      <rect id="Rectangle_407255" data-name="Rectangle 407255" width="105.334" height="105.693" transform="translate(0)" fill="#f69a8b"/>
    </clipPath>
    <clipPath id="clip-path-2">
      <rect id="Rectangle_401492" data-name="Rectangle 401492" width="65.388" height="65.389" transform="translate(-0.289 -0.372)" fill="#953c2d" stroke="#707070" stroke-width="1"/>
    </clipPath>
    <clipPath id="clip-path-3">
      <rect id="Rectangle_409173" data-name="Rectangle 409173" width="61.119" height="62.261" fill="#953c2d"/>
    </clipPath>
  </defs>
  <g id="Group_1116923" data-name="Group 1116923" clip-path="url(#clip-path)">
    <path id="Path_893365" data-name="Path 893365" d="M104.048,31.292C97.88,10.265,51.742-13.615,17.656,9.414s-9.13,105.365-4.625,88.724c4.329-15.992,23.523-2.928,37.93-2.46C67,96.2,77.411,92.049,77.386,91.987c7.4-2.756,12.628-6.379,17-13.195,8.73-13.615,13.376-34.847,9.664-47.5" transform="translate(0.001 2.676)" fill="#f69a8b"/>
  </g>
  <g id="Group_1115380" data-name="Group 1115380" transform="translate(20 20)">
    <rect id="Rectangle_401104" data-name="Rectangle 401104" width="60.924" height="61.907" transform="translate(2.232 0)" fill="none"/>
    <g id="Mask_Group_1098697" data-name="Mask Group 1098697" transform="translate(0 0)" clip-path="url(#clip-path-2)">
      <g id="Group_1119452" data-name="Group 1119452" transform="translate(1.711 1.628)">
        <g id="Group_1119451" data-name="Group 1119451" clip-path="url(#clip-path-3)">
          <path id="Path_925364" data-name="Path 925364" d="M23.908,40.857A18.812,18.812,0,0,1,35.945,26.049c6.1-2.172,13.663-1.168,18.548,3.219.8.717,1.841,1.485.623,2.408-.24.157-.432.05-.657-.049-.743-.325-2.044-1.7-2.918-2.261a17.287,17.287,0,0,0-7.411-2.577c-.565-.048-2.723-.149-3.015.15-.183.188-.724,1.719-1.011,2.2a12.826,12.826,0,0,1-3.094,3.328c-.834.676-3.791,2.056-2.107,3.193,3.4,2.3,5.508-5.082,8.931-3.4,1.848.907,1.467,3.53.683,5.04-.563,1.083-3.778,4.471-.9,4.812,1.267.151,2.6-.3,3.935-.188,3.572.292,7.939,4.486,11.14,6.07a17.405,17.405,0,0,0-1.094-11.836c-.338-.763-1.6-2.066-.87-2.882.981-1.1,2.041,1.244,2.385,1.9A18.7,18.7,0,1,1,25.572,51.731L4.931,51.718A5.649,5.649,0,0,1,0,46.3V5.444A5.649,5.649,0,0,1,4.914.012L40.238,0a2.568,2.568,0,0,1,2.406,2.588c.531,6.021-.412,12.814-.007,18.918a.9.9,0,1,1-1.792.184c-.375-6.058.526-12.765.015-18.745-.033-.385-.109-1.152-.631-1.152H7.32V40.857ZM5.536,1.794A3.931,3.931,0,0,0,2.6,3.232,10.485,10.485,0,0,0,1.969,4.38V42.106a7.451,7.451,0,0,1,3.567-1.249ZM39.07,27.124a16.776,16.776,0,0,0-13.021,12.3c2.164-.485,7.714-.767,8.685,1.751.75,1.945-.726,3.034-.969,4.808-.3,2.206.485,6.447,3.258,6.648,3.049.221,5.1-4.287,7.628-3.714,1.428.323,1.722,2.551,2.532,3.535,1.332,1.62,4.221,2.574,5.177,4.809a18.1,18.1,0,0,0,5.235-6.355c.16-.375.509-.89.223-1.229-2.773-1.438-7.428-5.67-10.451-5.97-1.955-.194-6.071,1.216-6.649-1.914-.568-3.079,2.609-4.569,2.649-6.916a2.4,2.4,0,0,0-.216-.957c-.875-.547-3.191,2.358-3.917,2.9-3.932,2.959-9.221-1.162-5.321-4.429,1.891-1.583,4.232-2.693,5.158-5.275M34.139,53.28c-2.125-2.013-2.715-6.264-1.856-8.954.271-.847,1.392-2.025.461-2.763-.915-.725-5.642-.7-6.755-.321-.317.107-.447,1.282-.472,1.667a17.691,17.691,0,0,0,2.988,10.206,16.98,16.98,0,0,0,22.153,5.207c-.842-2.384-3.742-3.123-5.167-5.069-.6-.817-.687-1.83-1.356-2.574-.412-.1-2.913,2.269-3.545,2.668-2.026,1.277-4.57,1.714-6.452-.068M23.73,42.819H4.555c-.551,0-1.913,1.227-2.2,1.721a3.78,3.78,0,0,0,.6,4.342,5.348,5.348,0,0,0,2.318,1.071H24.8a20.894,20.894,0,0,1-1.07-7.135" transform="translate(0 -0.001)" fill="#953c2d"/>
          <path id="Path_925365" data-name="Path 925365" d="M84.421,34.452H61.946V41.5l.268.268h9.275c.379,0,.857,1.55-.546,1.772a60.563,60.563,0,0,1-8.911.015,2.029,2.029,0,0,1-1.873-1.695,52.511,52.511,0,0,1,.014-7.842A2.12,2.12,0,0,1,62.2,32.481c7.037.529,15.035-.672,21.958,0a1.98,1.98,0,0,1,2.051,1.873,52.055,52.055,0,0,1,0,7.5,2.027,2.027,0,0,1-1.873,1.695c-2.84.342-6.353-.254-9.268-.015-1.4-.223-.926-1.772-.546-1.772h9.632l.268-.268Z" transform="translate(-49.313 -26.514)" fill="#953c2d"/>
          <path id="Path_925366" data-name="Path 925366" d="M87.478,155.051h9.989c.543,0,.706,1.784-.178,1.784h-9.81c-.49,0-.693-1.541,0-1.784" transform="translate(-71.507 -127.394)" fill="#953c2d"/>
          <path id="Path_925367" data-name="Path 925367" d="M86.778,180.056c.417-.3,5.653-.314,6.451-.2,1.535.212,1.721,1.773.2,1.949a39,39,0,0,1-6.056-.015,1.006,1.006,0,0,1-.593-1.73" transform="translate(-71.031 -147.721)" fill="#953c2d"/>
          <path id="Path_925368" data-name="Path 925368" d="M94.7,55.04a1.914,1.914,0,0,1-.844-.637,1.58,1.58,0,0,1-.3-.954v-1.4a1.58,1.58,0,0,1,.3-.954,1.915,1.915,0,0,1,.844-.637,3.642,3.642,0,0,1,2.522,0,1.915,1.915,0,0,1,.844.637,1.58,1.58,0,0,1,.3.954v1.4a1.58,1.58,0,0,1-.3.954,1.914,1.914,0,0,1-.844.637,3.642,3.642,0,0,1-2.522,0m1.85-.81a.884.884,0,0,0,.392-.3.771.771,0,0,0,.138-.454V52.029a.771.771,0,0,0-.138-.454.883.883,0,0,0-.392-.3,1.675,1.675,0,0,0-1.177,0,.882.882,0,0,0-.392.3.768.768,0,0,0-.138.454v1.444a.768.768,0,0,0,.138.454.883.883,0,0,0,.392.3,1.678,1.678,0,0,0,1.177,0" transform="translate(-76.87 -41.275)" fill="#953c2d"/>
          <rect id="Rectangle_409172" data-name="Rectangle 409172" width="1.286" height="4.928" transform="translate(22.629 9.012)" fill="#953c2d"/>
          <path id="Path_925369" data-name="Path 925369" d="M145.831,50.521h1.635v4.928h-1.128V51.622l.045.217L145.125,54.9h-1.1l-1.259-2.993.045-.285v3.827h-1.128V50.521h1.635l1.254,3.322Z" transform="translate(-116.415 -41.509)" fill="#953c2d"/>
        </g>
      </g>
    </g>
  </g>
</svg>
