<svg xmlns="http://www.w3.org/2000/svg" xmlns:xlink="http://www.w3.org/1999/xlink" width="400" height="340.934" viewBox="0 0 400 340.934">
  <defs>
    <clipPath id="clip-path">
      <rect id="Rectangle_409091" data-name="Rectangle 409091" width="400" height="340.934" transform="translate(389.422 10184.812)" fill="#fff" stroke="#707070" stroke-width="1"/>
    </clipPath>
    <clipPath id="clip-path-2">
      <rect id="Rectangle_409168" data-name="Rectangle 409168" width="181.289" height="84.675" fill="none"/>
    </clipPath>
    <clipPath id="clip-path-3">
      <rect id="Rectangle_409166" data-name="Rectangle 409166" width="375.118" height="332.123" fill="none"/>
    </clipPath>
    <clipPath id="clip-path-5">
      <rect id="Rectangle_409163" data-name="Rectangle 409163" width="375.118" height="51.243" fill="none"/>
    </clipPath>
    <clipPath id="clip-path-6">
      <rect id="Rectangle_409164" data-name="Rectangle 409164" width="136.712" height="115.877" fill="none"/>
    </clipPath>
  </defs>
  <g id="Mask_Group_1119107" data-name="Mask Group 1119107" transform="translate(-389.422 -10184.812)" clip-path="url(#clip-path)">
    <g id="Group_1119441" data-name="Group 1119441" transform="translate(402.422 10189.812)">
      <g id="Group_1119444" data-name="Group 1119444" transform="translate(197.289 215.773)">
        <path id="Path_925318" data-name="Path 925318" d="M14.723,175.907l-8.8,3.718-3.718,8.8v17.5l3.718,8.8,8.8,3.718h155.2l8.8-3.718,3.719-8.8v-17.5l-3.719-8.8-8.8-3.718Z" transform="translate(-1.677 -133.765)" fill="#84524d"/>
        <g id="Group_1119443" data-name="Group 1119443">
          <g id="Group_1119442" data-name="Group 1119442" clip-path="url(#clip-path-2)">
            <path id="Path_925319" data-name="Path 925319" d="M2.2,188.425a12.518,12.518,0,0,0,12.518-12.518H2.2Z" transform="translate(-1.677 -133.765)" fill="#efbc73"/>
            <path id="Path_925320" data-name="Path 925320" d="M2.2,313.714H14.723A12.518,12.518,0,0,0,2.2,301.2Z" transform="translate(-1.677 -229.039)" fill="#efbc73"/>
            <path id="Path_925321" data-name="Path 925321" d="M714.79,301.2a12.518,12.518,0,0,0-12.518,12.518H714.79Z" transform="translate(-534.029 -229.039)" fill="#efbc73"/>
            <path id="Path_925322" data-name="Path 925322" d="M714.79,175.907H702.272a12.518,12.518,0,0,0,12.518,12.518Z" transform="translate(-534.029 -133.765)" fill="#efbc73"/>
            <path id="Path_925323" data-name="Path 925323" d="M180.761,263.529H.528a.528.528,0,1,1,0-1.056H180.761a.528.528,0,1,1,0,1.056" transform="translate(0 -199.593)" fill="#363e44"/>
            <path id="Path_925324" data-name="Path 925324" d="M337.754,244.508H298.775a.528.528,0,0,1-.528-.528v-17.5a.528.528,0,0,1,1.056,0v16.969h37.923V226.482a.528.528,0,0,1,1.057,0v17.5a.528.528,0,0,1-.528.528" transform="translate(-226.796 -171.822)" fill="#363e44"/>
            <rect id="Rectangle_409167" data-name="Rectangle 409167" width="144.137" height="42.533" transform="translate(20.236)" fill="#b77250"/>
            <path id="Path_925325" data-name="Path 925325" d="M227.6,87.622H83.308a.528.528,0,0,1,0-1.057H227.6a.528.528,0,0,1,0,1.057" transform="translate(-62.948 -65.827)" fill="#363e44"/>
            <path id="Path_925326" data-name="Path 925326" d="M337.754,68.6H298.775a.528.528,0,0,1-.528-.528v-17.5a.528.528,0,1,1,1.056,0V67.545h37.923V50.576a.528.528,0,0,1,1.057,0v17.5a.528.528,0,0,1-.528.528" transform="translate(-226.796 -38.058)" fill="#363e44"/>
          </g>
        </g>
      </g>
      <g id="Group_1119440" data-name="Group 1119440" clip-path="url(#clip-path-3)">
        <g id="Group_1119439" data-name="Group 1119439">
          <g id="Group_1119438" data-name="Group 1119438" clip-path="url(#clip-path-3)">
            <g id="Group_1119434" data-name="Group 1119434" transform="translate(0 280.88)" opacity="0.2">
              <g id="Group_1119433" data-name="Group 1119433">
                <g id="Group_1119432" data-name="Group 1119432" clip-path="url(#clip-path-5)">
                  <path id="Path_925264" data-name="Path 925264" d="M375.118,339.022c0,14.151-83.973,25.622-187.559,25.622S0,353.172,0,339.022,83.973,313.4,187.559,313.4s187.559,11.471,187.559,25.622" transform="translate(0 -313.4)" fill="#f69a8b"/>
                </g>
              </g>
            </g>
            <path id="Path_925265" data-name="Path 925265" d="M271.726,68.118s3.736,28.025,17.438,33.007,26.779,14.947,26.157,26.78-89.51-11.872-89.51-11.872l19.759-9.927Z" transform="translate(-23.431 -7.068)" fill="#f69a8b"/>
            <path id="Path_925266" data-name="Path 925266" d="M233.639,30.4s-14.608,3.592-14.368,17,6.706,50.05,15.326,52.684,36.16,4.311,33.766-19.158-7.184-44.3-12.213-47.415S233.639,30.4,233.639,30.4" transform="translate(-22.753 -3.155)" fill="#f69a8b"/>
            <path id="Path_925267" data-name="Path 925267" d="M249.133,35.829s-10.058,7.663-18.439,0-14.129,7.9-24.905-.719-3.592-20.355.239-20.834c0,0-2.873,5.508,0,5.508S204.112,6.134,214.41,8.768s12.692,9.34,16.044,2.635,11.5-14.129,17.482-5.748,7.424,11.494,14.368,9.1S275,10.206,280.026,18.827s-3.592,28.257-3.592,28.257-1.677-4.31-5.748-3.352-4.311,8.621-2.874,13.889,10.776,29.695.479,33.526c0,0,1.916,11.974-6.945,14.368s-12.692-1.676-12.692-1.676-1.677,5.029-8.142,5.029-10.776-7.9-10.776-7.9-9.1-1.676-5.987-19.4c0,0,7.184,15.566,12.452,15.566s3.592-8.382,3.592-8.382l4.55-.479s1.437,8.141,6.945,6.945S267.333,83.485,260.149,66s2.395-26.821,2.395-26.821l-2.395,8.142s-15.327-1.677-12.452-19.4" transform="translate(-20.765 -0.2)" fill="#2d2d2d"/>
            <path id="Path_925268" data-name="Path 925268" d="M215.682,7.086l1.2.317a25.966,25.966,0,0,1,3.3,1.173,47.838,47.838,0,0,1,4.847,2.492A11.474,11.474,0,0,0,228,12.39a2.072,2.072,0,0,0,1.545-.242,4,4,0,0,0,1.2-1.269c.341-.519.626-1.1.939-1.7s.672-1.209,1.061-1.8a22.6,22.6,0,0,1,2.722-3.432,15.376,15.376,0,0,1,3.684-2.871A7.953,7.953,0,0,1,244.016.064a7.706,7.706,0,0,1,4.5,2.508A18.158,18.158,0,0,1,250.095,4.6l1.455,2.075c.976,1.382,1.95,2.782,3.032,4.061a13.177,13.177,0,0,0,1.745,1.741,6.054,6.054,0,0,0,2.086,1.043,9.245,9.245,0,0,0,4.77-.5c1.621-.523,3.254-1.09,4.927-1.51a14.839,14.839,0,0,1,5.165-.527,8.91,8.91,0,0,1,4.718,2,13.8,13.8,0,0,1,3.144,3.744l.309.507.165.272.126.259a8.062,8.062,0,0,1,.474,1.078,12.2,12.2,0,0,1,.608,2.253,26.061,26.061,0,0,1-.179,8.427A51.973,51.973,0,0,1,281,36.41c-.617,2.014-1.233,3.742-1.774,5.152-1.084,2.819-1.845,4.367-1.845,4.367s.671-1.589,1.642-4.441c.487-1.424,1.038-3.168,1.578-5.192a61.3,61.3,0,0,0,1.423-6.869,25.377,25.377,0,0,0,0-8.183,11.4,11.4,0,0,0-.6-2.073,7.349,7.349,0,0,0-.47-1.008l-.133-.256-.142-.219-.307-.479a13.55,13.55,0,0,0-2.975-3.476,7.911,7.911,0,0,0-4.216-1.752,13.862,13.862,0,0,0-4.807.537c-1.614.419-3.21.985-4.851,1.527a10.206,10.206,0,0,1-5.367.558,7.164,7.164,0,0,1-2.5-1.264,14.246,14.246,0,0,1-1.888-1.905c-1.126-1.352-2.094-2.77-3.065-4.164a47.51,47.51,0,0,0-2.916-4.017,6.727,6.727,0,0,0-3.9-2.237,7.239,7.239,0,0,0-4.3.867,14.471,14.471,0,0,0-3.532,2.634,21.85,21.85,0,0,0-2.7,3.258c-.393.566-.738,1.141-1.065,1.714s-.63,1.183-1.012,1.738a4.577,4.577,0,0,1-1.424,1.421,2.578,2.578,0,0,1-1.948.262,11.788,11.788,0,0,1-3.071-1.487A47.266,47.266,0,0,0,220.1,8.773a29.316,29.316,0,0,0-3.233-1.313l-1.18-.375" transform="translate(-22.38 0)" fill="#2d2d2d"/>
            <path id="Path_925269" data-name="Path 925269" d="M248.967,38.9l-.48.442a11.849,11.849,0,0,1-1.408,1.191c-.328.229-.677.509-1.085.766l-1.36.776c-.5.247-1.058.465-1.636.72-.592.22-1.242.366-1.908.565-.687.094-1.4.254-2.151.291a13.071,13.071,0,0,1-2.329-.056c-.407-.052-.785-.079-1.232-.156a11.111,11.111,0,0,1-1.189-.323,15.94,15.94,0,0,1-2.37-1.041c-.761-.389-1.514-.811-2.288-1.146a7.932,7.932,0,0,0-2.388-.726,6.864,6.864,0,0,0-2.462.172,11.973,11.973,0,0,0-2.4.946c-1.6.8-3.123,1.765-4.746,2.6a13,13,0,0,1-5.165,1.606,8.754,8.754,0,0,1-2.616-.194l-.62-.149c-.262-.074-.4-.143-.6-.213l-1.11-.414a21.738,21.738,0,0,1-2.069-1.125l-.894-.652a5.555,5.555,0,0,1-.825-.669,14.48,14.48,0,0,1-2.475-2.841l-.8-1.347-.52-1.222-.22-.523c-.058-.168-.086-.335-.125-.485l-.185-.765-.152-.634.211.618c.069.2.153.448.252.738a4.9,4.9,0,0,0,.419.963l.59,1.16.873,1.257a16.6,16.6,0,0,0,2.542,2.6,5.192,5.192,0,0,0,.815.608l.878.585c.619.35,1.265.66,1.956.964l1.127.367c.177.054.413.143.543.168l.572.112c.382.09.777.09,1.17.143a9.54,9.54,0,0,0,1.2-.031,12.492,12.492,0,0,0,4.746-1.583c1.55-.807,3.09-1.8,4.732-2.633a9.451,9.451,0,0,1,5.536-1.188,8.416,8.416,0,0,1,2.656.847c.824.38,1.571.823,2.316,1.222a18.178,18.178,0,0,0,2.182,1.038,10.127,10.127,0,0,0,1.139.36c.337.07.747.123,1.11.184a12.275,12.275,0,0,0,2.2.146c.713,0,1.4-.13,2.061-.191.645-.161,1.274-.287,1.858-.457.572-.208,1.127-.382,1.633-.588l1.379-.667c.417-.223.773-.473,1.111-.676a14.536,14.536,0,0,0,1.5-1.065l.519-.4" transform="translate(-20.665 -3.558)" fill="#2d2d2d"/>
            <path id="Path_925270" data-name="Path 925270" d="M226.36,90.79s-.03,1.354-.072,3.385a71.62,71.62,0,0,0,.2,7.354c.06.661.13,1.319.238,1.96s.211,1.271.369,1.863a16.256,16.256,0,0,0,.522,1.684,10.321,10.321,0,0,0,.687,1.41,7.427,7.427,0,0,0,.8,1.059l.4.388c.132.111.264.2.38.29a4.253,4.253,0,0,0,.576.361l.214.122-.236-.065a3.3,3.3,0,0,1-.664-.225c-.135-.066-.294-.132-.456-.22-.154-.1-.322-.214-.5-.333a6.206,6.206,0,0,1-1.035-1.008c-.169-.205-.319-.436-.489-.669-.146-.244-.291-.5-.434-.769a11.393,11.393,0,0,1-.707-1.756,14.9,14.9,0,0,1-.485-1.949c-.125-.671-.214-1.356-.288-2.042a32.568,32.568,0,0,1,.276-7.508,24.819,24.819,0,0,1,.705-3.332" transform="translate(-23.376 -9.421)" fill="#2d2d2d"/>
            <path id="Path_925271" data-name="Path 925271" d="M246.525,121.358l.756-.146a2.966,2.966,0,0,0,.738-.178l.7-.238.652-.348a3.445,3.445,0,0,0,.611-.4,3.357,3.357,0,0,0,.561-.458c.172-.17.362-.318.517-.5l.46-.559.4-.6a6.978,6.978,0,0,0,.364-.631,10.791,10.791,0,0,0,.6-1.333,11.38,11.38,0,0,0,.455-1.4,14.417,14.417,0,0,0,.3-1.416l1.072.224a3.061,3.061,0,0,0-.091.545,4.021,4.021,0,0,0-.011.587,3.818,3.818,0,0,0,.253,1.131,3.158,3.158,0,0,0,.261.519,4.793,4.793,0,0,0,.354.471,5.784,5.784,0,0,0,.431.419,3.084,3.084,0,0,0,.495.366,2.721,2.721,0,0,0,.542.313l.573.284.613.214c.207.065.407.156.623.2.427.1.852.236,1.291.309s.881.143,1.326.228c-.448.025-.9.045-1.353.048s-.905-.056-1.364-.082a4.2,4.2,0,0,1-.68-.116l-.681-.147-.666-.235a3.229,3.229,0,0,1-.647-.3,3.9,3.9,0,0,1-.621-.376,5.012,5.012,0,0,1-.569-.473,5.611,5.611,0,0,1-.485-.574,4.357,4.357,0,0,1-.766-2.12,5.159,5.159,0,0,1,0-.754,3.985,3.985,0,0,1,.124-.776l1.073.224a9.864,9.864,0,0,1-.334,1.576,12.354,12.354,0,0,1-.521,1.506,9.581,9.581,0,0,1-.725,1.428,7.651,7.651,0,0,1-.439.672c-.163.214-.324.429-.5.634l-.569.576c-.19.19-.419.341-.626.512a3.832,3.832,0,0,1-.685.428,3.918,3.918,0,0,1-.722.35l-.756.253-.79.125a3.076,3.076,0,0,1-.772.047Z" transform="translate(-25.581 -11.731)" fill="#2d2d2d"/>
            <path id="Path_925272" data-name="Path 925272" d="M275.65,64.07s.208.4.536,1.106.8,1.723,1.3,2.967c.513,1.238,1.064,2.7,1.611,4.282s1.07,3.293,1.552,5.016c.215.869.455,1.731.643,2.593s.379,1.708.512,2.541.28,1.631.35,2.4a19.158,19.158,0,0,1,.167,2.173A11.873,11.873,0,0,1,282.295,89a9.758,9.758,0,0,1-.147,1.412c-.164.775-.272,1.2-.272,1.2s.012-.454.056-1.222A9.483,9.483,0,0,0,281.88,89c-.016-.535-.112-1.136-.2-1.791-.073-.655-.212-1.36-.351-2.1-.122-.747-.317-1.524-.488-2.334s-.406-1.635-.6-2.483-.449-1.7-.671-2.553-.47-1.707-.7-2.547l-.708-2.464-1.281-4.367L275.65,64.07" transform="translate(-28.603 -6.648)" fill="#2d2d2d"/>
            <path id="Path_925273" data-name="Path 925273" d="M274.581,99.073a9.456,9.456,0,0,1,1.268,1.991,13.029,13.029,0,0,1,.877,2.272c.129.428.221.885.316,1.348.052.47.14.944.159,1.427a11.524,11.524,0,0,1-.018,1.441,7.39,7.39,0,0,1-.2,1.383c-.048.222-.087.442-.14.652-.073.206-.144.408-.214.6a5.368,5.368,0,0,1-.459,1.068c-.168.319-.324.608-.479.851l-.462.6c-.26.323-.415.5-.415.5l.224-.609.272-.673c.079-.266.168-.567.265-.9a7.833,7.833,0,0,0,.253-1.058c.039-.187.079-.38.119-.577.014-.2.045-.405.068-.612s.056-.416.069-.63.007-.432.02-.651a10.925,10.925,0,0,0-.019-1.326c0-.445-.076-.889-.11-1.327-.086-.433-.11-.871-.206-1.283s-.153-.819-.252-1.2-.185-.74-.268-1.072c-.362-1.326-.674-2.218-.674-2.218" transform="translate(-28.492 -10.28)" fill="#2d2d2d"/>
            <path id="Path_925274" data-name="Path 925274" d="M248.623,65.9s.106.205.308.543a12.222,12.222,0,0,0,.9,1.322,5.431,5.431,0,0,0,1.584,1.394,1.97,1.97,0,0,0,.5.219,2.659,2.659,0,0,0,.537.126,3.016,3.016,0,0,0,1.133-.053l.144-.021.121-.039.323-.1a2.718,2.718,0,0,0,.53-.231,3.994,3.994,0,0,0,.907-.652,4.8,4.8,0,0,0,.661-.863,6.7,6.7,0,0,0,.433-.922,9.244,9.244,0,0,0,.409-1.538c.07-.387.091-.618.091-.618a4.027,4.027,0,0,1,.131.62,5.786,5.786,0,0,1-.011,1.693,4.933,4.933,0,0,1-.3,1.127c-.075.2-.185.387-.282.59a6.227,6.227,0,0,1-.4.567,4.175,4.175,0,0,1-1.133.946,4.3,4.3,0,0,1-.687.319l-.319.109-.2.066-.188.034a4.131,4.131,0,0,1-1.535.023,2.7,2.7,0,0,1-.73-.221,2.834,2.834,0,0,1-.644-.349,4.149,4.149,0,0,1-.982-.911,5.448,5.448,0,0,1-.626-.973,6.682,6.682,0,0,1-.574-1.585,4.742,4.742,0,0,1-.1-.625" transform="translate(-25.799 -6.69)" fill="#282828"/>
            <path id="Path_925275" data-name="Path 925275" d="M224.9,70.856s.106.205.308.543a12.131,12.131,0,0,0,.9,1.322,5.431,5.431,0,0,0,1.584,1.394,1.97,1.97,0,0,0,.5.219,2.659,2.659,0,0,0,.537.126,3.016,3.016,0,0,0,1.133-.053l.144-.021.122-.039.322-.1a2.719,2.719,0,0,0,.53-.231,3.994,3.994,0,0,0,.907-.652,4.788,4.788,0,0,0,.661-.862,6.757,6.757,0,0,0,.433-.923,9.245,9.245,0,0,0,.409-1.538c.07-.387.091-.618.091-.618a4.028,4.028,0,0,1,.131.62,5.786,5.786,0,0,1-.011,1.693,4.932,4.932,0,0,1-.3,1.127c-.075.2-.185.387-.282.59a6.223,6.223,0,0,1-.4.567,4.175,4.175,0,0,1-1.133.946,4.3,4.3,0,0,1-.687.319l-.319.109-.2.066-.188.034a4.131,4.131,0,0,1-1.535.023,2.7,2.7,0,0,1-.73-.221,2.8,2.8,0,0,1-.644-.35,4.128,4.128,0,0,1-.982-.91,5.447,5.447,0,0,1-.626-.973A6.667,6.667,0,0,1,225,71.481a4.745,4.745,0,0,1-.1-.625" transform="translate(-23.337 -7.204)" fill="#282828"/>
            <path id="Path_925276" data-name="Path 925276" d="M242.515,50.977s-.5,4.789,2.5,5.029,11.271.958,13.776,3.353c0,0,.5-5.268-1.754-5.268s-14.527-3.114-14.527-3.114" transform="translate(-25.162 -5.29)" fill="#2d2d2d"/>
            <path id="Path_925277" data-name="Path 925277" d="M231.026,53.015s1.824,4.447-.389,5.4-8.28,3.62-9.463,6.5c0,0-1.967-4.9-.254-5.446s10.106-6.456,10.106-6.456" transform="translate(-22.851 -5.501)" fill="#2d2d2d"/>
            <path id="Path_925278" data-name="Path 925278" d="M234.234,57.39c.332,1.046.661,2.089.922,3.15.282,1.056.52,2.122.779,3.184.224,1.069.495,2.131.67,3.209s.381,2.151.55,3.23l.5,3.238c.169,1.078.227,2.176.333,3.265s.158,2.184.238,3.275.116,2.185.175,3.276l-.656-.531c2.175-.184,4.353-.351,6.55-.391-2.113.6-4.246,1.07-6.381,1.524l-.564.12-.093-.651c-.153-1.075-.326-2.149-.464-3.224s-.284-2.149-.4-3.225-.205-2.155-.391-3.226l-.432-3.226c-.14-1.076-.251-2.156-.378-3.235l-.181-1.619-.2-1.618c-.108-1.084-.236-2.164-.319-3.253s-.2-2.178-.255-3.274" transform="translate(-24.305 -5.955)" fill="#6b313a"/>
            <path id="Path_925279" data-name="Path 925279" d="M235.3,92.847a8.438,8.438,0,0,1,.8-.428,19.087,19.087,0,0,1,2.219-.92,13.882,13.882,0,0,1,1.527-.484c.548-.15,1.125-.323,1.732-.456.61-.108,1.239-.242,1.885-.335a19.373,19.373,0,0,1,1.963-.247l1.977-.1a11.97,11.97,0,0,1,1.919.037c.622.031,1.222.092,1.789.144l.825.081c.264.042.519.112.763.163a31.342,31.342,0,0,1,3.193.874s-1.347.118-3.276.082a13.2,13.2,0,0,0-1.559.047c-.553.031-1.135.071-1.733.08s-1.218.039-1.846.1l-1.9.156a18.539,18.539,0,0,0-1.9.182c-.626.084-1.248.123-1.847.184-1.188.185-2.319.28-3.28.422l-2.344.307-.9.113" transform="translate(-24.416 -9.323)" fill="#6b313a"/>
            <path id="Path_925280" data-name="Path 925280" d="M240.914,97.3a4.348,4.348,0,0,0,.495.084,4.119,4.119,0,0,0,.554.06c.217.008.451.045.712.048s.546-.013.84,0a8.76,8.76,0,0,0,.928-.064c.321-.032.651-.032.985-.092l1.012-.177a5.414,5.414,0,0,0,1.01-.19c.328-.1.66-.159.977-.237s.635-.122.925-.205.561-.176.816-.248a15.74,15.74,0,0,1,1.763-.411,14.45,14.45,0,0,1-1.521,1c-.237.14-.495.29-.774.436a8.541,8.541,0,0,1-.921.362c-.326.11-.661.241-1.008.342a5.856,5.856,0,0,1-1.075.243l-1.1.15a7.1,7.1,0,0,1-1.078,0,5.1,5.1,0,0,1-1-.088c-.317-.059-.613-.13-.883-.2a5.47,5.47,0,0,1-.716-.266,2.553,2.553,0,0,1-.525-.264,2.367,2.367,0,0,1-.414-.289" transform="translate(-24.999 -9.948)" fill="#6b313a"/>
            <path id="Path_925281" data-name="Path 925281" d="M272.709,58.553s-.479-13.889,7.9-10.058,1.7,23.238-4.072,20.355c-4.31-2.155-3.831-10.3-3.831-10.3" transform="translate(-28.296 -4.963)" fill="#f69a8b"/>
            <path id="Path_925282" data-name="Path 925282" d="M279.376,67.291a13.837,13.837,0,0,0,.63-1.609,6.117,6.117,0,0,0,.2-.822,2.463,2.463,0,0,0,.051-.409,2.493,2.493,0,0,0,.011-.4,1.456,1.456,0,0,0-.044-.376c-.041-.111-.04-.245-.116-.329s-.092-.2-.191-.258-.139-.154-.258-.185a1.9,1.9,0,0,0-.313-.126l-.363-.06a1.779,1.779,0,0,0-.386-.007l-.392.008-.386.007-.086-.369a29.865,29.865,0,0,1-.723-4.591,16.447,16.447,0,0,1-.038-2.352,8.216,8.216,0,0,1,.435-2.4,3.322,3.322,0,0,1,.705-1.147,1.981,1.981,0,0,1,1.343-.6,4.985,4.985,0,0,1,.591.018,2.952,2.952,0,0,1,.694.183,2.634,2.634,0,0,1,1.046.786,3.978,3.978,0,0,1,.637,1.058,6.413,6.413,0,0,1,.35,1.136,9.019,9.019,0,0,1,.2,2.309,12.553,12.553,0,0,0-.59-2.192,7.418,7.418,0,0,0-.479-.994,3.353,3.353,0,0,0-.637-.832,2.1,2.1,0,0,0-.814-.5,2.668,2.668,0,0,0-.416-.083,4.335,4.335,0,0,0-.55.03,1.133,1.133,0,0,0-.665.37,2.346,2.346,0,0,0-.436.816,13.053,13.053,0,0,0-.283,4.326c.1,1.49.279,3,.528,4.475l-.472-.362.477.027a2.381,2.381,0,0,1,.477.052l.485.126a2.576,2.576,0,0,1,.471.238,1.36,1.36,0,0,1,.4.365,1.4,1.4,0,0,1,.266.469,1.646,1.646,0,0,1,.114.5,2.017,2.017,0,0,1,0,.488,3.464,3.464,0,0,1-.2.9,6.6,6.6,0,0,1-.342.826,8.315,8.315,0,0,1-.926,1.491" transform="translate(-28.737 -5.32)" fill="#6b313a"/>
            <path id="Path_925283" data-name="Path 925283" d="M345.3,304.653s7.861-7.424,14.411-3.93,11.354,11.791,20.526,14.848,15.284,13.975-10.481,7.423S345.3,304.653,345.3,304.653" transform="translate(-35.829 -31.108)" fill="#e48f81"/>
            <path id="Path_925284" data-name="Path 925284" d="M361.9,312.031s7.861-7.424,14.411-3.93,11.354,11.791,20.526,14.848,15.284,13.975-10.481,7.423S361.9,312.031,361.9,312.031" transform="translate(-37.551 -31.873)" fill="#f69a8b"/>
            <path id="Path_925285" data-name="Path 925285" d="M304.083,290.009s16.731-11.5,23.013-1.4c11.148,17.927,64.425,29.429,42,44.375s-98.886,11.26-104.7,9.6,12.681-25.027,12.681-25.027Z" transform="translate(-27.319 -29.517)" fill="#262626"/>
            <path id="Path_925286" data-name="Path 925286" d="M229.7,115.75s9.964,11.833,34.253,8.719,25.535-17.439,25.535-17.439,17.437,8.1,19.306,16.816,6.851,123.311-3.736,144.486-66.639,46.709-69.129,46.709-39.858-22.42-39.858-22.42L174.893,156.854s34.253-41.727,54.8-41.1" transform="translate(-18.148 -11.106)" fill="#3a3a3a"/>
            <path id="Path_925287" data-name="Path 925287" d="M263.648,312.1c-12.158,6.876-5.975-29.528-19.971-28.695-15.236.908-29.9-2.633-44.053-8.036a2.576,2.576,0,0,1-1.646-2.825,11.7,11.7,0,0,1-2.2-1.67c-.027-.026-.042-.053-.067-.079q-1.754.073-3.508.112l5.664,36.318s37.368,22.42,39.858,22.42,58.542-25.535,69.129-46.709c2.95-5.9,4.691-19.061,5.627-35.16-9.159,41.18-38.974,58.749-48.83,64.323" transform="translate(-19.944 -25.711)" fill="#262626"/>
            <g id="Group_1119437" data-name="Group 1119437" transform="translate(156.745 124.397)" opacity="0.5">
              <g id="Group_1119436" data-name="Group 1119436">
                <g id="Group_1119435" data-name="Group 1119435" clip-path="url(#clip-path-6)">
                  <path id="Path_925288" data-name="Path 925288" d="M303.02,170.543c-14.806,9.018-32.318,13.469-49.413,8.764a115.369,115.369,0,0,1-42.5-22.575c-5.813-4.855-11.937-10.947-15.91-17.932a239.855,239.855,0,0,0-20.309,21.352l14.742,94.526c22.665-.411,45.437-5.246,66.76-12.175,19.051-6.19,44.41-16.526,55.175-35.153.128-14.4-.112-29.124-.514-41.992-2.649,1.791-5.324,3.534-8.036,5.186" transform="translate(-174.893 -138.8)" fill="#262626"/>
                </g>
              </g>
            </g>
            <path id="Path_925289" data-name="Path 925289" d="M154.444,49.971s22.433-8.412,36.453,5.208-.4,36.854-1.6,51.676,11.217,10.015,8.012,26.439-33.65,18.027-41.661,12.819-5.609-18.828,1.6-36.453-2.8-59.688-2.8-59.688" transform="translate(-15.631 -4.919)" fill="#2d2d2d"/>
            <path id="Path_925290" data-name="Path 925290" d="M154.729,118.574s-6.81,17.226-2,20.431,19.629-8.012,27.24,12.018-35.252,24.035-54.881,19.228S116.673,135,116.673,135l27.641-18.427Z" transform="translate(-11.776 -12.096)" fill="#c97676"/>
            <path id="Path_925291" data-name="Path 925291" d="M129.9,154.874s18.995,3.736,24.6-14.636c0,0,8.1-4.671,14.635,5.294s3.114,44.84,3.114,44.84,28.393,115.871,7.841,132.685c-11.3,9.243-135.682,9.842-149.46,0-6.539-4.67,13.076-39.856,54.179-46.706,0,0-23.353-48.575,2.8-123.306,18.55-53,42.288,1.828,42.288,1.828" transform="translate(-3.05 -13.485)" fill="#d1a324"/>
            <path id="Path_925292" data-name="Path 925292" d="M133.039,85.159s5.044-27.319,28.712-25.367,23.566,24.276,18.583,38.059c-6.207,17.172-15.587,27.126-26.84,22.833-13.3-5.076-23.559-21.865-20.456-35.525" transform="translate(-13.747 -6.194)" fill="#f69a8b"/>
            <path id="Path_925293" data-name="Path 925293" d="M164.379,52.838s2.4-9.613-14.421-15.622c-10.434-3.727-25.638-4.807-38.457,17.226s-4.407,25.638-15.623,43.665-11.216,35.251-4.407,38.055c0,0,26.439,2,32.048,20.831,0,0,16.024-6.81,18.427-23.234s-14.421-32.448-6.41-52.878,27.24-10.415,28.843-28.042" transform="translate(-9.008 -3.644)" fill="#3a3a3a"/>
            <path id="Path_925294" data-name="Path 925294" d="M132.7,159.441a37.047,37.047,0,0,0,6.438-4.66,33.345,33.345,0,0,0,5.236-5.914,28.457,28.457,0,0,0,3.6-6.957l.34-.918.242-.949c.156-.633.333-1.261.472-1.9l.273-1.935.129-.947.051-1a26.965,26.965,0,0,0-.92-7.7,67.688,67.688,0,0,0-2.492-7.476c-1.922-4.926-4.17-9.8-5.7-14.987a43.9,43.9,0,0,1-1.617-7.973,30.284,30.284,0,0,1,.242-8.179,31.628,31.628,0,0,1,.92-4l.3-.979c.056-.172.087-.3.166-.51l.177-.467c.246-.625.443-1.238.754-1.877a23.956,23.956,0,0,1,4.5-6.9,23.642,23.642,0,0,1,3.121-2.716,30.911,30.911,0,0,1,3.51-2.126c2.414-1.255,4.939-2.185,7.326-3.253a14.777,14.777,0,0,0,6.13-4.432,13.611,13.611,0,0,0,2.255-7.215l0-.036.007-.041a6.353,6.353,0,0,0,.056-1.3,8.007,8.007,0,0,0-.186-1.348,10.6,10.6,0,0,0-.371-1.32c-.152-.433-.359-.847-.541-1.271-.237-.4-.459-.8-.707-1.2l-.836-1.122-.958-1.029a11.812,11.812,0,0,0-1.047-.947,9.374,9.374,0,0,0-1.11-.878l-1.167-.814c-.4-.263-.822-.476-1.231-.717s-.82-.485-1.251-.687l-1.3-.6c-.436-.194-.858-.425-1.308-.587l-2.688-1.013,2.747.857c.461.137.9.344,1.346.514l1.338.541c.444.186.862.428,1.3.641s.868.425,1.282.674l1.226.778a9.846,9.846,0,0,1,1.179.853,12.385,12.385,0,0,1,1.123.932l1.045,1.03.932,1.144c.281.4.537.828.807,1.244.218.445.458.883.643,1.344a9.812,9.812,0,0,1,.453,1.429,9,9,0,0,1,.244,1.489,7.019,7.019,0,0,1-.036,1.562l.01-.076a14.7,14.7,0,0,1-2.267,7.871,16.047,16.047,0,0,1-6.512,5.017c-2.435,1.183-4.9,2.137-7.21,3.348a29.312,29.312,0,0,0-3.3,2.034A22.04,22.04,0,0,0,147,74.332a22.321,22.321,0,0,0-4.119,6.434c-.273.559-.481,1.217-.718,1.833l-.173.468c-.04.1-.091.3-.136.44l-.28.93a29.96,29.96,0,0,0-.837,3.787,31.871,31.871,0,0,0-.224,7.736A42.247,42.247,0,0,0,142,103.626c1.435,5.049,3.616,9.9,5.522,14.9a57,57,0,0,1,2.432,7.7,28.249,28.249,0,0,1,.747,8.119l-.076.995c-.047.376-.109.682-.164,1.027l-.338,2.009c-.162.659-.363,1.309-.543,1.963l-.279.979-.376.945a26.934,26.934,0,0,1-3.944,7.049A35.147,35.147,0,0,1,132.7,159.441" transform="translate(-13.769 -4.001)" fill="#3a3a3a"/>
            <path id="Path_925295" data-name="Path 925295" d="M151.323,85.479s-.035.271-.065.735a14.164,14.164,0,0,0-.01,1.892,6.411,6.411,0,0,0,.6,2.417l.148.291.2.26a3.058,3.058,0,0,0,.436.484,3.578,3.578,0,0,0,1.136.71l.154.077.143.044.38.118a3.294,3.294,0,0,0,.671.133,4.739,4.739,0,0,0,1.317-.024c.215-.042.42-.113.63-.16.2-.082.405-.142.593-.234a7.959,7.959,0,0,0,1.04-.606,10.96,10.96,0,0,0,1.43-1.22c.328-.329.5-.539.5-.539a4.655,4.655,0,0,1-.289.69,6.838,6.838,0,0,1-1.148,1.637,5.834,5.834,0,0,1-1.052.891c-.205.14-.439.253-.67.384a7.1,7.1,0,0,1-.77.282,4.911,4.911,0,0,1-1.736.158,4.981,4.981,0,0,1-.882-.152l-.384-.107-.238-.071-.206-.093a4.851,4.851,0,0,1-1.507-1.009,3.2,3.2,0,0,1-.56-.7l-.228-.377-.164-.4a4.9,4.9,0,0,1-.342-1.544,6.463,6.463,0,0,1,.045-1.367A7.958,7.958,0,0,1,151,86.155a5.584,5.584,0,0,1,.319-.676" transform="translate(-15.61 -8.87)" fill="#282828"/>
            <path id="Path_925296" data-name="Path 925296" d="M172.9,94.234s-.035.271-.065.735a14.316,14.316,0,0,0-.01,1.892,6.411,6.411,0,0,0,.6,2.417l.149.291.2.26a3.1,3.1,0,0,0,.436.485,3.575,3.575,0,0,0,1.136.709l.154.077.143.044.38.118a3.293,3.293,0,0,0,.671.133,4.738,4.738,0,0,0,1.317-.024c.215-.042.42-.113.63-.16.2-.082.405-.142.593-.234a7.959,7.959,0,0,0,1.04-.606,10.9,10.9,0,0,0,1.43-1.22c.328-.329.5-.539.5-.539a4.682,4.682,0,0,1-.289.691,6.837,6.837,0,0,1-1.148,1.637,5.833,5.833,0,0,1-1.052.891c-.205.14-.439.253-.67.384a7.1,7.1,0,0,1-.77.282,4.911,4.911,0,0,1-1.736.158,5,5,0,0,1-.882-.152l-.383-.107-.239-.071-.206-.093a4.862,4.862,0,0,1-1.507-1.009,3.2,3.2,0,0,1-.56-.7l-.228-.377-.164-.4a4.9,4.9,0,0,1-.342-1.544,6.462,6.462,0,0,1,.045-1.367,7.958,7.958,0,0,1,.507-1.925,5.585,5.585,0,0,1,.319-.676" transform="translate(-17.849 -9.778)" fill="#282828"/>
            <path id="Path_925297" data-name="Path 925297" d="M150.408,78.964s.3.043.791.141,1.188.246,2,.433c1.623.379,3.7.956,5.737,1.412,1.018.231,2.028.417,2.974.536a15.368,15.368,0,0,0,2.6.129,9.794,9.794,0,0,0,1.067-.1c.325-.043.6-.112.848-.16l.768-.2-.12.176a4.211,4.211,0,0,1-.379.476,4.644,4.644,0,0,1-.715.635,5.783,5.783,0,0,1-1.079.648,8.387,8.387,0,0,1-3.045.729,10.493,10.493,0,0,1-1.741-.029,14.325,14.325,0,0,1-1.752-.273,16.432,16.432,0,0,1-5.8-2.6,13.445,13.445,0,0,1-1.612-1.352,6.362,6.362,0,0,1-.547-.6" transform="translate(-15.607 -8.194)" fill="#282828"/>
            <path id="Path_925298" data-name="Path 925298" d="M176.46,85.276l.419.454c.271.275.622.661,1.061,1.079s.915.894,1.454,1.358c.257.242.546.465.822.706s.583.454.866.7c.3.221.6.441.9.669.314.2.6.425.9.636.306.191.6.393.874.6l.813.542c.5.38.954.646,1.261.893s.49.4.49.4a5.074,5.074,0,0,1-.618.109,6.785,6.785,0,0,1-1.632.039,9.5,9.5,0,0,1-1.078-.156c-.374-.1-.768-.211-1.172-.347-.393-.157-.794-.347-1.194-.553-.392-.221-.768-.487-1.145-.749a10.99,10.99,0,0,1-1.013-.929,7.416,7.416,0,0,1-.834-1.041,7.274,7.274,0,0,1-1.006-2.12,5.742,5.742,0,0,1-.185-.922,4.446,4.446,0,0,1-.045-.724,2.86,2.86,0,0,1,.068-.635" transform="translate(-18.303 -8.849)" fill="#282828"/>
            <path id="Path_925299" data-name="Path 925299" d="M171.887,86.293c-.3,1.554-.641,3.071-.98,4.581-.161.756-.35,1.5-.5,2.257-.17.748-.337,1.495-.479,2.242-.063.377-.151.747-.228,1.118l-.194,1.117c-.077.372-.1.746-.164,1.116s-.122.739-.145,1.107-.083.74-.088,1.1-.027.725-.037,1.089l.07,1.058c.066.333.135.658.19,1l.193,1.2-.989-.15c-1.058-.157-2.114-.352-3.169-.558-1.052-.23-2.105-.451-3.151-.765,1.084-.134,2.159-.171,3.235-.219,1.075-.023,2.147-.035,3.218-.012l-.8,1.055c-.143-.41-.3-.828-.409-1.252l-.2-1.257c-.02-.413-.05-.826-.052-1.242s.04-.815.06-1.222a17.968,17.968,0,0,1,.316-2.395c.153-.784.315-1.564.533-2.326s.446-1.519.707-2.264.549-1.479.86-2.2a28.332,28.332,0,0,1,2.2-4.185" transform="translate(-16.832 -8.954)" fill="#aa6464"/>
            <path id="Path_925300" data-name="Path 925300" d="M151.629,109.888s12.955-1.825,16.058,5.474Z" transform="translate(-15.734 -11.382)" fill="#fff"/>
            <path id="Path_925301" data-name="Path 925301" d="M220.9,137.725s7.445-6.325,18.774,1.506,16.509,16.866,8.092,32.227,4.305,36.446-18.2,45.358S202.769,181.1,202.769,181.1Z" transform="translate(-21.04 -14.041)" fill="#1c1c1c"/>
            <path id="Path_925302" data-name="Path 925302" d="M219.873,145.722s15.676,1.323,17.618,14.662c1.869,12.829-2.252,35.971-22.181,34.725-11.856-.741-23.95-8.762-22.969-23.424s8.557-27.491,27.531-25.964" transform="translate(-19.953 -15.108)" fill="#f69a8b"/>
            <path id="Path_925303" data-name="Path 925303" d="M186.845,137.98s6.851-10.587,18.995-9.964,20.241,7.162,22.109,13.078-1.557,19.618-16.815,18.061c-8.674-.885-15.569,5.605-15.258,14.013s8.1,13.39,3.425,17.438-22.109,12.456-29.271,5.605-10.9-15.569.934-28.648,8.719-21.8,15.881-29.582" transform="translate(-16.949 -13.281)" fill="#262626"/>
            <path id="Path_925304" data-name="Path 925304" d="M207.066,169.283s-.023.257-.036.7a13.556,13.556,0,0,0,.056,1.792,6.1,6.1,0,0,0,.655,2.267l.151.271.194.239a2.954,2.954,0,0,0,.43.443,3.384,3.384,0,0,0,1.1.632l.149.068.137.037.364.1a3.071,3.071,0,0,0,.64.1,4.449,4.449,0,0,0,1.247-.069c.2-.047.394-.121.592-.173.186-.084.378-.148.553-.242a7.635,7.635,0,0,0,.963-.61,10.335,10.335,0,0,0,1.311-1.2c.3-.324.457-.528.457-.528a4.364,4.364,0,0,1-.25.664,6.465,6.465,0,0,1-1.03,1.59,5.445,5.445,0,0,1-.964.88c-.19.14-.408.255-.621.387a6.905,6.905,0,0,1-.72.294,4.656,4.656,0,0,1-1.637.211,4.744,4.744,0,0,1-.841-.114l-.367-.088-.229-.057-.2-.082a4.609,4.609,0,0,1-1.462-.9,3.018,3.018,0,0,1-.556-.648l-.229-.349-.169-.368a4.629,4.629,0,0,1-.378-1.451,6.083,6.083,0,0,1-.005-1.3,7.491,7.491,0,0,1,.413-1.84,5.38,5.38,0,0,1,.278-.652" transform="translate(-21.411 -17.566)" fill="#282828"/>
            <path id="Path_925305" data-name="Path 925305" d="M227.806,176.815s-.023.257-.036.7a13.547,13.547,0,0,0,.056,1.792,6.082,6.082,0,0,0,.655,2.267l.151.271.194.239a2.955,2.955,0,0,0,.43.443,3.375,3.375,0,0,0,1.1.632l.149.068.137.037.364.1a3.071,3.071,0,0,0,.64.1,4.449,4.449,0,0,0,1.247-.069c.2-.047.394-.122.592-.173.186-.084.378-.148.552-.242a7.5,7.5,0,0,0,.963-.61,10.291,10.291,0,0,0,1.312-1.2c.3-.324.457-.528.457-.528a4.4,4.4,0,0,1-.25.664,6.466,6.466,0,0,1-1.03,1.59,5.421,5.421,0,0,1-.965.88c-.189.14-.407.255-.621.387a6.8,6.8,0,0,1-.719.294,4.656,4.656,0,0,1-1.637.211,4.832,4.832,0,0,1-.841-.114l-.367-.088-.229-.058-.2-.081a4.616,4.616,0,0,1-1.461-.9,3.019,3.019,0,0,1-.556-.648l-.229-.349-.169-.368a4.629,4.629,0,0,1-.378-1.451,6.082,6.082,0,0,1-.005-1.3,7.491,7.491,0,0,1,.413-1.84,5.131,5.131,0,0,1,.278-.652" transform="translate(-23.563 -18.347)" fill="#282828"/>
            <path id="Path_925306" data-name="Path 925306" d="M205.958,163.15s.284.03.755.1,1.136.185,1.906.345c.384.084.808.145,1.239.249l1.355.291c.935.187,1.914.419,2.888.58.485.109.969.171,1.443.241.479.091.936.106,1.39.166s.876.032,1.3.072c.412.005.794-.033,1.172-.031.363-.033.687-.11,1-.143a4.068,4.068,0,0,0,.789-.192c.443-.131.736-.2.736-.2a6.432,6.432,0,0,1-.465.612,2.842,2.842,0,0,1-.645.635,6.75,6.75,0,0,1-1,.653,10.181,10.181,0,0,1-1.317.519,10.376,10.376,0,0,1-1.538.281,9.9,9.9,0,0,1-1.649.03,10.823,10.823,0,0,1-1.667-.2,13.227,13.227,0,0,1-1.61-.393,14.936,14.936,0,0,1-3.968-1.861A11.6,11.6,0,0,1,206.5,163.7a5.766,5.766,0,0,1-.539-.547" transform="translate(-21.371 -16.929)" fill="#282828"/>
            <path id="Path_925307" data-name="Path 925307" d="M230.848,168.212l.413.415c.265.252.611.6,1.042.985a33.722,33.722,0,0,0,3.071,2.5l.87.6c.3.177.588.381.874.571.3.17.578.352.847.534l.789.485c.485.342.926.579,1.226.8s.478.36.478.36a4.777,4.777,0,0,1-.581.125,6.374,6.374,0,0,1-1.543.095,9.093,9.093,0,0,1-1.027-.11c-.357-.079-.734-.172-1.121-.287-.379-.135-.764-.3-1.15-.481-.379-.2-.745-.435-1.11-.669a10.36,10.36,0,0,1-.992-.845,6.966,6.966,0,0,1-.825-.955,6.865,6.865,0,0,1-1.027-1.973,5.569,5.569,0,0,1-.275-1.55,2.732,2.732,0,0,1,.042-.6" transform="translate(-23.95 -17.455)" fill="#282828"/>
            <path id="Path_925308" data-name="Path 925308" d="M224.536,179.846a11.265,11.265,0,0,1,.087,1.615c.008.524.016,1.028.07,1.519a11.864,11.864,0,0,0,.684,2.857l.213.6-.537.182a6.415,6.415,0,0,1-.92.248,2.506,2.506,0,0,1-1.022-.06c-.3-.091-.559-.177-.834-.279s-.548-.194-.828-.321a5.04,5.04,0,0,1,.884-.181c.295-.047.6-.038.87-.065a1.845,1.845,0,0,0,.683-.135c.116-.05.22-.08.341-.143s.237-.122.36-.172l-.324.782a8,8,0,0,1-.526-1.6,6.427,6.427,0,0,1-.119-1.7,8.777,8.777,0,0,1,.916-3.148" transform="translate(-22.979 -18.662)" fill="#8e5656"/>
            <path id="Path_925309" data-name="Path 925309" d="M214.1,189.23s.134-.07.368-.172a5,5,0,0,1,1-.338c.216-.048.454-.1.71-.137a5.018,5.018,0,0,1,.8-.056,4.577,4.577,0,0,1,.861.025c.293.035.591.083.888.132.29.088.581.182.862.283a3.531,3.531,0,0,1,.79.393,3.256,3.256,0,0,1,.68.463c.2.177.37.357.525.521a1.712,1.712,0,0,1,.365.5c.1.158.166.3.225.418.115.233.166.367.166.367s-.138-.074-.355-.207c-.108-.067-.238-.145-.374-.242a2.348,2.348,0,0,0-.48-.281c-.186-.087-.381-.18-.574-.291a6.148,6.148,0,0,0-.657-.26,4.246,4.246,0,0,0-.709-.238c-.25-.062-.5-.141-.747-.212-.521-.079-1.027-.23-1.532-.278-.249-.022-.494-.1-.722-.109s-.45-.05-.656-.081c-.409-.073-.784-.077-1.033-.126s-.4-.073-.4-.073" transform="translate(-22.216 -19.562)" fill="#8e5656"/>
            <path id="Path_925310" data-name="Path 925310" d="M174.836,218.8s19.591-22.062,33.319-14.324c17.126,9.652,7.162,64.458,13.39,61.967s25.223-46.086,42.349-37.367,9.653,94.663,22.732,99.957,6.228,9.03,1.557,9.03-138.881,5.293-142.929-2.181,6.539-8.408,8.408-37.99,0-42.038,21.174-79.094" transform="translate(-14.977 -21.047)" fill="#8ce6fe"/>
            <path id="Path_925311" data-name="Path 925311" d="M261.611,320.639c-12.041-26.572-22.835-14.947-61.033-31.97-28.3-12.61-19.912-57.336-13.663-79.681a71.011,71.011,0,0,0-12.079,10.448c-21.174,37.056-19.306,49.512-21.174,79.094s-12.456,30.517-8.408,37.99c3.169,5.851,86.115,3.876,124.224,2.743-1.482-4-3.914-9.9-7.867-18.625" transform="translate(-14.977 -21.686)" fill="#07c3f3"/>
            <path id="Path_925312" data-name="Path 925312" d="M196.809,233.335s-31.97-13.286-7.889,1.661c0,0-41.519,14.117-10.8,7.059,0,0-32.8,11.209,1.661,3.736,0,0-26.987,11.625,1.246,2.906,0,0-35.291,13.7,23.666-2.906Z" transform="translate(-17.02 -23.648)" fill="#f69a8b"/>
            <path id="Path_925313" data-name="Path 925313" d="M197.05,249.175c3.2-.868,6.784-1.86,10.827-3l-7.889-12.456s-2.361-.98-5.316-2.11c0,5.763.479,12.081,2.378,17.564" transform="translate(-20.2 -24.033)" fill="#934250"/>
            <path id="Path_925314" data-name="Path 925314" d="M282.89,125.452s13.7-14.947,24.08-6.228,11.626,28.648,8.3,48.162-30.723,50.653-58.541,60.2c-23.486,8.063-53.974,9.964-53.974,9.964l-5.4-19.929s24.912-9.549,44.841-27.818c23.81-21.827,27.4-50.652,40.688-64.354" transform="translate(-20.479 -12.088)" fill="#595959"/>
            <path id="Path_925315" data-name="Path 925315" d="M189.464,199.189s18.491-4.824,22.244-2.412,8.279,11.387,8.279,15.406c0,0-6.672-8.439-11.228-7.1s-8.307,6.967-14.471,8.307-4.824-14.2-4.824-14.2" transform="translate(-19.647 -20.349)" fill="#e58585"/>
            <path id="Path_925316" data-name="Path 925316" d="M197.17,197.61c-4.236.83-7.706,1.735-7.706,1.735s-1.34,15.542,4.824,14.2a16.372,16.372,0,0,0,5.658-2.577c.418-4.458-.949-8.993-2.776-13.361" transform="translate(-19.647 -20.505)" fill="#c97676"/>
            <path id="Path_925317" data-name="Path 925317" d="M84.762,151.367s9.341-32.7,21.174-31.14,27.714,70.687,38.3,71.621,35.81-5.605,39.235-2.492,4.359,22.109-6.539,29.583-41.727,23.354-57.608,11.833S77.6,183.752,84.762,151.367" transform="translate(-8.668 -12.47)" fill="#eebc32"/>
          </g>
        </g>
      </g>
    </g>
  </g>
</svg>
