<svg id="Group_1119278" data-name="Group 1119278" xmlns="http://www.w3.org/2000/svg" xmlns:xlink="http://www.w3.org/1999/xlink" width="105.334" height="105.692" viewBox="0 0 105.334 105.692">
  <defs>
    <clipPath id="clip-path">
      <rect id="Rectangle_407255" data-name="Rectangle 407255" width="105.334" height="105.693" transform="translate(0)" fill="#f69a8b"/>
    </clipPath>
    <clipPath id="clip-path-2">
      <rect id="Rectangle_401492" data-name="Rectangle 401492" width="65.388" height="65.389" transform="translate(0 0)" fill="#953c2d" stroke="#707070" stroke-width="1"/>
    </clipPath>
    <clipPath id="clip-path-3">
      <rect id="Rectangle_409171" data-name="Rectangle 409171" width="47.607" height="61.397" fill="#953c2d"/>
    </clipPath>
  </defs>
  <g id="Group_1116923" data-name="Group 1116923" clip-path="url(#clip-path)">
    <path id="Path_893365" data-name="Path 893365" d="M104.048,31.292C97.88,10.265,51.742-13.615,17.656,9.414s-9.13,105.365-4.625,88.724c4.329-15.992,23.523-2.928,37.93-2.46C67,96.2,77.411,92.049,77.386,91.987c7.4-2.756,12.628-6.379,17-13.195,8.73-13.615,13.376-34.847,9.664-47.5" transform="translate(0.001 2.676)" fill="#f69a8b"/>
  </g>
  <g id="Group_1115380" data-name="Group 1115380" transform="translate(20 20)">
    <rect id="Rectangle_401104" data-name="Rectangle 401104" width="60.924" height="61.907" transform="translate(2.711 1.897)" fill="none"/>
    <g id="Mask_Group_1098697" data-name="Mask Group 1098697" transform="translate(-0.289 -0.102)" clip-path="url(#clip-path-2)">
      <g id="Group_1119450" data-name="Group 1119450" transform="translate(9 2)">
        <g id="Group_1119449" data-name="Group 1119449" clip-path="url(#clip-path-3)">
          <path id="Path_925347" data-name="Path 925347" d="M16.529,57.853c-.071,1.18.4,2.932-.934,3.46-1.1.436-3.035-1.2-4.128-1.24-.853-.029-2.971,1.575-3.942,1.29-1.45-.426-1.008-2.291-1.06-3.511a6.368,6.368,0,0,1-6.44-5.391L0,5.6A6.484,6.484,0,0,1,4.451.359C18.173-.359,32.025.26,45.793.043a1.957,1.957,0,0,1,1.7.917l.1,55.364a1.632,1.632,0,0,1-1.12,1.529ZM6.464,3.131C4.955,2.757,2.711,4.5,2.711,6.121V45.894a7.144,7.144,0,0,1,3.753-1.087Zm38.385,0H9.193V44.807H44.849Zm0,44.756H5.184a10.285,10.285,0,0,0-1.1.646c-2.759,2.109-.944,6.75,2.378,6.241v-2C4.54,53.1,3.949,50.7,5.7,49.885l16.022.007c1.755.291,1.116,2.888.181,2.888H16.529v1.993H44.849V52.78H26.339a4.786,4.786,0,0,1-.679-.728c-.3-.748.094-2.171.849-2.171H44.849ZM13.8,57.672V53.052l-.256-.272H9.193v4.892c.8.035,1.542-.728,2.3-.728s1.508.764,2.3.728" transform="translate(0 0)" fill="#953c2d"/>
          <path id="Path_925348" data-name="Path 925348" d="M172.276,108.529c-.1-.671-.73-1.7-.952-2.472a46.013,46.013,0,0,1-1.378-5.083c.007-.221.161-.422.168-.644,1.3-.145,1.477,3.246,2.08,3.431.752.231.616-.941.5-1.414-.6-2.441-4.455-3.2-4.57-5.53-.021-.433.247-.312.556-.192a56.617,56.617,0,0,1,5.336,4.671,4.288,4.288,0,0,1,.739,1.154c.518,3.124-.3,6.333-.3,9.484-.077.283-2.175.489-2.175.021a29.329,29.329,0,0,0,0-3.424" transform="translate(-140.859 -80.86)" fill="#953c2d"/>
          <path id="Path_925349" data-name="Path 925349" d="M125.19,112.091c-.161.519-2.112.215-2.175-.02l-.537-7.36a4.115,4.115,0,0,1,.633-2.806,45.763,45.763,0,0,1,4.924-4.673c.209-.148,1.34-.981,1.306-.278-.113,2.37-3.983,3.133-4.607,5.49-.127.479-.268,1.674.529,1.432.7-.213.764-3.609,2.088-3.409-.025.225.108.451.113.658.021.895-1.267,4.7-1.6,5.87-.105.365-.672,1.287-.672,1.491a28.353,28.353,0,0,1,0,3.6" transform="translate(-102.61 -80.998)" fill="#953c2d"/>
          <path id="Path_925350" data-name="Path 925350" d="M157.31,126.738a20.843,20.843,0,0,0-.026,2.139H155.3c-.076-.386.117-1.986-.019-2.144-.091-.106-.822-.036-.89-.319.206-1.824-.256-4.151.019-5.907.16-1.024,1.422-1.3,1.446-1.469.053-.362-1.451-2.3.083-2.594,2.491-.475.717,2.155.826,2.575.116.448,1.25.638,1.412,1.667a36.93,36.93,0,0,1,.006,5.391c-.145.732-.746.521-.871.66" transform="translate(-129.293 -97.513)" fill="#953c2d"/>
          <path id="Path_925351" data-name="Path 925351" d="M133.968,217.74c.044.246-.322.273-.5.311-3.274.706-5.211-1.435-8.342-.494l.09-.362c-2.418.446-4.672,1.724-7.124.633,1.918-.264,3.9-1.193,5.862-1.185.657,0,1.377.368,1.994.38.774.015,1.675-.381,2.506-.372,1.848.019,3.68.974,5.509,1.09" transform="translate(-98.944 -181.509)" fill="#953c2d"/>
          <path id="Path_925352" data-name="Path 925352" d="M221.021,112.591c-.061.084-.417-.024-.29.32l.9,1.356a9.178,9.178,0,0,0-.185-2.062c0-.408.206-1.61.725-1.181a11.2,11.2,0,0,1,.362,2.428,6.476,6.476,0,0,1-.524,2c-.1.185.095.342-.374.256.071-.751-.813-1.015-1.025-1.321-.132-.19-.91-1.669-.958-1.837-.144-.513.819-.124.716-.354a12.879,12.879,0,0,1-2.162-2.344c.446-.235,1.7.584,1.937.864.127.151-.1.548.224.487l-.358-2.521c.352-.391,1.134,1.566,1.182,1.79a3.016,3.016,0,0,1-.168,2.117" transform="translate(-182.817 -91.015)" fill="#953c2d"/>
          <path id="Path_925353" data-name="Path 925353" d="M92.285,110.63c2.6-1.929,1.552.389,0,1.083-.062.35.447.093.538.182.279.275-.576,1.675-.826,1.962-.368.149-.954,1.585-1.244,1.456-.861-.383-.72-3.144-.51-3.93.073-.273.312-1,.6-1.113-.135,1.108.394,2.083,0,3.15.022.553.838-.7.906-.9.037-.112-.336.017-.378-.343-.132-1.142-.045-3.462,1.275-3.8a4.27,4.27,0,0,0-.355,2.255" transform="translate(-75.474 -90.8)" fill="#953c2d"/>
          <path id="Path_925354" data-name="Path 925354" d="M111.489,198.756a9.564,9.564,0,0,1-2.571.32c-.259-.036-2.829-.941-2.3-1.4l3.967.718a4.219,4.219,0,0,1-1.806-2.789c0-.167.305-.111.425-.065.572.221,2.555,2.893,2.283,3.214" transform="translate(-89.269 -163.791)" fill="#953c2d"/>
          <path id="Path_925355" data-name="Path 925355" d="M216.7,183.669l3.6-2.7c-.311,2.12-2.327,3.184-4.327,3.242.1-1.467.26-3.056,1.353-4.143.38,1.263-.368,2.423-.63,3.6" transform="translate(-180.953 -150.864)" fill="#953c2d"/>
          <path id="Path_925356" data-name="Path 925356" d="M199.775,194.511a3.479,3.479,0,0,1-.5,1.749l-1.3,1.494a16.568,16.568,0,0,1,3.358-.879c.263-.024.689-.194.607.246-1.4,1.383-3.1,1.253-4.867.812l1.447-2.427Z" transform="translate(-165.112 -162.967)" fill="#953c2d"/>
          <path id="Path_925357" data-name="Path 925357" d="M95.749,182.062c.612.354,1.112,2.993.935,3.743A4.643,4.643,0,0,1,93,183.992c-.12-.175-.843-1.528-.195-1.248a22.354,22.354,0,0,1,2.4,1.979c.157.126.812.673.938.542a10.768,10.768,0,0,0-.594-1.477c-.148-.511-.667-2.228.2-1.726" transform="translate(-77.531 -152.46)" fill="#953c2d"/>
          <path id="Path_925358" data-name="Path 925358" d="M90.774,161.7c.453.448.432,3.493-.094,4.149a4.18,4.18,0,0,1-2.61-2.977c.182-.3.4.059.544.177.671.551,1.181,1.294,1.8,1.893a5.993,5.993,0,0,1,0-2.98c.06-.193.061-.561.363-.263" transform="translate(-73.787 -135.386)" fill="#953c2d"/>
          <path id="Path_925359" data-name="Path 925359" d="M228.654,165.956c.351.092.349-.138.509-.3.181-.184,1.745-2.15,2.015-1.859a4.045,4.045,0,0,1-2.884,3.243c-.146-.634-.365-3.687,0-3.964.712-.538.667,2.575.359,2.881" transform="translate(-191.103 -136.577)" fill="#953c2d"/>
          <path id="Path_925360" data-name="Path 925360" d="M233.552,143.123c.436.577-1.2,3.984-2.161,4.144-.1-1.356-1.295-2.355-1.083-3.783,1.038.354,1.109,1.73,1.267,2.609.042.234.068.582.353.274.08-.086.521-1.784.744-2.231.064-.128.641-1.328.88-1.012" transform="translate(-192.937 -119.868)" fill="#953c2d"/>
          <path id="Path_925361" data-name="Path 925361" d="M85,144.4c.451.383,1.043,2.584,1.268,3.241l.591-2.023c.246-.416.25-.815.849-.68.2,1.287-.911,2.2-1.083,3.424a4.905,4.905,0,0,1-1.983-3.874c-.021-.156.336-.108.358-.089" transform="translate(-70.904 -120.962)" fill="#953c2d"/>
          <path id="Path_925362" data-name="Path 925362" d="M105.874,105.549a4.084,4.084,0,0,1,2.162-2.161c.314.725-1.822,2.43-2.162,2.161" transform="translate(-88.704 -86.621)" fill="#953c2d"/>
          <path id="Path_925363" data-name="Path 925363" d="M216.853,105.37a2.409,2.409,0,0,1-1.98-1.982c.422.115,2.371,1.489,1.98,1.982" transform="translate(-180.027 -86.621)" fill="#953c2d"/>
        </g>
      </g>
    </g>
  </g>
</svg>
