<svg xmlns="http://www.w3.org/2000/svg" xmlns:xlink="http://www.w3.org/1999/xlink" width="70" height="70" viewBox="0 0 70 70">
  <defs>
    <clipPath id="clip-path">
      <rect id="Rectangle_408909" data-name="Rectangle 408909" width="42.86" height="37.214" fill="#953c2d"/>
    </clipPath>
  </defs>
  <g id="Group_1119177" data-name="Group 1119177" transform="translate(-268.711 -958.188)">
    <circle id="Ellipse_5614" data-name="Ellipse 5614" cx="35" cy="35" r="35" transform="translate(268.711 958.188)" fill="#fff"/>
    <g id="Group_1118994" data-name="Group 1118994" transform="translate(282.711 974.187)">
      <g id="Group_1118993" data-name="Group 1118993" transform="translate(0 3)" clip-path="url(#clip-path)">
        <path id="Path_922823" data-name="Path 922823" d="M40.649,2.956c-.707.19-1.081.838-1.534,1.339-1.866-1.542-4.482-1.441-5.761.76A25.272,25.272,0,0,0,31.2,10.63c-.012,1.806,1.27,2.668,2.606,3.5a14.654,14.654,0,0,0,7.134,2.564l11.867,7.1c.046.187-.029.2-.13.3-1.645,1.635-3.811,2.974-5.584,4.479-.282.045-.172-.092-.153-.274a3.281,3.281,0,0,0-1.761-3.573c-1.866-.892-3.745.178-5.529.722L28.5,18.693A10.062,10.062,0,0,1,35.291.277a10.939,10.939,0,0,1,5.172,2.316c.119.116.234.158.186.363" transform="translate(-20.989 -0.188)" fill="#953c2d"/>
        <path id="Path_922824" data-name="Path 922824" d="M113.852,44.356l17.018,8.827c.112.033.157-.033.222-.105.528-.589.878-2.2,1.535-2.82,2.511,3.53,2.1,10.634-3.8,8.636L111.86,48.732a11.411,11.411,0,0,1-3.834-.71,27.458,27.458,0,0,1-3.683-2.052,1.138,1.138,0,0,1-.28-1.232,33.587,33.587,0,0,1,1.637-3.758c1.033-1.737,3.244.791,4.513,1.194.516,0,1.176-2.519,2.094-2.577,1.449-.092,1.44,3.791,1.546,4.759" transform="translate(-91.223 -34.744)" fill="#953c2d"/>
        <path id="Path_922825" data-name="Path 922825" d="M15.942,137.158c-3.81-2.393-8.461-4.2-12.167-6.673-3.491-2.331-5.093-7.31-2.48-10.882a14.146,14.146,0,0,0,5.6,6.422c3.754,2.461,7.785,4.534,11.546,6.993.457.158,1.247-.487,1.752-.693.681-.278,2.541-1.043,3.086-.463.834.887-.89,2.289-1.026,3.218.895,1.1,4.346,1.532,3.283,3.432-.2.353-2.446,3.385-2.632,3.5a1.3,1.3,0,0,1-1.035.077,27.932,27.932,0,0,1-3.28-1.875,7.825,7.825,0,0,1-2.646-3.058" transform="translate(0 -104.947)" fill="#953c2d"/>
        <path id="Path_922826" data-name="Path 922826" d="M202.9,15.014a10.815,10.815,0,0,1-2.326-1.03c-3.788-1.914-7.5-4-11.3-5.888-.291-.3-.329-1.61-.453-2.122a5.2,5.2,0,0,0-1.759-3.144c8.647-7.78,20.894,1.864,15.834,12.184" transform="translate(-164.08 0)" fill="#953c2d"/>
      </g>
    </g>
  </g>
</svg>
