<svg xmlns="http://www.w3.org/2000/svg" xmlns:xlink="http://www.w3.org/1999/xlink" width="70" height="70" viewBox="0 0 70 70">
  <defs>
    <clipPath id="clip-path">
      <rect id="Rectangle_409162" data-name="Rectangle 409162" width="41.947" height="42" fill="#953c2d"/>
    </clipPath>
  </defs>
  <g id="Group_1119176" data-name="Group 1119176" transform="translate(-268.711 -958)">
    <circle id="Ellipse_5614" data-name="Ellipse 5614" cx="35" cy="35" r="35" transform="translate(268.711 958)" fill="#fff"/>
    <g id="Group_1119430" data-name="Group 1119430" transform="translate(282.711 972)">
      <g id="Group_1119429" data-name="Group 1119429" clip-path="url(#clip-path)">
        <path id="Path_925259" data-name="Path 925259" d="M9.354,185.26a9.907,9.907,0,0,1,10.062,7.654c2.043,9.111-8.629,15.745-15.808,9.8A9.861,9.861,0,0,1,9.354,185.26M6.579,191.5a1.23,1.23,0,0,0,.227,2.375,1.23,1.23,0,1,0-.227-2.375m5.245.256a1.232,1.232,0,0,0,1.647,1.827c1.387-1.093-.5-2.963-1.647-1.827m1.724,4.924a1.584,1.584,0,0,0-.742-.281c-1.9-.212-4.184.159-6.126.01a1.235,1.235,0,0,0,0,2.39,42.288,42.288,0,0,0,6.235,0,1.244,1.244,0,0,0,.632-2.118" transform="translate(0 -162.978)" fill="#953c2d"/>
        <path id="Path_925260" data-name="Path 925260" d="M8.883.045A9.842,9.842,0,1,1,2.3,16.171,9.852,9.852,0,0,1,8.883.045M6.714,6.161c-1.78.308-.778,3.282.913,2.243a1.236,1.236,0,0,0-.913-2.243m5.118,2.1c1.2,1.2,2.988-.773,1.648-1.828a1.233,1.233,0,0,0-1.648,1.828M6.06,13.192a5.5,5.5,0,0,0,5.487,1.3c1.07-.343,3.4-1.844,1.99-3.066-1.1-.956-1.883.481-2.763.731a3.053,3.053,0,0,1-1.987-.068c-.681-.256-1.152-1-1.846-.977a1.27,1.27,0,0,0-.882,2.083" transform="translate(-0.008 0.001)" fill="#953c2d"/>
        <path id="Path_925261" data-name="Path 925261" d="M194.586,185.247a9.848,9.848,0,1,1-7.477,15.578,9.875,9.875,0,0,1,7.477-15.578m-1.46,6.5c-.959-.981-2.861.334-1.827,1.646,1.075,1.364,3-.441,1.827-1.646m4.454-.256a1.226,1.226,0,0,0,.667,2.352,1.226,1.226,0,1,0-.667-2.352m-3.239,4.091c-1.222.156-4.244,1.568-3.078,3.137.87,1.17,1.767-.01,2.478-.371a2.855,2.855,0,0,1,2.552-.092c.513.216.913.819,1.39.9a1.235,1.235,0,0,0,1.4-1.766c-.543-1.331-3.453-1.968-4.746-1.8" transform="translate(-162.996 -162.966)" fill="#953c2d"/>
        <path id="Path_925262" data-name="Path 925262" d="M224.684.134a5.76,5.76,0,0,1,5.651,8.536,6.436,6.436,0,0,1-3.765,2.845c-.262.865.329,2.545-.494,3.112a1.246,1.246,0,0,1-1.916-.7,21.954,21.954,0,0,1-.027-3.889c.251-1.112,1.865-.867,2.764-1.322A3.273,3.273,0,1,0,222.3,4.6c-.334.9-.076,2.471-1.5,2.471-1.891,0-1.09-2.8-.586-3.832a5.754,5.754,0,0,1,4.467-3.1" transform="translate(-193.214 -0.089)" fill="#953c2d"/>
        <path id="Path_925263" data-name="Path 925263" d="M259.045,145.2c-1.213,1.227-3.014-.782-1.647-1.827a1.233,1.233,0,0,1,1.647,1.827" transform="translate(-226.03 -125.886)" fill="#953c2d"/>
      </g>
    </g>
  </g>
</svg>
