<svg xmlns="http://www.w3.org/2000/svg" xmlns:xlink="http://www.w3.org/1999/xlink" width="377" height="180" viewBox="0 0 377 180">
  <defs>
    <clipPath id="clip-path">
      <rect id="Rectangle_409009" data-name="Rectangle 409009" width="377" height="180" rx="25" transform="translate(307.711 6659)" fill="#cff5ff" stroke="#707070" stroke-width="1"/>
    </clipPath>
    <clipPath id="clip-path-2">
      <rect id="Rectangle_408900" data-name="Rectangle 408900" width="58.988" height="52.132" fill="none"/>
    </clipPath>
    <clipPath id="clip-path-3">
      <rect id="Rectangle_408901" data-name="Rectangle 408901" width="65.772" height="31.317" fill="none"/>
    </clipPath>
  </defs>
  <g id="Group_1119173" data-name="Group 1119173" transform="translate(-307.711 -6659)">
    <path id="Path_925247" data-name="Path 925247" d="M25,0H352a25,25,0,0,1,25,25V155a25,25,0,0,1-25,25H25A25,25,0,0,1,0,155V25A25,25,0,0,1,25,0Z" transform="translate(307.711 6659)" fill="#fff0c5"/>
    <g id="Mask_Group_1119099" data-name="Mask Group 1119099" clip-path="url(#clip-path)">
      <g id="Group_1119115" data-name="Group 1119115" transform="translate(16 -39.296)">
        <path id="Path_922723" data-name="Path 922723" d="M715.451,1287.995c0,6.726-45.763,12.179-102.215,12.179s-102.215-5.453-102.215-12.179,45.763-12.179,102.215-12.179,102.215,5.453,102.215,12.179" transform="translate(-143.185 5570.451)" fill="#bed5dc"/>
        <path id="Path_922724" data-name="Path 922724" d="M1921.842,1399.541l-.115-.168c.012-.008,1.2-.771,1.36-1.659a1.066,1.066,0,0,0-.224-.868.638.638,0,0,0-.527-.277h-.01c-1.027.014-2.517,2.059-2.532,2.079l-.271.375.082-.45c0-.018.325-1.825-.329-2.365a.873.873,0,0,0-.863-.071,1.247,1.247,0,0,0-.8.694,3.832,3.832,0,0,0,.364,2.581l-.188.088a3.943,3.943,0,0,1-.369-2.747,1.445,1.445,0,0,1,.927-.808,1.071,1.071,0,0,1,1.067.108c.545.45.513,1.566.452,2.164.481-.6,1.581-1.839,2.459-1.851a.845.845,0,0,1,.708.359,1.254,1.254,0,0,1,.262,1.024,3.448,3.448,0,0,1-1.451,1.792" transform="translate(-1388.149 5463.676)" fill="#42428e"/>
        <path id="Path_922725" data-name="Path 922725" d="M1279.091,1436.995l-.332-.034a.615.615,0,0,0-.192-.538,3.156,3.156,0,0,0-1.921-.529,11.028,11.028,0,0,0-1.395.023l-.056-.316c.875-.208,3.214-.93,3.528-1.77a.538.538,0,0,0-.109-.543c-.845-1.1-3.872.448-4.967,1.138l-.182-.269c.172-.108,4.214-2.63,5.418-1.06a.839.839,0,0,1,.155.843c-.27.719-1.571,1.286-2.569,1.624a3.839,3.839,0,0,1,2.335.632.924.924,0,0,1,.286.8" transform="translate(-818.182 5431.011)" fill="#42428e"/>
        <path id="Path_922726" data-name="Path 922726" d="M653.382,426.13c2.057-.54,2.49-1.331,2.27-2.108s-1.01-1.246-3.066-.706c-3.747.984-5.159,2.866-5.159,2.866s2.154.945,5.955-.053" transform="translate(-263.946 6328.93)" fill="#b2c9c6"/>
        <path id="Path_922727" data-name="Path 922727" d="M742.418,510.591c2.127.13,2.8-.483,2.856-1.286s-.537-1.494-2.664-1.624c-3.875-.237-5.844,1.1-5.844,1.1s1.721,1.566,5.652,1.807" transform="translate(-343.039 6253.708)" fill="#b2c9c6"/>
        <path id="Path_922728" data-name="Path 922728" d="M845.852,372.982l.256-.3a54.163,54.163,0,0,1-9.939-11.494,73.6,73.6,0,0,1-11.881-34.806l-.4.031a73.969,73.969,0,0,0,11.954,35,54.532,54.532,0,0,0,10.012,11.57" transform="translate(-420.167 6414.943)" fill="#b2c9c6"/>
        <path id="Path_922729" data-name="Path 922729" d="M686.78,356.27l.082-.381c-14.347-2.863-21.734-16.235-21.807-16.37l-.358.18c.074.136,7.545,13.67,22.083,16.571" transform="translate(-279.235 6403.258)" fill="#b2c9c6"/>
        <path id="Path_922730" data-name="Path 922730" d="M840.422,361.375a13.583,13.583,0,0,0,3.569-6.382l-.4-.07a12.96,12.96,0,0,1-4.858,7.353l.239.313a11.745,11.745,0,0,0,1.447-1.215" transform="translate(-433.313 6389.557)" fill="#b2c9c6"/>
        <path id="Path_922731" data-name="Path 922731" d="M960.408,506.613a25.688,25.688,0,0,0,5.361-21.847,5.583,5.583,0,0,1-.1-.61.119.119,0,0,1-.014.043l-.363-.17c-.052.1-.032.217.081.807a25.326,25.326,0,0,1-5.282,21.538Z" transform="translate(-540.749 6274.721)" fill="#b2c9c6"/>
        <path id="Path_922732" data-name="Path 922732" d="M944.751,503.077l.2-.339c-4.781-2.573-7.877-10.237-7.908-10.314l-.376.139a31.8,31.8,0,0,0,2.175,4.247c1.278,2.1,3.341,4.884,5.912,6.268" transform="translate(-520.01 6267.254)" fill="#b2c9c6"/>
        <path id="Path_922733" data-name="Path 922733" d="M814.9,251.271c-.115,2.768.528,3.618,1.363,3.65s1.546-.765,1.66-3.533c.209-5.042-1.2-7.538-1.2-7.538s-1.609,2.305-1.821,7.421" transform="translate(-412.202 6488.353)" fill="#b2c9c6"/>
        <path id="Path_922734" data-name="Path 922734" d="M865.231,301.67c-.975,2.606-.628,3.6.158,3.876s1.713-.281,2.688-2.886c1.777-4.747,1.212-7.536,1.212-7.536s-2.256,1.731-4.058,6.547" transform="translate(-456.243 6442.747)" fill="#b2c9c6"/>
        <path id="Path_922735" data-name="Path 922735" d="M919.243,445.835c.673,1.949,1.516,2.323,2.308,2.069s1.236-1.04.563-2.989a9.268,9.268,0,0,0-3.254-4.807s-.861,2.125.383,5.727" transform="translate(-503.991 6313.787)" fill="#b2c9c6"/>
        <path id="Path_922736" data-name="Path 922736" d="M774.079,355.882c1.145,1.733,2.057,1.9,2.761,1.466s.936-1.3-.209-3.031a9.512,9.512,0,0,0-4.369-3.9s-.3,2.263,1.817,5.465" transform="translate(-374.451 6393.564)" fill="#b2c9c6"/>
        <path id="Path_922737" data-name="Path 922737" d="M935.566,570.816c1.6,1.353,2.527,1.264,3.078.659s.519-1.5-1.085-2.852a9.77,9.77,0,0,0-5.331-2.559s.373,2.253,3.338,4.753" transform="translate(-516.083 6201.754)" fill="#b2c9c6"/>
        <path id="Path_922738" data-name="Path 922738" d="M995.628,454.209c.224,2.043.965,2.582,1.8,2.5s1.438-.761,1.214-2.8a9.085,9.085,0,0,0-2.11-5.367s-1.313,1.9-.9,5.673" transform="translate(-572.139 6306.291)" fill="#b2c9c6"/>
        <path id="Path_922739" data-name="Path 922739" d="M627.267,279.261c1.531,2.345,2.56,2.694,3.267,2.265s.825-1.474-.706-3.819c-2.789-4.271-5.418-5.559-5.418-5.559s.027,2.779,2.857,7.112" transform="translate(-243.569 6463.182)" fill="#b2c9c6"/>
        <path id="Path_922740" data-name="Path 922740" d="M684.707,616.184s-39.1-76.473-60.235-65.469,37.983,45.649,48.634,68.258Z" transform="translate(-239.616 6216.369)" fill="#b2c9c6"/>
        <path id="Path_922741" data-name="Path 922741" d="M462.188,643.576s-47.717-58.236-67.166-44.452,42.882,31.806,56.1,49.207Z" transform="translate(-37.19 6174.225)" fill="#9bbcb6"/>
        <path id="Path_922742" data-name="Path 922742" d="M546.47,718c-8.9-12.177-22.836-22.357-32.961-28.753a187.32,187.32,0,0,0-20.047-11.073l.263-.538a187.89,187.89,0,0,1,20.122,11.114c10.17,6.424,24.173,16.653,33.127,28.908Z" transform="translate(-127.64 6102.514)" fill="#74a1bd"/>
        <path id="Path_922743" data-name="Path 922743" d="M362.548,846.028c10.417,2.882,7.6,18.188,19.839,16.1s11.3-2.9,16.741,2.511c0,0,1.919,5.018,6.654,6.135,18.68,4.407,46.381-20.873,27.687-36.98-1.35-1.163-3.394-1.709-5.665-2.2-12.318-2.669-16.576,2.588-25.406-12.177s-23.541,4.65-31.839,3.4-15.488-4.132-22.581,3.975,4.152,16.362,14.57,19.237" transform="translate(3.126 5981.359)" fill="#cfd3a3"/>
        <path id="Path_922744" data-name="Path 922744" d="M429.908,975.891l.436-.543c-.248-.185-25.492-18.6-80.218-23.345l-.064.684c54.521,4.726,79.6,23.02,79.846,23.2" transform="translate(-0.687 5858.472)" fill="#c4c695"/>
        <path id="Path_922745" data-name="Path 922745" d="M757.745,874.42c7.662-5.808,9.277-10.7,9.342-10.91l-.682-.2c-.015.048-1.635,4.911-9.1,10.57Z" transform="translate(-361.221 5937.362)" fill="#c4c695"/>
        <path id="Path_922746" data-name="Path 922746" d="M715.911,847.525c2.268-3.32,2.419-8.3.435-14.412a45.092,45.092,0,0,0-3.69-8.264l-.616.344c.085.142,8.492,14.321,3.275,21.955Z" transform="translate(-321.149 5971.572)" fill="#c4c695"/>
        <path id="Path_922747" data-name="Path 922747" d="M434.54,998.065c.908-.639,1.4-1.06,1.427-1.08l-.475-.512c-.1.09-10.563,8.95-25,7.6l-.068.683c11.637,1.085,20.738-4.316,24.121-6.7" transform="translate(-54.121 5818.917)" fill="#c4c695"/>
        <path id="Path_922748" data-name="Path 922748" d="M545.385,1041.359a16.013,16.013,0,0,0,5.1-9.165,11.579,11.579,0,0,0-.053-4.355l-.692.166c.017.067,1.636,6.748-4.859,12.862Z" transform="translate(-173.167 5791.018)" fill="#c4c695"/>
        <g id="Group_1118978" data-name="Group 1118978" transform="translate(489.685 6783.322)" opacity="0.6">
          <g id="Group_1118977" data-name="Group 1118977">
            <g id="Group_1118976" data-name="Group 1118976" clip-path="url(#clip-path-2)">
              <path id="Path_922749" data-name="Path 922749" d="M1573.414,755.059s39.908-58.365,55.935-47.334-35.734,33.4-46.793,50.745Z" transform="translate(-1573.413 -706.337)" fill="#b2c9c6"/>
            </g>
          </g>
        </g>
        <path id="Path_922750" data-name="Path 922750" d="M1760.229,789.067s50.276-44.245,65.2-29.537-42.138,21.847-56.248,35.212Z" transform="translate(-1249.117 6032.335)" fill="#cfd3a3"/>
        <path id="Path_922751" data-name="Path 922751" d="M1800.643,854.986c9.571-9.4,23.243-16.364,33.027-20.55a167.735,167.735,0,0,1,19.135-6.9l-.15-.506a168.4,168.4,0,0,0-19.207,6.927c-9.828,4.2-23.564,11.2-33.195,20.662Z" transform="translate(-1284.551 5969.633)" fill="#c4c695"/>
        <path id="Path_922752" data-name="Path 922752" d="M1698.294,1006.139c-8.5-.228-10.167,11.869-18.811,7.5s-10.432-4.6-13.144-1.953c0,0-2.672,3.315-6.49,3.067-15.062-.978-29.557-26.233-11.6-34.006a10.326,10.326,0,0,1,4.781-.351c9.874.822,11.764,5.731,22.01-3.3s16.467,8.868,22.983,9.833,12.606.453,15.915,8.143-7.139,11.291-15.643,11.057" transform="translate(-1142.613 5838.4)" fill="#b2c9c6"/>
        <g id="Group_1118981" data-name="Group 1118981" transform="translate(506.225 6815.458)" opacity="0.5">
          <g id="Group_1118980" data-name="Group 1118980">
            <g id="Group_1118979" data-name="Group 1118979" clip-path="url(#clip-path-3)">
              <path id="Path_922753" data-name="Path 922753" d="M1717.81,1144.7l-.193-.506c.231-.082,23.657-8.083,65.772.9l-.121.526c-41.957-8.944-65.228-1-65.458-.915" transform="translate(-1717.617 -1124.94)" fill="#74a1bd"/>
              <path id="Path_922754" data-name="Path 922754" d="M1947.915,1007.782c-4.3-6.1-4.3-10.132-4.3-10.3l.56.006c0,.04.013,4.049,4.2,9.992Z" transform="translate(-1917.694 -997.437)" fill="#74a1bd"/>
              <path id="Path_922755" data-name="Path 922755" d="M1974.635,1013.3c-.879-3,.237-6.767,3.227-10.883a36.5,36.5,0,0,1,4.8-5.338l.376.4c-.1.087-9.884,8.771-7.862,15.676Z" transform="translate(-1944.899 -997.081)" fill="#74a1bd"/>
              <path id="Path_922756" data-name="Path 922756" d="M2068.816,1147.891c-.522-.686-.789-1.115-.8-1.134l.481-.274a27.868,27.868,0,0,0,16.834,11.413l-.117.527a28.424,28.424,0,0,1-16.4-10.531" transform="translate(-2027.827 -1129.97)" fill="#74a1bd"/>
              <path id="Path_922757" data-name="Path 922757" d="M2082.276,1189.712a12.324,12.324,0,0,1-1.56-8.026,9.207,9.207,0,0,1,1.113-3.246l.477.283c-.029.046-2.887,4.674.465,10.735Z" transform="translate(-2038.946 -1158.395)" fill="#74a1bd"/>
            </g>
          </g>
        </g>
        <path id="Path_922758" data-name="Path 922758" d="M1371.876,663.263a34.314,34.314,0,0,1,13.965,14.646c4.306,9.2-13.513,4.968-13.513,4.968l-4.693-6.212Z" transform="translate(-901.552 6115.298)" fill="#f7b686"/>
        <path id="Path_922759" data-name="Path 922759" d="M1643.841,1268.861s-.166,5.421,3.548,7.147,14.649,3.684,10.337,6.948c-2.474,1.873-13.529,0-16.67-.168s-6.166,1-8.386-1.15c-2.442-2.365.755-13.325.755-13.325a12.88,12.88,0,0,0,5.075,1.571,10.32,10.32,0,0,0,5.341-1.023" transform="translate(-1135.375 5577.124)" fill="#2f1a31"/>
        <path id="Path_922760" data-name="Path 922760" d="M1154.688,811.741s13.674-33.38,44.915-33.651c14.958-.13,23.859,34.435,23.665,52.894-.034,3.269-2.036,5.9-5.428,5.9h-11.251a7.626,7.626,0,0,1-6.558-2.575,39.937,39.937,0,0,1-2.656-2.983s.122,15.13-19.789,15.147c-18.205.015-33.094-7.367-22.9-34.732" transform="translate(-710.088 6013.163)" fill="#025974"/>
        <path id="Path_922761" data-name="Path 922761" d="M1491.519,1268.861s-.166,5.421,3.548,7.147,14.649,3.684,10.337,6.948c-2.474,1.873-13.529,0-16.67-.168s-6.166,1-8.386-1.15c-2.442-2.365.755-13.325.755-13.325a12.883,12.883,0,0,0,5.076,1.571,10.319,10.319,0,0,0,5.341-1.023" transform="translate(-1000.522 5577.124)" fill="#2f1a31"/>
        <path id="Path_922762" data-name="Path 922762" d="M1028.006,1175.064c.264,2.1,12.612,1.849,27.729.005s26.885-5,26.621-7.1-12.46-2.36-27.577-.516-27.037,5.512-26.773,7.616" transform="translate(-600.871 5667.94)" fill="#2f1a31"/>
        <path id="Path_922763" data-name="Path 922763" d="M965.137,636.268s4.294-11.644,19.592-11.114,26.849,19.9,29.711,61.541a160.232,160.232,0,0,0-56.287,12.276s-19.384-24.941,6.984-62.7" transform="translate(-532.956 6149.21)" fill="#f69a8b"/>
        <path id="Path_922764" data-name="Path 922764" d="M991.346,631.1l9.35,9.4s35.189,5.534,39.768-.209c4.386-5.5,3.764-10.785,3.764-10.785a54.151,54.151,0,0,0-30.587-6.121c-15.27,1.362-22.3,7.721-22.3,7.721" transform="translate(-568.42 6150.963)" fill="#f69a8b"/>
        <path id="Path_922765" data-name="Path 922765" d="M1254.212,525.506s-1.058,1.724,1.15,5.522a3.091,3.091,0,0,1-4.135,4.4c-2.563-1.535-4.074,1.682-7.3-.626s10.288-9.3,10.288-9.3" transform="translate(-791.588 6237.828)" fill="#2f1a31"/>
        <path id="Path_922766" data-name="Path 922766" d="M1178.749,512.644c1.456-.295,3.229-.935,4.017-2.2l2.469-3.96.716-1.149,4.213-6.758-1.6,7.364-.961,4.42s-.435,1.646,1.637,2.194c0,0-.043,5.841-3.722,5.541a7.884,7.884,0,0,1-6.77-5.453" transform="translate(-734.329 6261.78)" fill="#f7b686"/>
        <path id="Path_922767" data-name="Path 922767" d="M1235.26,560.225c0,.041-.008.082-.01.124-.152,2.421,2.351,3.888,2.351,3.888l.018-.011.961-4.42a4.105,4.105,0,0,0-2.613-.606,1.059,1.059,0,0,0-.707,1.025" transform="translate(-784.344 6207.916)" fill="#dd9666"/>
        <path id="Path_922768" data-name="Path 922768" d="M1230.383,440.908c.668-4.761-2.036-9.043-6.04-9.565s-7.792,2.914-8.46,7.675,2.036,9.043,6.04,9.565,7.792-2.914,8.46-7.675" transform="translate(-767.115 6321.63)" fill="#f7b686"/>
        <path id="Path_922769" data-name="Path 922769" d="M1262.582,505.256a.166.166,0,0,0,.123-.08.157.157,0,0,0-.063-.218,1.854,1.854,0,0,0-2.2.18.158.158,0,0,0-.026.226.188.188,0,0,0,.234.024,2.951,2.951,0,0,1,1.827-.151.171.171,0,0,0,.1.019" transform="translate(-806.599 6256.354)" fill="#060633"/>
        <path id="Path_922770" data-name="Path 922770" d="M1264.483,525.079a.167.167,0,0,0-.126.077.157.157,0,0,0,.056.22,1.854,1.854,0,0,0,2.2-.12.158.158,0,0,0,.033-.225.188.188,0,0,0-.234-.031,2.949,2.949,0,0,1-1.83.1.17.17,0,0,0-.1-.022" transform="translate(-810.098 6238.301)" fill="#060633"/>
        <path id="Path_922771" data-name="Path 922771" d="M1312.126,528.214a.17.17,0,0,0-.146-.027.16.16,0,0,0-.116.2,1.772,1.772,0,0,0,1.69,1.368.166.166,0,0,0,.183-.142c.01-.088-.06-.148-.148-.177a2.815,2.815,0,0,1-1.405-1.135.16.16,0,0,0-.059-.084" transform="translate(-852.172 6235.449)" fill="#060633"/>
        <path id="Path_922772" data-name="Path 922772" d="M1320.61,516.261a.171.171,0,0,0,.148-.019.156.156,0,0,0,.045-.222,1.822,1.822,0,0,0-2.051-.786.162.162,0,0,0-.128.191.183.183,0,0,0,.2.123,2.9,2.9,0,0,1,1.7.651.168.168,0,0,0,.083.062" transform="translate(-858.158 6247.019)" fill="#060633"/>
        <path id="Path_922773" data-name="Path 922773" d="M1138.124,406.555s-.576,2.97-4.523,2.975-6.842,1.237-6.7,4,5.607,9.155.712,10.718-3.352-2.341-8.461-2.055-5.107-6.237-1.158-9.507,3.941-13.289,16.733-11.177,6.7,11.38,6.7,11.38-3.77-3.027-3.3-6.329" transform="translate(-678.036 6348.382)" fill="#2f1a31"/>
        <path id="Path_922774" data-name="Path 922774" d="M1208.853,491.337a1.84,1.84,0,0,0,2.54.507,1.887,1.887,0,0,0-.049-2.617,1.84,1.84,0,0,0-2.541-.507,1.886,1.886,0,0,0,.049,2.617" transform="translate(-760.492 6270.835)" fill="#f7b686"/>
        <path id="Path_922775" data-name="Path 922775" d="M1271.875,559.168a.159.159,0,0,1-.112-.045,3.376,3.376,0,0,0-3.232-.736.157.157,0,0,1-.2-.093.149.149,0,0,1,.1-.191,3.715,3.715,0,0,1,3.558.81.146.146,0,0,1,0,.213.158.158,0,0,1-.109.043" transform="translate(-813.63 6208.97)" fill="#2f1a31"/>
        <path id="Path_922776" data-name="Path 922776" d="M1004.5,703.221c-1.09,1.293-5.358-.309-9.534-3.578s-6.677-6.966-5.588-8.259,5.358.309,9.534,3.577,6.677,6.967,5.588,8.26" transform="translate(-566.451 6090.684)" fill="#060633"/>
        <path id="Path_922777" data-name="Path 922777" d="M1002.367,811.741s13.674-33.38,44.915-33.651c14.958-.13,23.859,34.435,23.665,52.894-.035,3.269-2.036,5.9-5.428,5.9h-11.251a7.627,7.627,0,0,1-6.559-2.575,39.873,39.873,0,0,1-2.656-2.983s.123,15.13-19.789,15.147c-18.205.015-33.094-7.367-22.9-34.732" transform="translate(-575.237 6013.163)" fill="#025974"/>
        <path id="Path_922778" data-name="Path 922778" d="M1342.914,994.056a.258.258,0,0,1-.193-.085,34.684,34.684,0,0,1-6.813-11.7,44.115,44.115,0,0,1-2.3-11.5,48.5,48.5,0,0,1,.641-12.257.255.255,0,0,1,.3-.19.246.246,0,0,1,.2.29,48.007,48.007,0,0,0-.63,12.138,43.655,43.655,0,0,0,2.277,11.369,34.184,34.184,0,0,0,6.715,11.533.239.239,0,0,1-.027.346.26.26,0,0,1-.166.059" transform="translate(-871.318 5852.857)" fill="#2f1a31"/>
        <path id="Path_922779" data-name="Path 922779" d="M1263.76,983.68a.268.268,0,0,1-.082-.013,17.582,17.582,0,0,1-7.652-4.592,6.9,6.9,0,0,1-1.579-2.661.245.245,0,0,1,.192-.293.255.255,0,0,1,.3.185,6.618,6.618,0,0,0,1.5,2.482,17.127,17.127,0,0,0,7.4,4.415.243.243,0,0,1,.16.311.254.254,0,0,1-.241.167" transform="translate(-801.34 5837.026)" fill="#2f1a31"/>
        <path id="Path_922780" data-name="Path 922780" d="M1484.919,850.179a.254.254,0,0,1-.238-.159.243.243,0,0,1,.148-.316c3.968-1.44,3.543-4.371,3.232-6.511-.036-.25-.07-.486-.095-.7a162.407,162.407,0,0,0-4.755-25.864A68.268,68.268,0,0,0,1477.448,802c-3.706-6.614-6.86-7.955-6.892-7.968a.242.242,0,0,1-.136-.32.257.257,0,0,1,.332-.132c.133.053,3.308,1.38,7.093,8.1a68.343,68.343,0,0,1,5.833,14.737,162.592,162.592,0,0,1,4.795,26.029c.023.21.057.442.093.687.3,2.042.792,5.46-3.557,7.038a.259.259,0,0,1-.09.016" transform="translate(-992.53 5999.405)" fill="#2f1a31"/>
        <path id="Path_922781" data-name="Path 922781" d="M1203.448,758.33s5.212-5.85,9.894-5.932,10.728,3.225,7.837,3.87a32.019,32.019,0,0,1-6.822.485s8.381.722,7.357,2.538-8.307,1.12-8.307,1.12,9.9,1.625,8.358,3.039-9.057.128-9.057.128,9.15,1.866,7.317,3.468-7.551-1.59-8.575.226-5.729,8.694-11.314,6.568Z" transform="translate(-753.264 6036.016)" fill="#f7b686"/>
        <path id="Path_922782" data-name="Path 922782" d="M1291.59,788.682a.337.337,0,0,1-.246-.1.312.312,0,0,1,.023-.453c1.2-1.052,3.636-.5,3.739-.474a.32.32,0,0,1,.245.387.333.333,0,0,1-.4.236c-.022-.005-2.194-.5-3.136.326a.339.339,0,0,1-.223.083" transform="translate(-833.934 6004.807)" fill="#e08b65"/>
        <path id="Path_922783" data-name="Path 922783" d="M1277.493,821.847a.335.335,0,0,1-.286-.156.314.314,0,0,1,.115-.439,6.469,6.469,0,0,1,4.359-.512.32.32,0,0,1,.237.391.334.334,0,0,1-.406.228,5.866,5.866,0,0,0-3.85.442.342.342,0,0,1-.17.045" transform="translate(-821.454 5975.378)" fill="#e08b65"/>
        <path id="Path_922784" data-name="Path 922784" d="M930.781,741.579c-4.791-2.01-7.326-7.022-7.555-11.765a27.438,27.438,0,0,1,4.262-17.188c2.455-4.141,3.749-5.99,4.153-6.174,2.2-1,5.622.875,6.893,1.707,1.784,1.166,5.788,4.325,4.295,7.015a42.72,42.72,0,0,1-2.492,4.776c-2.132,3.649-2.378,6.464-1.612,7.232,1.018,1.022,5.923.56,10.577-2.527a55.951,55.951,0,0,0,8.787-7.382l8.16,8.877a55.829,55.829,0,0,1-8.278,9.859c-4.141,3.959-17.125,9.794-27.189,5.571" transform="translate(-508.062 6077.138)" fill="#f7b686"/>
        <path id="Path_922785" data-name="Path 922785" d="M1346.746,531.591s1.475-1.543,2.852-.9.882,2.105.05,2.083-.668-1.5-2.9-1.184" transform="translate(-883.058 6233.355)" fill="#96a7e2"/>
        <path id="Path_922786" data-name="Path 922786" d="M1200.707,526.014a.281.281,0,0,0-.174-.508c-1.7-.009-5.394.308-6.628,3.112-1.623,3.689,2.1,5.826,3.76,4.348,1.578-1.406-1.118-3.944,3.042-6.952" transform="translate(-747.393 6237.828)" fill="#96a7e2"/>
        <path id="Path_922787" data-name="Path 922787" d="M1235.209,510.1a.074.074,0,0,0,.1-.092c-.175-.383-.636-1.179-1.442-1.164-1.061.02-1.19,1.078-.66,1.3.5.208.837-.662,2-.041" transform="translate(-782.276 6252.649)" fill="#96a7e2"/>
        <path id="Path_922788" data-name="Path 922788" d="M1326.857,541.012a.25.25,0,0,1,.358-.31c1.15.63,3.339,2.135,3.082,4.364-.347,3.006-3.619,3.086-4.143,1.521-.5-1.475,2.2-2.186.7-5.574" transform="translate(-864.772 6224.342)" fill="#96a7e2"/>
        <path id="Path_922789" data-name="Path 922789" d="M1183.639,448.949a.051.051,0,0,1,0-.1,2.14,2.14,0,0,0,1.748-1.183,2.48,2.48,0,0,0-.728-2.494c-.081-.1-.158-.2-.224-.286a4.048,4.048,0,0,1,.021-5.161,6.113,6.113,0,0,1,6.942-1.581,7.58,7.58,0,0,0,5.275.216,4.771,4.771,0,0,0,1.757-1.061.054.054,0,0,1,.075,0,.05.05,0,0,1,0,.072,5.74,5.74,0,0,1-4.051,1.464,9.008,9.008,0,0,1-3.1-.59,6.007,6.007,0,0,0-6.822,1.548,3.953,3.953,0,0,0-.018,5.04c.064.088.14.182.221.283a2.562,2.562,0,0,1,.744,2.59,2.248,2.248,0,0,1-1.839,1.251h0" transform="translate(-738.547 6316.303)" fill="#fff"/>
        <path id="Path_922790" data-name="Path 922790" d="M1291.468,1331.159a.254.254,0,0,1-.243-.172.244.244,0,0,1,.166-.308,22.36,22.36,0,0,0,9.846-6.851.261.261,0,0,1,.357-.047.24.24,0,0,1,.049.344,22.9,22.9,0,0,1-10.1,7.022.261.261,0,0,1-.077.012" transform="translate(-833.895 5527.831)" fill="#2f1a31"/>
        <path id="Path_922791" data-name="Path 922791" d="M2140.484,361.917a.159.159,0,0,1-.057-.012c-.266-.1-.05-.728-.041-.754l.045.015c-.06.169-.173.624.013.7a.084.084,0,0,0,.081,0c.109-.071.129-.406.128-.529l.047,0s.057.346.189.421a.1.1,0,0,0,.083.006l.016.043a.143.143,0,0,1-.124-.01.506.506,0,0,1-.173-.286c-.012.144-.047.336-.14.4a.121.121,0,0,1-.068.021" transform="translate(-1585.592 6384.017)" fill="#42428e"/>
        <path id="Path_922792" data-name="Path 922792" d="M2105.4,281.235c-.021-.019-.524-.464-.343-.679a.13.13,0,0,1,.115-.05c.112.01.239.162.322.282a.491.491,0,0,1,.008-.331.138.138,0,0,1,.1-.066l.007.045a.093.093,0,0,0-.07.044c-.065.105.011.365.046.456l-.043.019c-.061-.108-.246-.392-.377-.4a.084.084,0,0,0-.073.034c-.126.151.2.5.338.617Z" transform="translate(-1554.366 6455.851)" fill="#42428e"/>
        <path id="Path_922793" data-name="Path 922793" d="M1765.577,76.489s14.37,6.652,19.83,2.4c2.865-2.231,3.554-4.515,4.477-5.641,5.97-7.288,16.3-7.161,18.682-8.56,3.236-1.9,7.647-22.633,7.647-22.633l-12.55-15.726s-9.2,6.186-15.793,8.576c-2.409.873-4.888,5.288-8.92,4.537-12.341-2.3-18.772.541-25.724,3.774-3.077,1.431-7.228,2.776-14.213,4.483-3.362.821-13.453,1.425-13.834,5.3-.513,5.214,13.43,4.762,17.189,3.982,25.218-5.233,23.207,19.505,23.207,19.505" transform="translate(-1218.076 6681.83)" fill="#f7b686"/>
        <path id="Path_922794" data-name="Path 922794" d="M2366.144,30.654l-33.107,9.4c-14.129,2.63-65.232,16.013-66.55,12.591a9.677,9.677,0,0,1-.49-2.124c-.643-4.62-.135-12.66-4.878-19.866-3.312-5.031-5.222-9.344-5.73-12.272-.348-2.014-.035-3.373.943-3.862.782-.39,7.4-3.82,15.617-8.029,5.34.193,29.329-15.5,33.728-15.142,20.2,1.651,65.941,5.2,65.941,23.17" transform="translate(-1687.363 6699.476)" fill="#f69a8b"/>
        <path id="Path_922795" data-name="Path 922795" d="M2409.842,359.641a1.873,1.873,0,0,1-2.026-.988,1.418,1.418,0,0,1,.854-1.982,1.833,1.833,0,0,1,2.159,1.2,1.453,1.453,0,0,1-.987,1.767" transform="translate(-1822.316 6388.045)" fill="#ad6250"/>
        <path id="Path_922796" data-name="Path 922796" d="M1676.51,242.3c.839.282,2.914,1.913-.712,2.919-8.714,2.419-27.2,11.01-26.2,14.232,1.49,4.807,11.365,1.026,21.551-2.874,2.051-.785,4.248-1.068,3.13.01-2.56,2.471-27.021,9.236-25.367,14.545,2,6.406,28.291-7.963,29.213-7,1.329,1.384-21.393,9.976-19.281,14.226,2.557,5.143,24.677-9.044,25.313-6.989s-16.431,8.881-10.479,12.814c2.178,1.439,14.8-7.555,26.923-10.882a64.12,64.12,0,0,0,12.017-4.4c12.033-6.289,11.73-16.576,11.73-16.576s-25.815-15.533-34.835-16.293-18.227,4.51-13.006,6.265" transform="translate(-1150.499 6495.368)" fill="#f7b686"/>
        <path id="Path_922797" data-name="Path 922797" d="M2245.3,393.93a.551.551,0,0,1,0,.1,14.794,14.794,0,0,1-3.462,9.268,9.174,9.174,0,0,1-3.149,2.385.566.566,0,0,1-.728-.3.532.532,0,0,1,.307-.7,8.288,8.288,0,0,0,2.768-2.141,13.8,13.8,0,0,0,3.148-8.574.562.562,0,0,1,1.114-.036" transform="translate(-1672.023 6355.282)" fill="#ea9f75"/>
        <path id="Path_922798" data-name="Path 922798" d="M1948.3,291.042c-2.551,0-4.667-.879-7.06-1.872-.627-.26-1.274-.529-1.952-.791-5.075-1.957-8.524-.793-8.558-.781a.436.436,0,0,1-.552-.247.41.41,0,0,1,.255-.531c.151-.054,3.771-1.294,9.175.79.688.265,1.341.537,1.973.8a18.626,18.626,0,0,0,6.106,1.776,14.828,14.828,0,0,0,7.817-2.106.438.438,0,0,1,.584.165.407.407,0,0,1-.171.563,16.256,16.256,0,0,1-7.616,2.236" transform="translate(-1399.547 6450.501)" fill="#ea9f75"/>
        <path id="Path_922799" data-name="Path 922799" d="M1952.857,344.18a.434.434,0,0,1-.347-.169c-5.5-7.218-17.752-10.91-17.875-10.946a.412.412,0,0,1-.285-.518.433.433,0,0,1,.537-.275,51.805,51.805,0,0,1,7,2.793c3.525,1.706,8.351,4.557,11.32,8.455a.4.4,0,0,1-.092.58.439.439,0,0,1-.255.08" transform="translate(-1403.251 6409.721)" fill="#ea9f75"/>
        <path id="Path_922800" data-name="Path 922800" d="M2258.238,1028.742c3.365.814,4.1,2.087,3.766,3.357s-1.6,2.059-4.965,1.245c-6.129-1.483-8.492-4.5-8.492-4.5s3.472-1.606,9.691-.1" transform="translate(-1681.428 5790.787)" fill="#b2c9c6"/>
        <path id="Path_922801" data-name="Path 922801" d="M2221.92,946.053c2.773-1.657,4.145-1.3,4.818-.253s.4,2.39-2.378,4.047c-5.052,3.019-8.714,2.581-8.714,2.581s1.147-3.312,6.273-6.374" transform="translate(-1652.302 5864.78)" fill="#b2c9c6"/>
        <path id="Path_922802" data-name="Path 922802" d="M1724.146,734.95c.526-2.879,1.979-3.516,3.579-3.245s2.741,1.348,2.216,4.227c-.957,5.245-4.318,7.289-4.318,7.289s-2.449-2.95-1.478-8.271" transform="translate(-1216.971 6054.471)" fill="#b2c9c6"/>
        <path id="Path_922803" data-name="Path 922803" d="M658.884,1242.411s-6.1-5.99-4-9.4,5.638,7.328,5.638,7.328-1.835-12.7,1.967-12.92,0,12.92,0,12.92,1.409-3.064,2.786-3.253.983,2.6-1.475,5.326" transform="translate(-270.16 5613.5)" fill="#bed5dc"/>
        <path id="Path_922804" data-name="Path 922804" d="M657.554,1224.633a27.016,27.016,0,0,1-3.189-3.916c-1.948-2.97-2.412-5.327-1.379-7.007a1.444,1.444,0,0,1,1.376-.858c1.052.116,2.287,1.716,3.671,4.756.424.932.8,1.862,1.093,2.631-.107-1.071-.221-2.488-.262-3.979-.117-4.2.364-6.96,1.431-8.215a2.074,2.074,0,0,1,1.5-.782,1.587,1.587,0,0,1,1.379.58c1.708,2.037.164,9.233-.684,12.6.633-.987,1.53-2.088,2.447-2.214a.9.9,0,0,1,.973.439c.553.979-.21,3.474-2.446,5.956l-.337-.282c2.2-2.44,2.8-4.743,2.391-5.468a.457.457,0,0,0-.518-.22c-1.181.163-2.557,2.628-2.988,3.564l-.419-.145c.008-.029.842-2.924,1.4-6.093.731-4.144.673-6.865-.168-7.868a1.142,1.142,0,0,0-1-.421,1.619,1.619,0,0,0-1.177.625c-2.4,2.822-.862,13.675-.846,13.784l-.434.095c-.8-2.413-3.253-8.719-5.048-8.917-.342-.038-.65.175-.942.65-2.266,3.684,4.435,10.336,4.5,10.4Z" transform="translate(-268.393 5631.43)" fill="#42428e"/>
        <path id="Path_922805" data-name="Path 922805" d="M945.658,1375.611s-2.95-2.9-1.935-4.549,2.727,3.546,2.727,3.546-.888-6.145.952-6.251,0,6.251,0,6.251.682-1.483,1.348-1.574.476,1.257-.714,2.577" transform="translate(-526.071 5488.139)" fill="#bed5dc"/>
        <path id="Path_922806" data-name="Path 922806" d="M945.014,1367.009a13.031,13.031,0,0,1-1.543-1.895c-.943-1.437-1.167-2.577-.667-3.39a.7.7,0,0,1,.666-.415c.864.095,1.811,2.263,2.3,3.554-.162-1.613-.347-4.8.569-5.88a1,1,0,0,1,.723-.378.767.767,0,0,1,.667.281c.826.986.079,4.467-.331,6.1.306-.478.74-1.01,1.184-1.071a.437.437,0,0,1,.471.213c.268.474-.1,1.681-1.184,2.882l-.163-.136c1.064-1.181,1.356-2.3,1.157-2.646a.22.22,0,0,0-.251-.107c-.571.079-1.237,1.272-1.446,1.725l-.2-.07c0-.014.407-1.415.678-2.948.354-2.005.326-3.322-.081-3.807a.556.556,0,0,0-.486-.2.782.782,0,0,0-.569.3c-1.16,1.365-.417,6.617-.41,6.67l-.21.046c-.385-1.168-1.574-4.219-2.443-4.314-.165-.018-.314.085-.455.314-1.1,1.783,2.146,5,2.179,5.034Z" transform="translate(-525.216 5496.814)" fill="#42428e"/>
        <path id="Path_922807" data-name="Path 922807" d="M2151.905,1297.7s-3.518-3.457-2.308-5.426,3.254,4.23,3.254,4.23-1.059-7.33,1.135-7.457,0,7.457,0,7.457.814-1.768,1.608-1.878.568,1.5-.851,3.074" transform="translate(-1593.604 5558.688)" fill="#bed5dc"/>
        <path id="Path_922808" data-name="Path 922808" d="M2151.152,1287.432c-.166-.163-4.044-4.016-2.637-6.3a.833.833,0,0,1,.794-.5c.607.067,1.32.99,2.119,2.745.244.535.459,1.069.628,1.511-.194-1.919-.419-5.741.677-7.031a1.2,1.2,0,0,1,.863-.451.917.917,0,0,1,.8.335c.985,1.176.094,5.329-.395,7.273.365-.57.883-1.205,1.412-1.278a.522.522,0,0,1,.562.254c.319.565-.121,2.005-1.412,3.437l-.194-.162c1.269-1.408,1.616-2.738,1.38-3.156a.264.264,0,0,0-.3-.127c-.681.094-1.476,1.517-1.725,2.057l-.241-.084c0-.017.485-1.687.808-3.517.422-2.391.389-3.962-.1-4.541a.663.663,0,0,0-.58-.243.935.935,0,0,0-.679.361c-1.385,1.629-.5,7.893-.489,7.956l-.25.054c-.459-1.393-1.878-5.033-2.914-5.146-.2-.021-.375.1-.543.375-1.308,2.127,2.559,5.966,2.6,6Z" transform="translate(-1592.598 5569.038)" fill="#42428e"/>
      </g>
    </g>
  </g>
</svg>
