<svg xmlns="http://www.w3.org/2000/svg" xmlns:xlink="http://www.w3.org/1999/xlink" width="70" height="70" viewBox="0 0 70 70">
  <defs>
    <clipPath id="clip-path">
      <rect id="Rectangle_409161" data-name="Rectangle 409161" width="42" height="39.105" fill="#953c2d"/>
    </clipPath>
  </defs>
  <g id="Group_1119175" data-name="Group 1119175" transform="translate(-268.711 -958)">
    <circle id="Ellipse_5614" data-name="Ellipse 5614" cx="35" cy="35" r="35" transform="translate(268.711 958)" fill="#fff"/>
    <g id="Group_1119428" data-name="Group 1119428" transform="translate(282.711 974)">
      <g id="Group_1119427" data-name="Group 1119427" clip-path="url(#clip-path)">
        <path id="Path_925253" data-name="Path 925253" d="M10.357,9.323a5.345,5.345,0,0,1,4.675,5.008c.085,1.162.273,3.324-1.129,3.69-3.867-.09-8.31.436-12.135.1C.944,18.046.162,17.73.054,16.812a18.591,18.591,0,0,1,0-2.886,5.353,5.353,0,0,1,4.668-4.6C2.7,6.947,2.068,2.255,5.268.6c4.412-2.287,8.29,2.445,6.254,6.666Z" transform="translate(0 0.001)" fill="#953c2d"/>
        <path id="Path_925254" data-name="Path 925254" d="M206.208,9.553a5.285,5.285,0,0,1,4.674,4.734,17.787,17.787,0,0,1-.013,2.881,1.44,1.44,0,0,1-1.116,1.081c-3.85-.1-8.332.455-12.134.1a1.626,1.626,0,0,1-1.7-1.459c-.488-3.464.94-6.812,4.657-7.336l-1.164-2.061c-2-4.116,1.854-8.953,6.2-6.614,3.222,1.733,2.646,6.223.593,8.675" transform="translate(-168.934 -0.23)" fill="#953c2d"/>
        <path id="Path_925255" data-name="Path 925255" d="M108.216,162.607c3.855.437,5.085,3.865,4.672,7.351a1.5,1.5,0,0,1-1.439,1.308c-3.879.355-8.294-.281-12.232,0a1.523,1.523,0,0,1-1.3-1.3c-.414-3.506.811-6.9,4.672-7.351l-1.164-2.062c-3.385-9.623,11.344-9.623,7.96,0Z" transform="translate(-84.4 -132.272)" fill="#953c2d"/>
        <path id="Path_925256" data-name="Path 925256" d="M35.965,149.94c1.96-.318,1.925,2.2,2.366,3.475a13.957,13.957,0,0,0,2.341,4.114c.827.986,2.646,1.939,1.644,3.438-1.273,1.906-3.6-1.032-4.392-2.063a16.891,16.891,0,0,1-2.512-4.766c-.386-1.179-1.365-3.885.553-4.2" transform="translate(-30.036 -129.325)" fill="#953c2d"/>
        <path id="Path_925257" data-name="Path 925257" d="M220.3,149.932a1.532,1.532,0,0,1,1.829,1.415c.083,1.912-1.934,5.921-3.11,7.472-.789,1.041-3.167,4.065-4.453,2.14-1-1.5.818-2.452,1.644-3.438a13.958,13.958,0,0,0,2.341-4.114c.385-1.113.433-3.224,1.748-3.476" transform="translate(-184.851 -129.317)" fill="#953c2d"/>
        <path id="Path_925258" data-name="Path 925258" d="M110.04,23.705c.995-.995,5.873-1.118,7.3-1.005a13.492,13.492,0,0,1,3.742.928,1.494,1.494,0,0,1,.388,2.1c-.853,1.225-2.081.365-3.206.17a13.8,13.8,0,0,0-4.474-.16,14.867,14.867,0,0,1-3.03.525,1.528,1.528,0,0,1-.718-2.556" transform="translate(-94.556 -19.553)" fill="#953c2d"/>
      </g>
    </g>
  </g>
</svg>
