<svg xmlns="http://www.w3.org/2000/svg" xmlns:xlink="http://www.w3.org/1999/xlink" width="70" height="70" viewBox="0 0 70 70">
  <defs>
    <clipPath id="clip-path">
      <rect id="Rectangle_409160" data-name="Rectangle 409160" width="42" height="42" fill="#953c2d"/>
    </clipPath>
  </defs>
  <g id="Group_1119174" data-name="Group 1119174" transform="translate(-269 -958)">
    <circle id="Ellipse_5614" data-name="Ellipse 5614" cx="35" cy="35" r="35" transform="translate(269 958)" fill="#fff"/>
    <g id="Group_1119426" data-name="Group 1119426" transform="translate(282.57 972)">
      <g id="Group_1119425" data-name="Group 1119425" clip-path="url(#clip-path)">
        <path id="Path_925248" data-name="Path 925248" d="M162.457,102.327a4.269,4.269,0,0,1,.141.731c.506,6.421-.4,13.494,0,19.984.079.2-.188.729-.343.729H139.532c.149-1.086,1.985-.626,2.719-1.2a1.569,1.569,0,0,0,.368-.875,14.686,14.686,0,0,0-.153-3.606c-.45-.8-2.357-.532-2.787-1.1-.805-1.064.784-1.9.92-2.811.117-.78-.322-.892-.4-1.459-.054-.375-.077-1.152.207-1.414h5.9a5.17,5.17,0,0,0,.746-.461c.885-.867-.041-3.689.661-4.03,1.962-.336,4.465.226,6.361-.074a1.689,1.689,0,0,0,1.147-1.266v-2.949l.2-.2Z" transform="translate(-120.756 -88.612)" fill="#953c2d"/>
        <path id="Path_925249" data-name="Path 925249" d="M11.932,158.372c.257,1.582.275,2.829,2.117,3.181,1.092.209,2.116-1.292,2.621-1.163l2.048,2,0,.258c-.555.9-1.322,1.4-1.086,2.562.39,1.914,1.612,1.545,3.141,2.02l.025,2.987c-.866.384-2.185.168-2.744,1.028-1.083,1.667-.1,2.373.711,3.789l-2,2.036c-.456.228-1.621-1.376-2.849-1.117a7.827,7.827,0,0,0-1.023.452c-.84.543-.754,1.838-.957,2.729l-2.989.012c-.488-.756-.213-2.128-.98-2.666-1.661-1.165-2.435-.227-3.849.636a20.593,20.593,0,0,1-2.036-2c-.257-.561,1.33-1.65,1.121-2.711a12.641,12.641,0,0,0-.53-1.222c-.452-.717-1.893-.659-2.65-.9L0,167.3c1.609-.63,2.623-.123,3.132-2.124.331-1.3-1.26-2.205-1.1-2.829A20.753,20.753,0,0,1,3.9,160.439c.616-.28,1.653,1.265,2.708,1.117a6.332,6.332,0,0,0,1.585-.739c.372-.473.449-2.246.654-2.393Zm-2.708,3.781c-8.111,1.1-6.893,14.212,1.962,13.22,8.483-.95,7.4-14.486-1.962-13.22" transform="translate(0 -137.146)" fill="#953c2d"/>
        <path id="Path_925250" data-name="Path 925250" d="M51.43,0l-.688,7.55c-.653-.278-1.74-2.109-2.509-1.728-3.064,2.622-5.846,6.45-8.931,8.938-1.727,1.393-3.638,2.008-5.739.927-1.875-.965-3.838-4.239-5.593-5.392a1.7,1.7,0,0,0-2.41.111c-2.851,2.151-5.474,6.061-8.378,8.326a1.843,1.843,0,0,1-2.615-2.386l9.391-9.374C29.04,3.39,31.49,9.947,34.731,12a1.646,1.646,0,0,0,1.424.315c1.442-.3,7.491-7.685,9.207-8.889.6-1.3-.992-1.806-1.485-2.74Z" transform="translate(-12.411)" fill="#953c2d"/>
        <path id="Path_925251" data-name="Path 925251" d="M51.976,254.531c-.22-.378.783-1.3,1.066-1.509a3.887,3.887,0,0,1,5.742,1.312,5.487,5.487,0,0,1-6.809.2" transform="translate(-44.981 -218.454)" fill="#953c2d"/>
        <path id="Path_925252" data-name="Path 925252" d="M66.794,207.556a1.657,1.657,0,0,1,.644,3.189c-2.382.845-3.148-3.046-.644-3.189" transform="translate(-56.499 -179.736)" fill="#953c2d"/>
      </g>
    </g>
  </g>
</svg>
